<svg xmlns="http://www.w3.org/2000/svg" viewBox="0 0 319.85 334.12"><defs><style>.cls-1{fill:#ce0e2d}</style></defs><g id="Layer_2" data-name="Layer 2"><g id="Layer_1-2" data-name="Layer 1"><path class="cls-1" d="M152.79 297.93a130.33 130.33 0 01-92.46-38.32c23.44-11.82 49.1-22.53 72.84-24.7 17.07-1.56 31.15.18 34.12 5.15s-2.49 16.76-9 24.67c0 0 66.41-3 90-54.76 13.6-27.49 6.22-60.38-16.29-81.32-8-7.45-22.72-18.35-27.31-21.33-8.42-5.47-18.36-21.31-35.91-29C154.4 72 118.5 60.7 90.22 52.15a130.86 130.86 0 1162.57 245.78m0-297.93a166.83 166.83 0 00-134 67.31c30.9 9.06 122.7 36.8 135.14 42.38 11.06 5 17.6 15.71 23.88 20.71 4.9 3.91 9.59 7.4 14.18 10.73 11.37 8.22 37 23.71 26.19 54.25-2.82 8-9.19 14.88-16.65 19.68.44-2.6 1.68-8-1.66-11.55-3.94-4.23-21-8.73-44.38-6.22-23.75 2.53-56.14 11.43-90.3 30 7.14-9.9 20.08-24 31.67-28.69-2-1.17-77.63 27.7-96.84 36A167.06 167.06 0 10152.79 0"/><path class="cls-1" d="M150 124.28c-.18 17.32-13.74 23.94-26.31 22.17-12.75-1.79-24.48-12.2-20.24-28.81-.63-1.79-5.13-2.68-10.64-1.34 16.4-16.73 35.94 8.82 57.19 8"/></g></g></svg>