<svg xmlns="http://www.w3.org/2000/svg" viewBox="0 0 67.86 68.34"><defs><style>.cls-1{fill:#1c2524}.cls-2{fill:#d2153a}.cls-3{fill:#fff}</style></defs><g id="Layer_2" data-name="Layer 2"><g id="Layer_1-2" data-name="Layer 1"><g id="layer1"><g id="g8"><path id="path10" class="cls-1" d="M61.86 26.32c-.21-4.09-2-7.84-3.14-10l-.62-1.23.07 1.09c.14 1.44.48 6.48-1 9.35-1.91 3.88-7.37 3.54-9.21 3.41h-.13c-2.94-.21-12.55-.55-15.55-.55-3.89 0-8.19.34-11.66.61-1.71.14-3.14.21-4.16.28h-.35c-4.84.47-7.91-1-9.13-4.23-.75-2.05-.69-6-.69-7.91v-1.39l-.4.69a25.61 25.61 0 00-3.14 10c-.36 6.23 2.84 8.41 5.25 9.5a16.48 16.48 0 006 1.43h.07a1.63 1.63 0 01.54.07 3.21 3.21 0 01.82.07c-.41.07-1 .2-1.57.27s-1.09.21-1.36.27c-.61.07-3 .69-4.36 1.1-1.1.41-2.32 1-2.32 1l-.21.14.14.2a10.32 10.32 0 00.82 1 7.92 7.92 0 006.13 2 12.42 12.42 0 004-1.09c.2.48.54 1.64.88 2.53 1 2.59 3.41 7.57 4.3 9.27.75 1.36 1.43 2.59 1.91 3.41l.21.27a2.55 2.55 0 01-.81 1.12c-.07.07-.14.07-.21.14l-.07.07v.07a11.74 11.74 0 002.8 7.91l.07.06a17.13 17.13 0 006.41 1.1 17.5 17.5 0 006.68-1.16v-.07h.07a14.48 14.48 0 003-7.37v-.07l-.07-.06c-.06-.07-.13-.07-.2-.14a3.3 3.3 0 01-.89-1.57c.21-.41.68-1.43 1.09-2.25.28-.48.41-.89.55-1.09.82-1.71 3.34-7.09 4.36-9.62a18.15 18.15 0 011.16-2.73 10.88 10.88 0 003.89 1 7.8 7.8 0 006.41-2.73c.14-.13.41-.41.41-.41l.14-.2-.21-.14c-.06 0-.13 0-.54-.2l-3.28-1a30.26 30.26 0 00-3.82-.88l-1.09-.28.34-.06c3.35-.63 12.21-2.2 11.67-11z"/></g><g id="g12"><path id="path14" class="cls-2" d="M5.87 17.46a26.39 26.39 0 00.47 7c-.47-.41-1-1-1.5-1.37-.48.48-.88 1-1.36 1.5a28.77 28.77 0 012.39-7.13z"/></g><g id="g16"><path id="path18" class="cls-2" d="M61 23.53l.14.61-1.14-.82c-.55.21-1 .55-1.57.82a28.55 28.55 0 00.34-6.82A33.65 33.65 0 0161 23.53z"/></g><g id="g20"><path id="path22" class="cls-2" d="M32.33 45.15a5 5 0 005.59 1.91 11.21 11.21 0 002.25-.75 20.22 20.22 0 00-1 6.48 19.54 19.54 0 00.83 5.66 10 10 0 00-.88-.48 16.57 16.57 0 00-14.26.14c.21-.69.41-1.37.55-2a16.92 16.92 0 00-.89-9.41c2.25 1 5.46 1.16 7.3-1 .23-.14.3-.35.51-.55z"/></g><g id="g24"><path id="path26" class="cls-2" d="M23 46.72c-.13 1-.41 1.91-1.36 2.25a2 2 0 01-2-.75 2.41 2.41 0 01-.48-.89c1.16.75 2.73.14 3.75-.61z"/></g><g id="g28"><path id="path30" class="cls-2" d="M45.49 46.85a2.56 2.56 0 01-1.84 1.78 1.58 1.58 0 01-1.57-.75 2.3 2.3 0 01-.34-1 3.39 3.39 0 003.75-.03z"/></g><g id="g32"><path id="path34" class="cls-2" d="M43.17 49.17a2.9 2.9 0 001.3-.13 92 92 0 01-4.1 8.66 11.44 11.44 0 01-.27-4.57 29.77 29.77 0 011.23-5.53 2.64 2.64 0 001.84 1.57z"/></g><g id="g36"><path id="path38" class="cls-2" d="M24.48 57.7A69.43 69.43 0 0120 49.17a2.23 2.23 0 002.18.07 2.92 2.92 0 001.16-1.7 16.16 16.16 0 011.14 10.16z"/></g><g id="g40"><path id="path42" class="cls-2" d="M41.33 60a13 13 0 01-2.87 6.75 17.3 17.3 0 01-12.41.06 11.29 11.29 0 01-2.66-7.29 15.35 15.35 0 0117.94.48z"/></g><g id="g44"><path id="path46" class="cls-2" d="M56.6 39.49a31.74 31.74 0 00-10.43-2 32.5 32.5 0 00-1.5-8.25c-1.7-.14-9.48-.41-12.41-.41s-10.57.48-12.35.54a34.08 34.08 0 00-1.84 8.32A43.06 43.06 0 007 40a6.14 6.14 0 00-.69.34A7.16 7.16 0 0011.66 43a12.32 12.32 0 004.23-.68 10 10 0 011-.47 7.67 7.67 0 01.34.75c.34.95.75 2.31 1 2.93a2.72 2.72 0 002.38 1.63 2.79 2.79 0 001.91-1c-3-.2-4.22-1.77-4.43-4.23-.75-.13-.95-.2-1-.54a2 2 0 01.34-1.3c.34-.41.89-.89 2.32-.41A5.21 5.21 0 0122 41.06a45.36 45.36 0 003.55 3.07c1.16.68 3.34 1.29 4.77-.14a5.79 5.79 0 001.77-3.21 68.33 68.33 0 01-6.82-.61c-.61-.07-.34-.68.14-.55a61.13 61.13 0 006.75.55v-1.5a44.14 44.14 0 01-6.95-.75c-.55-.14-.48-.75.06-.62a44.69 44.69 0 007 .75v-1.9a39.54 39.54 0 01-6.89-.62c-.54-.07-.48-.54 0-.54a48 48 0 006.89.54V34c0-.54.48-.61.48 0 0 .21.07.75.07 1.5a48.18 48.18 0 006.47-.61c.69-.14.62.41.28.48a49.89 49.89 0 01-6.82.75c0 .54.07 1.29.07 1.84a36.07 36.07 0 006.61-.62c.75-.13.82.48.14.55a64.73 64.73 0 01-6.75.75 12 12 0 00.06 1.5 65.28 65.28 0 007-.61c.54-.14.68.47.07.54a66.21 66.21 0 01-7 .61c.27.89.27 2.12 1.5 3.14A4.22 4.22 0 0039 44a26 26 0 003.41-3.07 5.31 5.31 0 013.41-1.57c1.57 0 1.64.89 1.7 1.09s.14.75-.2 1-.55.13-.82.27a5.45 5.45 0 01-1.7 3.61 6.44 6.44 0 01-2.87 1l.34.34a2.24 2.24 0 001.57.41 3.48 3.48 0 001.91-1 16.89 16.89 0 001.43-3.14c.14-.34.48-.95.55-1.23l1.09.48a12.62 12.62 0 004 .68 8.55 8.55 0 004.7-2.11A7.31 7.31 0 0058 40s-1-.44-1.4-.51z"/></g><g id="g48"><path id="path50" class="cls-1" d="M38.67 60.36a1.83 1.83 0 01-.27 1.77 2.55 2.55 0 01-2.6.82 2.26 2.26 0 01-1.43-1.09c-.2.47.21.88.14 1.29a.16.16 0 01-.27.07 2.53 2.53 0 01-.24-2.66 2.92 2.92 0 012.9-1.36 2.4 2.4 0 011.77 1.16z"/></g><g id="g52"><path id="path54" class="cls-1" d="M30.42 60.77a2.42 2.42 0 01-.21 2.52c-.07.14-.13.27-.27.14s.06-.43.06-.69a1 1 0 00.07-.61 2.62 2.62 0 01-2.66 1.09 2.28 2.28 0 01-1.71-1.43 1.75 1.75 0 01.21-1.43 2.69 2.69 0 013.09-.75 2.39 2.39 0 011.42 1.16z"/></g><g id="g56"><path id="path58" class="cls-1" d="M38.6 66c-.07.13-.14.13-.27.34-.34-.14-.75-.27-1.16-.41a15.27 15.27 0 00-11 .41c-.07-.14-.14-.21-.21-.34a15.91 15.91 0 0112.64 0z"/></g><g id="g60"><path id="path62" class="cls-1" d="M39.21 47.81c-.61 2.73-2.31 5.79-5.11 6.54a6.07 6.07 0 01-6.34-1.7 9.09 9.09 0 01-1.84-4.77.83.83 0 01.41-.07c.2 2.52 1.56 5.39 4.09 6.2a6.09 6.09 0 006.41-1.91 10.93 10.93 0 002-4.43.36.36 0 01.38.14z"/></g><g id="g64"><path id="path66" class="cls-1" d="M5.66.75a2.84 2.84 0 00-2-.75C2.93.07 0 1 0 5.39s2.66 5.73 4.23 5.73a4 4 0 003.68-3.35c.07-.27 0-.34-.27-.47l-1-.41c-.28-.07-.28-.07-.41.34S5.66 8.8 4.57 8.8s-1.5-1.57-1.5-3.21.27-3.13 1.57-3.13 1.57 1.36 1.7 1.9c0 .21.07.21.28.21h1c.2 0 .2 0 .2-.48V.61c0-.27 0-.27-.4-.27h-.87c-.21 0-.21.07-.34.27a.32.32 0 01-.55.14z"/></g><g id="g68"><path id="path70" class="cls-1" d="M44.6 2.46l2 6.27c.07.27.07.27.2.27h.35c.34 0 .34 0 .34.27v1.23c0 .34 0 .41-.28.41h-3.9c-.34 0-.34-.07-.34-.27V9.41C43 9 43 9 43.24 9h.41c.2 0 .2 0 .13-.27l-.34-1c-.07-.2-.13-.2-.34-.2h-2.39l.48-1.43h1.5c.21 0 .28 0 .21-.21L42 3.21c-.07-.21-.14-.21-.2 0l-.89 2.72c0 .21 0 .21.27.21l-.48 1.43c-.27 0-.27 0-.34.2l-.34 1C40 9 40 9 40.17 9h.41c.27 0 .27.07.27.41v1.23c0 .2 0 .27-.34.27h-2.73c-.2 0-.2-.07-.2-.41V9.27c0-.27 0-.27.34-.27h.27a.28.28 0 00.27-.2l2-6.34c.07-.14.07-.21-.2-.21h-.41c-.27 0-.34 0-.34-.27V.75c0-.41.07-.41.47-.41h5.26c.27 0 .27.07.27.41v1.16c0 .27 0 .27-.41.27h-.41c-.16 0-.16.07-.09.28z"/></g><g id="g72"><path id="path74" class="cls-1" d="M54 7.16h.68c.35 0 .35.07.35.27a1.47 1.47 0 01-1.56 1.37C52.38 8.8 52 7.23 52 5.59s.27-3.13 1.57-3.13a1.58 1.58 0 011.63 1.29c.07.21.07.21.34.21h1c.2 0 .2 0 .2-.48V.61c0-.27-.07-.27-.47-.27h-.82c-.21 0-.21.07-.28.27a.37.37 0 01-.61.14A2.8 2.8 0 0052.58 0c-.82.07-3.68 1-3.68 5.39s2.59 5.73 4.16 5.73c2.38 0 4.23-1.85 4.23-5.26 0-.34 0-.34-.48-.34h-2.87c-.27 0-.27 0-.27.28V7c0 .16 0 .16.33.16z"/></g><g id="g76"><path id="path78" class="cls-1" d="M63.22.34c-2.59 0-4.7 2.39-4.7 5.39s2.11 5.39 4.7 5.39 4.64-2.39 4.64-5.39S65.74.34 63.22.34l-.07 1.91c1 0 1.78 1.57 1.78 3.48s-.82 3.48-1.78 3.48-1.7-1.57-1.7-3.48.75-3.48 1.7-3.48z"/></g><g id="g80"><path id="path82" class="cls-1" d="M10.84 8.8V2.52c0-.2-.06-.27-.27-.27h-.27c-.34 0-.34 0-.34-.2V.61c0-.2 0-.27.34-.27H14c.27 0 .34.07.34.34v1.23c0 .27 0 .27-.34.27h-.2c-.14 0-.14 0-.14.28v1.77c0 .48 0 .48.34.48h2c.41 0 .41 0 .41-.48V2.46c0-.28-.07-.28-.21-.28H16c-.34 0-.34 0-.34-.27V.68c0-.27.07-.34.34-.34h3.68c.41 0 .41.07.41.27v1.44c0 .2-.07.2-.34.2h-.34c-.21 0-.21 0-.21.27V8.8c0 .2 0 .2.28.2h.34c.27 0 .27 0 .27.41v1.23c0 .2 0 .27-.34.27h-3.93c-.27 0-.27 0-.27-.41V9.27c0-.27 0-.27.34-.27h.2c.21 0 .21 0 .21-.27V6.82c0-.48 0-.48-.34-.48H14c-.27 0-.34.07-.34.48v1.91c0 .27 0 .27.27.27h.14c.34 0 .34 0 .34.27v1.23c0 .34 0 .41-.27.41H10.3c-.34 0-.34 0-.34-.27V9.41C10 9 10 9 10.23 9h.27c.34 0 .34 0 .34-.2z"/></g><g id="g84"><path id="path86" class="cls-1" d="M22.78 2.46c0-.28 0-.28-.14-.28h-.41c-.27 0-.34 0-.34-.27V.68c0-.27.07-.34.34-.34h3.69c.41 0 .41.07.41.27v1.44c0 .2 0 .2-.35.2h-.13c-.27 0-.27 0-.27.27V8.8c0 .2 0 .2.27.2h.27c.27 0 .27 0 .27.41v1.23c0 .2 0 .27-.34.27h-3.89c-.2 0-.27 0-.27-.41V9.27c0-.27 0-.27.34-.27h.34c.21 0 .21 0 .21-.27z"/></g><g id="g88"><path id="path90" class="cls-1" d="M33.42.75A2.67 2.67 0 0031.51 0c-.75.07-3.68 1-3.68 5.39s2.59 5.73 4.16 5.73a3.94 3.94 0 003.68-3.35c.13-.27.07-.34-.28-.47l-1-.41c-.2-.07-.2-.07-.41.34s-.56 1.57-1.59 1.57-1.5-1.57-1.5-3.21.28-3.13 1.57-3.13S34 3.82 34.1 4.36c.07.21.07.21.34.21h1c.21 0 .21 0 .21-.48V.61c0-.27-.07-.27-.41-.27h-.94c-.13 0-.13.07-.27.27s-.27.39-.61.14z"/></g><g id="g92"><path id="path94" class="cls-1" d="M10.23 15.82V22c0 .2-.07.27-.27.27h-.34c-.21 0-.28 0-.28.27v1.3c0 .27.07.27.34.27h5.73l-2-2c-.34 0-.4 0-.4-.4V20c0-.34.06-.41.4-.41V18c-.4 0-.4-.06-.4-.4v-1.78c0-.41 0-.41.4-.41s1.85.07 1.85 1.37S13.91 18 13.43 18v1.57c.41 0 1.85.07 1.85 1.37s-1.37 1.22-1.85 1.22l2 2a2.6 2.6 0 002.46-2.73 2.93 2.93 0 00-1.64-2.59 3.12 3.12 0 001.43-2.52 2.83 2.83 0 00-2.59-2.66H9.82c-.41 0-.48 0-.48.34v1.3c0 .2 0 .27.34.27H10c.23-.02.23-.02.23.25z"/></g><g id="g96"><path id="path98" class="cls-1" d="M27.62 15.75v5.39a3.13 3.13 0 01-3.41 3.34 3.69 3.69 0 01-4-3.34v-5.39c0-.2-.06-.2-.27-.2h-.34c-.27 0-.27-.07-.27-.34v-1.16c0-.41 0-.41.41-.41h3.61c.27 0 .34 0 .34.34v1.23c0 .27 0 .27-.41.27h-.27c-.2 0-.2 0-.2.21v5.25a1.56 1.56 0 001.56 1.5 1.49 1.49 0 001.64-1.5v-5.19c0-.27-.07-.27-.27-.27h-.27c-.34 0-.34 0-.34-.27V14c0-.34 0-.34.27-.34h2.73c.47 0 .47 0 .47.34v1.23c0 .27 0 .34-.34.34h-.41c-.16-.02-.23-.02-.23.18z"/></g><g id="g100"><path id="path102" class="cls-1" d="M40.37 22.3H40c-.27 0-.27 0-.27.34v1.23c0 .27 0 .27.27.27h6.75c.28 0 .35 0 .35-.41v-3c0-.27 0-.34-.35-.34h-1c-.34 0-.34.07-.34.41v1.09c0 .41 0 .41-.34.41h-1.35c-.48 0-.48-.07-.48-.34v-6.07c0-.41 0-.41.2-.41h.41c.27 0 .27-.07.27-.27V14c0-.34 0-.34-.34-.34h-3.61c-.41 0-.41 0-.41.34v1.23c0 .27 0 .34.27.34h.34c.21 0 .28 0 .28.34V22c0 .23-.07.3-.28.3z"/></g><g id="g104"><path id="path106" class="cls-1" d="M56 21.21a3.28 3.28 0 01-3 3.21 3.12 3.12 0 01-1.91-.69.43.43 0 00-.68.14c-.21.27-.21.27-.34.27h-.41c-.48 0-.48 0-.48-.2V21c0-.41.07-.41.21-.41h.68c.27 0 .27 0 .34.2a2 2 0 001.84 1.43c.55 0 .95-.13.95-.61 0-1-.54-1.16-1.56-1.71S49 18.75 49 16.5a3.21 3.21 0 013-3.13 2.91 2.91 0 011.84.68.43.43 0 00.68-.14c.14-.34.14-.34.27-.34h.48c.41 0 .41 0 .41.27v2.87c0 .48 0 .48-.21.48h-.61c-.27 0-.27 0-.34-.21a2.13 2.13 0 00-2-1.43.67.67 0 00-.75.68c0 .62.68 1.16 1.91 1.71A3.46 3.46 0 0156 21.21z"/></g><g id="g108"><path id="path110" class="cls-1" d="M31 22.3h-.34c-.27 0-.27 0-.27.34v1.23c0 .27 0 .27.27.27h6.75c.27 0 .34 0 .34-.41v-3c0-.27 0-.34-.34-.34h-.95c-.34 0-.34.07-.34.41v1.09c0 .41 0 .41-.35.41h-1.4c-.48 0-.48-.07-.48-.34v-6.07c0-.41 0-.41.21-.41h.41c.27 0 .27-.07.27-.27V14c0-.34 0-.34-.34-.34h-3.61c-.41 0-.41 0-.41.34v1.23c0 .27 0 .34.27.34H31c.21 0 .27 0 .27.34V22c.03.23-.03.3-.27.3z"/></g><g id="g112"><path id="path114" class="cls-3" d="M7 26.19c1.43 2.79 4.43 3.75 7.43 3.61 1.7 0 3.34-.2 5-.34v.14a39.31 39.31 0 00-1.84 7.4c-4.36.14-8.79-.2-12.07-3.13a9.33 9.33 0 01-2.25-8.26c.55-.61 1.09-1.15 1.57-1.77.75.71 1.91 1.33 2.16 2.35z"/></g><g id="g116"><path id="path118" class="cls-3" d="M61.24 24.89a10 10 0 01.21 1.3 8.54 8.54 0 01-4.16 8.18A20.67 20.67 0 0146.72 37a6.56 6.56 0 01-.14-1.16 51.92 51.92 0 00-1.36-6.61c4.09 0 9.13 1.09 11.86-2.73.34-.55.69-1 1-1.57.62-.27 1.23-.68 1.78-.95a13.63 13.63 0 011.38.91z"/></g><g id="g120"><path id="path122" class="cls-3" d="M45.62 41.94a3.42 3.42 0 01-1.56 3.21 4 4 0 01-1.78.41.43.43 0 010-.41 2.73 2.73 0 002.32-1.09 3.64 3.64 0 00.48-1.91.76.76 0 01.54-.21z"/></g><g id="g124"><path id="path126" class="cls-3" d="M22.37 45.42a1.74 1.74 0 01-.61 0 3.06 3.06 0 01-3-3.27.74.74 0 01.55 0c0 1.16.48 2.79 3 2.79.13.28-.01.28.06.48z"/></g></g></g></g></svg>