<svg xmlns="http://www.w3.org/2000/svg" viewBox="0 0 85.7 85.53"><defs><style>.cls-1{fill:#fff}.cls-2{fill:#c4ced4}.cls-3{fill:#1061ac}</style></defs><g id="Layer_2" data-name="Layer 2"><g id="Layer_1-2" data-name="Layer 1"><path d="M6.63 6.43s1.94 23.48 10.59 41.49A69.19 69.19 0 013.1 41.74l14.47 37.08S25 74.23 31.7 73.7c0 0 7.24 9.53 10.77 11.83 3.53-2.3 10.24-12 10.24-12 6.71.53 13.59 5 13.59 5l15-36.73a85.11 85.11 0 01-12.89 6.18c7.77-18 10.42-41.66 10.42-41.66L63.3 10.85H21.63l-15-4.42z"/><path class="cls-1" d="M21.63 11.93h41.83l14.09-4.16c-.76 5.63-3.68 24.77-10.13 39.72l-1.3 3.08s13.36-4.44 19.58-7.77c-1.91 4.68-13.63 32.06-14.45 34.08-2.3-.71-13.1-4-18.46-4.44h-.62l-.36.52c-1.71 2.47-6.48 9-9.35 11.28C39 81.43 32.63 73.13 32.56 73l-.36-.47-.59.05c-5 0-17.57 3.37-19 5C11.14 73.75 1.1 46 0 43.16c6.54 3.39 19.17 7 19.17 7l-1.09-2.69c-7.19-14.95-9.6-34-10.21-39.51l13.61 4z"/><path class="cls-2" d="M9.28 9.79L19.87 13h45.2l10.41-3.39S74.6 25.68 66 46.86A109.37 109.37 0 0142.29 82S24.81 62.93 17.93 43.68A172.69 172.69 0 019.28 9.79z"/><path class="cls-3" d="M2.57 45.63s14.65 6.53 28.78 8.12 23.12.18 23.12.18a107.42 107.42 0 0027.72-8.3L69.66 74.94a103.34 103.34 0 00-16.07-3.54 127.31 127.31 0 00-23.13 0c-5.29.71-16.77 3.89-16.77 3.89L2.57 45.63z"/><path class="cls-1" d="M68.19 25.41C68.19 11.78 56.72.72 42.56.72S16.94 11.78 16.94 25.41s11.47 24.68 25.62 24.68S68.19 39 68.19 25.41z"/><path d="M16.21 25.41c0 14 11.83 25.41 26.35 25.41s26.35-11.4 26.35-25.41S57.09 0 42.56 0 16.21 11.4 16.21 25.41zm1.45 0c0-13.21 11.17-24 24.9-24s24.9 10.75 24.9 24-11.17 24-24.9 24-24.9-10.75-24.9-24z"/><path class="cls-3" d="M66.52 32.45A23.33 23.33 0 1143.2 9.12a23.32 23.32 0 0123.32 23.33z"/><path d="M67.39 32.45a24.19 24.19 0 11-7.08-17.11 24.19 24.19 0 017.08 17.11zm-1.74 0A22.46 22.46 0 1043.2 54.9a22.39 22.39 0 0022.45-22.45z"/><path d="M41.19 7s-1.08 1-1.08 1.77c0 0 4.56 2.41 5.55 4.15a10.66 10.66 0 013.07-.5 13.47 13.47 0 013.23.91 18.82 18.82 0 00-2.4 1.5c-.41.41-1.41 1.82-1.41 1.82A16.28 16.28 0 0055 19.14a10.72 10.72 0 005.8-.83l.75.33-.25.5a17.25 17.25 0 01-2.65.83 21 21 0 01-3.65.49 24 24 0 01-5-.91l.25 1.25a4 4 0 00-2.49-1.25v.58A30.15 30.15 0 0154 23.7a40.59 40.59 0 015.42 5.3 14.89 14.89 0 013.15 5.64 20.55 20.55 0 01.83 5l.75.42-1.58 3.4-.24-1.25a24.25 24.25 0 00-1-5.88c-.91-2.82-2.57-4.64-4.06-6.47s-6.13-4.86-7.13-5.34a20.4 20.4 0 011.66 4.15 6.35 6.35 0 00-2.57-1.57s1.16.91 3.65 5 2.23 9.7 2.23 9.7a54 54 0 01-.66 6.2c-.41 1.83-.91 2.24-.91 2.24l-.42-2.07a20.63 20.63 0 00.42-7.29c-.5-4-1.41-8.21-4.39-10.86a13.89 13.89 0 01.49 4.06 12.65 12.65 0 01-1.32 3.81s-.42-3.89-1.58-4c0 0 0 1.08-.08 1.83s-.83 2.15-.33 3.31a42.64 42.64 0 011.32 4.56c.09.33.25 1.24.25 1.24s.17.34-.33.75-2.24 1.91-2.24 1.91-1.32.74-.49 1a47.77 47.77 0 005.55.25s5.31-.41 8.54-3a32.84 32.84 0 005.8-6.39l-1.08 4.73a16.21 16.21 0 01-6.13 7.63c-4.52 2.82-12.93 7.8-24.79 2.66A24.54 24.54 0 0118.64 38a19.27 19.27 0 01-.83-4.89c.17-1.5-.66-3.32.91-3.32 0 0 0-2.49.83-3.32l.45-1.7s.58-4.22 3.48-6.63c0 0 1.57-1.9 1.91-2.15s.49-1.16.49-1.16l2-1.91 1.08-.17a24.38 24.38 0 013.48-2c.58-.09 2.32-4 8.79-3.82z"/><path class="cls-1" d="M43.34 50.3c-3.15-.49-3.73-.82-5.72-2.15a8.66 8.66 0 01-2.81-3 6.07 6.07 0 004 .25 13.35 13.35 0 002.82-1.74 1.32 1.32 0 00.33-1.41 29.2 29.2 0 01-.25-3.15 10.36 10.36 0 00-.36-2.1l-.74 1.66-.25-.66a9 9 0 01-.5-2.16c-.08-.66-.5-2.07-.66-2.9s-.5-2.9-.5-2.9-1.08-4.04-1.16-4.27.17-.75.17-.75a4.1 4.1 0 001.41 1.83 4.8 4.8 0 002.07.74 30.42 30.42 0 01-3.4-4 22 22 0 01-1.58-4.89c-.24-.91.17-1.24.17-1.24l.5.91 1.41.25c-1.66-5.47-.92-7.3-.75-8A15.67 15.67 0 0139.36 8h-.74A11.49 11.49 0 0035 10s-1.91 1.32-2 2.9-1.41 2.49-2.07 3.32A24 24 0 0028.42 21a11.72 11.72 0 00-.25 6.3 11.11 11.11 0 002.41 4.06c.58.58.25.66-.5.42a7.5 7.5 0 01-2.74-1.66c-.66-.75-.66-.25-.66.16a28.75 28.75 0 001.82 4.15c.34.58-.24.33-.82-.17a21.78 21.78 0 01-1.74-1.9 19.75 19.75 0 00.91 2.32 56 56 0 003.89 5.8s3.07 1.91-.08 1.08a16.31 16.31 0 01-4.81-2l1.08 2s4.73 6.46 9 8.37a24 24 0 0010.27 1.74 29.39 29.39 0 005.31-.91 61.07 61.07 0 01-8.21-.42zM38 40.19c.75-1.49 1.66-.41 1.83.83s.25 2.32.25 2.32c-1.58-4.14-1.41-.74-1.41-.74-2-.34-.67-2.41-.67-2.41zm-2.86-28.93a8.41 8.41 0 011.16-1.49s1.7-1.16 1.49-.83-1.66 3.32-1.66 3.32h-.41l-1.33 1.24s.66-1.91.75-2.24zm-.91 7.3a2.39 2.39 0 01.66-.92 8.66 8.66 0 00.16 2.74 12 12 0 001.5 3.23 1.87 1.87 0 01-1.41-.33 2.77 2.77 0 01-1.33-2.07 11.5 11.5 0 01.42-2.65zm-2.41 2.24a5.34 5.34 0 01.91-2.24 5.45 5.45 0 00-.25 3.06 9.23 9.23 0 001.83 3.32.94.94 0 00.58-.08l.91.74.75 2.74a11.83 11.83 0 01-3.15-2.65 7.65 7.65 0 01-1.58-4.89zM32 37.21c-1-1.66-2.32-4.06-2.32-4.06l2.57.58s3.14 7.12 3.39 7.29.09.75.09.75l-.5-.34A39.2 39.2 0 0132 37.21z"/><path class="cls-2" d="M27.84 15.24s-.74 1.24-.33 1.74c0 0 2.49-3 4-3.48A22.47 22.47 0 0027 20.05a26.07 26.07 0 00-1.32 10.36s-1.74-4.56-.75-7.87c0 0-2.15 2-1.49 7S28 39.2 28 39.2a16.71 16.71 0 01-3.22-2.2A11.67 11.67 0 0123 34.31a21.24 21.24 0 004.89 11.6 21.8 21.8 0 0014.09 7.71c3.9.58 10.53-.33 16.42-4.23 0 0-6.06 5.22-14.1 5.39a24.08 24.08 0 01-17.78-7.38c-3-3.4-7.22-10.36-6.39-16 0 0 .33 4.4 2.16 6.39 0 0-1.74-7.38-1.58-10.36s1.66-6.06 2.57-6.72c0 0-1.41 3.07-.83 4.48 0 0 1.41-4.31 2.49-5.22a3.08 3.08 0 001.16-2.08 4.93 4.93 0 011.74-2.65z"/><path class="cls-2" d="M37 37.46l-.16-4a6.74 6.74 0 00-.17-2 7.28 7.28 0 010-2.41l.5 1.25a7.6 7.6 0 01.16 1.07 5.88 5.88 0 00.67 2.19 36 36 0 011.16 4.31 2.13 2.13 0 00-2.16-.41zM37.46 41.1a6.52 6.52 0 01.41-1.9c.25-.25 1.25-1.08 1.83.08a5.21 5.21 0 01.41 3.72s-.33-5.72-2.65-1.91zM46 13.67l.91 1.4a1.85 1.85 0 011.24-1.4 6.86 6.86 0 012.65-.42 7.59 7.59 0 00-2.65-.33 9.37 9.37 0 00-2.15.75zM44.17 19a9.83 9.83 0 001.24-2.49l.42-1.24.17 1.13a29.78 29.78 0 01.16 4.23 18.17 18.17 0 01-.58 4.14 8.89 8.89 0 01-1.32 2.41 16.43 16.43 0 001-4.73c.41-3.56.16-3.56.16-3.56a11.64 11.64 0 01-1.49 2.82 12.55 12.55 0 00-.74-2.66 5.82 5.82 0 00-1.66-1.9s.66 1.9 1.16 4a27.41 27.41 0 01.33 5.8s-.83-3.32-1.91-7.21a29.92 29.92 0 00-2.56-6.47A29.94 29.94 0 0142 16a30 30 0 012.15 3zM36.46 17.73s1.91 3.07 1.16-3.48c0 0 1.66 6 1.74 6.13s.34 1.16-.33.58a35.69 35.69 0 01-2.57-3.23zM47.41 22.7s-.17-1.33.08-.74a8.65 8.65 0 01.25 3.73 7.55 7.55 0 01-2 2.73s-.09.08.25-.66a11.24 11.24 0 00.82-2.41c.25-1.07.59-2.65.59-2.65zM43.18 47.82l3.56-2.74a1.44 1.44 0 00.09-.83c-.09-.49-1.66-5.88-1.66-5.88s-.33-.58-.09-.83a2.42 2.42 0 00.25-1.54 3.25 3.25 0 01.25-1.57 5.68 5.68 0 00.42-2.2c0-.83-.17-2.23-.17-2.23s-.5 1.9-.58 2.65a8.33 8.33 0 00-.41 2.48 2.64 2.64 0 01-.42 1.87 1.52 1.52 0 00-.08 1.32c.33.59 1.57 5.56 1.57 5.56a.92.92 0 01-.16 1.08c-.5.49-2.57 2.9-2.57 2.9z"/><path d="M26.91 9.39l1-.81a2.26 2.26 0 01.52-.34 1.14 1.14 0 01.42-.09.69.69 0 01.36.09 1 1 0 01.29.24.92.92 0 01.21.42.87.87 0 010 .39 1.07 1.07 0 01-.21.36 2.58 2.58 0 01-.37.37l-1 .81-1.22-1.44zm.94-.22l.64.79.17-.13a1.62 1.62 0 00.27-.28.34.34 0 00.07-.22.57.57 0 00-.18-.33.44.44 0 00-.37-.22A.75.75 0 0028 9l-.16.13zM34.54 6.5l-.9.37v.34l-.81.34.26-2.12.87-.37 1.68 1.32-.83.35-.25-.23zm-.32-.3l-.54-.51v.74l.57-.23zM38.78 3.73l.86-.1.16 1.4 1.35-.16.05.46-2.2.25-.22-1.85zM45.07 3.55l.86.13-.2 1.39 1.33.19-.06.45-2.19-.31.26-1.85zM52.15 7.12l-.89-.4L51 7l-.8-.36 1.72-1.27.86.38.22 2.08-.82-.37v-.34zm0-.44V6l-.55.48.55.25zM56.14 9.17l.64.52a.37.37 0 00-.05.22.6.6 0 00.21.34.53.53 0 00.25.14h.16c.03 0 0-.09 0-.16a1.46 1.46 0 00-.26-.38 2.32 2.32 0 01-.46-.7.42.42 0 01.05-.43.35.35 0 01.32-.16 1.06 1.06 0 01.42.1 2.59 2.59 0 01.56.4 2 2 0 01.53.64.55.55 0 010 .54l-.64-.51a.27.27 0 000-.23.69.69 0 00-.18-.23.39.39 0 00-.2-.12.12.12 0 00-.12 0v.1a1 1 0 00.17.24 5.46 5.46 0 01.51.66.89.89 0 01.13.39.39.39 0 01-.1.28.47.47 0 01-.33.15.9.9 0 01-.46-.1 2.38 2.38 0 01-.56-.39 1.79 1.79 0 01-.62-.78.63.63 0 01.07-.56z"/><path class="cls-1" d="M7.1 51.22l8 21.36 3.19-1 3.1-.84a.45.45 0 010 .08l3.82-.79-.2-.75c-.12-.4-2.75-9.91-3.5-12.14a7.07 7.07 0 00-3.72-3.75c-.86-.25-2.31-.69-2.59-.8a1.32 1.32 0 00-1.18 0c-.42-.27-1-.59-1.05-.64h-.06l-6.24-2.2.53 1.45z"/><path class="cls-1" d="M21 55.21l3.72 14.9 3.1-.5v.08l3.18-.56-.14-.73c-.06-.33-1.58-8.15-2-10-.5-2.29-3.11-3.16-3.22-3.19l-4.91-1.09.27 1.09zm1.68.78l2.55.57c.23.08 1.93.73 2.23 2.1.33 1.55 1.45 7.27 1.84 9.3L29 68l-1.11-5-2.89-.14 1.46 5.51-.63.1L22.69 56z"/><path class="cls-1" d="M24.55 56.22c-.82.26-.76 1.32-.75 1.66V58l1.31 5.35h2.72l-.11-.82c-.09-.65-.55-3.94-1.18-4.94-.48-.74-1.21-1.57-2-1.32zm.91 2.38a17.47 17.47 0 01.54 2.16c-.24-1-.37-1.48-.53-2.16zM28.23 56.67c.16.54 1.86 9.61 2.05 10.91a1.77 1.77 0 00.77 1.42 1.2 1.2 0 00.86.15 14.49 14.49 0 003.36-.37 2.48 2.48 0 001.44-2.6 4.67 4.67 0 00-.12-1.08c-.1-.51-.15-5-.15-8v-.7l-3.95-.12v-.06l-4.6-.66.35 1.11zm3.48 10.69c-.11-.78-1.32-7.38-1.86-10.06l1.31.19c.21 1.93.88 8.16 1 9.09a1.6 1.6 0 00.55 1h-.91a1.34 1.34 0 01-.07-.29zm1.57-3.79c.07.56.13 1.06.17 1.46-.05-.42-.11-.92-.17-1.46zm1.66 2.85a2.63 2.63 0 000-.33c0-1.46-.68-6-1-8.32h1.07c0 2.27 0 7 .19 7.6a3 3 0 01.08.72c0 .55-.12 1.14-.42 1.23a2 2 0 01-.39.09 2 2 0 00.49-1z"/><path class="cls-1" d="M36.15 59.42l.27 9.41h.71c.08 0 2.11 0 3.28-.08 1.56-.12 2.43-2 2.52-2.26v-.12l.13-2.47h-.2v-1.51h.15l.11-5.65h-.71s-1.94-.08-3.76-.08a2.62 2.62 0 00-2.55 2.79zm2.55-1.35h.3a1.73 1.73 0 00-.28.19 1.55 1.55 0 00-.55 1.24v3.18h-.08v4.72h-.23c0-1.19-.23-7.94-.23-8 0-.23.08-1.35 1.1-1.35zm2.3.52v-.48h.69v2.81H41v-2.33zm-1.14 5.54c0 .19-.22 1.84-.22 1.84a.48.48 0 01-.12.32v-2.16zm1.73 1.24v.67a3.17 3.17 0 01-.88 1.13 2 2 0 00.41-1s0-.39.09-.77z"/><path class="cls-1" d="M47.87 56.46l-5.06.19-.38 11.84 3 .1h3.2l.12-.57a21 21 0 00.52-3.72 3.18 3.18 0 00-.27-1.4 4.11 4.11 0 00.75-1.47v-.1a24.59 24.59 0 00.19-2.6v-.53a2 2 0 00-2-1.74h-.08zm0 1.45c.12 0 .6.09.63.41v.42a23 23 0 01-.17 2.36 1.94 1.94 0 01-.66 1.06l-1.7.76a2.65 2.65 0 00-.66-.08h-.68s-.19 3.29-.25 4.27h-.48c0-1.16.26-8 .29-9l3.67-.14zm-.58 6.47v-.07a1.4 1.4 0 00-.63-1.11l1 .29a1.43 1.43 0 01.16.82 17.91 17.91 0 01-.36 2.84H47l.26-2.77z"/><path class="cls-1" d="M45.34 57.66l-.46.16-.22 5.07.68.07a2.09 2.09 0 001.95-.53 1 1 0 00.2-.63v-.15a25.76 25.76 0 00.23-2.72 1.35 1.35 0 00-.55-1.16 2.18 2.18 0 00-1.82-.11zM53.08 56.21l-3.25.21-1.5 12.37 3.49.17L54 56.16l-.91.05zm-.82 1.5c-.24 1.44-1.47 8.71-1.65 9.74h-.65l1.16-9.63 1.14-.08z"/><path class="cls-1" d="M60.7 54.9l-4.79.92a4.14 4.14 0 00-2.44 2.65c-.42 1.58-1.7 8.47-1.75 8.76a1.48 1.48 0 00.92 1.82 19.39 19.39 0 002.74.28h.07a3.43 3.43 0 003-2.23c.58-1.66 1-3.22 1-3.29l.21-.76-3.77.06c.07-.32 0 .18 0-.15l3.79-.12 2.2-8.18-1.14.22zm-4.3 2.3a6.8 6.8 0 00-1.1 1.64v.18c-.62 2.81-1.56 7.1-1.65 7.4a.91.91 0 00-.05.33 1.51 1.51 0 00.42 1 8.87 8.87 0 01-.93-.11v-.07a.49.49 0 010-.12c0-.07 1.33-7.12 1.73-8.65a2.68 2.68 0 011.5-1.64h.08zm3.43-.66c-.36 1.29-.94 3.42-1.13 4.08h-1c.24-.95.6-2.34.6-2.34a1.62 1.62 0 000-.22 1.27 1.27 0 00-.58-1.12l2.08-.4zm-2.13 7.9c-.17.6-.42 1.39-.7 2.2a1.91 1.91 0 01-1.46 1.23 3.17 3.17 0 00.93-1.52s.3-1.21.45-1.83l.77-.06z"/><path class="cls-1" d="M68.08 53.26l-2.79.85v-.06l-3.89.86-4.25 14.62 2.93.42 3.23.62.19-.57c.06-.15 1.34-3.67 1.75-4.91a2.89 2.89 0 00.16-1A2.94 2.94 0 0065.2 63a7.77 7.77 0 001.3-1.59v-.08l2.88-8.54-1.35.41zM63.16 56L61 62.65l-1.73 5.73h-.31c.4-1.37 3.35-11.46 3.56-12.19l.59-.13zm4-1l-1.93 5.71a4.78 4.78 0 01-1.18 1.36l-.44.13a2 2 0 00.71-.89c.36-.88 1.48-4.76 1.83-6l1-.31zm-4.08 7.48l.61.77a1.43 1.43 0 01.27.85 1.63 1.63 0 01-.08.51c-.31.93-1.14 3.22-1.53 4.3l-.46-.09 1.19-4.1a1.52 1.52 0 00.2-.73 1.22 1.22 0 00-.1-.48 1.68 1.68 0 00-1.41-.86H62a2.78 2.78 0 001.13-.18z"/><path class="cls-1" d="M76.41 50.46l-4.88 1.85h-.07c-.45.3-2.72 1.87-3.19 3.28-.4 1.21-2.78 7.54-2.81 7.6l-.36 1h.16l-1.71 4.69a2.35 2.35 0 00-.18.84 1.43 1.43 0 00.17.68 1.31 1.31 0 001 .61c.94.09 1.85.09 1.89.09h.09a4.83 4.83 0 003.36-2.18c.93-1.61 3-7 3-7.23l.38-1h-.06c0-.08 4.75-10.81 4.75-10.81l-1.61.61zm-1.1 2c-.89 2-2.75 6.26-3 6.88h-.69c.45-1.14 1.2-3.09 1.2-3.09v-.06a2.71 2.71 0 00.05-.54 1.14 1.14 0 00-.3-.85.86.86 0 00-.8-.21 2.83 2.83 0 00-1.09.69l-.09.1-.06.12a47.93 47.93 0 00-2.13 5.34 1.28 1.28 0 00.33 1.16.93.93 0 00.82.21h-.16 1.82a63.25 63.25 0 01-2.55 6 3.38 3.38 0 01-2.25 1.46c-.19 0-.87 0-1.57-.07a.66.66 0 010-.15l1.49-4.08h.14c-.39.9-.89 2.11-1 2.44a1.94 1.94 0 00-.12.64 1.12 1.12 0 00.21.68 1.17 1.17 0 001 .46c.92 0 1.4-1 1.49-1.17l2.12-5.45-3.08-.08c.69-1.83 2.15-5.74 2.47-6.7a8 8 0 012.64-2.59l3.11-1.18zM26.35 60.83h-1.16v-2.49h1.16v2.49zM39.94 66.55h-.58v-2.74h.58v2.74z"/><path class="cls-1" d="M65.72 63.65h-.58v-.99h.58v.99zM59.59 63.4h-3.9v-.66h3.9v.66z"/><path d="M15.49 71.69L7.78 51l4.73 1.66a5.63 5.63 0 011.32.82 2.37 2.37 0 01.42.58v-.74s.16-.17.58 0 2.65.83 2.65.83a6.43 6.43 0 013.32 3.31c.74 2.24 3.48 12.11 3.48 12.11l-2.41.43-3.56-12.4s-.91-2.07-1.41-1.91 0 1.41 0 1.41l4 13.08-2.16.58s-4.64-14.57-5-15.07c0 0-.62-1.35-1.33-1.32-.5 0-.16.41 0 1S17.81 71 17.81 71l-2.32.68zM28.4 68.85l1.76-.31s-1.57-8.12-2-10-2.73-2.65-2.73-2.65L21.71 55l3.56 14.26 2.07-.26-1.4-5.3 1.32.08 1.14 5.12zm-2.71-6.28l-1.16-4.72c-.09-1.66.83-.83 1.41.08S27 62.57 27 62.57zM28.92 56.44l2.9.41s.91 8.54 1.08 9.62 1.16.83 1.32-.17-1.16-9.3-1.16-9.3l2.66.08s0 7.46.16 8.13.25 2.48-.83 2.81a14.6 14.6 0 01-3.23.34s-.66.24-.83-.92-1.9-10.52-2.07-11zM42.43 57.43l-.08 4.23h-2.07v-3.07s-1.41-.25-1.41.91v3.07h3.31v.83h-3.4V67s1.41.49 1.58-.92l.16-1.4h1.83l-.08 1.57S41.52 68 40.36 68s-3.23.09-3.23.09l-.25-8.71s0-2.07 1.82-2.07 3.73.08 3.73.08zM49.06 61.25a20.55 20.55 0 00.17-3c-.08-1-1.33-1.08-1.33-1.08l-4.39.17-.33 10.46 1.9.06.25-4.29c1.25 0 1.25.74 1.25.74l-.33 3.57h1.82a21.76 21.76 0 00.5-3.57c0-1.32-.58-1.49-.58-1.49.74-.33 1.07-1.57 1.07-1.57zm-3.64 1l.16-3.9s1.41-.49 1.41.59a23.51 23.51 0 01-.25 2.73s.33.75-1.32.58zM50.47 57.1l2.66-.16-1.91 11.27-2.07-.1 1.32-11.01zM56.77 61.41l2.49-.08 1.57-5.72-4.72.91a3.42 3.42 0 00-2 2.16c-.42 1.57-1.74 8.7-1.74 8.7s-.17.83.41 1a20.47 20.47 0 002.57.24 2.69 2.69 0 002.32-1.74c.58-1.65 1-3.23 1-3.23l-2.32.17-.58 2.32s-.33 1.07-.83 1.24-.75-.5-.67-.74 1.66-7.47 1.66-7.47.91-1.74 1.33-1.65.33.66.33.66l-.83 3.23zM62 55.53l2.24-.5L62 62a1.74 1.74 0 001.66-.91c.42-1 1.91-6.3 1.91-6.3l2.72-.79-2.4 7.13s-1 1.58-1.66 1.74a2.15 2.15 0 01.33 2.07c-.41 1.25-1.74 4.89-1.74 4.89l-1.82-.4 1.43-5s.66-.91-.83-1.08l-1.74 5.78-1.76-.25L62 55.53zM70.53 60.09l2.24-.09 3.9-8.87L71.86 53s-2.49 1.66-2.9 2.9-2.82 7.62-2.82 7.62l3.07.09L67.46 68s-.33.75-.82.75-.58-.33-.42-.83 1.41-3.4 1.41-3.4h-1.74l-1.66 4.56s-.49 1.08.42 1.16 1.82.08 1.82.08a4.11 4.11 0 002.82-1.82c.91-1.57 3-7.13 3-7.13l-2.9.08s-.33.09-.25-.58 2.08-5.14 2.08-5.14a2.13 2.13 0 01.74-.49c.33-.09.17.74.17.74l-1.58 4.07z"/><path class="cls-1" d="M42.28 75.12l-2.78 2 1.17-3C40 73 37.05 72.3 37.05 72.3c.73-.22 4.36-.59 4.36-.59.14-.58.87-2.59.87-2.59s.73 2 .88 2.59c0 0 3.62.37 4.35.59 0 0-3 .73-3.62 1.83l1.17 3-2.78-2z"/><path d="M42 69c0 .07-.61 1.69-.83 2.43-.77.08-3.55.37-4.21.57l-1 .3 1 .26c.76.19 2.76.82 3.37 1.59-.11.27-1.47 3.77-1.47 3.77l3.4-2.47 3.41 2.47s-1.37-3.5-1.47-3.77c.6-.77 2.61-1.4 3.36-1.59l1-.26-1-.3c-.66-.2-3.44-.49-4.21-.57-.22-.74-.81-2.36-.83-2.43l-.28-.75L42 69zm-.58 3h.21v-.2c.08-.33.37-1.17.59-1.8.22.63.51 1.47.6 1.8v.2h.2c.66.07 2.09.23 3.14.37A5.32 5.32 0 0043.64 74l-.07.12s.52 1.33.86 2.22l-2.15-1.56-2.15 1.56c.34-.89.86-2.22.86-2.22l-.07-.12a5.24 5.24 0 00-2.62-1.61c1.05-.14 2.47-.3 3.13-.37z"/></g></g></svg>