<svg xmlns="http://www.w3.org/2000/svg" viewBox="0 0 79.77 55.14"><defs><style>.cls-1{fill:#4b90cd}.cls-2,.cls-7{fill:none}.cls-2{stroke:#fdb827;stroke-width:.87px}.cls-3{fill:#002d62}.cls-4{fill:#fff}.cls-6{fill:#fdb827}.cls-7{stroke:#fff;stroke-width:.75px}</style></defs><g id="Layer_2" data-name="Layer 2"><g id="Layer_1-2" data-name="Layer 1"><path class="cls-1" d="M18.7 14.18c5.86-3.61 9.3-3.65 9.3-3.65l.24.29L41.23 0l12.53 10.59.42-.43a22.41 22.41 0 017.59 3.15 55.94 55.94 0 019.57 7.51h-2.93l2.06 2.57-.14.55a31 31 0 014.51.22 7.81 7.81 0 012.54 1.14l1.74-.6v12.21h-4.8a15.71 15.71 0 012.88 2.15 7.11 7.11 0 011.08 1.48 5.88 5.88 0 01.72 2.91v6.41a6.75 6.75 0 01-.73 2.57 5.31 5.31 0 01-2.76 2.34 8.33 8.33 0 01-4.59 0 9.32 9.32 0 01-1.79-1l-1 .91-2.41-1.3V55H58l-2.3-1.81V55H45.12s-.83-1-1.26-1.64A6.73 6.73 0 0141 55a7.31 7.31 0 01-2.38 0 5.17 5.17 0 01-2.36-1.07 15.76 15.76 0 01-1.51-1.55 27.68 27.68 0 01-4.32 2.54 6.9 6.9 0 01-3.6-.17A10.15 10.15 0 0124 52.33s-3.5 2.45-4.54 2.67a5.88 5.88 0 01-3.17-.16 6.71 6.71 0 01-2-1.31L11.82 55h-4.7l-.25-.29-.48.29H.07v-6.15s.79 0 .79-.72v-17c0-.7-.86-.72-.86-.72v-6.25h12.26l-.82-1.71L13 20.82h-2.6a50.32 50.32 0 018.33-6.64"/><path class="cls-2" d="M69.14 23.4a33.19 33.19 0 00-6.61-6.33c-4.68-3.59-7.84-5.63-7.84-5.63l-.83.79.83-.79s3 .46 7.47 3.42a62.93 62.93 0 016.41 4.82h-2.92m-52.94 2.93a54 54 0 016.29-5.5c3.08-2.17 8.26-5.5 8.26-5.5l.74.79-.74-.79a24.92 24.92 0 00-9 4.08C13.46 19 13 19.78 13 19.78h2.7"/><path class="cls-3" d="M41.13 1.23L16.98 20.94l49.29 1.34L41.13 1.23z"/><path class="cls-4" d="M29.3 11.94l11.83-9.71 12.2 10.38-7.43-3.04-.05 3.16-2.87-2.7-1.64 4.37-2.1-4.5-2.42 1.83-.86-2.41-6.66 2.62z"/><path class="cls-3" d="M1.37 25.23h15s14.79-3.58 24-3.58 25.49 2.75 25.49 2.75l8 .59 1.34 10.83h-4.84L76 42.91l-.9 6.91L69.72 52 68 53.28l-4.4-2.08-4.6 2.87h-.74l-4.07-3-8.7 3-2.18-3-6.66-1.25-5.75 3.8L25.77 50l-5.87 3.65-4.61-2.74-4.06 3.16-2.79-2.33-2.76 2.33-2.54-3.41L2.15 27z"/><path d="M1.37 25.23h15s14.79-3.58 24-3.58 25.49 2.75 25.49 2.75l8 .59 1.34 10.83h-4.84L76 42.91l-.9 6.91L69.72 52 68 53.28l-4.4-2.08-4.6 2.87h-.74l-4.07-3-8.7 3-2.18-3-6.66-1.25-5.75 3.8L25.77 50l-5.87 3.65-4.61-2.74-4.06 3.16-2.79-2.33-2.76 2.33-2.54-3.41L2.15 27z" stroke="#000" stroke-width=".12" fill="none"/><path class="cls-6" d="M.89 25.24H5l3.4 16v-9.61s0-1.12-.29-1.43l-.7-.73v-4.23h4.64v4.23s-.41.52-.61.73-.25 1.43-.25 1.43v22.45H7.82L4.57 38.45v8.87a7.38 7.38 0 00.37 1.59 3.62 3.62 0 00.74.79v4.38H.89V49.7a3.65 3.65 0 00.65-.5c.28-.29.32-1.42.32-1.42V31.63a5.84 5.84 0 00-.37-1.43 4.4 4.4 0 00-.6-.73z"/><path class="cls-7" d="M.89 25.24H5l3.4 16v-9.61s0-1.12-.29-1.43l-.7-.73v-4.23h4.64v4.23s-.41.52-.61.73-.25 1.43-.25 1.43v22.45H7.82L4.57 38.45v8.87a7.38 7.38 0 00.37 1.59 3.62 3.62 0 00.74.79v4.38H.89V49.7a3.65 3.65 0 00.65-.5c.28-.29.32-1.42.32-1.42V31.63a5.84 5.84 0 00-.37-1.43 4.4 4.4 0 00-.6-.73z"/><path class="cls-6" d="M12.5 32v4.25a1 1 0 01.58.25 2 2 0 01.24 1.33v11.49s.37 4.8 4.6 4.8 4.6-4.88 4.6-4.88V34.11a5.63 5.63 0 01.21-1.91c.25-.3.66-.88.66-.88V26.9s-1.11.34-2.88 1.09l-2.26 1v4.37s.41.17.41.42v13.34s0 1.1-.76 1.1-.76-.77-.76-1.06v-11.8a3 3 0 01.09-1.16 4.2 4.2 0 00.32-.75v-4.21s-1.23.54-2.91 1.5S12.5 32 12.5 32"/><path class="cls-7" d="M12.5 32v4.25a1 1 0 01.58.25 2 2 0 01.24 1.33v11.49s.37 4.8 4.6 4.8 4.6-4.88 4.6-4.88V34.11a5.63 5.63 0 01.21-1.91c.25-.3.66-.88.66-.88V26.9s-1.11.34-2.88 1.09l-2.26 1v4.37s.41.17.41.42v13.33s0 1.11-.76 1.11-.76-.77-.76-1.06v-11.8a3 3 0 01.09-1.16 4.2 4.2 0 00.32-.75v-4.21s-1.23.54-2.91 1.5S12.5 32 12.5 32z"/><path class="cls-6" d="M32.94 27.51l.69-.39v8.8h-4v-3.56s.12-1.08-.74-1.08a.89.89 0 00-.9 1v14.64s-.08 1.32.86 1.32.78-1.32.78-1.32v-5.09H29v-3.34h4.62v11.92s-1.49 3.71-4.82 3.71-4.71-3.51-4.71-4.12V30.15s.53-4.66 5-4.66a4.92 4.92 0 013.88 2"/><path class="cls-7" d="M32.94 27.51l.69-.39v8.8h-4v-3.56s.12-1.08-.74-1.08a.89.89 0 00-.9 1v14.64s-.08 1.32.86 1.32.78-1.32.78-1.32v-5.09H29v-3.34h4.62v11.92s-1.49 3.71-4.82 3.71-4.71-3.51-4.71-4.12V30.15s.53-4.66 5-4.66a4.92 4.92 0 013.85 2.02z"/><path class="cls-6" d="M44.56 25.94v10h-4.05v-4.66S40.6 30 39.65 30s-.82 1.12-.82 1.29v15.63s-.08 1.32.86 1.32.87-1.32.87-1.32v-5.09h-.7v-3.34h4.7v11.92s-1.46 3.68-4.74 3.68c-4 0-5-4.06-5-4.06v-21.5a4.88 4.88 0 015-4.39 5.17 5.17 0 013.94 2.14z"/><path class="cls-7" d="M44.56 25.94v10h-4.05v-4.66S40.6 30 39.65 30s-.82 1.12-.82 1.29v15.63s-.08 1.32.86 1.32.87-1.32.87-1.32v-5.09h-.7v-3.34h4.7v11.92s-1.46 3.68-4.74 3.68c-4 0-5-4.06-5-4.06v-21.5a4.88 4.88 0 015-4.39 5.17 5.17 0 013.94 2.14z"/><path class="cls-6" d="M45.49 24.53a24.93 24.93 0 014.55.66 34.17 34.17 0 014.52 1.09v9.64h-3s.12-3.51-.41-4.39a2.42 2.42 0 00-.86-.83v7.79h2.22v3.33h-2.3v7a1.87 1.87 0 001.23-1.54 20.66 20.66 0 00.12-3.25h3v10h-9.07v-4.37a1.29 1.29 0 00.82-1.38V30.57a2 2 0 00-.82-1.42v-4.62z"/><path class="cls-7" d="M45.49 24.53a24.93 24.93 0 014.55.66 34.17 34.17 0 014.52 1.09v9.64h-3s.12-3.51-.41-4.39a2.42 2.42 0 00-.86-.83v7.79h2.22v3.33h-2.3v7a1.87 1.87 0 001.23-1.54 20.66 20.66 0 00.12-3.25h3v10h-9.07v-4.37a1.29 1.29 0 00.82-1.38V30.57a2 2 0 00-.82-1.42v-4.62z"/><path class="cls-6" d="M55.75 26.61a27.59 27.59 0 015.88 2.21c3.86 1.83 5.21 2.67 5.21 2.67v4.43h-2.46a4.86 4.86 0 00-.16-1.51 2.65 2.65 0 00-.83-1.17v14.12a3.18 3.18 0 00.33 1.46 5.83 5.83 0 00.7.8v4.45h-6.16V49.7a2 2 0 00.7-.58 7.47 7.47 0 00.45-1.71V32.57a1.49 1.49 0 00-.94 1.5v1.85h-2.72z"/><path class="cls-7" d="M55.75 26.61a27.59 27.59 0 015.88 2.21c3.86 1.83 5.21 2.67 5.21 2.67v4.43h-2.46a4.86 4.86 0 00-.16-1.51 2.65 2.65 0 00-.83-1.17v14.12a3.18 3.18 0 00.33 1.46 5.83 5.83 0 00.7.8v4.45h-6.16V49.7a2 2 0 00.7-.58 7.47 7.47 0 00.45-1.71V32.57a1.49 1.49 0 00-.94 1.5v1.85h-2.72z"/><path class="cls-6" d="M77 26.44l1-.37v9.75h-3.85v-4s0-1.71-1.19-1.71-1.07 1.71-1.07 1.71v3.55a2.68 2.68 0 001.2 1.91 29.84 29.84 0 013.73 2.88 4.84 4.84 0 011.07 2.45v7.8c0 .37-.74 3.66-4.93 3.66a6.51 6.51 0 01-3.9-1.58l-1 .79v-8.54h3.77v2.77s-.12 1.4 1.11 1.4 1.06-1.4 1.06-1.4v-3.44s-.2-1.25-.82-1.62a25.63 25.63 0 01-4.11-3A5.42 5.42 0 0168 36.24V29.7a4.94 4.94 0 011.2-3.17 5.49 5.49 0 014.06-1.59 5.21 5.21 0 013.74 1.5"/><path class="cls-7" d="M77 26.44l1-.37v9.75h-3.85v-4s0-1.71-1.19-1.71-1.06 1.71-1.06 1.71v3.55a2.66 2.66 0 001.19 1.91 29.84 29.84 0 013.73 2.88 4.84 4.84 0 011.07 2.45v7.8c0 .37-.74 3.66-4.93 3.66a6.51 6.51 0 01-3.9-1.58l-1 .79v-8.54h3.77v2.77s-.12 1.4 1.11 1.4 1.06-1.4 1.06-1.4v-3.44s-.2-1.25-.82-1.62a25.63 25.63 0 01-4.11-3A5.42 5.42 0 0168 36.24V29.7a4.94 4.94 0 011.2-3.17 5.49 5.49 0 014.06-1.59 5.21 5.21 0 013.74 1.5z"/><path class="cls-1" d="M12.71 22.61a61.53 61.53 0 0127.72-6.5 62.58 62.58 0 0128.71 7.33l-3.82 5.67a50.87 50.87 0 00-24.89-6.21c-14.91 0-24.15 5.55-24.15 5.55l-3.57-5.84"/><path class="cls-2" d="M12.71 22.61a61.53 61.53 0 0127.72-6.5 62.58 62.58 0 0128.71 7.33l-3.82 5.67a50.87 50.87 0 00-24.89-6.21c-14.91 0-24.15 5.55-24.15 5.55l-3.57-5.84"/><path class="cls-4" d="M19.81 24.6l1.19-.4c1-.33 1.21-.93 1-1.59s-.77-1-1.74-.65l-1.16.4zm-2.35-2.45c0-.06-.07-.11-.3 0v-.09l3-1.05c1.68-.58 2.77 0 3.15 1.18s-.18 2.34-1.88 2.92l-2.94 1v-.1c.22-.09.23-.15.21-.22zM30.16 21.17h-.11c-.05-.09-.13-.16-.32-.12l-1.73.38.14.75 3-.63c.11 0 .14-.07.13-.28h.11l.28 1.39h-.12c-.05-.13-.1-.17-.2-.15l-4.73 1v-.1c.23-.06.25-.12.23-.2l-.75-3.73c0-.07-.05-.12-.29-.09v-.09l4.73-1c.1 0 .13-.06.12-.25h.12l.23 1.37h-.11c-.06-.18-.11-.21-.22-.19l-3 .63.13.66 1.76-.36c.19 0 .24-.14.25-.25h.11zM34.71 18c0-.08 0-.13-.28-.14v-.09l2.33-.14v.1c-.22 0-.26.07-.26.12s1.76 1.5 2.47 2.09l-.12-2.18c0-.1-.09-.13-.22-.13v-.1l1.76-.1v.1c-.24 0-.27.08-.26.16l.21 3.8c0 .07 0 .13.28.13v.1l-1.83.1v-.1c.18 0 .22 0 .22-.1a38.14 38.14 0 00-2.93-2.46l.14 2.56c0 .08 0 .13.28.13v.1l-1.84.05v-.1c.24 0 .27-.09.27-.16zM45.13 22v-.1c.12 0 .15 0 .15-.05s-1.36-3.55-1.53-4c-.07-.19-.1-.23-.2-.25v-.1l2 .21v.1c-.15 0-.2 0-.2.08s.12.27 1.08 2.61A23.61 23.61 0 0048 18.15c0-.06 0-.09-.13-.11V18l1.65.18v.09c-.08 0-.12 0-.16.09-.15.2-2.36 3.52-2.36 3.64s0 .08.13.09v.11zM55.56 22.31h-.11c0-.11-.05-.2-.24-.25l-1.74-.44-.19.73 3 .77c.11 0 .15 0 .23-.2h.11l-.34 1.38h-.11c0-.14 0-.19-.12-.22l-4.68-1.18v-.1c.24.05.28 0 .3-.07l.91-3.7c0-.07 0-.13-.23-.2v-.1l4.68 1.19c.1 0 .15 0 .23-.18h.11l-.34 1.37h-.11c0-.19 0-.24-.12-.27l-3-.76-.16.66 1.74.44c.19.05.28 0 .33-.11h.11zM61.4 23.29l1.51.61c.53.21.76.08.85-.14s0-.49-.53-.7l-1.51-.6zm-.82 2.08c0 .07 0 .14.2.24v.09L58.9 25v-.09c.23.07.28 0 .31 0l1.38-3.54c0-.07 0-.13-.2-.23v-.1l3.28 1.32c1.33.54 1.74 1.16 1.41 2-.27.7-1 .86-1.77.74l.69 1.62a.35.35 0 00.2.24v.09l-1.87-.75v-.09c.13.05.22 0 .26-.05s-.59-1.5-.59-1.71l-.88-.35z"/><path class="cls-3" d="M78.31 54.02H78v-.11h.75v.11h-.31v.87h-.13v-.87zM79.26 54.89L79 54.1v.79h-.13v-.98h.18l.27.83.28-.83h.17v.98h-.12v-.79l-.26.79h-.13z"/></g></g></svg>