<svg xmlns="http://www.w3.org/2000/svg" viewBox="0 0 78.94 96.71"><defs><style>.cls-1{fill:#1a64b7}.cls-2{fill:#fbbf16}</style></defs><g id="Layer_2" data-name="Layer 2"><g id="Layer_1-2" data-name="Layer 1"><g id="layer1"><g id="g5225"><g id="g3199"><path id="path3201" class="cls-1" d="M9.58 78.83L4.26 81.5a1.6 1.6 0 00-.5.27c-.14.16-.11.39.09.68l-.15.18-2.31-2.06.16-.17a.47.47 0 00.66 0 3.45 3.45 0 00.27-.6l2.66-7.11a2.36 2.36 0 00.2-.78.83.83 0 00-.19-.5l.15-.17 2.49 2.22-.15.17c-.27-.15-.46-.15-.61 0a1.56 1.56 0 00-.22.42l-2 5 4.93-2.44a1.46 1.46 0 00.39-.23c.15-.16.12-.37-.08-.63l.16-.16 2.59 2.32-.14.17c-.3-.15-.52-.14-.66 0a1.63 1.63 0 00-.2.39L9.91 83.6l4.74-2.46a1.69 1.69 0 00.48-.32c.13-.15.1-.36-.1-.63l.14-.18 2.46 2.21-.15.16a1 1 0 00-.53-.13 2.42 2.42 0 00-.73.29L9.45 86a1.91 1.91 0 00-.59.37c-.16.17-.13.39.08.65l-.14.17-2.34-2.1.15-.17c.28.19.5.18.69 0a2.58 2.58 0 00.25-.61l2-5.46"/></g><g id="g3203"><path id="path3205" class="cls-1" d="M6.56 85.09l2.22 2 .06-.09a.69.69 0 01-.15-.4.43.43 0 01.11-.3 2.62 2.62 0 01.61-.38l6.77-3.44a2.71 2.71 0 01.75-.31H17a1.08 1.08 0 01.45.12l.06-.07-2.34-2.1-.06.07a.81.81 0 01.17.42.4.4 0 01-.1.26 1.78 1.78 0 01-.51.34l-4.9 2.55 2-5.27a1.76 1.76 0 01.21-.42.41.41 0 01.34-.16 1.06 1.06 0 01.36.09l.05-.06-2.47-2.22-.07.06a.71.71 0 01.15.38.41.41 0 01-.11.28 1.52 1.52 0 01-.41.26L4.7 79.22l2-5.22a1.25 1.25 0 01.3-.44.39.39 0 01.32-.16.68.68 0 01.32.09l.06-.07-2.39-2.11-.06.06a.91.91 0 01.17.5 2.65 2.65 0 01-.2.81l-2.67 7.1a2.89 2.89 0 01-.28.63.51.51 0 01-.38.18.73.73 0 01-.33-.1l-.06.07 2.19 2 .05-.07a.92.92 0 01-.15-.49.44.44 0 01.12-.28 1.74 1.74 0 01.52-.29l5.32-2.67.18-.09-2.11 5.64a2.71 2.71 0 01-.27.64.54.54 0 01-.37.18.68.68 0 01-.35-.13zm-.2 0v-.06l.19-.22h.06A.64.64 0 007 85a.33.33 0 00.25-.13 2 2 0 00.25-.59l2-5.28-5.2 2.57a1.86 1.86 0 00-.48.25.25.25 0 00-.08.18.8.8 0 00.17.42l-.21.22-2.4-2.07.19-.21h.05a.65.65 0 00.31.11.33.33 0 00.26-.13 2.6 2.6 0 00.26-.58l2.67-7.1a2.89 2.89 0 00.19-.76.73.73 0 00-.18-.46l.2-.23 2.6 2.32v.06l-.18.21h-.06a.67.67 0 00-.3-.09.24.24 0 00-.21.09 1.28 1.28 0 00-.21.4L5 78.92l4.76-2.35a1.33 1.33 0 00.36-.22.25.25 0 00.08-.19.63.63 0 00-.16-.34l.2-.22L13 77.92l-.06.06-.19.21a.72.72 0 00-.34-.1.27.27 0 00-.22.11 1.21 1.21 0 00-.18.37l-1.86 4.9 4.57-2.37a1.69 1.69 0 00.45-.3.19.19 0 00.06-.16.65.65 0 00-.17-.37v-.11l.2-.22 2.57 2.3v.06l-.19.2h-.05a1 1 0 00-.44-.13H17a3 3 0 00-.72.28l-6.79 3.4a2.57 2.57 0 00-.58.35.32.32 0 00-.08.2.63.63 0 00.17.4l-.2.23-2.44-2.13"/></g><g id="g3207"><path id="path3209" class="cls-1" d="M19.35 88.74l.1-3.76-2.92 2.38zm0 1.44l-3.95-1.91-1.18.92a1.2 1.2 0 00-.32.34c-.08.18 0 .38.24.59l-.11.21-2.84-1.4.1-.2a.76.76 0 00.47 0 1.79 1.79 0 00.54-.34l6.42-5.07a1.44 1.44 0 00.39-.43.51.51 0 00-.16-.6l.1-.2 3.05 1.49-.1.21c-.28 0-.46 0-.55.19a1.07 1.07 0 00-.08.47v8.25a2.51 2.51 0 00.09.75.82.82 0 00.33.42l-.11.2-3.17-1.55.1-.21c.3.09.5 0 .61-.19a1 1 0 00.06-.45v-1.5"/></g><g id="g3211"><path id="path3213" class="cls-1" d="M16.67 87.34l2.6 1.28.1-3.48zm2.68 1.4v-.07zm-3-1.37l3.13-2.55-.1 3.92v.11zm2.25 5.12l3 1.48v-.07a.94.94 0 01-.29-.41 2.24 2.24 0 01-.09-.78v-8.23a1 1 0 01.1-.51.46.46 0 01.45-.25c.05 0 .11 0 .09.06l.07-.13-2.84-1.45-.05.09a.63.63 0 01.18.42.54.54 0 010 .22 1.43 1.43 0 01-.42.46l-6.41 5.06a1.88 1.88 0 01-.57.36.73.73 0 01-.22 0h-.23v.08L14 90.22v-.08a.69.69 0 01-.25-.46.53.53 0 010-.18 1.13 1.13 0 01.34-.37l1.26-.93 3.91 1.91v.07h.07v1.5a1 1 0 01-.08.49.44.44 0 01-.43.26.71.71 0 01-.2 0zm-.2.07v-.07l.13-.25h.05a.79.79 0 00.23 0 .33.33 0 00.31-.19 1.63 1.63 0 000-.42v-1.41l-3.78-1.9-1.17.93a1.34 1.34 0 00-.3.31.27.27 0 000 .12.52.52 0 00.25.38v.05l-.14.27-3-1.46v-.07l.13-.25h.49a2.25 2.25 0 00.52-.34l6.41-5.06a1.58 1.58 0 00.37-.41.28.28 0 000-.15.52.52 0 00-.18-.35L19 82l3.2 1.56v.07l-.19.24h-.15a.34.34 0 00-.33.17 1 1 0 00-.07.44v8.25a2.43 2.43 0 00.08.73.74.74 0 00.3.37v.06l-.14.27-3.29-1.62"/></g><g id="g3215"><path id="path3217" class="cls-1" d="M26.5 89.52l3.16.65a7.56 7.56 0 001 .17 1.29 1.29 0 00.56-.07 1.08 1.08 0 00.75-.9 1.06 1.06 0 00-.32-1.12 1.44 1.44 0 00-.49-.29 7.2 7.2 0 00-1-.25L27 87.05zm-.33 1.54l-.64 3.12a.41.41 0 000 .33.6.6 0 00.3.25l-.05.22-2.93-.62.05-.21a.69.69 0 00.38-.11.49.49 0 00.17-.29l1.66-8a.43.43 0 000-.34.72.72 0 00-.3-.25l.05-.22 5.87 1.23a9.47 9.47 0 011.67.48 3.05 3.05 0 011 .66 2.22 2.22 0 01.6 1.19 3 3 0 010 1.31c-.32 1.53-1.36 2.25-3.11 2.16l1.28 3a5 5 0 00.52 1 .87.87 0 00.51.33l-.06.22-3.39-.7.05-.22c.24 0 .38 0 .4-.18a1.81 1.81 0 00-.2-.67l-1.32-3.16-2.51-.52"/></g><g id="g3219"><path id="path3221" class="cls-1" d="M29.68 90.1a9.65 9.65 0 001 .17h.12a1.93 1.93 0 00.42-.06 1 1 0 00.69-.86 1.91 1.91 0 000-.32.84.84 0 00-.32-.72 1.77 1.77 0 00-.46-.29 7.69 7.69 0 00-1-.23l-3.09-.65-.49 2.32zm1 .31a7.45 7.45 0 01-1-.17l-3.16-.65h-.07L27 87l3.24.68a8.22 8.22 0 011 .25 1.4 1.4 0 01.51.3 1.05 1.05 0 01.37.84 1.54 1.54 0 010 .36 1.17 1.17 0 01-.79 1 1.84 1.84 0 01-.47.06h-.12m-4.5.72zm3.68 4.62l3.25.67v-.08a.91.91 0 01-.46-.33 5.69 5.69 0 01-.54-1L30.85 92h.41A2.47 2.47 0 0034 89.89a3.11 3.11 0 00.07-.67 2.48 2.48 0 00-.07-.61 2.21 2.21 0 00-.58-1.11 3 3 0 00-1-.64 9.32 9.32 0 00-1.66-.48l-5.83-1.22v.07a.86.86 0 01.33.28.49.49 0 010 .24v.16l-1.67 8a.56.56 0 01-.2.34.33.33 0 01-.34.06v.15l2.81.59v-.07a.78.78 0 01-.33-.28.48.48 0 01-.06-.24.89.89 0 010-.15l.65-3.11v-.07l2.63.58 1.32 3.16a2.29 2.29 0 01.21.66v.05c-.05.17-.21.23-.42.23zm-.18.11v-.07l.12-.28h.06c.19 0 .25-.05.27-.1a2.7 2.7 0 00-.2-.61l-1.26-3.11-2.43-.51-.65 3v.11a.31.31 0 000 .17 1.5 1.5 0 00.31.29l-.06.3-3.07-.65v-.07l.12-.28a.68.68 0 00.34-.08.49.49 0 00.13-.26l1.66-8a.66.66 0 000-.13.35.35 0 000-.16c0-.07-.12-.14-.32-.31l.07-.28 5.95 1.24a11.06 11.06 0 011.68.47 3.26 3.26 0 011 .69 2.24 2.24 0 01.63 1.18 3.39 3.39 0 01.07.64 3.34 3.34 0 01-.08.7A2.61 2.61 0 0131.19 92H31l1.24 2.87a6.27 6.27 0 00.51 1 .83.83 0 00.46.3h.07v.07l-.06.29-3.54-.74"/></g><g id="g3223"><path id="path3225" class="cls-1" d="M37.75 91.12L41 91a7.28 7.28 0 001-.08 1.45 1.45 0 00.54-.2 1.08 1.08 0 00.5-1.06 1.1 1.1 0 00-.57-1 1.8 1.8 0 00-.55-.15 8.26 8.26 0 00-1 0l-3.23.12zm.06 1.57l.13 3.19a.46.46 0 00.12.32.67.67 0 00.35.16v.23l-3 .12v-.23a.81.81 0 00.35-.2.44.44 0 00.08-.32l-.32-8.11a.5.5 0 00-.11-.33.75.75 0 00-.36-.17v-.22l6-.24a8.36 8.36 0 011.75.06 2.92 2.92 0 011.13.39 2.19 2.19 0 01.87 1 3.45 3.45 0 01.32 1.29c.06 1.55-.78 2.5-2.5 2.84l2 2.57a5.25 5.25 0 00.75.87.86.86 0 00.57.2v.22l-3.45.13v-.21c.23 0 .35-.14.35-.27a1.84 1.84 0 00-.35-.6l-2.12-2.78-2.56.09"/></g><g id="g3227"><path id="path3229" class="cls-1" d="M40.89 88.55h-3.16l.1 2.44 3.17-.08a7.44 7.44 0 001-.08 1.55 1.55 0 00.51-.18 1 1 0 00.45-.92v-.08a1 1 0 00-.53-1 1.63 1.63 0 00-.52-.15h-1m-3.14 2.57h-.07v-2.59l3.23-.13h1a1.69 1.69 0 01.58.17 1.15 1.15 0 01.61 1.08v.08a1.12 1.12 0 01-.53 1A1.31 1.31 0 0142 91c-.2 0-.54.06-1 .09l-3.24.12zM35.49 96.58h2.93v-.15a.65.65 0 01-.38-.19.52.52 0 01-.15-.37l-.12-3.18h.07v-.07l2.62-.06 2 2.73a1.36 1.36 0 01.34.66.27.27 0 01-.34.26l-.07.15 3.39-.07.07-.15a1 1 0 01-.62-.21 6.31 6.31 0 01-.77-.88l-2-2.67h.11C44.24 92 45 91.18 45 89.74a.76.76 0 000-.15 3.11 3.11 0 00-.3-1.26 2.12 2.12 0 00-.83-.92 3.18 3.18 0 00-1.09-.41 7.16 7.16 0 00-1.13 0h-.6l-5.93.16v.16a.89.89 0 01.39.18.58.58 0 01.13.38l.28 8.12a.55.55 0 01-.1.34.37.37 0 01-.33.15zm0-.22a.7.7 0 00.31-.17.36.36 0 00.08-.25l-.33-8.11a.39.39 0 00-.08-.28 1.88 1.88 0 00-.38-.22l.06-.3 6-.24h.61a7.39 7.39 0 011.14.07 3.07 3.07 0 011.17.41 2.27 2.27 0 01.9 1 3.19 3.19 0 01.31 1.31.92.92 0 010 .16 2.67 2.67 0 01-2.45 2.74l1.8 2.52a6 6 0 00.74.85 1.54 1.54 0 00.6.26l-.07.3-3.53.06v-.3c.23 0 .29-.11.29-.18a2 2 0 00-.33-.55l-2-2.72-2.48.1.12 3.1a.48.48 0 00.1.28 1.27 1.27 0 00.37.21v.31h-3.08v-.3"/></g><g id="g3231"><path id="path3233" class="cls-1" d="M48 94.88L46.25 87a.48.48 0 00-.16-.29.65.65 0 00-.39-.1v-.22l2.92-.65.05.22a.75.75 0 00-.31.25.55.55 0 000 .34l1.75 7.93a.52.52 0 00.17.31.72.72 0 00.38.1v.22l-2.93.64v-.22a.6.6 0 00.31-.26.43.43 0 000-.34"/></g><g id="g3235"><path id="path3237" class="cls-1" d="M48.09 95a.4.4 0 01-.05.22.36.36 0 01-.29.2v.15l2.8-.62v-.08a.81.81 0 01-.42-.11.55.55 0 01-.21-.35l-1.74-7.93a.55.55 0 010-.17.86.86 0 010-.23.38.38 0 01.31-.19v-.15l-2.8.62v.08a.68.68 0 01.42.12.52.52 0 01.2.33l1.75 7.93h-.08.08a1.09 1.09 0 010 .18m-.44.68v-.31a.58.58 0 00.27-.22A.24.24 0 0048 95v-.14L46.18 87a.39.39 0 00-.13-.24 2.11 2.11 0 00-.42-.15l-.06-.3 3.07-.67V86a.63.63 0 00-.27.22.24.24 0 000 .15.62.62 0 000 .13l1.75 7.93a.38.38 0 00.15.26 1.12 1.12 0 00.4.15l.07.29-3.07.68v-.07"/></g><g id="g3239"><path id="path3241" class="cls-1" d="M54.77 85.09A3.31 3.31 0 0053 86.74a3.24 3.24 0 000 2.74 3.18 3.18 0 002 1.89 3.28 3.28 0 002.43-.16 3.22 3.22 0 001.79-1.64 3.1 3.1 0 00.3-1.42 3.63 3.63 0 00-.27-1.29 3.25 3.25 0 00-2-1.93 3.52 3.52 0 00-2.44.16m-.65-1.49a5.67 5.67 0 014.2-.32 5 5 0 013.18 5.43 5.17 5.17 0 01-3.47 4 5.64 5.64 0 01-4.17.31 4.8 4.8 0 01-1.78-1.12A5.22 5.22 0 0151 90.31a4.78 4.78 0 01-.35-2.71 5.22 5.22 0 013.46-4"/></g><g id="g3243"><path id="path3245" class="cls-1" d="M53.05 86.77a3 3 0 00-.3 1.32 3.52 3.52 0 00.25 1.37 3.15 3.15 0 002 1.84 3 3 0 001 .16 3.8 3.8 0 001.42-.31 3.21 3.21 0 001.74-1.61 2.94 2.94 0 00.3-1.35 3 3 0 00-.28-1.26A3.11 3.11 0 0057.19 85a3.22 3.22 0 00-1-.16 3.81 3.81 0 00-1.44.31 3.28 3.28 0 00-1.74 1.61m1.88 4.67a3.31 3.31 0 01-2-1.93 3.54 3.54 0 01-.31-1.42 3.15 3.15 0 01.33-1.39A3.4 3.4 0 0154.73 85v.07V85a3.74 3.74 0 011.5-.31 3.35 3.35 0 011 .15 3.3 3.3 0 012.06 2 3.43 3.43 0 01.27 1.33 3.26 3.26 0 01-2.12 3.1 3.91 3.91 0 01-1.48.32 3.21 3.21 0 01-1-.17m-.78-7.78c-2 .9-3.16 2.21-3.42 4a3.66 3.66 0 00-.06.73 4.86 4.86 0 00.41 1.94 4.92 4.92 0 001.05 1.57 4.71 4.71 0 003.33 1.37 6.44 6.44 0 002.51-.6 5.06 5.06 0 003.43-4 4.26 4.26 0 00.07-.78 4.93 4.93 0 00-3.21-4.56 4.59 4.59 0 00-1.57-.27 6.68 6.68 0 00-2.56.58zm-.32 9.43A4.75 4.75 0 0152 92a5.19 5.19 0 01-1.08-1.6 5.07 5.07 0 01-.42-2 4.84 4.84 0 01.06-.75 5.31 5.31 0 013.51-4.07 6.76 6.76 0 012.62-.59 4.6 4.6 0 011.62.28A4.83 4.83 0 0161.25 86a5 5 0 01.39 1.9 7.36 7.36 0 01-.06.8 5.29 5.29 0 01-3.52 4.08 6.7 6.7 0 01-2.6.59 4.7 4.7 0 01-1.63-.29"/></g><g id="g3247"><path id="path3249" class="cls-1" d="M63.61 83.29l2.56-2a7 7 0 00.78-.66 1.86 1.86 0 00.32-.47A1.28 1.28 0 0066 78.54a1.6 1.6 0 00-.53.19c-.16.1-.44.3-.83.6l-2.55 2zm1 1.25l2 2.52a.48.48 0 00.28.2.72.72 0 00.38-.07l.14.17L65 89.19l-.19-.19a.78.78 0 00.17-.37.53.53 0 00-.12-.32l-5-6.42a.53.53 0 00-.28-.21 1.07 1.07 0 00-.39.07l-.14-.17 4.75-3.67a10.12 10.12 0 011.46-1 3 3 0 011.16-.33 2.32 2.32 0 011.26.27 3.31 3.31 0 011 .87q1.43 1.86-.4 3.77l3.1 1a7.41 7.41 0 001.12.27.93.93 0 00.57-.17l.14.18-2.74 2.12-.13-.19c.16-.16.2-.31.12-.41a1.77 1.77 0 00-.64-.28L66.6 83l-2 1.56"/></g><g id="g3251"><path id="path3253" class="cls-1" d="M66 78.62a1.56 1.56 0 00-.5.17c-.16.1-.44.3-.82.59l-2.5 1.92 1.44 1.88 2.51-1.93a6.64 6.64 0 00.76-.64 1.9 1.9 0 00.31-.45 1.16 1.16 0 00.07-.37 1.21 1.21 0 00-.27-.7 1.06 1.06 0 00-.85-.48H66m-2.39 4.66h.06zm-1.64-2l2.61-2a9 9 0 01.84-.59 1.29 1.29 0 01.56-.19.52.52 0 01.17 0 1.18 1.18 0 011 .54 1.34 1.34 0 01.32.79.88.88 0 01-.1.43 1.81 1.81 0 01-.33.5c-.15.14-.4.36-.79.66l-2.55 2-.07.05zm3 7.8l2.25-1.73-.06-.08a.88.88 0 01-.29.06h-.09a.5.5 0 01-.31-.22l-2-2.53v-.06l2.15-1.61 3.27 1a1.88 1.88 0 01.67.31.24.24 0 010 .16.5.5 0 01-.14.31v.07l2.62-2v-.07a1 1 0 01-.5.14h-.06a5.41 5.41 0 01-1.13-.27l-3.21-1 .08-.08a3.08 3.08 0 001-2.07 2.7 2.7 0 00-.61-1.6 3.66 3.66 0 00-1-.85 2.14 2.14 0 00-1.07-.28h-.15a3.16 3.16 0 00-1.14.34 8.7 8.7 0 00-1.44.95l-4.61 3.65v.07a.89.89 0 01.3-.05h.08a.67.67 0 01.34.23l5 6.43a.56.56 0 01.14.35.86.86 0 01-.15.35zm-.08.17l-.17-.24a.71.71 0 00.16-.32.43.43 0 00-.11-.26L59.85 82a.42.42 0 00-.25-.18h-.05a.79.79 0 00-.3.07l-.25-.3 4.81-3.71a9 9 0 011.47-1 3.11 3.11 0 011.18-.34h.17a2.14 2.14 0 011.13.29 3.2 3.2 0 011 .89 2.71 2.71 0 01.64 1.69 3.13 3.13 0 01-1 2.08l3 .93a6 6 0 001.08.26h.06a.78.78 0 00.48-.15h.06l.19.24L70.49 85v-.06l-.18-.24a.46.46 0 00.16-.25v-.06a1.71 1.71 0 00-.59-.26L66.65 83l-2 1.52L66.58 87a.39.39 0 00.24.18.79.79 0 00.3-.07l.19.24-2.37 1.95"/></g><g id="g3255"><path id="path3257" class="cls-1" d="M73.32 68.89l1 2.32-.21.08a.57.57 0 01-.08-.08q-.19-.15-.66 0a4.93 4.93 0 00-2.53 1.72 4.17 4.17 0 00-.67 1.14 1.52 1.52 0 00-.11.8.84.84 0 00.32.57.75.75 0 001 0 9.61 9.61 0 001.07-1l.79-.79a8.24 8.24 0 011.22-1.05 3.64 3.64 0 011.07-.52 2.4 2.4 0 011.19 0 2.56 2.56 0 011.1.53 2.7 2.7 0 011 1.64 3.57 3.57 0 01-.34 2.09 7.17 7.17 0 01-1 1.71 8.34 8.34 0 01-3.07 2.35 1.52 1.52 0 00-.44.25.57.57 0 00-.06.32l-.21.1-1.18-2.29.2-.1a.14.14 0 01.07.06.83.83 0 00.65.13 3.84 3.84 0 001.44-.67 5.79 5.79 0 001.33-1.2 4 4 0 00.79-1.5 1.54 1.54 0 000-.74 1 1 0 00-.34-.55.72.72 0 00-.84 0 6.59 6.59 0 00-1.12 1l-.77.77c-.52.51-.89.86-1.13 1.06a3.87 3.87 0 01-.82.49 2.33 2.33 0 01-1.38.18 2.51 2.51 0 01-1.22-.56 2.61 2.61 0 01-1-1.92 4.63 4.63 0 011.2-3.23 7.21 7.21 0 011.21-1.2 12.44 12.44 0 011.79-1.11 2 2 0 00.43-.29.58.58 0 00.1-.37l.21-.09"/></g><g id="g3259"><path id="path3261" class="cls-1" d="M72.58 78.77l1.12 2.17h.09a.7.7 0 01.08-.37 1.41 1.41 0 01.47-.26 8.51 8.51 0 003-2.34 7.16 7.16 0 001-1.68 4 4 0 00.37-1.57 2.63 2.63 0 000-.49 2.72 2.72 0 00-2-2.12 3.55 3.55 0 00-.55-.06 2.33 2.33 0 00-.59.08 4.12 4.12 0 00-1.06.51 8.24 8.24 0 00-1.21 1.05l-.78.78a9.62 9.62 0 01-1.09 1 1.08 1.08 0 01-.6.22.71.71 0 01-.47-.18.94.94 0 01-.34-.63 1.5 1.5 0 010-.22 1.64 1.64 0 01.12-.6 4.12 4.12 0 01.7-1.16 5 5 0 012.56-1.76 1.31 1.31 0 01.41-.07.5.5 0 01.31.09s.06 0 0 .07l.14-.06-1-2.19h-.09a.69.69 0 01-.11.42 2.19 2.19 0 01-.46.3 14.75 14.75 0 00-1.77 1.09 8.64 8.64 0 00-1.2 1.21 4.75 4.75 0 00-1.25 2.92 2 2 0 000 .24 2.61 2.61 0 001 1.87 2.53 2.53 0 001.19.55h.38a2.19 2.19 0 00.94-.21 3.71 3.71 0 00.82-.49 13.27 13.27 0 001.12-1l.77-.77a6.25 6.25 0 011.13-1 .92.92 0 01.47-.14.69.69 0 01.46.18 1 1 0 01.36.59 1.47 1.47 0 010 .36 2.12 2.12 0 010 .42 3.94 3.94 0 01-.75 1.48 6.43 6.43 0 01-1.39 1.23 3.87 3.87 0 01-1.47.67h-.2a.83.83 0 01-.5-.16v-.05zm-.2-.07h.07l.29-.1a.1.1 0 00.07.06.54.54 0 00.4.14h.19a3.89 3.89 0 001.39-.65 6 6 0 001.36-1.21 3.57 3.57 0 00.74-1.41 1.65 1.65 0 000-.38 1.75 1.75 0 000-.33 1.05 1.05 0 00-.31-.51.63.63 0 00-.37-.14.73.73 0 00-.4.12 6.76 6.76 0 00-1.09 1L74 76a13.71 13.71 0 01-1.18 1 3.92 3.92 0 01-.84.51 2.36 2.36 0 01-1 .22 2.6 2.6 0 01-.4 0 2.92 2.92 0 01-2.33-2.55v-.26a4.87 4.87 0 011.28-3 7.2 7.2 0 011.24-1.23 14 14 0 011.8-1.11 2 2 0 00.43-.28 1 1 0 00.11-.39l.22-.09h.06l1.09 2.45h-.06l-.29.08-.13-.08a.34.34 0 00-.22-.06 1.29 1.29 0 00-.36.06A4.91 4.91 0 0070.94 73a4.37 4.37 0 00-.69 1.11 1.89 1.89 0 00-.1.55.65.65 0 000 .2.79.79 0 00.28.53.59.59 0 00.38.15 1 1 0 00.51-.19 8.57 8.57 0 001.07-1l.78-.78a9.36 9.36 0 011.24-1.07 4.28 4.28 0 011.1-.53 2.72 2.72 0 01.63-.08 2.25 2.25 0 01.58.07 2.75 2.75 0 011.14.55 2.79 2.79 0 011 1.68 2.24 2.24 0 010 .52 4.25 4.25 0 01-.38 1.63 7.69 7.69 0 01-1.06 1.72 8.69 8.69 0 01-3.1 2.37c-.26.12-.41.22-.42.22a1.16 1.16 0 00-.08.35l-.28.12-1.16-2.42"/></g><g id="g3263"><path id="path3265" class="cls-1" d="M77.11 46A38.45 38.45 0 1138.67 7.52 38.45 38.45 0 0177.11 46"/></g><g id="g3267"><path id="path3269" class="cls-2" d="M38.65 77.88a33.15 33.15 0 1133.14-33.14 33.14 33.14 0 01-33.14 33.14m0-68.5A35.37 35.37 0 1074 44.75 35.36 35.36 0 0038.65 9.38"/></g><g id="g3271"><path id="path3273" class="cls-2" d="M19.21 28s19.7 26.33 51 32.32l-5.61 1.61S45 57.4 19.36 28.76"/></g><g id="g3275"><path id="path3277" class="cls-2" d="M9.91 65.07a322.79 322.79 0 0153.61-3.52l5.63-1.21-3 6.63s-29.66-1-51.63 1.29c-3.91-.54-3.4-2-3.4-2l-1.21-1.19"/></g><g id="g3279"><path id="path3281" class="cls-2" d="M13.69 68.68s33.23-1.45 50.1.79c.45.06 1.37-1.52 1.37-1.52s-12.24-1.69-49.72-.38c-6.07.21-1.75 1.11-1.75 1.11"/></g><g id="g3283"><path id="path3285" class="cls-2" d="M17.59 30.84C11.53 45.19 4.37 50.92 4.37 50.92l.41 2.9a115.19 115.19 0 0012.81-21.68c2.72-6.32 0-1.3 0-1.3"/></g><g id="g3287"><path id="path3289" class="cls-2" d="M18.13 26.89l-.86.21s-.84 40.95-.27 45.51c.05.41 2 0 2 0s.67 2.78 2 1.62C19.85 59.76 19.57 26 19.57 26h-1.42v.85"/></g><g id="g3291"><path id="path3293" class="cls-2" d="M20.1 27.62l1-.83 1 .46s1 38.6 2.88 49.43l-1-.08s-2-.12-2.15-1.38C21 68 20.1 27.62 20.1 27.62"/></g><g id="g3295"><path id="path3297" class="cls-2" d="M14.64 65.91l-.7-.12 2.86-16.11.69.12z"/></g><g id="g3299"><path id="path3301" class="cls-2" d="M12.1 65.6l-.69-.12L17.17 33l.69.11z"/></g><g id="g3303"><path id="path3305" class="cls-2" d="M10 63.48l-.53-.69L13.5 40l1-1.55z"/></g><g id="g3307"><path id="path3309" class="cls-2" d="M26.77 64.14l.67-.21-6.37-20.24.55 4.24z"/></g><g id="g3311"><path id="path3313" class="cls-2" d="M29.24 63.51l.67-.21-8.6-27.65.06 2.78z"/></g><g id="g3315"><path id="path3317" class="cls-2" d="M32.12 63l.67-.21-9.3-29.69-1.15-1.21z"/></g><g id="g3319"><path id="path3321" class="cls-2" d="M26.4 36.19l8.52 26.73.67-.22-8-25.36-.43-.43"/></g><g id="g3323"><path id="path3325" class="cls-2" d="M30.59 40.16l7.22 22.77.67-.21-6.84-21.66-.94-.9"/></g><g id="g3327"><path id="path3329" class="cls-2" d="M40.43 62.45l.67-.21-5.75-18-.93-.72z"/></g><g id="g3331"><path id="path3333" class="cls-2" d="M43.41 62.33l.67-.22-4.62-14.6-1.07-1z"/></g><g id="g3335"><path id="path3337" class="cls-2" d="M42.1 49.39l4.11 12.86.67-.21-3.73-11.86-.66-.38"/></g><g id="g3339"><path id="path3341" class="cls-2" d="M46 52.31l3.14 10 .67-.21-2.91-9.17-.8-.25"/></g><g id="g3343"><path id="path3345" class="cls-2" d="M53.13 65.66l.68-.21-3.15-10.18-1.18-1.4z"/></g><g id="g3347"><path id="path3349" class="cls-2" d="M53 56l2.8 8.93.66-.22L54 57.05z"/></g><g id="g3351"><path id="path3353" class="cls-2" d="M56.55 58.22l2 6.44.68-.21-1.71-5.36z"/></g><g id="g3355"><path id="path3357" class="cls-2" d="M6.63 57.18l-.83-.66L8 48.1l.69.08z"/></g><g id="g3359"><path id="path3361" class="cls-2" d="M8.47 59.54l-.53-.69 2.48-14.08.9-1.3z"/></g><g id="g3363"><path id="path3365" class="cls-1" d="M3.68 18.5l-.18.14-.1-.1a.4.4 0 00-.36 0 1.8 1.8 0 00-.48.29 3.65 3.65 0 00-.52.46 7 7 0 00-.44.54 3.13 3.13 0 00-.39.72 2.15 2.15 0 00-.13.79 1.81 1.81 0 00.21.77 2 2 0 00.64.71 2.06 2.06 0 00.86.39 1.79 1.79 0 00.8 0 2.19 2.19 0 00.71-.37 2.85 2.85 0 00.57-.58 5.39 5.39 0 00.58-1 6.46 6.46 0 00.32-.82L5 19.87 4.18 21a.3.3 0 00-.08.22c0 .07.06.15.17.25l-.12.16L3 20.81l.12-.16a.33.33 0 00.25.06.41.41 0 00.17-.16l1.62-2.21.16.12a.72.72 0 00-.1.26c0 .05 0 .1.12.16l1 .73a.15.15 0 00.15 0l.15-.08.15.11a4.14 4.14 0 01-.12.86 5 5 0 01-.27.8 4.23 4.23 0 01-.39.73c-.15.23-.3.46-.46.67a5 5 0 01-1 1 3 3 0 01-1.1.53 2.63 2.63 0 01-1.15 0 3 3 0 01-1.14-.53 2.9 2.9 0 01-.86-.93 2.74 2.74 0 01-.3-1.04 3.09 3.09 0 01.16-1.22 4.64 4.64 0 01.67-1.25 7 7 0 01.59-.7c.21-.21.4-.39.58-.54l.46-.37a1 1 0 00.22-.18.24.24 0 00.06-.15v-.14l.14-.06.79 1.38"/></g><g id="g3367"><path id="path3369" class="cls-1" d="M7.29 13.65a2.33 2.33 0 00-.3.78 1.89 1.89 0 000 .82 1.62 1.62 0 00.4.75 1.56 1.56 0 00.71.46 1.85 1.85 0 00.81.09 2.74 2.74 0 00.81-.23A2.7 2.7 0 0011 15.2a2.92 2.92 0 00.3-.79 2 2 0 000-.81 1.53 1.53 0 00-.4-.75 1.56 1.56 0 00-.71-.47 1.84 1.84 0 00-.81-.08 2.39 2.39 0 00-.81.22 2.68 2.68 0 00-.7.47 2.3 2.3 0 00-.53.66m.88-2.1a3.69 3.69 0 011.21-.37 2.93 2.93 0 011.24.11 2.76 2.76 0 011.76 1.93 2.93 2.93 0 010 1.25 3.82 3.82 0 01-.49 1.16 4.61 4.61 0 01-1.82 1.65 3.43 3.43 0 01-1.2.38 2.76 2.76 0 01-1.24-.11 2.47 2.47 0 01-1.12-.74 2.41 2.41 0 01-.64-1.19 2.93 2.93 0 010-1.25 4 4 0 01.48-1.17 4.4 4.4 0 01.79-1 4.22 4.22 0 011-.69"/></g><g id="g3371"><path id="path3373" class="cls-1" d="M19.58 10.48a.89.89 0 00-.24.12l-4.44 2.75-.1-.17c.18-.11.24-.23.17-.34l-2.62-4.23c-.07-.11-.2-.11-.39 0l-.1-.17 1.6-1 .11.16c-.18.11-.23.22-.16.33l2.3 3.71 3.1-1.92a.48.48 0 00.18-.2.26.26 0 000-.24l.17-.1.79 1.28-.17.1c-.05-.09-.12-.13-.18-.1"/></g><g id="g3375"><path id="path3377" class="cls-1" d="M23.37 7.77a3.5 3.5 0 00.8-.41 1.34 1.34 0 00.48-.53 1.4 1.4 0 00.13-.69 2.87 2.87 0 00-.23-.92 3.14 3.14 0 00-.46-.83 1.51 1.51 0 00-.58-.39 1.39 1.39 0 00-.71-.05 4 4 0 00-.86.25l-1.58.62 1.43 3.58zM22 3.13a3.45 3.45 0 011.11-.26 2.72 2.72 0 011 .16 2.55 2.55 0 01.9.62 3.54 3.54 0 01.67 1.1A3.5 3.5 0 0126 6a2.43 2.43 0 01-.87 1.89 3.53 3.53 0 01-1 .58l-3.39 1.36-.07-.18c.16-.06.21-.15.16-.27L19 4.74c0-.11-.15-.15-.3-.08l-.08-.19L22 3.13"/></g><g id="g3379"><path id="path3381" class="cls-1" d="M32.75 1.51a.21.21 0 00-.13-.16.6.6 0 00-.33 0L28.81 2l.26 1.34L31.18 3a.63.63 0 00.32-.12c.07-.06.09-.16.06-.33h.19l.33 1.68h-.2c0-.16-.09-.26-.18-.29a.55.55 0 00-.34 0l-2.11.41.28 1.49 3.6-.7a.46.46 0 00.25-.14.24.24 0 00.06-.23h.2l.28 1.47h-.19c0-.11-.07-.16-.14-.16a1 1 0 00-.27 0l-5 1v-.2a.24.24 0 00.13-.07.2.2 0 000-.16l-1-4.89a.17.17 0 00-.08-.13.26.26 0 00-.15 0v-.2l4.89-1a.6.6 0 00.31-.14.21.21 0 000-.2h.2l.27 1.42h-.19"/></g><g id="g3383"><path id="path3385" class="cls-1" d="M35.55 5.57c.14 0 .2-.06.21-.19V.4c0-.14-.07-.2-.21-.2V0h1.87v.2c-.06 0-.08 0-.08.11s.07.16.22.3l3.14 3.27V.4c0-.13-.09-.2-.28-.2V0h1.65v.2a.18.18 0 00-.2.2v5c0 .13.08.19.21.19v.2H40.3v-.2c.09 0 .14 0 .14-.1s-.06-.13-.17-.25l-3.35-3.51v3.64c0 .14.08.2.25.2v.2h-1.62v-.2"/></g><g id="g3387"><path id="path3389" class="cls-1" d="M48.25 4.94l.09.08a.41.41 0 000 .19.85.85 0 00.22.33 2.71 2.71 0 00.44.35 4.8 4.8 0 00.54.32 4.81 4.81 0 00.53.21 4.84 4.84 0 00.48.1 2.88 2.88 0 00.59.05 1.79 1.79 0 00.54-.1.5.5 0 00.32-.34.43.43 0 00-.09-.41 1.41 1.41 0 00-.44-.3 4.13 4.13 0 00-.66-.26c-.26-.09-.52-.17-.78-.27s-.51-.21-.75-.33a2.07 2.07 0 01-.62-.43 1.49 1.49 0 01-.36-.62 1.64 1.64 0 010-.84 1.55 1.55 0 01.33-.6 1.72 1.72 0 01.63-.43 2.68 2.68 0 01.91-.17 4 4 0 011.18.17 4.89 4.89 0 01.95.35 7.63 7.63 0 01.67.38l.45.32a1 1 0 00.32.18.3.3 0 00.23 0l.1.11L53 4.1l-.09-.1a.55.55 0 000-.26 1.28 1.28 0 00-.21-.33 2.86 2.86 0 00-.4-.35 5.29 5.29 0 00-.53-.31 3.92 3.92 0 00-.6-.23 3.56 3.56 0 00-.49-.09 2.64 2.64 0 00-.48 0 .85.85 0 00-.38.11.36.36 0 00-.22.26.44.44 0 00.08.43 1.39 1.39 0 00.43.33 4.11 4.11 0 00.66.27l.78.28a5 5 0 01.75.33 2.38 2.38 0 01.62.44 1.38 1.38 0 01.35.61 1.45 1.45 0 010 .82 1.34 1.34 0 01-.54.81 2.08 2.08 0 01-.87.35 3.17 3.17 0 01-1 0 6.38 6.38 0 01-.95-.19 6.51 6.51 0 01-1-.35 3.91 3.91 0 01-.63-.36 3.61 3.61 0 01-.38-.3.61.61 0 00-.25-.15.2.2 0 00-.16 0L47.37 6l.93-1.12"/></g><g id="g3391"><path id="path3393" class="cls-1" d="M57.4 9.94l-.09.18-1.52-.73.08-.17a.26.26 0 00.15 0 .19.19 0 00.12-.1l1.87-4-1.64-.72a.44.44 0 00-.2 0 .23.23 0 00-.17.15l-.18-.09.66-1.38.18.08a.21.21 0 000 .23.31.31 0 00.15.13l4.4 2.09a.34.34 0 00.2 0 .23.23 0 00.17-.15l.18.09-.66 1.38-.18-.08a.23.23 0 000-.23.37.37 0 00-.15-.13l-1.64-.77-1.86 3.94c-.06.12 0 .21.13.28"/></g><g id="g3395"><path id="path3397" class="cls-1" d="M63.74 11.35l.38-2.21-2 1.12zm-4.57-.62a.36.36 0 00.27 0l.28-.14 4.07-2.4.26-.15a.5.5 0 00.17-.13v-.17a.56.56 0 00-.1-.15l.11-.16 1.54 1-.11.16h-.16c-.06 0-.11 0-.16.09a.44.44 0 00-.06.16v.26l-.6 5a.36.36 0 000 .23l.12.21-.12.16-1.59-1.08.11-.16h.11a.1.1 0 00.1 0 .62.62 0 00.09-.29l.11-.91-2.22-1.49-.76.42a.87.87 0 00-.27.21c0 .07 0 .14.1.22l-.11.16-1.29-.87.11-.16"/></g><g id="g3399"><path id="path3401" class="cls-1" d="M67.52 17.09l-.13.15-1.24-1.15.13-.14a.24.24 0 00.14.05.17.17 0 00.14-.07l3-3.21-1.37-1.22a.31.31 0 00-.18-.09.2.2 0 00-.21.09l-.14-.14 1-1.13.14.14a.21.21 0 00-.07.21.32.32 0 00.1.17l3.58 3.3a.4.4 0 00.18.1.23.23 0 00.21-.1l.15.14-1 1.13-.15-.13c.07-.08.1-.15.07-.22a.32.32 0 00-.1-.17l-1.33-1.23-3 3.21c-.09.1-.07.2 0 .31"/></g><g id="g3403"><path id="path3405" class="cls-1" d="M76.78 21.17a.23.23 0 00.09-.18.75.75 0 00-.15-.3l-2.17-2.81-1.08.83 1.31 1.7a.8.8 0 00.26.24c.08 0 .19 0 .32-.1l.12.16-1.36 1-.12-.12c.14-.1.2-.19.19-.29A.77.77 0 0074 21l-1.31-1.7-1.2.92 2.24 2.9a.49.49 0 00.22.17.24.24 0 00.23-.05l.12.16-1.19.92-.11-.17c.09-.07.12-.13.09-.19a.9.9 0 00-.15-.23l-3.12-4.05.16-.12a.2.2 0 00.12.08.22.22 0 00.16-.05l3.94-3a.19.19 0 00.08-.14.21.21 0 000-.14l.15-.12 3 4a.57.57 0 00.26.21.21.21 0 00.2 0l.13.16-1.15.88-.12-.16"/></g></g></g></g></g></svg>