<svg xmlns="http://www.w3.org/2000/svg" viewBox="0 0 79.44 67.01"><defs><style>.cls-2{fill:#002d62}.cls-3{fill:#ffc526}</style></defs><g id="Layer_2" data-name="Layer 2"><g id="Layer_1-2" data-name="Layer 1"><path d="M66.45 9.25A25.45 25.45 0 0046.5 0H14.74L0 67h27.12L31 50.8h13.22c9.08.07 16.53-3 21.55-8.9 9.11-9.92 7.51-24.41.68-32.65" fill="#bec0c2"/><path class="cls-2" d="M29.62 49l-3.89 16.24H2.19l14-63.47h30.34a23.59 23.59 0 0118.59 8.59c6.72 8.12 7.39 21.62-.66 30.39-4.94 5.79-12.18 8.33-20.2 8.27H29.62"/><path class="cls-3" d="M13 15.87h13.3a2.4 2.4 0 012.45 3.22 17.46 17.46 0 00-.92 3.9c-.13 1 1 1.66 1.67 1.66h27.1c.51 0 .77-.14.77-.39a13.91 13.91 0 00-.12-1.77c-.09-.6-.19-.7-.67-.7-3.38 0-4.76-1.51-8.3-3.8a26 26 0 00-13.2-3.59H13.33L13 15.87M29.45 33.42a18 18 0 01-1.17-3.3 3.36 3.36 0 00-3.56-2.55H10.46l.35-1.6L57 26c.46 0 .36.19.33.71s-.14 1.45-.22 2-.53.42-1 .43A8 8 0 0052 30.25 37.63 37.63 0 0143.78 35c-2.46.78-11.66 3.6-14.36-1.59"/><path class="cls-3" d="M7.9 39.21H32a4 4 0 012.69.85 21 21 0 007.49 3.71c1.27.37 3.43-.1 5.37-1.2a21 21 0 009-11.28c.27-.87-.24-.8-.92-.75-2 .14-4.18 2-7 3.78s-8.55 3.49-14 3.48H8.21l-.31 1.41M43.31 6.88a5.23 5.23 0 012.24.12c4.58 1.81 8.93 6.58 10.74 11.65.35 1 .44 1.6 0 1.65-2.1.24-3.08-.81-5.56-2.48A28.83 28.83 0 0042.85 14c-3.08-1-8.71-1.12-9.43-1.15s-.64-.33-.32-.64a19.56 19.56 0 0110.21-5.33M65.31 24.27a.44.44 0 01-.43.42h-5.29c-.68 0-.7-.31-.71-.7s-.14-1.17-.17-1.63-.18-1 .41-1.21a7.75 7.75 0 003.51-3.29c.21-.42.52-1.11.89-.53a14.74 14.74 0 011.79 7M63.42 33.77c-.09.18-.43.31-.54 0A8.66 8.66 0 0059 29.6a.67.67 0 01-.37-.83c.05-.38.21-1.58.23-2.09s.18-.69.49-.69h5.51c.19 0 .43.18.43.33a17.16 17.16 0 01-1.89 7.45"/><path class="cls-3" d="M49.09 44.11c-.39.06-1.23-.07.1-.85 4-2.33 7.57-7.79 8.52-10.93.36-1.19.41-1.25.86-1.13a5.92 5.92 0 012.32 2c.74 1 1.06 3 .63 3.58a19.11 19.11 0 01-12.43 7.3M59.27 19.39c-.93.5-1.11.41-1.31-.29-1.74-6.1-6.87-10.62-9-12-.39-.25-.29-.42 0-.38 5 .67 9.94 3.41 12.42 7.16 1.41 2.14-1.24 5-2.14 5.47"/><path class="cls-2" d="M38.15 56c-.06.24-1 4.2-1 4.4h-2.53c.07-.31 1-4.2 1-4.4h2.49m-4.09-1.79l-3 12.68h2s1.06-4.5 1.12-4.7h3.24A1.56 1.56 0 0039 61l1.3-5.5a1.37 1.37 0 000-.34.9.9 0 00-.18-.57 1.17 1.17 0 00-1-.38z"/><path class="cls-2" d="M38.15 56c-.06.24-1 4.2-1 4.4h-2.53c.07-.31 1-4.2 1-4.4zm-4.09-1.79l-3 12.68h2s1.06-4.5 1.12-4.7h3.24A1.56 1.56 0 0039 61l1.3-5.5a1.37 1.37 0 000-.34.9.9 0 00-.18-.57 1.17 1.17 0 00-1-.38zM44.84 62.39c-.06.28-.61 2.62-.66 2.81h-2.24c.06-.28.62-2.62.66-2.81h2.24m-1.61-5.71a1.39 1.39 0 00-1.46 1.16l-.53 2.25h2s.35-1.49.39-1.69h2.18c-.07.29-.49 2.07-.54 2.25h-2.9a1.62 1.62 0 00-1.67 1.41l-.88 3.68a1.41 1.41 0 000 .28.89.89 0 00.19.57 1.1 1.1 0 00.89.37h.06c.71 0 2.27-.17 2.88-.23a1.23 1.23 0 010 .16h2l2.13-9a.88.88 0 00-.97-1.21z"/><path class="cls-2" d="M44.84 62.39c-.06.28-.61 2.62-.66 2.81h-2.24c.06-.28.62-2.62.66-2.81zm-1.61-5.71a1.39 1.39 0 00-1.46 1.16l-.53 2.25h2s.35-1.49.39-1.69h2.18c-.07.29-.49 2.07-.54 2.25h-2.9a1.62 1.62 0 00-1.67 1.41l-.88 3.68a1.41 1.41 0 000 .28.89.89 0 00.19.57 1.1 1.1 0 00.89.37h.06c.71 0 2.27-.17 2.88-.23a1.23 1.23 0 010 .16h2l2.13-9a.88.88 0 00-.97-1.21zM51.54 56.68a1.36 1.36 0 00-1.43 1.16l-1.86 7.82a1.06 1.06 0 00.11.92 1 1 0 00.83.31h3.66a1.36 1.36 0 001.43-1.16l.72-3h-2s-.54 2.28-.59 2.48h-2.06c.08-.32 1.56-6.56 1.61-6.77h2.11l-.4 1.66h1.95l.52-2.15A1.09 1.09 0 0056 57a1 1 0 00-.83-.3h-3.63"/><path class="cls-2" d="M51.54 56.68a1.36 1.36 0 00-1.43 1.16l-1.86 7.82a1.06 1.06 0 00.11.92 1 1 0 00.83.31h3.66a1.36 1.36 0 001.43-1.16l.72-3h-2s-.54 2.28-.59 2.48h-2.06c.08-.32 1.56-6.56 1.61-6.77h2.11l-.4 1.66h1.95l.52-2.15A1.09 1.09 0 0056 57a1 1 0 00-.83-.3zM62.1 58.4c-.06.27-.49 2.09-.53 2.27h-2.1c.06-.26.5-2.08.54-2.27h2.09m-2.51-1.72a1.36 1.36 0 00-1.43 1.16l-1.86 7.82a1.06 1.06 0 00.11.92 1 1 0 00.82.31h3.68a1.42 1.42 0 00.93-.29 1.45 1.45 0 00.5-.87l.66-2.86h-2l-.55 2.3H58.4c.07-.31.63-2.65.67-2.85h3.62l.57-.46.94-4a1.44 1.44 0 000-.39.84.84 0 00-.16-.53 1 1 0 00-.82-.31z"/><path class="cls-2" d="M62.1 58.4c-.06.27-.49 2.09-.53 2.27h-2.1c.06-.26.5-2.08.54-2.27zm-2.51-1.72a1.36 1.36 0 00-1.43 1.16l-1.86 7.82a1.06 1.06 0 00.11.92 1 1 0 00.82.31h3.68a1.42 1.42 0 00.93-.29 1.45 1.45 0 00.5-.87l.66-2.86h-2l-.55 2.3H58.4c.07-.31.63-2.65.67-2.85h3.62l.57-.46.94-4a1.44 1.44 0 000-.39.84.84 0 00-.16-.53 1 1 0 00-.82-.31zM71.18 56.6c-.8.09-2.08.24-2.64.33l.06-.24h-2l-2.4 10.2h2l2-8.34h2c-.08.3-.33 1.51-.33 1.51h2l.5-2.23a1 1 0 00-.12-.9 1.09 1.09 0 00-.93-.34h-.07"/><path class="cls-2" d="M71.18 56.6c-.8.09-2.08.24-2.64.33l.06-.24h-2l-2.4 10.2h2l2-8.34h2c-.08.3-.33 1.51-.33 1.51h2l.5-2.23a1 1 0 00-.12-.9 1.09 1.09 0 00-.93-.34zM74.78 56.68a1.32 1.32 0 00-1.33 1.16l-.58 2.43a1.87 1.87 0 00-.05.4.77.77 0 00.15.49l.1.07c2.27 1.55 2.87 2 3 2.11 0 .15-.41 1.73-.43 1.79h-2l.54-2.24h-2l-.65 2.74a1 1 0 00.11.93.9.9 0 00.73.29h3.83a1.31 1.31 0 001.34-1.15l.63-2.67a1.42 1.42 0 000-.37A1 1 0 0078 62c-1-.68-2.7-1.78-3-2 0-.15.34-1.43.37-1.56h2l-.39 1.69h2l.5-2.18a1.06 1.06 0 00-.11-.93.93.93 0 00-.75-.3h-3.84"/><path class="cls-2" d="M74.78 56.68a1.32 1.32 0 00-1.33 1.16l-.58 2.43a1.87 1.87 0 00-.05.4.77.77 0 00.15.49l.1.07c2.27 1.55 2.87 2 3 2.11 0 .15-.41 1.73-.43 1.79h-2l.54-2.24h-2l-.65 2.74a1 1 0 00.11.93.9.9 0 00.73.29h3.83a1.31 1.31 0 001.34-1.15l.63-2.67a1.42 1.42 0 000-.37A1 1 0 0078 62c-1-.68-2.7-1.78-3-2 0-.15.34-1.43.37-1.56h2l-.39 1.69h2l.5-2.18a1.06 1.06 0 00-.11-.93.93.93 0 00-.75-.3z"/></g></g></svg>