<svg xmlns="http://www.w3.org/2000/svg" viewBox="0 0 90.61 56.5"><defs><clipPath id="clip-path"><path d="M42.77 55.83A27.39 27.39 0 0070 28.24a27.18 27.18 0 10-54.36 0 27.39 27.39 0 0027.13 27.59" fill="none"/></clipPath><style>.cls-3{fill:#552582}.cls-4{clip-path:url(#clip-path)}.cls-5{fill:#231f20}</style></defs><g id="Layer_2" data-name="Layer 2"><g id="Layer_1-2" data-name="Layer 1"><g id="g3123"><path id="path3055" d="M42.77 55.83A27.39 27.39 0 0070 28.24a27.18 27.18 0 10-54.36 0 27.39 27.39 0 0027.13 27.59" fill="#fdb827"/><path id="path3057" class="cls-3" d="M55.16 31.06c-2.54 3.08-4 4.14-6.56 4.14-.87 0-1.33-.2-1.08-.63l3-6.15h1.17c1.3 0 1.12 1.1.77 2.59-.07.2.09.21.25 0l2.9-5.11c.15-.32-.22-.38-.4-.14a3.9 3.9 0 01-3.64 1.83h-.47l3.27-6.23h1.31c1.66.1 2.43 1.51 2 4.91h.69l2.4-4.74c.2-.4-.21-.77-.66-.77H43.76c-.95 0-1 .72-.09.72.74 0 .7 1.06 0 1.56l-6.92 5.5 1.4 6.49a.85.85 0 001 .72h13.48a1.07 1.07 0 001-.46L56 31.12c.34-.61-.44-.57-.87-.06m-9.39-3h-1.16a.15.15 0 000 .3h1.21c.4 0 .78.05.67.23l-3.11 6a.7.7 0 01-1.34 0l-1.54-8 5.42-4.21A5 5 0 0148 21.13h1.19c.71 0 1 .34.8.77l-.21.4c-.13.23-.56.26-.92.26h-.68a.15.15 0 00-.15.15.14.14 0 00.15.15h.67c.29 0 .66 0 .52.23l-2.52 4.8c-.11.19-.64.22-1.08.22"/><path id="path3059" class="cls-3" d="M34.58 35.06a.73.73 0 01-.68-.5 2 2 0 010-1.24l6.29-11.15c.1-.2.36-.63.67-.63.56 0 .8-.73-.14-.73h-5c-.94 0-1 .71-.05.71a.42.42 0 01.41.58l-1.39 2.53c-.18.27-.56.29-1 .29h-1.2a.15.15 0 000 .3h1.21c.33 0 .58.1.4.47l-4.65 8.46c-.33.47-1 .57-1-.32l1.65-12.39c.07-.38 0-.64-.45-.64H27.2a.72.72 0 00-.62.34l-.89 1.11a1 1 0 01-.64.12H23a.14.14 0 00-.15.15.15.15 0 00.15.15h1.7c.31 0 .66.07.53.21l-2.39 3a.72.72 0 01-.45.11h-.68a.15.15 0 100 .3h.57c.17 0 .17.09.1.17l-2.25 2.82a.85.85 0 01-.56.14h-2a.15.15 0 00-.14.15.14.14 0 00.14.15h1.71c.26 0 .46.05.32.22l-3.2 4c-.6.76-3.49 1.15-4.06 1.15l10.79-20.22a1.18 1.18 0 01.92-.59h2.3c1.08 0 1-.72.11-.72H14.91c-.94 0-1 .72.1.72h2.14c.61 0 .81.37.65.67l-.31.55c-.1.19-.24.26-.83.26h-3.78a.15.15 0 00-.15.15.15.15 0 00.15.15h3.77c.21 0 .51.05.32.42l-.53 1a.68.68 0 01-.59.22h-1.71a.15.15 0 100 .3h1.71c.24 0 .25.16.11.39l-1.22 2.26c-.11.19-.3.22-.69.22h-.68a.15.15 0 00-.15.15.14.14 0 00.15.15H14c.26 0 .32.14.21.38l-1 1.86c-.15.27-.36.37-1 .37H8.45a.15.15 0 100 .3h3.76c.43 0 .59.19.42.5l-2 3.66c-.12.17-.43.19-1 .19H5.92a.15.15 0 000 .3h3.77c.45 0 .73 0 .59.26l-1.12 2.09c-.21.32-.79.32-1 .32H7a.15.15 0 100 .3h1.14c.42 0 .64.07.53.3l-1.5 2.82c-.14.25-.72.27-1.18.27H.15a.15.15 0 000 .3H6c.38 0 .87 0 .69.35l-1 1.8c-.09.15-.42.16-.89.16H3.64a.16.16 0 00-.16.15.15.15 0 00.16.15h1.19c.28 0 .64 0 .51.26l-.6 1.15a.94.94 0 01-.84.59H1c-1.08 0-1 .72-.1.72h17.17c.51 0 .52-.07.76-.44l2.55-4.45h13.05c1 0 .7-.71.15-.73m-10.23-1.36c-.13.73-.87 1.22-1.8 1.46l-1 .24.83-1.44c.21-.38-.25-.61-.74 0-3.34 3.89-4.4 5.75-9.54 5.76h-1.38c-.42 0-.88-.16-.59-.56L12 35.79h6.9c.94 0 .7-.71.15-.73A1.31 1.31 0 0118 34.4a1 1 0 010-1l2.64-3.51H25zm1-4.45h-4.3l5.43-7.15-1.14 7.15z"/><path id="path3061" class="cls-3" d="M90.6 31.51c-.07-.36-.2-.14-.43.3-.07.14-.3.14-.53.14H89a.16.16 0 00-.16.16.16.16 0 00.16.15h.67c.26 0 .27.17.14.43a11.4 11.4 0 01-1.61 2.5.81.81 0 01-.57.24h-.73a.15.15 0 000 .3h.68c.34 0 0 .21-.07.29a15.07 15.07 0 01-2.91 3 2.67 2.67 0 01-1 0H83a.15.15 0 00-.15.15.15.15 0 00.15.15h.68c.51 0 .12.3 0 .36a9.08 9.08 0 01-6 1.91 5.9 5.9 0 01-5.32-4.93c-.06-.27-.26-.81-.32-1.14-.13-.66 1.74-.85 2.26-.5a8.77 8.77 0 004 1.07c1.33 0 4-1 4.84-3.25S82 28 81.13 27.11c-1.14-1.14-2.22-3-1.76-4.3a1.93 1.93 0 012.14-1.46 2.52 2.52 0 012.74 2.47c0 .13-.07.28-.18.28h-.56a.16.16 0 00-.15.16.15.15 0 00.15.15H84c.15 0 .24.11.2.29-.1.48-.14.83-.24 1.31-.06.28.35.48.49.27L87 21.83c.18-.34-.22-.43-.52-.32a3.23 3.23 0 01-2.19.11 4.86 4.86 0 00-3.08-1.1c-2.22 0-3.77.55-4.77 2.37-.08.15-.3.15-.48.15h-.43a.15.15 0 00-.15.15.15.15 0 00.15.15h.36c.16 0 .26.05.18.23s-.12.33-.18.51A4.59 4.59 0 0076.1 27c0 .07-.06.1-.21.1h-.68a.15.15 0 100 .3h.68c.31 0 .38 0 .51.21.35.49.71.86 1.16 1.43.14.18-.46.23-.79.23h-2.69a.15.15 0 000 .3h2.73a4.22 4.22 0 011.27.09 6.61 6.61 0 011.59 2.92c0 .28-.07.4-.42.4h-.36a.15.15 0 000 .3h.32c.28 0 .43 0 .36.25-.35 1.13-.88 1.95-3 1.94s-2.72-2.23-2.06-4.54c.13-.46 0-.66-.22-.3l-1.57 2.47a.54.54 0 01-.43.2H72a.15.15 0 100 .3c.2 0 .28.11.2.22l-.58.9a29 29 0 00-3.39-5.83c2.09-.13 5.18-2.09 5.69-3.85.88-3-2.08-4.17-3.69-4.17h-7.02c-.94 0-1 .72-.11.72.49 0 .91.43.7.86l-1.57 2.82c-.13.24-.62.22-1.25.22h-.69a.16.16 0 00-.15.16.15.15 0 00.15.15H61c.45 0 1 0 .78.35l-1.86 3.34c-.08.16-.33.17-1 .17h-.69a.16.16 0 00-.15.16.15.15 0 00.15.15h.67c.5 0 .68.06.54.32L57 34.69a1.49 1.49 0 01-1.25.38c-.91 0-.9.72.05.72h6.06c.94 0 .71-.73.15-.73a.7.7 0 01-.45-1l3.09-5.86H65c1.37 0 1.71 2.26 2 4.72 0 .18-.31.19-1 .19h-1.81a.15.15 0 00-.15.15.15.15 0 00.15.15h1.7c.46 0 1.09 0 1.1.15a23.87 23.87 0 00.42 2.91c.06.27-.42.22-.94.22h-2.19a.15.15 0 000 .3h2.19c.69 0 1 0 1.09.14.94 3.46 5 6.19 8.92 6a13.77 13.77 0 007.69-3.14 26.19 26.19 0 006-7.19c.21-.44.56-1 .48-1.38M67.9 26.9c-.47.39-1.21.84-1.36.69a5.72 5.72 0 00-1.16-.78l2.81-5.14a.56.56 0 01.56-.28c1.09 0 1.45 1.18.94 2.66a6.57 6.57 0 01-1.79 2.85"/><path id="path3063" class="cls-3" d="M33.74 16.23a2.52 2.52 0 01-2.17.92h-.24l1.5-2.95a.46.46 0 01.42-.24c.19 0 .16-.38-.08-.38h-2.35c-.2 0-.27.38-.09.38s.24.22.14.41L29.54 17a.59.59 0 01-.4.22c-.2.05-.34.41-.11.41h3.75a.45.45 0 00.44-.21l.78-1.17c.11-.14-.12-.16-.23 0"/><path id="path3065" class="cls-3" d="M45.06 13.69a.57.57 0 01-.51 0 2.34 2.34 0 00-1.19-.43 1.78 1.78 0 00-1.91 1c-.33.72 0 1.31.79 1.67.33.16.78.37.61.77s-.47.33-.78.33a1.22 1.22 0 01-1.15-.91c0-.19-.26-.15-.32-.05l-.54 1.07c-.08.14.14.3.23.2a.68.68 0 01.76-.11 3.3 3.3 0 001.36.49 2.07 2.07 0 002-1 1.16 1.16 0 00-.64-1.78c-.44-.21-.81-.57-.61-1s.51-.21.7-.17a1.19 1.19 0 01.89.7.14.14 0 00.26 0l.28-.65c.06-.13-.14-.23-.21-.19"/><path id="path3067" class="cls-3" d="M71.11 14.75l.33-.61c.14-.26-.09-.56-.46-.56h-4.39c-.31 0-.22.33-.1.33.29 0 .37.34.2.63L65.37 17a.69.69 0 01-.6.33c-.23 0-.31.33 0 .33h4.44a.37.37 0 00.33-.16l.6-.8c.15-.19-.17-.19-.27-.1a2.72 2.72 0 01-2.18.75h-.52l.62-1.35h.13c.39 0 .84 0 1 .29a.19.19 0 00.3 0l.52-1c.08-.16-.15-.18-.22-.07-.2.36-1.1.26-1.34.26H68l.76-1.49h.84a1.24 1.24 0 011.13.77c0 .1.32.18.37.06"/><path id="path3069" class="cls-3" d="M59.89 13.58h-1.56c-.31 0-.22.33-.09.33a.52.52 0 01.45.75l-.64 1.18-1.43-2.08a.66.66 0 00-.51-.19h-1.54c-.31 0-.24.32-.11.32.33 0 .24.25.16.42l-1.22 2.36a.29.29 0 01-.52 0l-.94-3.08c0-.12-.6-.12-.74 0l-2.37 1.95H47.6c-.24 0-.34.11-.34.23s.09.25.35.25h.64l-.64.53c-.36.27-.72.63-1 .63h-.11c-.24 0-.37 0-.37.23s.1.25.32.25h1.91c.37 0 .29-.47.11-.47a.34.34 0 01-.22-.61l.59-.56H50c.68 0 1.16.79.75 1l-.31.17c-.15.08-.22.43 0 .43h3.73c.28 0 .23-.37.1-.37-.38 0-.2-.55-.13-.7l1-1.86 1.38 2.68c.09.17.17.25.34.25h.52c.17 0 .23-.1.3-.23l1.58-2.84c.25-.5.44-.65.76-.65.13 0 .22-.33-.1-.33m-10.49 1.94l1.47-1.19v1.19z"/><path id="path3071" class="cls-3" d="M37.74 13.4a2.79 2.79 0 00-2.94 2 2 2 0 002.07 2.45 3 3 0 002.94-2.25 1.87 1.87 0 00-2.07-2.23m.38 2.53c-.42.83-1.12 1.33-1.57 1.1s-.46-1.07 0-1.91 1.11-1.32 1.56-1.1.46 1.08 0 1.91"/><path id="path3073" class="cls-3" d="M64.34 15.41h-1.69c-.31 0-.22.33-.09.33s.25.07.25.29c0 .68-.28.94-.87.94s-.88-.78-.44-1.73a2.09 2.09 0 011.87-1.19c.54 0 1 .12 1.05.62 0 .12.2.12.26 0l.41-.72c0-.07 0-.16-.15-.17s-.34.12-.49 0A3.35 3.35 0 0059.79 15a1.84 1.84 0 001.4 2.76 4.67 4.67 0 001.64-.59l.43.29a.49.49 0 00.33.18h.16c.15 0 .21-.2.27-.33l.66-1.61c.08-.16 0-.28-.34-.28"/><path id="path3075" class="cls-3" d="M87.49 13.69a.55.55 0 01-.5 0 2.4 2.4 0 00-1.19-.43 1.8 1.8 0 00-1.92 1c-.33.72 0 1.31.79 1.67.34.16.79.37.62.77s-.48.33-.79.33a1.21 1.21 0 01-1.14-.91.17.17 0 00-.32-.05l-.54 1.07c-.08.14.14.3.22.2a.69.69 0 01.77-.11 3.25 3.25 0 001.36.49 2.07 2.07 0 002-1 1.16 1.16 0 00-.65-1.78c-.43-.21-.8-.57-.61-1s.52-.21.71-.17a1.21 1.21 0 01.89.7.13.13 0 00.25 0l.29-.65c.06-.13-.15-.23-.22-.19"/><path id="path3077" class="cls-3" d="M75.74 16.23a2.52 2.52 0 01-2.17.92h-.24l1.5-2.95a.45.45 0 01.42-.24c.19 0 .16-.38-.08-.38h-2.36c-.2 0-.27.38-.08.38s.24.22.14.41L71.54 17a.62.62 0 01-.41.22c-.19.05-.33.41-.11.41h3.76a.45.45 0 00.44-.21l.78-1.17c.11-.14-.12-.16-.23 0"/><path id="path3079" class="cls-3" d="M81.4 13.92a1.24 1.24 0 011.13.77c0 .1.31.18.37.06l.33-.61c.14-.26-.09-.56-.47-.56h-4.38c-.32 0-.23.33-.1.33.29 0 .37.34.2.63L77.16 17a.68.68 0 01-.6.33c-.23 0-.31.33 0 .33H81a.34.34 0 00.32-.16l.61-.8c.15-.19-.17-.19-.27-.1a2.73 2.73 0 01-2.18.75H79l.58-1.35h.13c.39 0 .84 0 1 .29a.19.19 0 00.3 0l.52-1c.08-.16-.15-.18-.22-.07-.2.36-1.1.26-1.34.26h-.17l.76-1.49z"/><g id="g3081"><g class="cls-4"><path id="path3089" class="cls-3" d="M55.16 31.06c-2.54 3.08-4 4.14-6.56 4.14-.87 0-1.33-.2-1.08-.63l3-6.15h1.17c1.3 0 1.12 1.1.77 2.59-.07.2.09.21.25 0l2.9-5.11c.15-.32-.22-.38-.4-.14a3.9 3.9 0 01-3.64 1.83h-.47l3.27-6.23h1.31c1.66.1 2.43 1.51 2 4.91h.69l2.4-4.74c.2-.4-.21-.77-.66-.77H43.76c-.95 0-1 .72-.09.72.74 0 .7 1.06 0 1.56l-6.92 5.5 1.4 6.49a.85.85 0 001 .72h13.48a1.07 1.07 0 001-.46L56 31.12c.34-.61-.44-.57-.87-.06m-9.39-3h-1.16a.15.15 0 000 .3h1.21c.4 0 .78.05.67.23l-3.11 6a.7.7 0 01-1.34 0l-1.54-8 5.42-4.21A5 5 0 0148 21.13h1.19c.71 0 1 .34.8.77l-.21.4c-.13.23-.56.26-.92.26h-.68a.15.15 0 00-.15.15.14.14 0 00.15.15h.67c.29 0 .66 0 .52.23l-2.52 4.8c-.11.19-.64.22-1.08.22"/></g><g class="cls-4"><path id="path3091" class="cls-3" d="M34.58 35.06a.73.73 0 01-.68-.5 2 2 0 010-1.24l6.29-11.15c.1-.2.36-.63.67-.63.56 0 .8-.73-.14-.73h-5c-.94 0-1 .71-.05.71a.42.42 0 01.41.58l-1.39 2.53c-.18.27-.56.29-1 .29h-1.2a.15.15 0 000 .3h1.21c.33 0 .58.1.4.47l-4.65 8.46c-.33.47-1 .57-1-.32l1.65-12.39c.07-.38 0-.64-.45-.64H27.2a.72.72 0 00-.62.34l-.89 1.11a1 1 0 01-.64.12H23a.14.14 0 00-.15.15.15.15 0 00.15.15h1.7c.31 0 .66.07.53.21l-2.39 3a.72.72 0 01-.45.11h-.68a.15.15 0 100 .3h.57c.17 0 .17.09.1.17l-2.25 2.82a.85.85 0 01-.56.14h-2a.15.15 0 00-.14.15.14.14 0 00.14.15h1.71c.26 0 .46.05.32.22l-3.2 4c-.6.76-3.49 1.15-4.06 1.15l10.79-20.22a1.18 1.18 0 01.92-.59h2.3c1.08 0 1-.72.11-.72H14.91c-.94 0-1 .72.1.72h2.14c.61 0 .81.37.65.67l-.31.55c-.1.19-.24.26-.83.26h-3.78a.15.15 0 00-.15.15.15.15 0 00.15.15h3.77c.21 0 .51.05.32.42l-.53 1a.68.68 0 01-.59.22h-1.71a.15.15 0 100 .3h1.71c.24 0 .25.16.11.39l-1.22 2.26c-.11.19-.3.22-.69.22h-.68a.15.15 0 00-.15.15.14.14 0 00.15.15H14c.26 0 .32.14.21.38l-1 1.86c-.15.27-.36.37-1 .37H8.45a.15.15 0 100 .3h3.76c.43 0 .59.19.42.5l-2 3.66c-.12.17-.43.19-1 .19H5.92a.15.15 0 000 .3h3.77c.45 0 .73 0 .59.26l-1.12 2.09c-.21.32-.79.32-1 .32H7a.15.15 0 100 .3h1.14c.42 0 .64.07.53.3l-1.5 2.82c-.14.25-.72.27-1.18.27H.15a.15.15 0 000 .3H6c.38 0 .87 0 .69.35l-1 1.8c-.09.15-.42.16-.89.16H3.64a.16.16 0 00-.16.15.15.15 0 00.16.15h1.19c.28 0 .64 0 .51.26l-.6 1.15a.94.94 0 01-.84.59H1c-1.08 0-1 .72-.1.72h17.17c.51 0 .52-.07.76-.44l2.55-4.45h13.05c1 0 .7-.71.15-.73m-10.23-1.36c-.13.73-.87 1.22-1.8 1.46l-1 .24.83-1.44c.21-.38-.25-.61-.74 0-3.34 3.89-4.4 5.75-9.54 5.76h-1.38c-.42 0-.88-.16-.59-.56L12 35.79h6.9c.94 0 .7-.71.15-.73A1.31 1.31 0 0118 34.4a1 1 0 010-1l2.64-3.51H25zm1-4.45h-4.3l5.43-7.15-1.14 7.15z"/></g><g class="cls-4"><path id="path3093" class="cls-3" d="M90.6 31.51c-.07-.36-.2-.14-.43.3-.07.14-.3.14-.53.14H89a.16.16 0 00-.16.16.16.16 0 00.16.15h.67c.26 0 .27.17.14.43a11.4 11.4 0 01-1.61 2.5.81.81 0 01-.57.24h-.73a.15.15 0 000 .3h.68c.34 0 0 .21-.07.29a15.07 15.07 0 01-2.91 3 2.67 2.67 0 01-1 0H83a.15.15 0 00-.15.15.15.15 0 00.15.15h.68c.51 0 .12.3 0 .36a9.08 9.08 0 01-6 1.91 5.9 5.9 0 01-5.32-4.93c-.06-.27-.26-.81-.32-1.14-.13-.66 1.74-.85 2.26-.5a8.77 8.77 0 004 1.07c1.33 0 4-1 4.84-3.25S82 28 81.13 27.11c-1.14-1.14-2.22-3-1.76-4.3a1.93 1.93 0 012.14-1.46 2.52 2.52 0 012.74 2.47c0 .13-.07.28-.18.28h-.56a.16.16 0 00-.15.16.15.15 0 00.15.15H84c.15 0 .24.11.2.29-.1.48-.14.83-.24 1.31-.06.28.35.48.49.27L87 21.83c.18-.34-.22-.43-.52-.32a3.23 3.23 0 01-2.19.11 4.86 4.86 0 00-3.08-1.1c-2.22 0-3.77.55-4.77 2.37-.08.15-.3.15-.48.15h-.43a.15.15 0 00-.15.15.15.15 0 00.15.15h.36c.16 0 .26.05.18.23s-.12.33-.18.51A4.59 4.59 0 0076.1 27c0 .07-.06.1-.21.1h-.68a.15.15 0 100 .3h.68c.31 0 .38 0 .51.21.35.49.71.86 1.16 1.43.14.18-.46.23-.79.23h-2.69a.15.15 0 000 .3h2.73a4.22 4.22 0 011.27.09 6.61 6.61 0 011.59 2.92c0 .28-.07.4-.42.4h-.36a.15.15 0 000 .3h.32c.28 0 .43 0 .36.25-.35 1.13-.88 1.95-3 1.94s-2.72-2.23-2.06-4.54c.13-.46 0-.66-.22-.3l-1.57 2.47a.54.54 0 01-.43.2H72a.15.15 0 100 .3c.2 0 .28.11.2.22l-.58.9a29 29 0 00-3.39-5.83c2.09-.13 5.18-2.09 5.69-3.85.88-3-2.08-4.17-3.69-4.17h-7.02c-.94 0-1 .72-.11.72.49 0 .91.43.7.86l-1.57 2.82c-.13.24-.62.22-1.25.22h-.69a.16.16 0 00-.15.16.15.15 0 00.15.15H61c.45 0 1 0 .78.35l-1.86 3.34c-.08.16-.33.17-1 .17h-.69a.16.16 0 00-.15.16.15.15 0 00.15.15h.67c.5 0 .68.06.54.32L57 34.69a1.49 1.49 0 01-1.25.38c-.91 0-.9.72.05.72h6.06c.94 0 .71-.73.15-.73a.7.7 0 01-.45-1l3.09-5.86H65c1.37 0 1.71 2.26 2 4.72 0 .18-.31.19-1 .19h-1.81a.15.15 0 00-.15.15.15.15 0 00.15.15h1.7c.46 0 1.09 0 1.1.15a23.87 23.87 0 00.42 2.91c.06.27-.42.22-.94.22h-2.19a.15.15 0 000 .3h2.19c.69 0 1 0 1.09.14.94 3.46 5 6.19 8.92 6a13.77 13.77 0 007.69-3.14 26.19 26.19 0 006-7.19c.21-.44.56-1 .48-1.38M67.9 26.9c-.47.39-1.21.84-1.36.69a5.72 5.72 0 00-1.16-.78l2.81-5.14a.56.56 0 01.56-.28c1.09 0 1.45 1.18.94 2.66a6.57 6.57 0 01-1.79 2.85"/></g><g class="cls-4"><path id="path3095" class="cls-3" d="M33.74 16.23a2.52 2.52 0 01-2.17.92h-.24l1.5-2.95a.46.46 0 01.42-.24c.19 0 .16-.38-.08-.38h-2.35c-.2 0-.27.38-.09.38s.24.22.14.41L29.54 17a.59.59 0 01-.4.22c-.2.05-.34.41-.11.41h3.75a.45.45 0 00.44-.21l.78-1.17c.11-.14-.12-.16-.23 0"/></g><g class="cls-4"><path id="path3097" class="cls-3" d="M45.06 13.69a.57.57 0 01-.51 0 2.34 2.34 0 00-1.19-.43 1.78 1.78 0 00-1.91 1c-.33.72 0 1.31.79 1.67.33.16.78.37.61.77s-.47.33-.78.33a1.22 1.22 0 01-1.15-.91c0-.19-.26-.15-.32-.05l-.54 1.07c-.08.14.14.3.23.2a.68.68 0 01.76-.11 3.3 3.3 0 001.36.49 2.07 2.07 0 002-1 1.16 1.16 0 00-.64-1.78c-.44-.21-.81-.57-.61-1s.51-.21.7-.17a1.19 1.19 0 01.89.7.14.14 0 00.26 0l.28-.65c.06-.13-.14-.23-.21-.19"/></g><g class="cls-4"><path id="path3099" class="cls-3" d="M71.11 14.75l.33-.61c.14-.26-.09-.56-.46-.56h-4.39c-.31 0-.22.33-.1.33.29 0 .37.34.2.63L65.37 17a.69.69 0 01-.6.33c-.23 0-.31.33 0 .33h4.44a.37.37 0 00.33-.16l.6-.8c.15-.19-.17-.19-.27-.1a2.72 2.72 0 01-2.18.75h-.52l.62-1.35h.13c.39 0 .84 0 1 .29a.19.19 0 00.3 0l.52-1c.08-.16-.15-.18-.22-.07-.2.36-1.1.26-1.34.26H68l.76-1.49h.84a1.24 1.24 0 011.13.77c0 .1.32.18.37.06"/></g><g class="cls-4"><path id="path3101" class="cls-3" d="M59.89 13.58h-1.56c-.31 0-.22.33-.09.33a.52.52 0 01.45.75l-.64 1.18-1.43-2.08a.66.66 0 00-.51-.19h-1.54c-.31 0-.24.32-.11.32.33 0 .24.25.16.42l-1.22 2.36a.29.29 0 01-.52 0l-.94-3.08c0-.12-.6-.12-.74 0l-2.37 1.95H47.6c-.24 0-.34.11-.34.23s.09.25.35.25h.64l-.64.53c-.36.27-.72.63-1 .63h-.11c-.24 0-.37 0-.37.23s.1.25.32.25h1.91c.37 0 .29-.47.11-.47a.34.34 0 01-.22-.61l.59-.56H50c.68 0 1.16.79.75 1l-.31.17c-.15.08-.22.43 0 .43h3.73c.28 0 .23-.37.1-.37-.38 0-.2-.55-.13-.7l1-1.86 1.38 2.68c.09.17.17.25.34.25h.52c.17 0 .23-.1.3-.23l1.58-2.84c.25-.5.44-.65.76-.65.13 0 .22-.33-.1-.33m-10.49 1.94l1.47-1.19v1.19z"/></g><g class="cls-4"><path id="path3103" class="cls-3" d="M37.74 13.4a2.79 2.79 0 00-2.94 2 2 2 0 002.07 2.45 3 3 0 002.94-2.25 1.87 1.87 0 00-2.07-2.23m.38 2.53c-.42.83-1.12 1.33-1.57 1.1s-.46-1.07 0-1.91 1.11-1.32 1.56-1.1.46 1.08 0 1.91"/></g><g class="cls-4"><path id="path3105" class="cls-3" d="M64.34 15.41h-1.69c-.31 0-.22.33-.09.33s.25.07.25.29c0 .68-.28.94-.87.94s-.88-.78-.44-1.73a2.09 2.09 0 011.87-1.19c.54 0 1 .12 1.05.62 0 .12.2.12.26 0l.41-.72c0-.07 0-.16-.15-.17s-.34.12-.49 0A3.35 3.35 0 0059.79 15a1.84 1.84 0 001.4 2.76 4.67 4.67 0 001.64-.59l.43.29a.49.49 0 00.33.18h.16c.15 0 .21-.2.27-.33l.66-1.61c.08-.16 0-.28-.34-.28"/></g><g class="cls-4"><path id="path3107" class="cls-3" d="M87.49 13.69a.55.55 0 01-.5 0 2.4 2.4 0 00-1.19-.43 1.8 1.8 0 00-1.92 1c-.33.72 0 1.31.79 1.67.34.16.79.37.62.77s-.48.33-.79.33a1.21 1.21 0 01-1.14-.91.17.17 0 00-.32-.05l-.54 1.07c-.08.14.14.3.22.2a.69.69 0 01.77-.11 3.25 3.25 0 001.36.49 2.07 2.07 0 002-1 1.16 1.16 0 00-.65-1.78c-.43-.21-.8-.57-.61-1s.52-.21.71-.17a1.21 1.21 0 01.89.7.13.13 0 00.25 0l.29-.65c.06-.13-.15-.23-.22-.19"/></g><g class="cls-4"><path id="path3109" class="cls-3" d="M75.74 16.23a2.52 2.52 0 01-2.17.92h-.24l1.5-2.95a.45.45 0 01.42-.24c.19 0 .16-.38-.08-.38h-2.36c-.2 0-.27.38-.08.38s.24.22.14.41L71.54 17a.62.62 0 01-.41.22c-.19.05-.33.41-.11.41h3.76a.45.45 0 00.44-.21l.78-1.17c.11-.14-.12-.16-.23 0"/></g><g class="cls-4"><path id="path3111" class="cls-3" d="M81.4 13.92a1.24 1.24 0 011.13.77c0 .1.31.18.37.06l.33-.61c.14-.26-.09-.56-.47-.56h-4.38c-.32 0-.23.33-.1.33.29 0 .37.34.2.63L77.16 17a.68.68 0 01-.6.33c-.23 0-.31.33 0 .33H81a.34.34 0 00.32-.16l.61-.8c.15-.19-.17-.19-.27-.1a2.73 2.73 0 01-2.18.75H79l.58-1.35h.13c.39 0 .84 0 1 .29a.19.19 0 00.3 0l.52-1c.08-.16-.15-.18-.22-.07-.2.36-1.1.26-1.34.26h-.17l.76-1.49z"/></g></g><path id="path3113" class="cls-5" d="M64.14 10.37A26.61 26.61 0 0060 6.24 26.91 26.91 0 0042.44 0 25.34 25.34 0 0029.6 3.42a24.66 24.66 0 00-8.45 7.31c-.42.53-.48.84-.21 1s.57-.29.92-.76A21 21 0 0128 5.33 4.4 4.4 0 0130.09 7a47.14 47.14 0 00-4.82 3.37c-.79.61-1.07 1-.85 1.21s.79-.2 1.3-.62a44.23 44.23 0 014.79-3.28A3.49 3.49 0 0130.8 11c-.17.22-.2.46 0 .57s.37-.16.63-.53a4.38 4.38 0 00-.15-3.73 18.72 18.72 0 015.22-1.96c.12.22 1.78 5.09 2.1 6 .17.49.35 1.07.7 1s.08-.61-.12-1.14-1.5-4.75-1.89-6a16.89 16.89 0 013.88-.77c-.34 1.78.92 2.51 2.34 3.44.76.5 5.57 3.26 6.58 3.89.57.35 1 .58 1.14.41s-.25-.59-.78-.9-4.9-2.85-6.77-4c-1.34-.84-2.06-1.75-1.74-2.94a18.07 18.07 0 013.19-.13 31.1 31.1 0 0118 6.42c.43.45 1 .83 1.27.65s-.11-.62-.31-.85M30.87 6.6a6.11 6.11 0 00-2.12-1.75 24.49 24.49 0 016.43-3 22 22 0 011.06 2.74 24.74 24.74 0 00-5.37 2.01m10.42-3.07a27.88 27.88 0 00-4.3.8c-.21-.54-.77-2.22-1-2.76a20.68 20.68 0 017-.69 10.08 10.08 0 00-1.74 2.65m6.2-.07a31 31 0 00-5.24-.06 6 6 0 012-2.52 26.16 26.16 0 014 .49c3.69.72 9.43 3 11.9 6.29a29.78 29.78 0 00-12.63-4.2"/><path id="path3115" class="cls-5" d="M66.2 43c.36-.65.64-1 .34-1.18s-.55.44-.88 1a23.27 23.27 0 01-5.08 6 25.19 25.19 0 01-7.77 4.8c-1-2.91-5-15.33-5.09-15.68-.16-.53-.29-.68-.47-.62s-.08.36 0 .82 4.81 15.16 5 15.68a25.52 25.52 0 01-7.38 1.61 30.85 30.85 0 01-6.53-.33c-1.64-1.32-5.37-6.59-6.79-9.4a39.48 39.48 0 01-3.06-7.64c-.14-.61-.31-1.06-.62-1s-.15.55.05 1.22A43.4 43.4 0 0031 45.91 59.81 59.81 0 0037.06 55a26.26 26.26 0 01-10.13-4.63 29.18 29.18 0 01-6.85-7.14c-.22-.35-.48-.85-.8-.64-.15.09 0 .5.25.9a28.26 28.26 0 0012.32 10.74A27.26 27.26 0 0066.2 43"/></g></g></g></svg>