<svg xmlns="http://www.w3.org/2000/svg" viewBox="0 0 67.13 83.45"><defs><style>.cls-1{fill:#23375b}.cls-2{fill:#6189b9}.cls-3{fill:#fdb827}</style></defs><g id="Layer_2" data-name="Layer 2"><g id="Layer_1-2" data-name="Layer 1"><path class="cls-1" d="M14.76 55.76V67.4h7.45V66h-6V55.34h6v-1.5h-8.16zm16.86 0h-2v11.68h1.24V57.09h.45c.26 0 .46.28.46.62v9.75h1.33v-9.85c0-1.27-.69-1.85-1.5-1.85m-6.16 11.69h1.26V57.09h1v10.35H29V55.76h-3.6zM9.72 52.16H7.5v15.2h1.41v-13.7h.49c.28 0 .52.31.52.69v13h1.55V54.23a1.82 1.82 0 00-1.74-2.07m7.09 8.17h3.91V59h-2.65v-1.66h4.13v-1.4h-5.4zm15-6.43h-9l.74 2.1v11.5h1.28V55.14h6.78a2.17 2.17 0 012.11 2.45v9.84h1.2V56.78a2.94 2.94 0 00-3.09-2.88m17.52 5.27h-1.6V53.8h-1.25v6.4h4.22v-6.4h-1.38zm-31.28 3.21h2.64v-1.45h-3.91v4.44h5.4v-1.3h-4.13zm-15.2 5H4.3V53.66h1.15v13.7H6.9v-15.2h-4zM10 50.14H0l.84 2.27v15h1.44V51.54h7.44a2.4 2.4 0 012.34 2.67v13.16h1.31V53.31A3.24 3.24 0 0010 50.14m46.14 3.69v13.65h1.47V53.83zM54 56.06v11.42h1.47V53.83H53.2zm8.3 4.29c1.28 0 1.08.81 1.08 1.65v1.41a.58.58 0 01-.51.62h-.2a.58.58 0 01-.51-.62v-1.67h-1.51v1.48c0 .9 0 2.27 2.07 2.27S65 63.87 65 63.81V60.7c0-1.46-.77-1.6-2-1.69a6.34 6.34 0 01-1.1-.15 2.11 2.11 0 01-1.72-1.81v-2.92a2.43 2.43 0 01.59-1.71 2.57 2.57 0 012-.75 2.73 2.73 0 012.15.82 2.81 2.81 0 01.66 1.85v1.41h1.58v-2.19c0-2.08-1.67-3.46-3.86-3.46h-.71c-2.15 0-4.1 1.13-4.1 3.51v3.19a3.74 3.74 0 003.9 3.55m-21.65-6.44h-5.31l.73 2v11.57h1.21V55.12h3.17a2.22 2.22 0 012.29 2.24v1.46A2.18 2.18 0 0140.54 61H38v6.46h1.38v-5.34h1.7a3 3 0 002.92-3.3v-2a3 3 0 00-3.26-2.91m23 3.2h-.67c-.62 0-1-.26-1-.9v-1.84a.57.57 0 01.5-.61h.21a.56.56 0 01.5.61v1.38h1.57v-1.32a2.32 2.32 0 00-.51-1.55 2.25 2.25 0 00-1.72-.62 2 2 0 00-1.57.56 1.92 1.92 0 00-.44 1.27v2.83A1.55 1.55 0 0062 58.29a5.66 5.66 0 001 .13c1.08.08 2.55.19 2.55 2.28v3.11s-.08 2.27-2.82 2.27-2.66-2-2.66-2.86v-1.48h-1.6v2.18a3.47 3.47 0 003.79 3.59h.94a3.62 3.62 0 003.94-3.67v-3.39a3.08 3.08 0 00-3.34-3.34m-19.28-1.2v11.66h1.41V53.81h-2.17zm-2.28 2.91v-1.46a1.62 1.62 0 00-1.69-1.64H38v4.7h2.57a1.58 1.58 0 001.69-1.6m-2.88.36v-2.32h.84a.86.86 0 01.77.93v.46a.85.85 0 01-.77.93zm12 8.39h1.26V53.8h-1.31zm-4.82 0h1.24v-5.43h1.6v5.43h1.38v-6.76h-4.27z"/><path class="cls-2" d="M24.84 67.45V55.14h6.78a2.17 2.17 0 012.11 2.45v9.84h-.61v-9.82c0-1.27-.69-1.85-1.5-1.85h-2v11.68H29V55.76h-3.6v11.69zm-2.63-11.51h-5.4v4.39h3.91v.6h-3.91v4.44h5.4V66h-6V55.34h6zM2.28 67.37V51.54h7.44a2.4 2.4 0 012.34 2.67v13.16h-.6V54.23a1.82 1.82 0 00-1.74-2.07H7.5v15.2h-.6v-15.2h-4v15.21zm53.21-13.54h.6v13.65h-.6zM37.37 67.48V55.12h3.17a2.22 2.22 0 012.29 2.24v1.46A2.18 2.18 0 0140.54 61H38v6.46zm23.28-5.74v1.48c0 .9 0 2.27 2.07 2.27S65 63.87 65 63.81V60.7c0-1.46-.77-1.6-2-1.69a6.34 6.34 0 01-1.1-.15 2.11 2.11 0 01-1.72-1.81v-2.92a2.43 2.43 0 01.59-1.71 2.57 2.57 0 012-.75 2.73 2.73 0 012.15.82 2.81 2.81 0 01.66 1.85v1.41H65v-1.32a2.32 2.32 0 00-.51-1.55 2.25 2.25 0 00-1.72-.62 2 2 0 00-1.57.56 1.92 1.92 0 00-.44 1.27v2.82A1.55 1.55 0 0062 58.29a5.66 5.66 0 001 .13c1.08.08 2.55.19 2.55 2.28v3.11s-.08 2.27-2.82 2.27-2.66-2-2.66-2.86v-1.48zm-18.42-2.92v-1.46a1.62 1.62 0 00-1.69-1.64H38v4.7h2.57a1.58 1.58 0 001.69-1.6m3.69 8.75V53.81h.59v6.4h4.22V53.8h.6v13.77h-.6v-6.76h-4.25v6.76z"/><path class="cls-1" d="M57.47 12.37c-.21-.33-.43-.64-.65-.94 5.43-8.91-7.38-15.74-12-8.18a19.69 19.69 0 00-11.16 1.34 19.74 19.74 0 00-11-1.36c-5.66-7.89-17.2.26-12.1 8.1-.24.33-.48.68-.72 1C2.59 23.4 8 30.88 8 30.88l1.12-1.12a21.45 21.45 0 0010 12.75l.3-1.66c5.16 5.5 9.93 5.37 14.38 10.4 4.11-4.76 10.08-4.76 14.73-10.7v2.11c8.6-4.19 9.39-13.24 9.39-13.24l.79 1.47s6-7.49-1.22-18.52"/><path class="cls-3" d="M39.24 20.18c.41-.14 1.12.28 1.5 1 1.74-.5 1.65-2.85 1.64-3a10.91 10.91 0 00-3.14 2"/><path class="cls-2" d="M33.72 31.54c.48-.08 8.12-.36 3.44 4.39 3.26-4.32-2.65-4.35-3.44-4.39M46.94 6.9s1.71-4.29 7-3.25c0 0-4.83-3.18-8.2 2.57 0 0-4.77-2.27-12 .84 0 0-6.82-2.38-11.95-1 0 0-3-5.2-7.22-3.06s-2 7.1-1.28 8.38c0 0-7 7.12-4.36 15.93l1.4-1.76s2 9.59 7.19 12.62l.31-2.36s5.41 6.53 11.78 9.3c.6.28 4 2 4.08 2.78V43.3s-4.42.36-5.58-1.67c-.8-1.39-5.87-10.44-3.36-19.92 0 0-2.44-.36-2.9-4.48a8.59 8.59 0 00-4.08-.7 13.31 13.31 0 017.84.19c3.79 1.47 4.8 5.21 7.37 3.56l.76-10.53.72 10.53c2.57 1.65 3.59-2.09 7.38-3.56a13.32 13.32 0 017.84-.19 12 12 0 00-4.22-1.66c-2.18-.44-5.37 1-5.37 1A10.21 10.21 0 0142 11.25c1.24-1.37 4.05-1.67 4.93-4.35m-32.71 3.63c-.16-1.43 1.66-2.85 1.66-2.85-.75-.78-2.05-.11-2.05-.11 1.17-2.31 3.83-1.18 3.83-1.18-1-1.23-3.13-1.15-3.13-1.15 2.63-2.61 5.8 1.38 5.8 1.38-2.83.64-6.11 3.91-6.11 3.91m28.16 7.65h-.06.06m-2.11 3.39c4.23 11.37-1.16 18.67-1.16 18.67 3.32-8.67 1.19-15.89-.27-18.57a12.67 12.67 0 01-1.63 0 15.28 15.28 0 001.84-1.36 2.61 2.61 0 00.2-.17c.41-.14 1.12.28 1.5 1 1.74-.5 1.65-2.84 1.64-3a6.13 6.13 0 011.61-.4s-.4 3.74-3.72 3.79"/><path class="cls-3" d="M25.3 18.18c0 .17-.1 2.52 1.64 3 .37-.73 1-1.15 1.45-1a19.09 19.09 0 00-3.09-2"/><path d="M33.71 42.21c-5.33 0-4.61-1.21-4.61-1.21.58-.36 4.3-.43 4.6-.43s4 .07 4.62.43c0 0 .72 1.18-4.61 1.18m0-4.91v2.17l-1.47.07a16.5 16.5 0 00-3.56.68C25 30.93 27 23.93 28 21.43c-3.71.8-4.31-3.65-4.31-3.65a2.86 2.86 0 011.58.4c0 .17-.09 2.52 1.65 3 .37-.73 1-1.15 1.44-1s.54.42.76.61c2.52 2.12 4.48 1.69 4.48 1.69v9.06s-7.28-.57-3.37 4.39c0 0 .63-1.81 1.3-1.24a11.38 11.38 0 012.14 2.58" fill="#bbd1e4"/><path class="cls-2" d="M17.39 75.68l-.08.23a.47.47 0 01-.59.33l-.47-.17.43-1.19.48.17a.47.47 0 01.23.63m.61-2.05l-2.83-1v1.19l-2.16 6 1.68.61 1-2.77.51.18a.33.33 0 01.14.44l-.89 2.43 1.67.61.88-2.58a1 1 0 00-.12-1s.56-.1.86-.93l.4-1A1.7 1.7 0 0018 73.63M52.76 74.39l-.59-1.69L48 74.17l.7.87 2.1 6 3.86-1.35-.66-1.63-2.13.74-.35-1 1.37-.47-.59-1.71-1.3.48-.33-1zM40.99 81.37l-.55-5.71-2.24.21.56 1.14.59 6.21 4.4-.41-.16-1.69-2.6.25zM21.42 75.88l-.15-1.27 2.15.46-1.51 7.29-1.76-.37 1.27-6.11zM44.69 76.19l-.66-1.1 2.16-.45 1.56 7.28-1.76.37-1.3-6.1zM29.96 75.94l-4.47-.47-.19 2.07 1.25-.31.72.07-2.55 5.57 4.46.44.16-1.68-1.93-.2 2.55-5.49zM36.15 76.04l-4.49-.03.01 2.08 1.21-.43h.73l-1.98 5.79h4.49l-.02-1.69-1.93-.01 1.98-5.71zM58.3 75.14l.36.53a.27.27 0 010 .36l-.22.15a.25.25 0 01-.34-.11l-.42-.62-1.39.92.54.82a1.56 1.56 0 002.31.4l.49-.33a1.62 1.62 0 00.57-2.35l-.84-1.27a1.39 1.39 0 00-2.08-.42l-.41.26a.36.36 0 01-.58-.1l-.45-.68a.24.24 0 010-.35l.22-.15a.26.26 0 01.34.1l.35.52 1.39-.92-.55-.82a1.59 1.59 0 00-2.3-.34l-.41.28a1.62 1.62 0 00-.66 2.32l.79 1.2a1.69 1.69 0 002.34.36c.58-.4.75-.07.95.24M10.65 77.19a1.7 1.7 0 01-2.41.45l-.75-.51A1.69 1.69 0 017 74.74l2.44-3.66a1.7 1.7 0 012.41-.46l.75.5a1.7 1.7 0 01.49 2.4l-.48.73-1.49-1 .3-.45a.33.33 0 000-.46l-.24-.15c-.12-.08-.31 0-.43.16 0 0-.11.18-.3.45l-1.78 2.67c-.11.17-.11.37 0 .45l.24.16c.12.08.31 0 .43-.16l.54-.81-.25-.17.69-1 1.75 1.17z"/></g></g></svg>