<svg xmlns="http://www.w3.org/2000/svg" viewBox="0 0 77.38 106.87"><defs><style>.cls-1{fill:#1c2524}.cls-2{fill:#f59814}.cls-3{fill:#bf2f38}</style></defs><g id="Layer_2" data-name="Layer 2"><g id="Layer_1-2" data-name="Layer 1"><g id="layer1"><g id="g3261"><path id="path3095" class="cls-1" d="M75.6 25.52c-2.91-3.16-9.23-5.73-17.46-7.31 0-.92.58-1.34 1.66-2 .5-.42 1.08-.83 1.75-1.42 2.57-2.49-.5-6.32-.67-6.48l-1.66-2.08.41 2.66c.25 1.83-.41 2.5-2.41 3.83a4.28 4.28 0 01-.66.58 13 13 0 00-.25-4.24 4.55 4.55 0 00-1.25-2.42l-.17 2.5a8.64 8.64 0 01-2.82 4.24 6.33 6.33 0 00.66-.75c1.25-1.83.91-3.91.42-6.32l-.09-.5c-.41-2.49.25-4.07.67-4.32.5-.49 1.33-1.42 1.33-1.42a4.6 4.6 0 00-1.75 0c-1.58.25-4.24 1.17-4.16 3.33a9.53 9.53 0 00.59 2.75c.33.83.58 1.66.33 2.07s-.75.59-1.75.75c-3.74.67-6.65 2.5-8.07 5a7.4 7.4 0 00-1 2.67c-9.32 0-18.22 1.16-25 3.32C6.57 22.28 2.33 25.52 2 29.27c-.25 2 .66 4.82 5.65 7.56h-.08L9 37.5l.75.42a49.23 49.23 0 007.9 2.57 14.85 14.85 0 00-2.91 2.08A20.65 20.65 0 1048.07 62.7a35.85 35.85 0 001.42-12.39A9.72 9.72 0 0153 42.07a61.35 61.35 0 0016.63-4.15l.67-.34 1.5-.75c3.41-1.91 5.4-4.24 5.57-6.65a6 6 0 00-1.75-4.66zm-6.73 4.08a1.55 1.55 0 01.58 1.16c-.09.75-1 1.67-2.58 2.5-3.33 1.66-9 3-15.64 3.66a9.55 9.55 0 01.92-.5h.16c1.92-.83 4.08-1.66 4.16-4.91a15.38 15.38 0 01.34-2.58 5.76 5.76 0 012.08-2.16c.08 0-1.34-.25-1.34-.25h-.16a4.54 4.54 0 001-1.16c5.4 1.16 9.14 2.66 10.48 4.24zm-59 .75c.25-2.66 9.73-6.07 25.12-6.66a8.84 8.84 0 00-3.58 5.91l-.17 1.16a6.57 6.57 0 01-.5 2.17c-.58 1.49-2.24 2.82-4 3.74-6.15-.75-11.39-2.08-14.39-3.66-1.62-.92-2.54-1.91-2.45-2.66z"/><path id="path3097" class="cls-2" d="M57.39 18.12c.16-1.83 1.91-2.24 3.57-3.82 2.25-2.08-.58-5.49-.58-5.49.33 2.33-.75 3.16-2.74 4.57a2.24 2.24 0 00-1.08 1.75c-.09.91-.17 1.83-.34 2.74z"/><path id="path3099" class="cls-2" d="M51.4 14.88L50 16l-1 1c1.91.17 3.82.33 5.57.58 1.16-2.08 1.75-4.41 1-8.48 0 0-.17 2.74-4.16 5.74z"/><path id="path3101" class="cls-2" d="M40.75 16.63c2.17 0 4.33.08 6.41.24l.25-.24c1.33-1.5 3.57-2.75 4.66-4.41s.74-3.83.33-6.32C51.65 1.57 53.48.82 53.48.82s-3.66.5-3.58 2.58c.09 2.83 3 5.49-1.41 6.32-4.83.83-7.82 3.49-8.48 6.91z"/><path id="path3103" class="cls-1" d="M20.63 93.31L23.2 82.5h-4.32l-2.66 10.81z"/><path id="path3105" class="cls-1" d="M30.11 85.16l.25 4.41h-2.25l2.33 3.74h3.91l-.58-10.81H27.2l-5.33 10.81H26l4.08-8.15z"/><path id="path3107" class="cls-1" d="M20 103.21l-.91 3.66h4.11l2.67-10.73h-4.08l-1 4.15h-3.07l1-4.15h-4.08L12 106.87h4.07l.92-3.66z"/><path id="path3109" class="cls-1" d="M29.77 104.45l.34-1.49h5l.66-2.33h-5.08l.31-1.58h5.1l.83-2.91H27.7L25 106.87h9.15l.67-2.42z"/><path id="path3111" class="cls-1" d="M56.06 93.31l2.66-10.81h-4.41l-2.66 10.81z"/><path id="path3113" class="cls-1" d="M63.29 90.81c.59.84 1.17 2.42-1.49 3.66-3.16 1.42 0 5-4.25 5h-1.83l-1.72 7.4h-4.35l1.75-7.41h-2.91l.91-3.32H57c4.49 0 1.33-3.16 3.58-3.58 1.55-.25 2.55-.56 2.71-1.75z"/><path id="path3115" class="cls-1" d="M8.73 88.07L8 82.5H2.66L0 93.31h4l1.42-5.66h.08l.75 5.66h2.32l3.24-5.66h.08l-1.33 5.66h3.75L17 82.5h-5.19l-3.08 5.57z"/><path id="path3117" class="cls-1" d="M44.25 88.07l-.75-5.57h-5.32l-2.67 10.81h4l1.41-5.66H41l.75 5.66h2.33l3.24-5.66h.09l-1.33 5.66h3.74l2.66-10.81h-5.16l-3.07 5.57z"/><path id="path3119" class="cls-1" d="M43.58 98.71l.25 4.41h-2.24l2.24 3.75h4l-.58-10.73h-6.58s-5.4 10.73-5.32 10.73h4.16l4.07-8.16z"/><path id="path3121" class="cls-3" d="M8 60a13.25 13.25 0 005.16 8.15 16 16 0 003.08 1.58c-.67-1.08-1.42-2.25-2.25-3.41a39 39 0 01-4-6.9 14.4 14.4 0 01-.83-7.74 20.71 20.71 0 00-1.25 6.9C7.9 59 8 59.46 8 60z"/><path id="path3123" class="cls-3" d="M11.31 58.88a37.7 37.7 0 003.83 6.57 35 35 0 013 4.82 11.08 11.08 0 002.83.42 24.21 24.21 0 01-2.58-4.83c-2.83-7.15-2.41-16 1.08-21a19.22 19.22 0 016.91-6c2.41-1.33 3.9-1.66 5.48-2.58 1.67-1.08 2.58-2.74 1.5-6.48a6.74 6.74 0 01-.36-2.7 8.13 8.13 0 00-.83 2.67 20.57 20.57 0 01-.67 3.41c-1.5 3.9-8.73 6.07-9.65 6.32a18.23 18.23 0 00-6.65 3.57 14.38 14.38 0 00-3.91 15.81z"/><path id="path3125" class="cls-3" d="M41.34 23.61a2.52 2.52 0 01.16.75 2.06 2.06 0 01-1.83 2.74c-1.74.25-2.33-1.24-2.49-2.41 0-.5.08-.83.08-1.08-.25 0-.58.08-.83.08a6 6 0 00-2 1.5c-.33.75-.75 1.75-.08 4.16 1.08 4.16.58 6.74-2.75 8.15-4.32 1.91-7.06 3-10.81 7.65-1.74 2.16-2.74 5.85-2.79 9.57a26.68 26.68 0 001.83 10.56 24.72 24.72 0 003 5.49 24.65 24.65 0 003.49-.5 8.48 8.48 0 01-2.16-5.41C23.7 58 27.36 55.22 33 50.64l2.49-2.16c10.15-8.57 7.16-17.3 8.32-24.79-.83 0-1.66 0-2.49-.08z"/><path id="path3127" class="cls-3" d="M45.41 23.78a29.41 29.41 0 00-.5 4.66c-.41 6.48-.25 13.88-8.48 21.2l-2.5 2c-5.49 4.41-8.65 7.15-8.4 13.14a7.29 7.29 0 002.33 5.07 20.39 20.39 0 004.49-1.91A26.65 26.65 0 0045.74 50a48.21 48.21 0 001-12.15c0-1.58.25-4.82.25-4.82a18.38 18.38 0 012.91-8.48c.09-.17.09-.25.17-.42-1.42-.08-3-.25-4.66-.33z"/><path id="path3129" class="cls-3" d="M47.82 44.65c-.25 1.25-.25 2.5-.41 3.83a8.55 8.55 0 00-.17 1.41 1 1 0 00-.08.42A27.94 27.94 0 0133.1 69.19a17.85 17.85 0 01-3.91 1.74 10 10 0 006.57 1.67c6.74-1 10.07-5.41 11.65-10.15a35.46 35.46 0 001.33-12.06A10.42 10.42 0 0154 40.58c-4.24-.25-5.66 1.66-6.16 4.07z"/><path id="path3131" class="cls-3" d="M43.33 71a13.25 13.25 0 01-7.07 3 11.06 11.06 0 01-8.65-2.41l-.08-.08a18.77 18.77 0 01-3.53.59c2.75 3 6.32 4.57 11.15 4.91a19.64 19.64 0 008.31-6.08l-.08.09z"/><path id="path3133" class="cls-3" d="M18.21 75.92a11.07 11.07 0 00-1.08-4.49 18.77 18.77 0 01-4.82-2.07A12.09 12.09 0 0110 67.19a19.48 19.48 0 008.23 8.73z"/><path id="path3135" class="cls-3" d="M31.94 78a17.87 17.87 0 01-7-3.16 17.29 17.29 0 01-2.83-2.66 14.26 14.26 0 01-3.24-.33 9.44 9.44 0 01.66 4.74 20 20 0 008.32 1.83A22.65 22.65 0 0032 78z"/><path id="path3137" class="cls-3" d="M55.14 29.1a1.36 1.36 0 01-2.49.5 2.43 2.43 0 01.35-3.08 12 12 0 013.08-1.58c-1.33-.25-2.75-.41-4.24-.58h-.09c-.16.17-.25.33-.41.5a16.71 16.71 0 00-2.92 8.32l-.08.66a21.1 21.1 0 00-.08 4v.67a11.54 11.54 0 00-.08 1.66c0-.25.08-.33.08-.16a6.3 6.3 0 013.66-4.25c1.91-.74 3.74-1.49 3.82-4.24a11.76 11.76 0 01.42-2.91 2.42 2.42 0 011.33-1.33 2.15 2.15 0 00-2.33 1.83z"/><path id="path3139" d="M40.75 17.71c-20.21-.17-37.09 5.07-37.67 11.64-.25 2.65 2.16 5.16 6.4 7.15a44.47 44.47 0 009.73 3.16c.83-.33 1.58-.58 2.41-.83.67-.25 1.92-.66 3.33-1.25-5.65-.83-10.23-2.08-13.06-3.58-2.08-1.17-3.24-2.41-3.07-3.75.33-4.49 14.47-7.9 31.52-7.73s30.6 3.91 30.19 8.32c-.09 1.24-1.25 2.41-3.16 3.41-3.58 1.83-9.82 3.32-17.47 4-.25.33-.5.75-.75 1.16 3.5-1.33 7.49.67 7.49.67a1.26 1.26 0 01.5.25 54.1 54.1 0 0012.64-3.74c3.91-1.92 6.24-4.08 6.49-6.49.58-6.66-15.39-12.1-35.52-12.39z" fill="#fff"/></g></g></g></g></svg>