<svg xmlns="http://www.w3.org/2000/svg" viewBox="0 0 62.32 86.38"><defs><style>.cls-1{fill:#fff}.cls-2{fill:#bccad6}.cls-3{fill:#c42032}.cls-4{fill:#104622}</style></defs><g id="Layer_2" data-name="Layer 2"><g id="Layer_1-2" data-name="Layer 1"><path class="cls-1" d="M55.43 27.78l-48.8.01 25.23 58.59 25.16-58.6h-1.59"/><path class="cls-2" d="M55.43 27.78H6.63l25.24 58.6L57 27.78h-1.57M31.87 83.72L8.23 28.84h47.2z"/><path class="cls-2" d="M8.23 28.84l47.2-.01-23.57 54.89L8.23 28.84"/><path class="cls-3" d="M8.23 28.84h8.5c3.13 4.69 6.81 4.16 6.81 4.16a5.69 5.69 0 00.59 1.82 7.05 7.05 0 000 3.28 10 10 0 00-.36 4.4c-1.91 1.15-2.26 3.89-2.26 3.89a12.1 12.1 0 00-3.83 4.38L8.23 28.84M55.43 28.83h-8.31c-2.64 4.38-6.63 4.06-6.63 4.06a3.07 3.07 0 01-.49 1.69 6.15 6.15 0 01.1 3.25 12.63 12.63 0 01.51 4.38 5.42 5.42 0 012.42 3.92c2.68 2.46 3.09 4.25 3.09 4.25l9.27-21.55"/><path class="cls-2" d="M58.17 50H3.74L.07 55.13V65L0 68.49v6.8l3.7 5h54.88l3.68-5.1v-9.9l.06-3.47v-6.77l-3.7-5h-.45m-44.72 1.76h44.27l2.82 3.83v6.19l-.07 3.46v9.34l-2.8 3.89H4.61L1.79 74.7v-6.19a5.46 5.46 0 000-.56L1.86 65v-9.29c.19-.27 2.36-3.3 2.8-3.9z"/><path class="cls-2" d="M47.25 12a3.59 3.59 0 01.64 1.91V14a5.16 5.16 0 01-.6 1.94c.1-.94.13-1.75.13-1.81a20.49 20.49 0 00-.17-2.13m-7.61 14.37a1.25 1.25 0 01-.59.31 2.08 2.08 0 01.79-.54h.07l-.27.27m-15.36.43a1.75 1.75 0 01-.83-.55 2.08 2.08 0 01.88.54zm-8.92-12.59v-.12a3.55 3.55 0 01.64-1.88 18 18 0 00-.14 2.1c0 .07.05.89.16 1.82a5 5 0 01-.63-1.92m34.23 4a8.4 8.4 0 001.51-4.58 7.49 7.49 0 00-.05-.81c0-.29-1.35-9.27-9-12.38 3.84 4.88 4.52 6.6 5 8-.67-.42-1.17-.68-1.4-.8C41.91.29 37.22.07 37.06 0a27.34 27.34 0 015.51 6.55 17.85 17.85 0 00-6.36-.85l2.7 1.3a49.55 49.55 0 014.66 2.27 13.21 13.21 0 01.63 4.21 17 17 0 01-.2 2.62 9.82 9.82 0 01-4.78 6.54v-.63a9.13 9.13 0 00-2.57-6.69A8.26 8.26 0 0032.51 13l1.35 1.65a9.27 9.27 0 012.4 6.09 8.32 8.32 0 01-.63 3.19 13.57 13.57 0 00-8.24 0 7 7 0 01-.72-3.06c-.06-4.12 3.74-7.89 3.77-7.93-6 1.56-6.73 6.83-6.73 9.09a4.68 4.68 0 000 .55 9.93 9.93 0 01-5.1-9 14.66 14.66 0 01.58-4 53 53 0 017.63-3.67 20.23 20.23 0 00-6.63 1A22.3 22.3 0 0125.76 0c-5.35.78-8.26 7-8.68 8a10.81 10.81 0 00-1.49.77C16.83 4.89 20.42.42 20.44.39a15.51 15.51 0 00-8.76 13.24v.14a8.54 8.54 0 001.69 4.72 25 25 0 006.63 5.8 28.17 28.17 0 00-4.31-.94 1 1 0 00-1 .4 1 1 0 000 1c3.16 7.72 7.36 8.14 9 8a8.75 8.75 0 00.66 2.16 8.09 8.09 0 00-.35 1.8 1.4 1.4 0 00.46 1.29l-.12.24a7.92 7.92 0 00-.49 3.1c0 .58 0 1.08.06 1.39a6 6 0 00-2.34 4 13.14 13.14 0 00-3.51 4.3l-.35.81H46l-.19-.84a10.25 10.25 0 00-3.13-4.49 5.55 5.55 0 00-2.51-4.07v-.45c0-2.92-.39-3.77-.64-4l.23-.13v-.28-.69a11.42 11.42 0 00-.24-2.14 11.17 11.17 0 00.63-2.13 6.86 6.86 0 006.34-3.53 20.06 20.06 0 002.09-4.48 1.49 1.49 0 00.14-.62.92.92 0 00-.16-.54 1 1 0 00-1-.34l-1.53.25a19.16 19.16 0 00-3 .82 23.7 23.7 0 006.46-5.94"/><path class="cls-4" d="M32.4 51.16h12.86a10 10 0 00-3.15-4.36c.1-2.5-2.51-4-2.51-4 .08-3.83-.46-4.36-.46-4.36a4.83 4.83 0 00-2.28 3.19l-.33-.24a5.5 5.5 0 012.69-3.87 9.92 9.92 0 00-.22-2.84 6.47 6.47 0 00.7-2.75s3.74.93 6.38-3.19a19 19 0 002-4.34s.44-.86-.35-.74l-1.53.24a18.14 18.14 0 00-4.34 1.42s-.5.06-1.81 1.44c0 0-1 .95-1.56.23 0 0-.45-.66 1.1-1.37 0 0 6.86-3.63 9.51-7.72a7.69 7.69 0 001.36-5s-.77-6.96-6.37-10.7a17.3 17.3 0 014 7.6 17.84 17.84 0 00-2.81-1.73c-2.52-5.16-6.07-6.82-6.07-6.82 4.26 4.37 4.35 6.22 4.35 6.22-3.56-1.22-4.41-1.06-4.41-1.06a44.7 44.7 0 014.91 2.43 16.31 16.31 0 01.51 7.3 10.4 10.4 0 01-6 7.4c.71-5.2-2.26-7.84-2.26-7.84a6 6 0 00-2-1.44c4.5 5.33 1.63 10.37 1.63 10.37a12.89 12.89 0 00-8.83 0c-3-5.2 1.52-10.43 1.52-10.43-5.48 2.87-4.21 9.41-4.21 9.41C15.25 19.3 18.74 9.1 18.74 9.1a27.66 27.66 0 014.81-2.46 18.91 18.91 0 00-4.37 1.08 17.3 17.3 0 014.43-6.47c-4.11 2.1-6.09 7.14-6.09 7.14a9.42 9.42 0 00-2.84 1.73c.57-3.93 3.7-7.77 3.7-7.77a14.43 14.43 0 00-6.12 11.4 7.92 7.92 0 001.56 4.37c3.26 4.44 9.86 7.59 9.86 7.59 1.59.64 1.24 1.31 1.24 1.31a.69.69 0 01-.86.32 2.17 2.17 0 01-1.15-.86 7.14 7.14 0 00-3.06-1.63 26.28 26.28 0 00-4.24-.92c-.7 0-.41.54-.41.54 3.76 9.22 9 7.56 9 7.56a7.64 7.64 0 00.76 2.77c-.67 2.34-.13 2.68-.13 2.68 2.81 2.11 2.75 4.05 2.75 4.05l-.23.58a5.25 5.25 0 00-2.45-3.67c-.67 1.41-.35 4.5-.35 4.5a5.38 5.38 0 00-2.39 4 12.28 12.28 0 00-3.52 4.24h10.74M48.47 14a5.26 5.26 0 01-2.11 3.82 18.44 18.44 0 00.48-3.76 16.94 16.94 0 00-.51-3.79A4.33 4.33 0 0148.47 14m-33.68.3a4.31 4.31 0 012.07-3.77 16.56 16.56 0 00-.45 3.81A17.81 17.81 0 0017 18.1a5.25 5.25 0 01-2.16-3.79"/><path class="cls-1" d="M28.56 26.73L28 26.1a3.62 3.62 0 01-1.41 1.67c1.19.27 2-1 2-1M35 26.55l.66-.55a3.63 3.63 0 001.17 1.86C35.63 28 35 26.55 35 26.55M40.19 46.61l.75.34a6.19 6.19 0 01-2.09 4.22c-.08-.05-.65.46-.65.46a6.31 6.31 0 001.67-2.74h-.58a4.49 4.49 0 00.9-2.28M22.58 29.51a1.76 1.76 0 011.68-.24 8.85 8.85 0 00-.15 1.73c-.43.13-4.71.76-6.94-5.15.11-.09 3-.38 5.41 3.68M41.27 29.49a1.76 1.76 0 00-1.68-.21 7.63 7.63 0 01.24 1.66c.44.12 4.65.73 6.8-5.21-.12-.09-3-.35-5.36 3.75M23.78 46.67a4.09 4.09 0 01.85-.7 6.86 6.86 0 001.47 3.67.65.65 0 01-.22.28 6.92 6.92 0 01-2.1-3.25M28.37 31.23a4.24 4.24 0 01-2.2-.7l-.45.19a2.48 2.48 0 00.26 3 2.59 2.59 0 002.36.57c-.29.93-.07 1.15-.07 1.15a4.59 4.59 0 011-1.53 5.54 5.54 0 01-.89-2.68M35.54 31.21a4.26 4.26 0 002.18-.78l.45.18a2.48 2.48 0 01-.16 3 2.61 2.61 0 01-2.35.66c.32.91.11 1.14.11 1.14a4.45 4.45 0 00-1-1.5 5.58 5.58 0 00.81-2.7"/><path class="cls-4" d="M28 31.55a6.11 6.11 0 01-1.78-.45 1.64 1.64 0 00-.08 1.9c.7 1.33 2.55.73 2.55.73a4.87 4.87 0 01-.69-2.18M36 31.58a6.24 6.24 0 001.79-.45 1.64 1.64 0 01.07 1.87c-.71 1.35-2.55.74-2.55.74a4.74 4.74 0 00.7-2.14"/><path class="cls-1" d="M33.15 35h-2a2.61 2.61 0 01-1.82 1.72c-.89.67-.85 2.52-.85 2.52.31 2.07 1.11 2.36 1.11 2.36a3.65 3.65 0 011.37-.83l-.07-.22a2.82 2.82 0 00-1.21.38 3.46 3.46 0 010-3.69 2.29 2.29 0 001.69-1.35h1.76a2.33 2.33 0 001.66 1.28 3.39 3.39 0 01.09 3.86 2.27 2.27 0 00-1.11-.35l-.16.28a4.23 4.23 0 011.43.74c1-.64.92-2.3.92-2.3-.06-2.3-.76-2.71-.76-2.71a2.72 2.72 0 01-2-1.69"/><path class="cls-1" d="M34.09 38c.1 1.38-.68 1.69-.68 1.69a2 2 0 01-.23-.83 4 4 0 00.91-.86M30.2 38.07c-.09 1.39.65 1.62.65 1.62a2 2 0 00.23-.83 3.9 3.9 0 01-.88-.79M34 42.56a3.28 3.28 0 00-1.8-.48 3.36 3.36 0 00-1.82.51l.19.33a3.25 3.25 0 011.63-.44 2.44 2.44 0 011.59.43l.21-.35M29.39 51.16A5.05 5.05 0 0131 49.48l-.61-.6a6.7 6.7 0 00-1.07.57V49l.73-.41-.8-.55a7.07 7.07 0 00-1.65-4.13l.75-.91c2.08 2.62 3.28 2.54 3.28 2.54h1.71a2 2 0 001-.35 7.51 7.51 0 001.93-1.9l.49.64c-2 2.77-.4 6.36-.4 6.36-2.38.5-3.86.9-3.86.9h-3"/><path class="cls-4" d="M48.88 79.42h9.25l3.24-4.5v-9.61l.06-3.48v-6.49l-3.26-4.42H4.2L1 55.42V65l-.11 3.51V75l3.27 4.43h44.72"/><path class="cls-3" d="M30.39 80.31l1.47 3.41 1.47-3.41h-2.94"/><path class="cls-1" d="M18.7 55.86h-.66l-.98-3.08-.01.01v3.07h-.74v-3.58h1.3l.77 2.6h.01l.84-2.6 1.25-.01.01 3.58-.75.01v-3.07l-.01-.01-1.03 3.08M22.33 55.85h-.79v-3.58l.79-.01v3.59M23.24 55.85l-.01-3.59h.8v2.99h1.61v.59l-2.4.01M27.73 52.25h.89l.65 2.69.6-2.69.76-.01-.94 3.59h-.88l-.67-2.73h-.01l-.71 2.73-.9.01-.91-3.59h.83l.57 2.7.72-2.7M37.49 52.24v2.24a1.41 1.41 0 01-1.6 1.42 1.41 1.41 0 01-1.6-1.41v-2.25h.79v1.95c0 .6 0 1.15.81 1.15s.81-.55.81-1.16v-1.94h.8M39.05 53.78h.01l1.23-1.54.93-.01-1.36 1.61 1.48 1.98h-.99l-1.29-1.83h-.01v1.83h-.78l-.01-3.58h.79v1.54M41.83 52.23h2.47v.59h-1.67v.84h1.57v.6l-1.57.01v.95h1.73v.59l-2.53.01v-3.59M45.1 52.22h2.47v.6h-1.68v.84h1.58v.59h-1.58v.96h1.74v.59l-2.53.01v-3.59M30.59 55.83l1.32-3.59h.95l1.28 3.59h-.79l-.27-.76h-1.46l-.28.76h-.75m2.3-1.36l-.53-1.53-.54 1.53z"/><path class="cls-3" d="M14.3 56.81l-2-2.59-6.94.55L5.3 57h.94v16.43H5.4l-.16 2.09 7.44.63 1.62-2.31v-6.79l-1.35-1.44 1.36-2.24v-6.56M11.8 57v7.59H8.75V57zM8.75 73.41v-6.49h3.05v6.47z"/><path class="cls-3" d="M12.7 53.43H6.33L3.2 57.75h2.25v14.89H3.2l3 4.29h6.9l2-2.85v-7.34l-1.15-1.23 1.15-1.91v-7.07l-2.4-3.1M11.91 55c.34.43 1.35 1.74 1.6 2v6.08c-.2.31-1.57 2.56-1.57 2.56l1.56 1.66v6.22c-.2.29-.93 1.33-1.24 1.76H5.67c.15-.53.22-.76.33-1.13h1v-18H5.86L5.45 55z"/><path class="cls-3" d="M8 57v8.39h4.62v-9.21H8V57m1.58.8H11v6H9.54zM11.8 66.12H8v8.09h4.62v-8.09h-.82m-.8 1.59v4.89H9.54v-4.89zM22.54 58.2v2.75h.63v12.42h-3.39V60.95h.68V58.2h-3.85l.45 2.75h.21v12.87l1.64 2.3h5.16l1.6-2.3V60.95h.24l.55-2.75h-3.92"/><path class="cls-3" d="M26.46 57.4h-4.71v4.34h.63v10.84h-1.81V61.74h.68V57.4h-5.58l.72 4.34h.09v12.33l2 2.85h6l2-2.85V61.74h.1l.87-4.34h-1M25.5 59c-.11.53-.16.75-.24 1.16h-.38v13.41l-1.22 1.76h-4.34l-1.26-1.77V60.15h-.32c-.08-.42-.11-.65-.2-1.16h2.12v1.16H19v14h5v-14h-.63V59zM35.65 61.98v-1.05l-1.99-2.73h-3.68L28.13 61v12.81l1.5 2.3h4.48l1.54-2.23v-2.09l-2.51-2.03v3.6h-2.5V60.93h2.5v3.08l2.51-2.03"/><path class="cls-3" d="M33.66 57.4h-4.1l-2.22 3.37V74l1.85 2.87h5.34l1.91-2.78v-2.68l-4.09-3.31v4.47h-.92V61.73h.92v4l4.09-3.32v-1.74l-2.37-3.27h-.41m-.4 1.6c.34.46 1.37 1.89 1.6 2.19v.43l-.93.74v-2.22h-4.09v14h4.09v-2.72l.93.75v1.46l-1.17 1.69h-3.63l-1.14-1.75V61.24L30.41 59zM52.14 62.47v-5.53h3.42v4.52l2.51-1.73v-3.32l-1.64-2.22h-4.67l-2.12 2.22v7.26l5.86 4.77v4.92h-3.62v-3.73l-2.63 2.03v2.18l1.6 2.27h5.51L58 73.84v-6.65l-5.86-4.72"/><path class="cls-3" d="M56.43 53.4h-5l-2.56 2.69v8l5.85 4.77v3.75h-2V68l-4.22 3.25v2.85l2 2.8h6.34l2-2.8v-7.29l-5.9-4.71v-4.37h1.83V63l4.09-2.81v-4.12l-2.11-2.67h-.32m-.32 1.6c.33.32.82 1.43 1.16 1.76v2.58l-.92.63v-3.8h-5v6.7l5.86 4.72v6L56 75.32h-4.7L50 73.59v-1.54l1.05-.82v2.92h5.2v-6.09l-5.86-4.77v-6.57l1.7-1.72zM46.84 73.32l-3.14-7.07 2.8-5.36h.36v-2.75h-3.14v2.75h.51l-3.27 6.24v-6.24h.51v-2.75H37.4l.64 2.75h.41v12.43h-.52l-.65 2.75h4.25v-2.75h-.57v-1.84l1.38-2.65 1.86 4.49h-.29v2.75h3.56v-2.75h-.63"/><path class="cls-3" d="M46.86 57.35h-3.93v4.31c-.36.66-.59 1.13-1.18 2.25v-2.22h.51v-4.34h-5.87l1 4.34h.25v10.84h-.34l-1 4.34h6v-4.34h-.57v-.86c.07-.11.26-.49.51-1 .39 1 .59 1.44.86 2.08v4.09h5.14v-4.31h-.9c-.35-.77-2.52-5.66-2.78-6.25.28-.55 2.05-3.92 2.4-4.59h.67v-4.34h-.79m-.8 1.58v1.17l-3.2 6.12 3.51 7.89h.34v1.17h-2v-1.17h.67l-3-7.15-2.26 4.32v2.83h.56v1.17h-2.38c.12-.53.17-.76.27-1.17h.7v-14h-.58c-.1-.4-.15-.63-.27-1.17h2.28v1.16h-.51v7l1.49.36 3.88-7.39h-1v-1.14z"/><path class="cls-1" d="M14.3 56.81l-2-2.59H6.72L4.58 57h1.66v16.43H4.61l2.11 2.72h6l1.62-2.31v-6.79l-1.35-1.44 1.36-2.24v-6.56M11.8 57v7.59H8.75V57zM8.75 73.41v-6.49h3.05v6.47zM22.54 58.2v2.75h.63v12.42h-3.39V60.95h.68V58.2h-3.85l.46 2.75h.2v12.87l1.64 2.3h5.16l1.6-2.3V60.95h.24l.56-2.75h-3.93M35.65 61.98v-1.05l-1.99-2.73h-3.68L28.13 61v12.81l1.5 2.3h4.48l1.54-2.23v-2.09l-2.51-2.03v3.6h-2.5V60.93h2.5v3.08l2.51-2.03M52.14 62.47v-5.53h3.42v4.52l2.51-1.73v-3.32l-1.64-2.22h-4.67l-2.12 2.22v7.26l5.86 4.77v4.92h-3.62v-3.73l-2.63 2.03v2.18l1.6 2.27h5.51L58 73.84v-6.65l-5.86-4.72M46.84 73.32l-3.14-7.07 2.8-5.36h.36v-2.75h-3.14v2.75h.51l-3.27 6.24v-6.24h.51v-2.75H37.4l.64 2.75h.41v12.43h-.52l-.65 2.75h4.25v-2.75h-.57v-1.84l1.39-2.65 1.85 4.49h-.29v2.75h3.56v-2.75h-.63"/><path class="cls-2" d="M19.75 59.5l.77 1.45h-.68v12.42l-.76.64-.58-.77.1-13.78 1.15.04M25.98 60.95h-.24v12.87l-1.6 2.3h-5.16l.53-1.44h4.09l.86-1.05V59.41h.81l1.25-1.21-.54 2.75"/><path class="cls-2" d="M23.23 60.95h-.63l.61-1.49 1.25-.05-1.23 1.54M17.34 60.95h-.21l.61-1.45.86-.04-1.26 1.49"/><path class="cls-2" d="M17.34 60.95h-.21l.61-1.45.86-.04-1.26 1.49M7.47 74.73l-.75 1.42h5.97l1.61-2.31-.01-6.79-1.26.15v6.46l-.83 1.12-4.73-.05M12.96 56.87l.04 6.76-1.12 1.92 1.06.06 1.36-2.24v-6.56l-1.34.06"/><path class="cls-2" d="M8.75 64.56l-1.24 1.06V55.5l4.38.02 1.07 1.35-1.16.1-3.05-.01v7.6M11.8 66.92l.83-.31-.77-.96-4.35-.03-.07 9.04 1.31-1.25v-6.49h3.05"/><path class="cls-2" d="M9.92 65.89H8.3l2.87-1.44v-.04l-1.25 1.48M30.38 59.58l-.99 1.61.07 12.64 1.24-.47V60.93h2.51l.8-.69-.62-.72-3.01.06M34.41 60.76l.03.89-1.23 2.36 2.5-2.03v-1.05l-1.3-.17M34.34 72.03v1.86l-.59.92h-3.54l-.52 1.3h4.49l1.53-2.23v-2.09l-1.37.24M39.71 59.28h.85l.98-1.14v2.75h-.51v6.16l-1.25 2.39-.07-10.16M45.38 60.92l-5.57 10.16-.1 3.63h-1.08l-1.29 1.36h4.25v-2.75l-.83 1.43-1.05-.04 1.32-1.39v-1.84l5.54-10.59h.35v-2.75l-.79 1.14h-.69l-.06 1.64M47.54 73.32v2.75h-3.56l.62-1.23 2.22-.03.72-1.49"/><path class="cls-2" d="M42.43 66.36l3.64 8.45.84-1.49-3.2-7.16-1.28.2M51.88 69.63l.01 3.64-.59 1.38-.78-1.28v-1.44l1.36-2.3M50.85 76.11l.45-1.46h4.46l.92-1.09v-5.75l1.32-.62v6.65l-1.64 2.27h-5.51M49.64 63.67l5.86 4.77 1.18-.63-5.7-4.79-1.34.65M52.14 62.47l-1.16.55V56.8l1.05-1.21h3.84l.94 1.14-1.25.21h-3.42v5.53M55.56 61.46l2.51-1.73v-3.32l-1.26.32v2.55l-1.25 2.18M38.45 60.89h-.41l.82-1.61h.85l-1.26 1.61M44.19 60.89h-.42l.82-1.61h.85l-1.25 1.61"/></g></g></svg>