<svg xmlns="http://www.w3.org/2000/svg" viewBox="0 0 74.13 75.26"><defs><clipPath id="clip-path"><path class="cls-1" d="M17.63 7.23L.85 74.59h50.3A6.29 6.29 0 0057 69.93L73.23.77h-46.7c-4 0-7.65 1.5-8.9 6.48"/></clipPath><clipPath id="clip-path-3"><path class="cls-1" d="M27.49 2.59a6.72 6.72 0 00-6.21 4.91l-4.39 17.63-6.39 25.29h43.36a6.68 6.68 0 006.22-4.86l10.17-43z"/></clipPath><clipPath id="clip-path-7"><path class="cls-1" d="M35.44 21.71A13.08 13.08 0 1048.52 8.62a13.08 13.08 0 00-13.08 13.09"/></clipPath><clipPath id="clip-path-16"><path class="cls-1" d="M51.28 2.57l-.45.95 3.25 7.99 8.76-3.34-3.9 8.41 7.12 2.54-5.71 4.21 3.05 7.53.1.21 6.75-28.52-18.97.02z"/></clipPath><clipPath id="clip-path-17"><path class="cls-1" d="M56.79 32h4.64l2-1.18h-6.26zM40.15 6.45l6.17 3.2.51.26 4-6.39z"/></clipPath><clipPath id="clip-path-18"><path class="cls-1" d="M46.83 9.91l-9.14-4.73.68 8.65-7.92-.59 4.16 5.23-4.89 1.61 3.12 1.47-18.95 15.66 21.1-13.93-22.6 19.74 20.56-12.66-22.11 19.96 25.01-15.79-16.87 15.8 24.64-15.82-18.8 15.82 23.91-14.69 4.62 6.98 3.82-11.76h6.23l-3.05-7.53 5.71-4.21-7.12-2.54 3.9-8.41-8.76 3.34-3.25-7.99-4 6.39z"/></clipPath><style>.cls-1,.cls-12,.cls-7{fill:none}.cls-2{fill:#fff}.cls-4{fill:#051922}.cls-5{fill:#63717a}.cls-6{clip-path:url(#clip-path)}.cls-7{stroke:#63717a}.cls-12,.cls-7{stroke-width:.33px}.cls-9{clip-path:url(#clip-path-3)}.cls-11{fill:#f9a01b}.cls-12{stroke:#f9a01b}.cls-13{clip-path:url(#clip-path-7)}</style></defs><g id="Layer_2" data-name="Layer 2"><g id="Layer_1-2" data-name="Layer 1"><path class="cls-2" d="M73.29.68H27.42a15.34 15.34 0 00-1.85.11c-3.63.23-6.79 1.87-7.94 6.45L.85 74.59h50.3A6.33 6.33 0 0056.6 71a4.16 4.16 0 00.63-1.41S72.56 3.77 73.29.68"/><path d="M73.29.68H27.42a15.34 15.34 0 00-1.85.11c-3.63.23-6.79 1.87-7.94 6.45L.85 74.59h50.3A6.33 6.33 0 0056.6 71a4.16 4.16 0 00.63-1.41S72.56 3.77 73.29.68z" stroke="#fff" stroke-width="1.33" fill="none"/><path class="cls-4" d="M.85 74.59h50.3A6.3 6.3 0 0057 69.93L73.23.77H27.05C22.82.63 18.93 2 17.63 7.23z"/><path class="cls-5" d="M57.23 69.6a5 5 0 01-4.54 3.62h-50l16.51-67c1-3.81 3.56-5.59 8.2-5.6h45.89C72.56 3.77 57.23 69.6 57.23 69.6"/><g class="cls-6"><path class="cls-5" d="M57.23 69.6a5 5 0 01-4.54 3.62h-50l16.51-67c1-3.81 3.56-5.59 8.2-5.6h45.89C72.56 3.77 57.23 69.6 57.23 69.6"/></g><g class="cls-6"><path class="cls-7" d="M57.23 69.6a5 5 0 01-4.54 3.62h-50l16.51-67c1-3.81 3.56-5.59 8.2-5.6h45.89C72.56 3.77 57.23 69.6 57.23 69.6z"/></g><path class="cls-4" d="M33.3 58.87h-.8l-3.5 13h4.73s.12-.47.32-1.19h-3.93z"/><path class="cls-7" d="M33.3 58.87h-.8l-3.5 13h4.73s.12-.47.32-1.19h-3.93z"/><path class="cls-4" d="M39 61.59h-1.68L37 62.77h.88l-2.48 9.09h4.7l.32-1.19h-3.89s2.34-8.58 2.47-9.08"/><path class="cls-7" d="M39 61.59h-1.68L37 62.77h.88l-2.48 9.09h4.7l.32-1.19h-3.89s2.34-8.58 2.47-9.08z"/><path class="cls-4" d="M25.1 66.75c.06-.24 1.49-5.49 2.14-7.9h-.81l-.05.2c-.15.53-1.47 5.39-2.09 7.7h.8"/><path class="cls-7" d="M25.1 66.75c.06-.24 1.49-5.49 2.14-7.9h-.81l-.05.2c-.15.53-1.47 5.39-2.09 7.7z"/><path class="cls-4" d="M20.47 70.66a1.67 1.67 0 01-1.41-.66 3 3 0 01-.51-1.84 5.08 5.08 0 01.17-1.32l2.15-8h-.81v.21l-2.42 9a3.42 3.42 0 00.59 2.77 3.17 3.17 0 002.58 1h6.91l.16-.59.17-.6h-7.58"/><path class="cls-7" d="M20.47 70.66a1.67 1.67 0 01-1.41-.66 3 3 0 01-.51-1.84 5.08 5.08 0 01.17-1.32l2.15-8h-.81v.21l-2.42 9a3.42 3.42 0 00.59 2.77 3.17 3.17 0 002.58 1h6.91l.16-.59.17-.6z"/><path class="cls-4" d="M5.06 70.79l.71-2.61h-.9l-1 3.61h9.77a1.75 1.75 0 001.58-1H5.06z"/><path class="cls-7" d="M5.06 70.79l.71-2.61h-.9l-1 3.61h9.77a1.75 1.75 0 001.58-1H5.06z"/><path class="cls-4" d="M12.68 61.63l-.26.95h4a3 3 0 01.44 0h.54l.26-1h-5"/><path class="cls-7" d="M12.68 61.63l-.26.95h4a3 3 0 01.44 0h.54l.26-1z"/><path class="cls-4" d="M6.91 66.75h5.64c0-.18.18-.64.28-.94h-4a1.9 1.9 0 01-1.55-.69A2 2 0 017 63.38c.1-.36.9-3.38 1-3.84a3.58 3.58 0 01.11-.35 2.15 2.15 0 00-1.37 1.62c-.13.45-.93 3.47-1 3.83a1.62 1.62 0 001.15 2.11"/><path class="cls-7" d="M6.91 66.75h5.64c0-.18.18-.64.28-.94h-4a1.9 1.9 0 01-1.55-.69A2 2 0 017 63.38c.1-.36.9-3.38 1-3.84a3.58 3.58 0 01.11-.35 2.15 2.15 0 00-1.37 1.62c-.13.45-.93 3.47-1 3.83a1.62 1.62 0 001.17 2.11z"/><path class="cls-4" d="M50 61.63l-.26.95h4a3 3 0 01.44 0h.53l.26-1H50"/><path class="cls-7" d="M50 61.63l-.26.95h4a3 3 0 01.44 0h.53l.26-1z"/><path class="cls-4" d="M44.19 66.75h5.64c.05-.18.19-.64.28-.94h-4a1.91 1.91 0 01-1.54-.68 2 2 0 01-.29-1.75c.09-.39.9-3.4 1-3.84l.12-.35a2.1 2.1 0 00-1.36 1.62c-.13.45-.94 3.47-1 3.83a1.61 1.61 0 001.15 2.11"/><path class="cls-7" d="M44.19 66.75h5.64c.05-.18.19-.64.28-.94h-4a1.91 1.91 0 01-1.54-.68 2 2 0 01-.29-1.75c.09-.39.9-3.4 1-3.84l.12-.35a2.1 2.1 0 00-1.36 1.62c-.13.45-.94 3.47-1 3.83a1.61 1.61 0 001.15 2.11z"/><path class="cls-4" d="M42.34 70.79l.71-2.61h-.9l-1 3.61h9.77a1.75 1.75 0 001.58-1H42.34z"/><path class="cls-7" d="M42.34 70.79l.71-2.61h-.9l-1 3.61h9.77a1.75 1.75 0 001.58-1H42.34z"/><path class="cls-4" d="M29 56.77h-3.35a.86.86 0 01-.7-.31 1.23 1.23 0 01-.23-.93l.66-2.32s.05-.18 0-.16a1.51 1.51 0 01.15-.37 1.18 1.18 0 00-.64.84L24.23 56a1 1 0 000 .19 1.2 1.2 0 00.25.74.86.86 0 00.7.32h3.32a1.25 1.25 0 001.07-.62 1.21 1.21 0 01-.58.14"/><path class="cls-7" d="M29 56.77h-3.35a.86.86 0 01-.7-.31 1.23 1.23 0 01-.23-.93l.66-2.32s.05-.18 0-.16a1.51 1.51 0 01.15-.37 1.18 1.18 0 00-.64.84L24.23 56a1 1 0 000 .19 1.2 1.2 0 00.25.74.86.86 0 00.7.32h3.32a1.25 1.25 0 001.07-.62 1.21 1.21 0 01-.57.14z"/><path class="cls-4" d="M28.08 55.22c.06-.19.4-1.38.5-1.71h-1c0 .07-.07.25-.13.47h.65c-.06.22-.23.81-.36 1.24z"/><path class="cls-7" d="M28.08 55.22c.06-.19.4-1.38.5-1.71h-1c0 .07-.07.25-.13.47h.65c-.06.22-.23.81-.36 1.24z"/><path class="cls-4" d="M20.83 53.51c0-.12.19-.67.31-1.07h-.35l-.32 1.07h.36"/><path class="cls-7" d="M20.83 53.51c0-.12.19-.67.31-1.07h-.35l-.32 1.07z"/><path class="cls-4" d="M19.89 56.77s.34-1.22.44-1.54h-.89c0 .07-.07.26-.13.47h.53c-.09.32-.45 1.54-.45 1.54h2.24l.13-.47z"/><path class="cls-7" d="M19.89 56.77s.34-1.22.44-1.54h-.89c0 .07-.07.26-.13.47h.53c-.09.32-.45 1.54-.45 1.54h2.24l.13-.47z"/><path class="cls-4" d="M16.74 56.77L18 52.44h-.35l-1.4 4.8h2.27l.13-.47z"/><path class="cls-7" d="M16.74 56.77L18 52.44h-.35l-1.4 4.8h2.27l.13-.47z"/><path class="cls-4" d="M34.94 55.05v.18h2.4l.05-.18h-2.45"/><path class="cls-7" d="M34.94 55.05v.18h2.4l.05-.18z"/><path class="cls-4" d="M35.38 53.51l-.06.23h2.38l.07-.23h-2.39"/><path class="cls-7" d="M35.38 53.51l-.06.23h2.38l.07-.23z"/><path class="cls-4" d="M32.16 56.77l1.24-4.33h-.35l-1.39 4.8h5.04l.14-.47h-4.68z"/><path class="cls-7" d="M32.16 56.77l1.24-4.33h-.35l-1.39 4.8h5.04l.14-.47h-4.68z"/><path class="cls-4" d="M46.98 56.77l1.24-4.33h-.36l-1.37 4.8h2.26l.13-.47h-1.9z"/><path class="cls-7" d="M46.98 56.77l1.24-4.33h-.36l-1.37 4.8h2.26l.13-.47h-1.9z"/><path class="cls-4" d="M55.17 56.77s-.24-.8-.35-1.15l-.47.53c.11.38.33 1.09.33 1.09h2.4l-.19-.47z"/><path class="cls-7" d="M55.17 56.77s-.24-.8-.35-1.15l-.47.53c.11.38.33 1.09.33 1.09h2.4l-.19-.47z"/><path class="cls-4" d="M55.33 53.06l.54-.61h-.3l-.32.37c0 .09.06.17.08.24"/><path class="cls-7" d="M55.33 53.06l.54-.61h-.3l-.32.37.08.24z"/><path class="cls-4" d="M51 56.77l2.47-2.56c-.06-.13-.47-1.15-.72-1.77h-.69s.75 1.87.82 2.06l-2.61 2.74h3s.2-.21.42-.47z"/><path class="cls-7" d="M51 56.77l2.47-2.56c-.06-.13-.47-1.15-.72-1.77h-.69s.75 1.87.82 2.06l-2.61 2.74h3s.2-.21.42-.47z"/><path class="cls-4" d="M39.25 56.77l1.25-4.33h-.36v.12l-1.34 4.69h2.3l.13-.48z"/><path class="cls-7" d="M39.25 56.77l1.25-4.33h-.36v.12l-1.34 4.69h2.3l.13-.48z"/><path class="cls-4" d="M42.15 56.77l.93-3.22h-.6c0 .05-.07.22-.14.47h.25l-.93 3.23h2.27l.14-.48z"/><path class="cls-7" d="M42.15 56.77l.93-3.22h-.6c0 .05-.07.22-.14.47h.25l-.93 3.23h2.27l.14-.48z"/><path class="cls-4" d="M9 56.77l1.24-4.33h-.37v.12l-1.39 4.68h2.24s.06-.22.14-.47z"/><path class="cls-7" d="M9 56.77l1.24-4.33h-.37v.12l-1.39 4.68h2.24s.06-.22.14-.47z"/><path class="cls-4" d="M13.33 54.2c0-.15.13-.46.19-.69h-1.36c0 .11-.08.3-.14.48h1c0 .06 0 .14-.06.21z"/><path class="cls-7" d="M13.33 54.2c0-.15.13-.46.19-.69h-1.36c0 .11-.08.3-.14.48h1c0 .06 0 .14-.06.21z"/><path class="cls-4" d="M13.64 55.74h-2.12c0 .08-.09.28-.15.48h1.79a1.45 1.45 0 001.44-.66 2 2 0 01-1 .18"/><path class="cls-7" d="M13.64 55.74h-2.12c0 .08-.09.28-.15.48h1.79a1.45 1.45 0 001.44-.66 2 2 0 01-.96.18z"/><path class="cls-2" d="M43.28 61.38l-2.38 8.87h-3.82l2.48-9.09H37s-2.38 8.79-2.46 9.1h-3.86c.14-.51 3.19-11.85 3.28-12.15h8a1.26 1.26 0 011.07.49 2.57 2.57 0 01.42 1.57 4.68 4.68 0 01-.16 1.22M28.47 70.22h-8a1.25 1.25 0 01-1.07-.49 2.65 2.65 0 01-.4-1.57 5.29 5.29 0 01.15-1.22s2.07-7.71 2.39-8.86h3.82c-.14.5-2.48 9.07-2.48 9.07h2.57l2.46-9.09h3.85c-.14.5-3.19 11.84-3.27 12.13M17.64 65.56c-.12.5-.68 2.68-.84 3.21-.35 1.08-.9 1.6-1.69 1.6h-9.5l.87-3.19h6.39l.52-1.8H8.85a1.47 1.47 0 01-1.2-.53 1.41 1.41 0 01-.29-.85 1.73 1.73 0 01.07-.5c.09-.36.89-3.37 1-3.82a1.83 1.83 0 012-1.57h9.1c-.11.43-.73 2.84-.79 3.11h-6.38L11.87 63h4.57a1.22 1.22 0 011 .41 2.76 2.76 0 01.17 2.14M53.72 63a1.19 1.19 0 011 .41 2.76 2.76 0 01.17 2.14c-.15.6-.69 2.71-.84 3.21-.35 1.08-.9 1.6-1.69 1.6h-9.5c.12-.44.8-2.93.88-3.19h6.37l.53-1.8h-4.51a1.48 1.48 0 01-1.2-.53 1.4 1.4 0 01-.28-.88 2.2 2.2 0 01.06-.5c.1-.39.9-3.39 1-3.82a1.83 1.83 0 012-1.57h9.11L56 61.2h-6.36l-.5 1.8zM21.86 56.43h-1.52l.45-1.55h-1.6l-.44 1.54H17.2c.11-.39 1.13-3.9 1.19-4.11h1.54c-.1.32-.46 1.53-.46 1.53h1.62s.38-1.33.45-1.54h1.51c-.11.38-1.13 3.89-1.19 4.11M37.86 53.17h-2.74l-.25.92h2.75c-.06.22-.14.49-.17.63h-2.76l-.26.86h2.76c-.08.26-.21.7-.25.86h-4.33c.11-.38 1.12-3.89 1.18-4.11h4.34l-.27.85M49 56.43h-1.56c.11-.38 1.1-3.89 1.17-4.11h1.56c-.11.38-1.12 3.89-1.19 4.11M57.06 56.43h-1.63L55 54.94l-1.33 1.49h-1.86c.42-.45 2.06-2.15 2.06-2.15l-.8-2h1.64c.06.18.5 1.41.5 1.41l.19-.22s.94-1.09 1-1.19h1.9l-2.11 2.09.83 2M45.05 53.35l-.89 3.08H42.6l.94-3.22h-1.32s-.87 3-.93 3.23h-1.58c.11-.38 1.12-3.9 1.18-4.12h3.6a.57.57 0 01.48.19.84.84 0 01.13.48 1.44 1.44 0 01-.05.37M15.36 53.11a5 5 0 01-.36 1.41c-.28.64-.45.87-1.36.88h-2.38v.12l-.28.91H9.43c.11-.39 1.12-3.9 1.19-4.12h4a.77.77 0 01.58.19.81.81 0 01.18.55m-3.46.06l-.39 1.37h2.08l.39-1.31h-2.1zM27.31 53.17l-.68 2.4h1.72l.69-2.4h-1.73zm3.29 0l-.72 2.46a1 1 0 01-.91.75h-3.32a.5.5 0 01-.43-.19.8.8 0 01-.18-.52.37.37 0 010-.12l.65-2.3.05-.17a1.09 1.09 0 011.12-.82H30a.5.5 0 01.43.18.92.92 0 01.15.52 1 1 0 010 .2"/><path d="M27.49 2.59a6.72 6.72 0 00-6.21 4.91l-4.39 17.63-6.39 25.29h43.36a6.68 6.68 0 006.22-4.86l10.16-43z" fill="#3e2680"/><path class="cls-7" d="M27.49 2.59a6.72 6.72 0 00-6.21 4.91l-4.39 17.63-6.39 25.29h43.36a6.68 6.68 0 006.22-4.86l10.16-43z"/><g class="cls-9"><path class="cls-4" d="M58.64 25.39l6.32-4.42 1.1-1.85-8.14.39-.84-6.02 5.76-5.32-1.63.11-9.16 3.11-1.22-7.87-1.21.88-4.28 6.83-2.9 1.75-4.75-7.8-.92 2.99.46 5.57.04 2.3-.08.11-6.74-2.91.85 3.28 3.02 3.79-4.6-.23 1.08 2 2.46 1.08-19.37 14.05 3.42-1.31 11.95-8.02L13.9 41.16l-1.51 1.86 20.73-15.17-.93 2.12-19.26 17.65-2.08 2.7 21.67-16.16 2.13.25-13.4 12.76-2.27 3.16 19.75-15.24 3.59-.87-15.07 12.87-2.43 3.24 21.52-15.48 3.63 5.75 3.38 2.02 1.08-10.6 7 .02 1.97-1.18-4.76-5.47z"/></g><path stroke="#3e2680" stroke-width=".33" fill="none" d="M58.64 25.39l6.32-4.42 1.1-1.85-8.14.39-.84-6.02 5.76-5.32-1.63.11-9.16 3.11-1.22-7.87-1.21.88-4.28 6.83-2.9 1.75-4.75-7.8-.92 2.99.46 5.57.04 2.3-.08.11-6.74-2.91.85 3.28 3.02 3.79-4.6-.23 1.08 2 2.46 1.08-19.37 14.05 3.42-1.31 11.95-8.02L13.9 41.16l-1.51 1.86 20.73-15.17-.93 2.12-19.26 17.65-2.08 2.7 21.67-16.16 2.13.25-13.4 12.76-2.27 3.16 19.75-15.24 3.59-.87-15.07 12.87-2.43 3.24 21.52-15.48 3.63 5.75 3.38 2.02 1.08-10.6 7 .02 1.97-1.18-4.76-5.47z"/><g class="cls-9"><path class="cls-11" d="M66.06 19.12l-7.12-2.54 3.9-8.41-8.76 3.34-3.25-7.99-4 6.39-9.14-4.73.68 8.65-7.92-.59 4.16 5.23-4.89 1.61 3.12 1.47-18.95 15.66 21.1-13.93-22.6 19.74 20.56-12.66-22.11 19.96 25.01-15.79-16.87 15.8 24.64-15.82-18.8 15.82 23.91-14.7 4.62 6.99 3.82-11.76h6.23l-3.05-7.53 5.71-4.21z"/></g><g class="cls-9"><path class="cls-12" d="M66.06 19.12l-7.12-2.54 3.9-8.41-8.76 3.34-3.25-7.99-4 6.39-9.14-4.73.68 8.65-7.92-.59 4.16 5.23-4.89 1.61 3.12 1.47-18.95 15.66 21.1-13.93-22.6 19.74 20.56-12.66-22.11 19.96 25.01-15.79-16.87 15.8 24.64-15.82-18.8 15.82 23.91-14.7 4.62 6.99 3.82-11.76h6.23l-3.05-7.53 5.71-4.21z"/></g><path d="M48.51 35.3a13.61 13.61 0 10-13.6-13.6 13.6 13.6 0 0013.6 13.6" fill="#bf2f38"/><path d="M48.5 31.6a11.56 11.56 0 10-8.89-13.72A11.56 11.56 0 0048.5 31.6" fill="#e56020"/><path d="M48.5 31.6a11.56 11.56 0 10-8.89-13.72A11.56 11.56 0 0048.5 31.6z" stroke-width=".24" stroke="#e56020" fill="none"/><g class="cls-13"><path class="cls-11" d="M47.15 9.34s16.09 1.32 12.14 18.91c0 0 4.4-8.22-1.43-14.92a12.85 12.85 0 00-10.71-4"/></g><path d="M47.15 9.34s16.09 1.32 12.14 18.91c0 0 4.4-8.22-1.43-14.92a12.85 12.85 0 00-10.71-3.99z" stroke-linejoin="round" stroke="#f9a01b" stroke-width=".33" fill="none"/><g class="cls-13"><path class="cls-11" d="M56.37 17.77c-.06-.16-.11-.26-.12-.29a14.29 14.29 0 00-2-3.19A17.13 17.13 0 0160 13.9l-.28-.85a17.61 17.61 0 00-6.11.52 13.53 13.53 0 00-2.85-2.25 5 5 0 001.15-2.57h-.71a4.17 4.17 0 01-1 2.22 16.7 16.7 0 00-7.3-1.87l-.23.63a15.58 15.58 0 016.65 1.93 5.3 5.3 0 01-2.92.75s-6.09.19-8.79 1.91l-1.16 1.93s3.55-3.11 10.17-3.08A6.54 6.54 0 0050 12a12.28 12.28 0 012.54 1.85 24.24 24.24 0 00-7.67 4 23.47 23.47 0 00-8.2 11.74l2 1.78a24 24 0 017.24-12.94 20.12 20.12 0 017.32-3.86 11 11 0 012 3.27c-1 .11-4.27.89-6.19 6.11l-1.79 5.78c0 .22-1.09 4.71-4.89 4.75v1.48c5.13.81 5.82-2.12 6.77-5.6.62-2.67 1.41-6 1.41-6 1-4.77 4.15-5.54 5-5.65A20.16 20.16 0 0153.24 34l2 .89c.29-.45.81-.9 1-1.35a22 22 0 00.45-14.87c3.29.35 5.17 3.75 5.25 3.89l1-.16c-.09-.19-2.11-4.51-6.57-4.67"/></g><g class="cls-13"><path class="cls-12" d="M56.37 17.77c-.06-.16-.11-.26-.12-.29a14.29 14.29 0 00-2-3.19A17.13 17.13 0 0160 13.9l-.28-.85a17.61 17.61 0 00-6.11.52 13.53 13.53 0 00-2.85-2.25 5 5 0 001.15-2.57h-.71a4.17 4.17 0 01-1 2.22 16.7 16.7 0 00-7.3-1.87l-.23.63a15.58 15.58 0 016.65 1.93 5.3 5.3 0 01-2.92.75s-6.09.19-8.79 1.91l-1.16 1.93s3.55-3.11 10.17-3.08A6.54 6.54 0 0050 12a12.28 12.28 0 012.54 1.85 24.24 24.24 0 00-7.67 4 23.47 23.47 0 00-8.2 11.74l2 1.78a24 24 0 017.24-12.94 20.12 20.12 0 017.32-3.86 11 11 0 012 3.27c-1 .11-4.27.89-6.19 6.11l-1.79 5.78c0 .22-1.09 4.71-4.89 4.75v1.48c5.13.81 5.82-2.12 6.77-5.6.62-2.67 1.41-6 1.41-6 1-4.77 4.15-5.54 5-5.65A20.16 20.16 0 0153.24 34l2 .89c.29-.45.81-.9 1-1.35a22 22 0 00.45-14.87c3.29.35 5.17 3.75 5.25 3.89l1-.16c-.09-.15-2.11-4.47-6.57-4.63z"/></g><g class="cls-13"><path class="cls-2" d="M61.46 20.07a6.92 6.92 0 00-3.35-2.34 6.63 6.63 0 00-1.39-.3 7.66 7.66 0 00-.95-.05 13.25 13.25 0 00-2.12-3.21l-.05-.06h.08a16 16 0 015.92-.49l-.22-.65a10.22 10.22 0 00-1.19-.06 18.17 18.17 0 00-5.11.62 13.17 13.17 0 00-2.7-2h-.05l.23-.24a4.28 4.28 0 001-2.19 6.93 6.93 0 00.09-1.14l-.88.35-.05.62v.24a4 4 0 01-1.42 1.73 16.78 16.78 0 00-6.75-1.52h-.08c0 .06-.13.43-.16.52a18.41 18.41 0 016.18 1.52l.12.06h-.12a5.8 5.8 0 01-2.12.25c-.91-.11-7.86-.24-10.34 2.37 0 .08.82 1.14.88 1.23a3.66 3.66 0 01.35-.31 17.34 17.34 0 019.23-2.27 6.11 6.11 0 003-.82 12.34 12.34 0 012.42 1.74l.07.06h-.09a19.65 19.65 0 00-3.41 1.4 24.32 24.32 0 00-5 3.3l-.23.25a23 23 0 00-6.83 10.58l1.81 1.07a21.92 21.92 0 01.77-2.49c.24-.67.53-1.37.86-2.08a22.82 22.82 0 015.69-7.58 22.14 22.14 0 017-3.8 10.94 10.94 0 012 3.08v.05h-.06a5.85 5.85 0 00-1.38.53c-3.54 1.76-4.56 6.19-4.57 6.24L47 29.12c-.22.8-1.44 4.68-5 4.68v1.06l1.07.21c1.16.24 1.75.36 2.45 0a1.31 1.31 0 00.87-.44s.65-.34 1.41-2.22a21.46 21.46 0 00.8-2.42v-.16l.19-.9v-.08c.53-2.28 1.3-5 1.3-5l.1-.37a13.34 13.34 0 01.81-1.8 6.08 6.08 0 013.91-3.23h.05a19.27 19.27 0 01.68 5.19 20.36 20.36 0 01-2.89 10.49l-2 2.49 3.91-1.74a17.44 17.44 0 002.63-9.48 23.29 23.29 0 00-1.1-7v-.07h.07c3.65.11 5.62 3.41 5.77 3.67l.83.08a9.48 9.48 0 00-1.32-2"/></g><g class="cls-13"><path class="cls-4" d="M61.5 20a7 7 0 00-3.37-2.36 6.33 6.33 0 00-1.4-.3 7 7 0 00-1-.05 14.29 14.29 0 00-2.13-3.22 15.82 15.82 0 016-.48l-.26-.76a9.9 9.9 0 00-1.27-.07 18.51 18.51 0 00-5.12.63 12.87 12.87 0 00-2.71-2l.19-.21a4.38 4.38 0 001-2.22 6.82 6.82 0 00.1-1.22l-1 .39a4 4 0 01-.06.64 1.09 1.09 0 010 .25V9a4 4 0 01-1.26 1.82 16.54 16.54 0 00-6.88-1.54l-.2.62a18.13 18.13 0 016.23 1.52 5.59 5.59 0 01-2.09.25c-1.12-.14-8-.22-10.42 2.42l.94 1.31a4.4 4.4 0 01.39-.35 17.28 17.28 0 019.2-2.26 6 6 0 003-.83 13 13 0 012.41 1.74 20.09 20.09 0 00-3.43 1.4 24.22 24.22 0 00-5 3.31c-.09.1-.19.19-.27.29a23.05 23.05 0 00-6.87 10.64l1.92 1.13a20.65 20.65 0 01.86-2.62c.29-.79.61-1.51.87-2.07a22.59 22.59 0 015.68-7.56 22.13 22.13 0 017-3.8 11 11 0 012 3.07 5.9 5.9 0 00-1.39.53c-3.6 1.8-4.6 6.28-4.6 6.28l-1.59 4.8c-.06.22-1.19 4.69-5 4.65v1.16c2 .34 2.67.69 3.59.17a1.3 1.3 0 00.91-.46s.65-.3 1.43-2.24a25 25 0 00.85-2.57c.06-.29.12-.59.19-.91v-.08c.53-2.28 1.29-5 1.29-5s.07-.25.1-.37A12.43 12.43 0 0151 21.7a6 6 0 013.88-3.2 20.49 20.49 0 01-2.21 15.64l-2.16 2.65L54.64 35c4.17-6.49 2.37-14 1.54-16.57 3.65.11 5.67 3.52 5.74 3.67l.94.09A9.55 9.55 0 0061.5 20"/></g><g clip-path="url(#clip-path-16)"><path d="M48.52 34.79A13.09 13.09 0 1161.6 21.71a13.08 13.08 0 01-13.08 13.08z" stroke="#e56020" stroke-width=".33" fill="none"/></g><g clip-path="url(#clip-path-17)"><path d="M48.52 34.79A13.09 13.09 0 1161.6 21.71a13.08 13.08 0 01-13.08 13.08z" stroke="#bf2f38" stroke-width=".33" fill="none"/></g><g clip-path="url(#clip-path-18)"><path class="cls-12" d="M48.52 34.79A13.09 13.09 0 1161.6 21.71a13.08 13.08 0 01-13.08 13.08z"/></g></g></g></svg>