<svg xmlns="http://www.w3.org/2000/svg" viewBox="0 0 81 100.26"><defs><clipPath id="clip-path"><path class="cls-1" d="M10.27 92.12h1.57v5.12h-1.57z"/></clipPath><clipPath id="clip-path-2"><path class="cls-1" d="M18.51 82.7h1.6v5.21h-1.6z"/></clipPath><clipPath id="clip-path-3"><path class="cls-1" d="M14.38 87.42h1.59v5.17h-1.59z"/></clipPath><clipPath id="clip-path-4"><path class="cls-1" d="M69.04 92.16h1.56v5.13h-1.56z"/></clipPath><clipPath id="clip-path-5"><path class="cls-1" d="M60.75 82.73h1.61v5.21h-1.61z"/></clipPath><clipPath id="clip-path-6"><path class="cls-1" d="M64.91 87.45h1.59v5.18h-1.59z"/></clipPath><style>.cls-1{fill:none}.cls-2{fill:#fff}.cls-3{fill:#051922}.cls-4{fill:#393d94}.cls-5{fill:#5a4099}.cls-6{isolation:isolate}.cls-7{fill:#a7a9ac}</style></defs><g id="Layer_2" data-name="Layer 2"><g id="Layer_1-2" data-name="Layer 1"><path class="cls-2" d="M81 16.84a1.22 1.22 0 00-1.88-1c-1.87 1.15-7.06 6-10.86 9.63l-1.46 1.39c-.39-.16-.9-.38-1.25-.48a7.81 7.81 0 00-3.35-.14l4.07-9.57s-9 4.73-10.24 5.38C56.17 20.56 57.69 4 57.69 4l-11.9 14.64L40.52 0s-4.89 17.11-5.32 18.63L23.33 3.93S24.82 20.53 25 22l-10.24-5.4s3.42 8.05 4.06 9.57a7.71 7.71 0 00-3.33.14 11.44 11.44 0 00-1.26.47c-.23-.21-1.46-1.41-1.46-1.41-3.8-3.59-9-8.51-10.85-9.66a1.23 1.23 0 00-1.47.12 1.27 1.27 0 00-.41.92 1.23 1.23 0 00.12.52c1 2.08 5.93 9 8.89 12.94a5.19 5.19 0 00-1.77 3.39v.09a2.4 2.4 0 00.67 1.74l.68.65H.64V37C.49 42.89.33 57.63 1.71 66.54 3 75 5.15 81 8.87 86.68l.39.59.37-.6a41.49 41.49 0 017.77-8.39l2.11 2C19 80.89 6.59 95 6.59 95a3.13 3.13 0 00-.79 2.08v.2a3.16 3.16 0 005.51 1.9s11-12.43 12.94-14.65L32 91.42 31.73 88a8.19 8.19 0 010-.87 16.56 16.56 0 01.27-2.81 10.81 10.81 0 008.43 4.06 10.79 10.79 0 008.43-4 16.14 16.14 0 01.31 2.82 6.28 6.28 0 010 .89l-.31 3.38 7.79-6.9 12.9 14.62a3.13 3.13 0 002.17 1.07A3.15 3.15 0 0074.27 95L61.38 80.31l2.11-2a41.54 41.54 0 017.76 8.41l.37.6.39-.59c3.72-5.68 5.88-11.7 7.2-20.13 1-6.3 1.21-15.52 1.21-22.48 0-2.88 0-5.37-.08-7.1v-.85h-7.97l.67-.65a2.41 2.41 0 00.68-1.75v-.09A5.13 5.13 0 0072 30.29c3-4 8-10.84 8.92-12.93a1.17 1.17 0 00.12-.52m-.53.33c-1 2.09-6.1 9.16-9.1 13.16 2.12 1.83 2.29 4 1.37 4.87l-1.48 1.42h8.61c0 .56.55 19.3-1.11 29.91-1.26 8.08-3.27 14.07-7.13 20a41.9 41.9 0 00-8.15-8.77l-2.73 2.56 13.18 15a2.7 2.7 0 11-4 3.57l-13.22-15-5.59 5-1.69 1.49.21-2.24a16.17 16.17 0 00-.46-4.86 10.42 10.42 0 01-17.41 0 16.51 16.51 0 00-.45 4.86l.2 2.24-1.76-1.55-5.58-5L11 98.85a2.7 2.7 0 01-4-3.58l13.21-15-2.73-2.56a41.78 41.78 0 00-8.16 8.76c-3.85-5.89-5.85-11.9-7.1-20C.51 55.85 1.09 37.11 1.09 36.55h8.62l-1.48-1.41c-.94-.91-.74-3 1.38-4.86-3-4-8.12-11.09-9.08-13.17a.8.8 0 01.18-.91.78.78 0 01.93-.08c1.83 1.13 7 6 10.77 9.6.54.5 1.24 1.21 1.68 1.62a14.52 14.52 0 011.47-.56 5.8 5.8 0 014 .18l-4-9.34 9.84 5.2-1.49-17.45L35.4 19.59l5.11-17.94 5.08 18L57.1 5.4l-1.59 17.44 9.85-5.18-4 9.33a5.85 5.85 0 014-.17 15 15 0 011.47.57c.45-.42 1.15-1.12 1.68-1.62 3.78-3.57 9-8.45 10.79-9.58a.77.77 0 01.92.08.76.76 0 01.19.9"/><path class="cls-3" d="M79.36 16.19c-1.83 1.13-7 6-10.79 9.58-.53.5-1.23 1.2-1.68 1.62a15 15 0 00-1.47-.57 5.85 5.85 0 00-4 .17l4-9.33-9.85 5.18L57.1 5.4 45.59 19.61l-5.08-18-5.11 17.98L23.91 5.37l1.57 17.45-9.84-5.19 4 9.33a5.8 5.8 0 00-4-.18 14.52 14.52 0 00-1.47.56c-.44-.41-1.14-1.12-1.68-1.62-3.77-3.58-8.94-8.47-10.77-9.6a.78.78 0 00-.93.08.8.8 0 00-.18.91c1 2.08 6.08 9.17 9.07 13.17-2.12 1.83-2.31 3.95-1.37 4.86l1.48 1.42h-8.7c0 .56-.58 19.3 1.06 29.92 1.25 8.07 3.25 14.08 7.1 20a41.78 41.78 0 018.16-8.76l2.73 2.56-13.21 15a2.7 2.7 0 004 3.58l13.25-15 5.58 5 1.68 1.49-.2-2.24a16.51 16.51 0 01.45-4.86 10.42 10.42 0 0017.41 0 16.17 16.17 0 01.46 4.86l-.21 2.24 1.69-1.49 5.59-5 13.22 15a2.7 2.7 0 104-3.57l-13.18-15 2.73-2.56a41.9 41.9 0 018.15 8.77c3.86-5.89 5.87-11.88 7.13-20 1.66-10.61 1.11-29.35 1.11-29.91h-8.53l1.48-1.42c.93-.92.75-3-1.37-4.87 3-4 8.13-11.07 9.1-13.16a.76.76 0 00-.19-.9.77.77 0 00-.92-.08M62.89 28.29c.42-.54 1.45-.46 2.91.22l.15.06-1.84 1.92h-.08a2.41 2.41 0 01-1.24-1.53.76.76 0 01.1-.63m-1.34.22l.19.11a1.25 1.25 0 00-.06 1 5.22 5.22 0 002.63 2.59l.11.07-.63.77h-.08s-2.35-.73-4-1.45l-.11-.06zm7.66 17.07H64.1V46c-.08 2.11 0 3.41 2.06 5.82l2.37 2.69c.74.83 1.38 1.55 2 2.27.15.17.31.35.49.53 1.26 1.36 3.4 3.62 2 10.25a51.1 51.1 0 01-2.32 8.5l-.12.26A49.75 49.75 0 0057.3 67.7a86.26 86.26 0 001.29-9.48l4.69 3.7c-.11 1-.25 2-.4 3 .94.49 3.67 2 4.51 2.67.1-.47.37-1.49.44-1.9.68-4.43-.48-5.68-1.35-6.61a3.65 3.65 0 01-.27-.3c-.37-.43-.66-.73-1.1-1.2-.64-.65-1.61-1.66-3.65-3.93-2.66-3-2.5-7.36-2.46-10.06l.07-1.7h2.41a7.7 7.7 0 001.82.28 3.29 3.29 0 001.41-.28h9.77c0 2.8 0 6.76-.08 10.93L69.23 49v-3.36m-4.53-4.86a1.85 1.85 0 01-1.42.42c-1.63 0-4.64-1.2-7.83-2.44l-.45-.23a37.06 37.06 0 00-29 0l-.43.17c-3.19 1.24-6.21 2.42-7.84 2.43a1.8 1.8 0 01-1.4-.42c-.39-.35-4.93-4.88-5.13-5.07l-.22-.22h.31c1.68.13 6.82-1.4 10.82-3l.75-.29a44.8 44.8 0 0117.67-3.76 44.8 44.8 0 0117.66 3.79l.75.29c4 1.56 9.13 3.1 10.82 3h.3l-.22.22c-.19.18-4.75 4.7-5.12 5M54 39.29v1.22H27V39.3a36.88 36.88 0 0113.51-2.63A37.27 37.27 0 0154 39.29M13 65.34a72 72 0 001.59 7.54 53 53 0 00-4.34 3.55 59.61 59.61 0 01-2.76-11.1c-1.08-7-1.06-18-1-23.56H12c-.05 3.3-.08 8.29.13 13.3L17 51.53c-.09-3.72-.06-7 0-9.5a4 4 0 00.66 0 8.29 8.29 0 002-.31h2.09c0 3.08 0 6.8.12 10.84l-4.2 3 4.56 2.58a86.9 86.9 0 001.31 9.48A45.59 45.59 0 0018.89 70a84.05 84.05 0 01-1.33-9.27l-5.31-3.03c.15 2.74.38 5.41.73 7.64m15.15-38.56s-1.24-13.55-1.31-14.26l9.58 11.91s3.9-13.81 4.11-14.54c.2.73 4.07 14.55 4.07 14.55l9.6-11.9c-.07.71-1.33 14.25-1.33 14.25l7.89-4.15-3.47 8.06a43.76 43.76 0 00-33.56 0c-.09-.19-3.24-7.53-3.47-8.07l7.89 4.18m-8.9 1.81l.2-.12 1.9 3-.11.05c-1.6.72-3.95 1.45-4 1.46h-.07l-.64-.78.13-.07a5.29 5.29 0 002.66-2.56 1.25 1.25 0 00-.07-1m-4.05-.12c1.45-.68 2.49-.75 2.91-.22a.77.77 0 01.1.63 2.42 2.42 0 01-1.25 1.53h-.08L15 28.53zM5.07 21.15c2.07 1.88 4.41 4.1 6.19 5.78l2.79 2.62.17.19 1.23 1.43-.29.19a2.89 2.89 0 01-.64.37l-.16.05 1.23 1.49-1.05.32-2.24-2.54c-1.63-2.13-4.83-6.45-7.23-9.9m4.56 12.54c-.76-.76.17-1.69.79-2.31l.09-.09.08.09 1.75 2.2-.14.05c-.64.26-2.14.5-2.57.06m6.16 42.55a47.83 47.83 0 00-6.33 6.32l-.11.13-.08-.15a54.16 54.16 0 01-5-16.05c-.94-5.73-1.31-15.37-1-27.16v-.68H13l2.42 2.39.16.14.32.27v.27c-.07 3.25-.08 6.25 0 9.17V51l-2.73 2v-.21c-.06-2.08-.08-4.3-.08-6.64v-4.31-1.12H5.38v5.42a142.3 142.3 0 001 19.42A60.81 60.81 0 009.19 76.8s.47 1.29.56 1.55l1.25-1.1c1-.95 2-1.8 3-2.57l.07-.05 1.79 1.52zm6.43 7.69l-2.1 2.38-1.39 1.57L16 91l-1.38 1.56-2.75 3.12-1.36 1.53-.59.66a1.24 1.24 0 01-1.77.1 1.22 1.22 0 01-.41-.86 1.29 1.29 0 01.3-.91l2.26-2.55 1.36-1.56L14.38 89l1.38-1.57 2.76-3.13 1.38-1.6.47-.53a1.53 1.53 0 011.36.29 1.51 1.51 0 01.48 1.15 1.27 1.27 0 010 .33m8.09-3.6a28.51 28.51 0 00-1.11 5.51c-.31-.29-11.47-10.19-11.78-10.47a36.2 36.2 0 008.17-3 37 37 0 004.67-2.71A38.13 38.13 0 0135 68.51a10.48 10.48 0 00-5.1 9 10.37 10.37 0 00.39 2.82m19.16-2.17a9.06 9.06 0 01-.72 2.94 8.72 8.72 0 01-1.18 2 6.71 6.71 0 01-.48.58 9 9 0 01-6.41 2.9h-.49a9 9 0 01-6.39-2.91c-.17-.18-.33-.37-.48-.56a8.46 8.46 0 01-1.19-2 9.13 9.13 0 01-.71-2.91v-.66a9.06 9.06 0 014.94-8 5.24 5.24 0 01.48-.23 9.18 9.18 0 013.4-.76h.5a9.13 9.13 0 013.39.77c.17.07.32.15.48.23a9 9 0 014.91 8.05v.65M61 82.73c.32.38.8.92 1.38 1.58l2.75 3.14L66.49 89l2.75 3.13 1.36 1.57 2.24 2.55a1.26 1.26 0 01.32.84.17.17 0 010 .07 1.2 1.2 0 01-.41.87A1.27 1.27 0 0171 98l-.58-.66L69 95.76l-2.76-3.13-1.34-1.56-2.75-3.13-1.4-1.58L58.67 84a1.46 1.46 0 011.82-1.77l.47.52m-9.49 3.13a27.39 27.39 0 00-1-5.19 10.54 10.54 0 00.53-3.18 10.53 10.53 0 00-5-9 39.36 39.36 0 014.54 1.09 38.24 38.24 0 004.63 2.71 36.54 36.54 0 008.16 3c-.32.27-11.48 10.17-11.8 10.45m6.69-14.33a38 38 0 00-17.72-4.92 37.85 37.85 0 00-17.75 4.9 43.52 43.52 0 01-8 2.89l-.09-.21.57-.41.61-.45c0-.13-.2-.74-.2-.74a69.4 69.4 0 01-1.56-7.43c-.23-1.45-.42-3.2-.57-5.22v-.22l3 1.77v.06a82.93 82.93 0 001.29 8.77l.31 1.51 1.33-.78A43.44 43.44 0 0124 68.73l.82-.35c0-.22-.18-.88-.18-.88a89 89 0 01-1.29-9.36s0-.49-.05-.59l-3.55-2L23 53.17v-.61c-.1-2.31-.15-4.71-.15-7.24v-4.7l1.89-.71v2.43h31.47v-2.41l1.8.68v1.18s-.08 1.7-.08 1.73v.27c-.05 2.76-.12 7.38 2.75 10.55l3.67 4 1.07 1.15.29.33c.78.84 1.67 1.79 1.07 5.7v.27l-2.62-1.49h-.07l.29-2.21s.06-.52.08-.62l-6.8-5.36c0 .55-.18 2-.18 2a82.51 82.51 0 01-1.27 9.36l-.18.88.83.36a47.33 47.33 0 019.34 5.51l-.1.2a43.29 43.29 0 01-7.92-2.9m19.44-32.81h.12v.69c.23 11.78-.15 21.43-1.09 27.15a54.2 54.2 0 01-5 16l-.08.15-.11-.12a48.55 48.55 0 00-6.32-6.34l-.1-.09 1.77-1.51.07.06c1 .78 2 1.61 3 2.45l1.11 1 .76-1.6v-.06a52.25 52.25 0 002.37-8.68 20 20 0 00.49-4.21 9.1 9.1 0 00-2.74-7l-.44-.49-2-2.3L67 51.12c-1.51-1.74-1.8-2.76-1.8-4.17v-.25h2.93v2.82c.11.08 7.06 5.2 7.35 5.4 0-.56.05-2.12.05-2.12.07-2.23.1-4.58.1-7.11v-3.86-1.1h-9.71l2-2zm-6.28-5c-.43.43-1.93.21-2.58-.06h-.13l1.66-2.08.17-.22.09.09c.62.63 1.55 1.56.79 2.32m-2.68-2.63l-2.23 2.52-1.05-.32 1.23-1.48-.15-.06a2.22 2.22 0 01-.65-.38l-.28-.18 1.24-1.44.17-.19 2.78-2.6c1.78-1.68 4.13-3.89 6.2-5.77-2.4 3.45-5.6 7.75-7.26 9.9"/><path class="cls-3" d="M14 74.68c-1 .77-2 1.62-3.06 2.57l-1.22 1.1c-.09-.26-.56-1.55-.56-1.55a60.81 60.81 0 01-2.79-11.3 142.3 142.3 0 01-1-19.42v-4.33-1.09h7.73v5.43c0 2.34 0 4.56.08 6.64V53l2.73-2v-.06c-.07-2.92-.06-5.92 0-9.18v-.25l-.32-.28-.15-.14L13 38.67H3.23v.68c-.26 11.79.11 21.43 1 27.16a54.16 54.16 0 005 16.05l.08.15.11-.12a47.32 47.32 0 016.33-6.33l.1-.09-1.75-1.54z"/><path class="cls-4" d="M14 74.68c-1 .77-2 1.62-3.06 2.57l-1.22 1.1c-.09-.26-.56-1.55-.56-1.55a60.81 60.81 0 01-2.79-11.3 142.3 142.3 0 01-1-19.42v-4.33-1.09h7.73v5.43c0 2.34 0 4.56.08 6.64V53l2.73-2v-.06c-.07-2.92-.06-5.92 0-9.18v-.25l-.32-.28-.15-.14L13 38.67H3.23v.68c-.26 11.79.11 21.43 1 27.16a54.16 54.16 0 005 16.05l.08.15.11-.12a47.32 47.32 0 016.33-6.33l.1-.09-1.75-1.54z"/><path class="cls-3" d="M70 35.45h-.3c-1.69.13-6.83-1.41-10.82-3l-.75-.29a44.8 44.8 0 00-17.66-3.79 44.76 44.76 0 00-17.67 3.76l-.75.29c-4 1.55-9.14 3.08-10.82 3h-.31l.22.22c.19.19 4.74 4.72 5.13 5.07a1.79 1.79 0 001.4.42c1.63 0 4.65-1.19 7.84-2.43l.43-.16a37 37 0 0129 0l.43.17c3.19 1.24 6.2 2.42 7.83 2.44a1.85 1.85 0 001.42-.42l5.12-5.06zm-50.43 3.2a5.69 5.69 0 01-1.83.32l-.28.41-.4-1.05a3.63 3.63 0 002.24-.1c.51-.18.88-.4.8-.62s-.6 0-1.25.17c-1.09.33-1.91.34-2.14-.3s.37-1.24 1.43-1.64a4.53 4.53 0 011.72-.28l.29-.42.36 1a3.69 3.69 0 00-2.09.18c-.5.19-1 .45-.88.65s.56 0 1.2-.21c1.08-.34 2-.34 2.27.33s-.38 1.21-1.44 1.61m4.1-1.39l.34-.82-.16-.12-1.5.53v.19l.91.4-2 .74.42-.9.36-2-.88-.36c.85-.31 2.29-.79 2.89-1l-.48.84L25.05 36l.93.42c-.67.24-1.88.72-2.29.87m4.06-1.51c-1.32.38-2.49.06-2.74-.8s.56-1.79 1.88-2.17a3.52 3.52 0 011.58-.12l.32-.39.34 1.16a2.28 2.28 0 00-1.81-.15c-.68.21-1.3.75-1.13 1.31s1 .7 1.65.51a2.17 2.17 0 001.47-1l.16.55a3.16 3.16 0 01-1.72 1.14M43 33.69l.68-.56.16-1.73-1.22 2.28h-.56l-1-2.41L41 33l.66.62h-2c-1 0-2 .1-2.45.11l.54-.67-.11-.15L36 33v.2l.76.59c-.39 0-1.18.11-1.81.19l-1.79.27a3 3 0 01-.71-.82c-.11-.16-.19-.22-.37-.18l-.7.16.12.56.82.45-2.53.64.56-.77-.35-1.71-.83-.44c.94-.23 1.91-.51 2.77-.7 1.1-.24 1.88-.05 2 .5s-.26.78-.82 1a.58.58 0 01.57.18c.1.11.2.25.32.39l.72.37.51-.61.86-1.8-.76-.55c1.07-.11 2.21-.19 3-.24l-.65.65L38.83 33l.81.67.73-.62.06-1.76-.66-.62h2.27l.63 1.49.75-1.44c.55.05 1.79.16 2.36.24l-.78.54-.17 1.71.66.71c-.74-.08-2-.21-2.51-.23M50 34.77c-1.15-.27-3-.64-4.29-.82l.82-.51.3-1.71-.62-.73c1 .13 2.67.43 4.41.83l-.22 1.06-.83-.77-1.57-.31-.11.65.92.16.58-.21-.22 1.13-.46-.41-.93-.13-.13.72 1.56.29 1-.42zm5.25-.91l-.71 2.35-1.23-.44-1.09-2.42-.32 1.29.53.83-2-.6.83-.4.44-1.75-.58-.78 2 .56 1.17 2.42.36-1.26-.5-.83 2 .7zm4 1.41l-.55-.2-.7 1.83.47.84-2.47-.93.86-.32.65-1.85-.51-.22-1.17.39.41-1.21c.7.26 3 1.11 4.06 1.54l-.42 1.2zm5 2.75c-.28.89-1.38 1.25-2.64.88s-1.94-1.29-1.65-2.18 1.38-1.26 2.65-.88 1.89 1.28 1.6 2.16"/><path class="cls-4" d="M70 35.45h-.3c-1.69.13-6.83-1.41-10.82-3l-.75-.29a44.8 44.8 0 00-17.66-3.79 44.76 44.76 0 00-17.67 3.76l-.75.29c-4 1.55-9.14 3.08-10.82 3h-.31l.22.22c.19.19 4.74 4.72 5.13 5.07a1.79 1.79 0 001.4.42c1.63 0 4.65-1.19 7.84-2.43l.43-.16a37 37 0 0129 0l.43.17c3.19 1.24 6.2 2.42 7.83 2.44a1.85 1.85 0 001.42-.42l5.12-5.06zm-50.43 3.2a5.69 5.69 0 01-1.83.32l-.28.41-.4-1.05a3.63 3.63 0 002.24-.1c.51-.18.88-.4.8-.62s-.6 0-1.25.17c-1.09.33-1.91.34-2.14-.3s.37-1.24 1.43-1.64a4.53 4.53 0 011.72-.28l.29-.42.36 1a3.69 3.69 0 00-2.09.18c-.5.19-1 .45-.88.65s.56 0 1.2-.21c1.08-.34 2-.34 2.27.33s-.38 1.21-1.44 1.61m4.1-1.39l.34-.82-.16-.12-1.5.53v.19l.91.4-2 .74.42-.9.36-2-.88-.36c.85-.31 2.29-.79 2.89-1l-.48.84L25.05 36l.93.42c-.67.24-1.88.72-2.29.87m4.06-1.51c-1.32.38-2.49.06-2.74-.8s.56-1.79 1.88-2.17a3.52 3.52 0 011.58-.12l.32-.39.34 1.16a2.28 2.28 0 00-1.81-.15c-.68.21-1.3.75-1.13 1.31s1 .7 1.65.51a2.17 2.17 0 001.47-1l.16.55a3.16 3.16 0 01-1.72 1.14M43 33.69l.68-.56.16-1.73-1.22 2.28h-.56l-1-2.41L41 33l.66.62h-2c-1 0-2 .1-2.45.11l.54-.67-.11-.15L36 33v.2l.76.59c-.39 0-1.18.11-1.81.19l-1.79.27a3 3 0 01-.71-.82c-.11-.16-.19-.22-.37-.18l-.7.16.12.56.82.45-2.53.64.56-.77-.35-1.71-.83-.44c.94-.23 1.91-.51 2.77-.7 1.1-.24 1.88-.05 2 .5s-.26.78-.82 1a.58.58 0 01.57.18c.1.11.2.25.32.39l.72.37.51-.61.86-1.8-.76-.55c1.07-.11 2.21-.19 3-.24l-.65.65L38.83 33l.81.67.73-.62.06-1.76-.66-.62h2.27l.63 1.49.75-1.44c.55.05 1.79.16 2.36.24l-.78.54-.17 1.71.66.71c-.74-.08-2-.21-2.51-.23M50 34.77c-1.15-.27-3-.64-4.29-.82l.82-.51.3-1.71-.62-.73c1 .13 2.67.43 4.41.83l-.22 1.06-.83-.77-1.57-.31-.11.65.92.16.58-.21-.22 1.13-.46-.41-.93-.13-.13.72 1.56.29 1-.42zm5.25-.91l-.71 2.35-1.23-.44-1.09-2.42-.32 1.29.53.83-2-.6.83-.4.44-1.75-.58-.78 2 .56 1.17 2.42.36-1.26-.5-.83 2 .7zm4 1.41l-.55-.2-.7 1.83.47.84-2.47-.93.86-.32.65-1.85-.51-.22-1.17.39.41-1.21c.7.26 3 1.11 4.06 1.54l-.42 1.2zm5 2.75c-.28.89-1.38 1.25-2.64.88s-1.94-1.29-1.65-2.18 1.38-1.26 2.65-.88 1.89 1.28 1.6 2.16"/><path class="cls-3" d="M36.28 32.51l.98-.08-.58-.78-.4.86z"/><path class="cls-5" d="M36.28 32.51l.98-.08-.58-.78-.4.86z"/><path class="cls-3" d="M32 32l-.89.21.16.74.86-.2c.31-.07.49-.25.46-.45s-.28-.36-.59-.3"/><path class="cls-5" d="M32 32l-.89.21.16.74.86-.2c.31-.07.49-.25.46-.45s-.28-.36-.59-.3"/><path class="cls-3" d="M22.48 36.27l.92-.33-.77-.63-.15.96z"/><path class="cls-5" d="M22.48 36.27l.92-.33-.77-.63-.15.96z"/><path class="cls-3" d="M62.36 36.43a1 1 0 00-1.29.64.92.92 0 00.68 1.21 1 1 0 001.31-.61 1 1 0 00-.7-1.24"/><path class="cls-5" d="M62.36 36.43a1 1 0 00-1.29.64.92.92 0 00.68 1.21 1 1 0 001.31-.61 1 1 0 00-.7-1.24"/><path class="cls-2" d="M18.76 36.71c-.64.2-1.11.43-1.2.21s.38-.46.88-.65a3.69 3.69 0 012.09-.18l-.36-1-.29.42a4.53 4.53 0 00-1.72.28c-1.07.4-1.67 1-1.43 1.64s1.05.63 2.14.3c.65-.18 1.15-.4 1.25-.17s-.29.43-.8.62a3.71 3.71 0 01-2.24.1l.4 1.05.28-.4a5.77 5.77 0 001.83-.34c1.07-.39 1.7-.92 1.44-1.6s-1.2-.66-2.27-.33M27.84 35.1c-.67.19-1.49.06-1.65-.51s.45-1.1 1.13-1.31a2.29 2.29 0 011.81.16l-.34-1.17-.32.39a3.52 3.52 0 00-1.58.12c-1.32.38-2.14 1.3-1.88 2.17s1.42 1.18 2.74.8a3.16 3.16 0 001.72-1.14l-.16-.54a2.19 2.19 0 01-1.47 1M45 31.5l.74-.56c-.57-.08-1.81-.2-2.36-.24l-.75 1.44-.63-1.49h-2.27l.66.62-.02 1.73-.73.62h2L41 33l.06-1.76 1 2.41h.56l1.22-2.28-.16 1.73-.69.56c.55 0 1.78.14 2.52.23l-.66-.72zM47.65 33.69l.13-.72.91.16.46.41.22-1.13-.58.21-.92-.17.11-.64 1.59.3.83.77.22-1.06c-1.74-.39-3.44-.7-4.41-.83l.59.73-.31 1.72-.81.5c1.26.19 3.14.56 4.29.83l.28-1.21-1 .42zM54.09 32.83l.5.83-.36 1.26-1.17-2.42-1.97-.56.58.78-.44 1.75-.83.4 2 .6-.53-.83.32-1.29 1.09 2.42 1.23.44.71-2.35.83-.33-1.96-.7zM56.19 33.6l-.41 1.21 1.22-.39.55.21-.66 1.86-.89.31 2.46.94-.46-.84.65-1.84.55.21.67 1.07.41-1.2c-1.08-.43-3.36-1.28-4.06-1.54M62.57 35.84c-1.27-.38-2.36 0-2.65.88s.38 1.79 1.65 2.18 2.36 0 2.64-.88-.38-1.79-1.64-2.18m.49 1.83a1 1 0 01-1.31.61.92.92 0 01-.68-1.21 1 1 0 011.29-.64 1 1 0 01.7 1.24"/><path class="cls-2" d="M23.51 34.72l.48-.84c-.6.24-2 .72-2.89 1l.88.36-.36 2-.42.9 2-.74-.91-.4v-.19l1.5-.53.16.12-.34.82c.41-.15 1.62-.63 2.29-.87l-.85-.35zm-1 1.55l.16-1 .77.63zM37.67 31.32l.65-.66c-.8 0-1.94.13-3 .24l.76.55-.86 1.79-.51.62-.71-.37-.32-.4a.6.6 0 00-.57-.17c.56-.2.89-.54.82-1s-.88-.75-2-.5c-.86.18-1.83.47-2.77.7l.83.44.36 1.73-.56.76 2.53-.64-.83-.41-.12-.56.7-.16c.18 0 .26 0 .37.18a3 3 0 00.71.82l1.78-.28c.63-.08 1.42-.17 1.81-.19L36 33.2V33l1.57-.11.12.15-.54.68c.45 0 1.49-.12 2.45-.12l-.77-.6zm-5.55 1.4l-.86.2-.16-.74.9-.18c.31-.07.55 0 .59.3s-.15.38-.46.45m4.16-.21l.4-.86.58.78z"/><path class="cls-4" d="M40.7 70h.11a8.76 8.76 0 012.39.43h.1v-.09a4.06 4.06 0 01.73-1.12 9.13 9.13 0 00-3.39-.77V70zM37.57 70.37v.1h.09A8.89 8.89 0 0140.1 70h.11v-1.54a9.18 9.18 0 00-3.4.76 4.21 4.21 0 01.74 1.12M44.87 76.64l-1.12-1.82a5.47 5.47 0 01-.78-2.7 4 4 0 01.14-1.12v-.1H43a9.15 9.15 0 00-2.21-.39h-.09v16a9 9 0 006.41-2.9 10.9 10.9 0 00-2.22-7"/><path class="cls-4" d="M49 79.08A8.51 8.51 0 0046.51 73a8.24 8.24 0 00-2.78-1.86l-.13-.06v.13a3.34 3.34 0 00-.11.89 4.94 4.94 0 00.72 2.45l1.09 1.78a11.43 11.43 0 012.3 6.59v.13a8.72 8.72 0 001.18-2 8.18 8.18 0 00.27-2zM37 70.68h.11v-.11a3.62 3.62 0 00-.76-1.08 9.06 9.06 0 00-4.94 8v.66l.09-.58a9.13 9.13 0 015.5-6.89"/><path class="cls-4" d="M35.62 76.36l1.1-1.79a5 5 0 00.72-2.46 3.72 3.72 0 00-.11-.88v-.13l-.12.05a8.6 8.6 0 00-5.3 7.92 8.49 8.49 0 00.25 2 8.46 8.46 0 001.19 2v-.15a11.35 11.35 0 012.3-6.57M44.58 69.46a3.6 3.6 0 00-.76 1.07v.11h.11a8.88 8.88 0 013 2 9.06 9.06 0 012.53 4.92s0 .24.08.57v-.65a9 9 0 00-4.91-8.05"/><path class="cls-4" d="M40.09 70.51a8.61 8.61 0 00-2.21.39h-.1v.11a4.82 4.82 0 01.13 1.07 5.53 5.53 0 01-.78 2.71L36 76.62a11 11 0 00-2.23 7 9 9 0 006.39 2.91v-16z"/><g class="cls-6"><path class="cls-7" d="M46.86 72.67a9.06 9.06 0 00-3-2h-.11v-.11a3.6 3.6 0 01.76-1.07c-.16-.08-.31-.16-.48-.23a4.06 4.06 0 00-.73 1.12v.09h-.1a8.76 8.76 0 00-2.39-.47h-.11v-1.54h-.5V70h-.1a8.89 8.89 0 00-2.4.42h-.09v-.1a4.21 4.21 0 00-.74-1.12c-.17.07-.32.15-.48.23a3.62 3.62 0 01.76 1.08v.11h-.11a9.1 9.1 0 00-5.52 6.89l-.09.57a9.25 9.25 0 00.71 2.93 8.63 8.63 0 01-.25-2 8.6 8.6 0 015.3-7.92l.12-.05v.13a3.72 3.72 0 01.11.88 5 5 0 01-.72 2.46s-1.1 1.78-1.1 1.79a11.35 11.35 0 00-2.3 6.57v.15a6.2 6.2 0 00.48.56 11 11 0 012.23-7l1.12-1.81a5.5 5.5 0 00.78-2.7A4.82 4.82 0 0037.8 71v-.11h.09a8.76 8.76 0 012.22-.39h.12v16h.49v-16h.12a8.7 8.7 0 012.21.4h.11v.1a4 4 0 00-.16 1.12 5.47 5.47 0 00.78 2.7l1.12 1.82a10.9 10.9 0 012.22 7 6.71 6.71 0 00.48-.58v-.13a11.43 11.43 0 00-2.3-6.59l-1.09-1.78a5 5 0 01-.72-2.45 3.34 3.34 0 01.11-.89v-.13l.12.06A8.28 8.28 0 0146.51 73 8.51 8.51 0 0149 79.08a8.18 8.18 0 01-.27 2 9 9 0 00.72-2.94c0-.33-.08-.57-.08-.57a9.09 9.09 0 00-2.53-4.92"/></g><g clip-path="url(#clip-path)"><path class="cls-7" d="M11.64 92.28l-.01-.16-1.36 1.56.01.15.01.16.07 1.18.11 1.9.01.17 1.36-1.54-.02-.15-.18-3.27z"/></g><g clip-path="url(#clip-path-2)"><path class="cls-7" d="M20.1 86.01l-.1-1.8-.08-1.35-.02-.16-1.38 1.59.01.14.18 3.33.02.16 1.38-1.59v-.16l-.01-.16z"/></g><g clip-path="url(#clip-path-3)"><path class="cls-7" d="M15.77 87.58l-.01-.16-1.38 1.57.02.15.11 1.98.06 1.15.01.16.01.16 1.38-1.56-.01-.16-.19-3.29z"/></g><g clip-path="url(#clip-path-4)"><path class="cls-7" d="M69.19 93l-.13 2.42v.32l1.34 1.53V97l.18-3v-.31l-1.36-1.57v.17z"/></g><g clip-path="url(#clip-path-5)"><path class="cls-7" d="M61 83.06l-.16 2.49v.81l1.4 1.58v-.15l.19-3.32v-.16c-.58-.66-1.06-1.2-1.38-1.58v.33z"/></g><g clip-path="url(#clip-path-6)"><path class="cls-7" d="M65.09 87.78L65 89.27l-.1 1.64v.16l1.38 1.56v-.32l.06-1 .12-2.12V89l-1.38-1.58v.33z"/></g><g class="cls-6"><path class="cls-7" d="M14.54 33.59l1.05-.32-1.23-1.49.16-.05a2.89 2.89 0 00.64-.37l.29-.19-1.23-1.43-.17-.19-2.79-2.62C9.48 25.25 7.14 23 5.07 21.15c2.4 3.45 5.6 7.77 7.23 9.9l2.24 2.54"/></g><path class="cls-3" d="M12.2 33.63l.14-.05-1.75-2.2-.08-.09-.09.09c-.62.61-1.55 1.55-.79 2.31.43.44 1.93.21 2.57-.06"/><path class="cls-4" d="M12.2 33.63l.14-.05-1.75-2.2-.08-.09-.09.09c-.62.61-1.55 1.55-.79 2.31.43.44 1.93.21 2.57-.06"/><path class="cls-3" d="M16.94 30.41a2.42 2.42 0 001.25-1.53.77.77 0 00-.1-.63c-.42-.53-1.46-.46-2.91.22l-.15.06 1.83 1.92z"/><path class="cls-4" d="M16.94 30.41a2.42 2.42 0 001.25-1.53.77.77 0 00-.1-.63c-.42-.53-1.46-.46-2.91.22l-.15.06 1.83 1.92z"/><path class="cls-3" d="M16.67 32.19l-.13.06.64.78h.07s2.37-.74 4-1.46l.11-.05-1.9-3-.2.11a1.22 1.22 0 01.06 1 5.25 5.25 0 01-2.62 2.6"/><path class="cls-4" d="M16.67 32.19l-.13.06.64.78h.07s2.37-.74 4-1.46l.11-.05-1.9-3-.2.11a1.22 1.22 0 01.06 1 5.25 5.25 0 01-2.62 2.6"/><g class="cls-6"><path class="cls-7" d="M40.49 27.34a44.56 44.56 0 0116.78 3.36l3.47-8.06-7.89 4.15s1.26-13.54 1.33-14.25l-9.59 11.9s-3.88-13.82-4.08-14.55c-.21.73-4.11 14.54-4.11 14.54l-9.58-11.91c.07.71 1.31 14.26 1.31 14.26l-7.89-4.18c.23.54 3.38 7.88 3.47 8.07a44.36 44.36 0 0116.78-3.33"/></g><path class="cls-3" d="M70.46 31.33l-.17.22-1.66 2.07.13.06c.65.26 2.15.49 2.58.06.76-.76-.17-1.69-.79-2.32z"/><path class="cls-4" d="M70.46 31.33l-.17.22-1.66 2.07.13.06c.65.26 2.15.49 2.58.06.76-.76-.17-1.69-.79-2.32z"/><path class="cls-3" d="M64 30.45h.08L66 28.57l-.15-.06c-1.46-.67-2.49-.76-2.91-.22a.76.76 0 00-.1.63A2.41 2.41 0 0064 30.45"/><path class="cls-4" d="M64 30.45h.08L66 28.57l-.15-.06c-1.46-.67-2.49-.76-2.91-.22a.76.76 0 00-.1.63A2.41 2.41 0 0064 30.45"/><path class="cls-3" d="M59.76 31.59c1.6.72 3.93 1.44 4 1.45h.08l.64-.77-.12-.07a5.22 5.22 0 01-2.63-2.59 1.29 1.29 0 01.06-1l-.19-.11-1.91 3z"/><path class="cls-4" d="M59.76 31.59c1.6.72 3.93 1.44 4 1.45h.08l.64-.77-.12-.07a5.22 5.22 0 01-2.63-2.59 1.29 1.29 0 01.06-1l-.19-.11-1.91 3z"/><path class="cls-3" d="M65.92 40.73h9.66v4.96c0 2.53 0 4.88-.1 7.11 0 0 0 1.56-.06 2.12l-7.34-5.4v-2.83h-2.9V47c0 1.41.29 2.43 1.8 4.17l2.37 2.69 2 2.3.44.49a9.1 9.1 0 012.74 7 20 20 0 01-.49 4.21 52.25 52.25 0 01-2.37 8.68v.06l-.76 1.6-1.11-1c-1-.84-1.94-1.67-3-2.45l-.07-.06-1.73 1.5.1.09a48.55 48.55 0 016.32 6.34l.11.12.08-.15a53.93 53.93 0 005-16c.95-5.73 1.33-15.38 1.1-27.16v-.68H68z"/><path class="cls-4" d="M65.92 40.73h9.66v4.96c0 2.53 0 4.88-.1 7.11 0 0 0 1.56-.06 2.12l-7.34-5.4v-2.83h-2.9V47c0 1.41.29 2.43 1.8 4.17l2.37 2.69 2 2.3.44.49a9.1 9.1 0 012.74 7 20 20 0 01-.49 4.21 52.25 52.25 0 01-2.37 8.68v.06l-.76 1.6-1.11-1c-1-.84-1.94-1.67-3-2.45l-.07-.06-1.73 1.5.1.09a48.55 48.55 0 016.32 6.34l.11.12.08-.15a53.93 53.93 0 005-16c.95-5.73 1.33-15.38 1.1-27.16v-.68H68z"/><g class="cls-6"><path class="cls-7" d="M66.94 29.59l-.17.18-1.24 1.44.28.18a2.22 2.22 0 00.65.38l.15.06-1.23 1.48 1.05.32 2.23-2.52c1.66-2.15 4.86-6.45 7.26-9.9-2.07 1.88-4.42 4.1-6.2 5.77z"/></g><path class="cls-7" d="M27 39.28v1.21h27v-1.22a37.27 37.27 0 00-13.51-2.64A36.88 36.88 0 0027 39.28m24.4.42H29.62l1.69-1.22H49.7z"/><path class="cls-3" d="M29.59 39.68l21.78.02-1.7-1.22-18.39-.02-1.69 1.22z"/><path class="cls-3" d="M29.59 39.68l21.78.02-1.7-1.22-18.39-.02-1.69 1.22z"/><path class="cls-2" d="M74.4 52.76c.12-4.18.11-8.13.08-10.93H64.7a3.22 3.22 0 01-1.4.28 7.7 7.7 0 01-1.82-.28h-2.41L59 43.54c0 2.7-.2 7.11 2.46 10.07 2 2.26 3 3.27 3.65 3.92.44.47.73.77 1.1 1.2.08.1.17.19.27.3.87.93 2 2.18 1.35 6.62-.07.4-.35 1.42-.44 1.89-.85-.63-3.57-2.18-4.51-2.67.15-1 .28-2 .4-3l-4.69-3.7a85.93 85.93 0 01-1.29 9.53 49.91 49.91 0 0113.24 8.66l.11-.26A50.73 50.73 0 0073 67.6c1.42-6.63-.72-8.89-2-10.25-.17-.18-.34-.35-.48-.53-.61-.72-1.25-1.44-2-2.27l-2.37-2.69c-2.09-2.4-2.15-3.71-2.07-5.86v-.45h5.11v3.37zM18.86 70.09a45.59 45.59 0 014.65-2.38 86.56 86.56 0 01-1.31-9.48l-4.56-2.58 4.2-3c-.16-4-.16-7.76-.12-10.84h-2.09a7.87 7.87 0 01-2 .31A4 4 0 0117 42c-.06 2.5-.09 5.78 0 9.5l-4.88 3.55c-.21-5-.18-10-.13-13.3H6.48c-.08 5.57-.09 16.57 1 23.56a58.83 58.83 0 002.76 11.1 51.36 51.36 0 014.34-3.55A72 72 0 0113 65.34c-.35-2.24-.58-4.9-.73-7.64l5.28 3.12a84.05 84.05 0 001.33 9.27"/><path class="cls-3" d="M66.2 74.23a47.33 47.33 0 00-9.34-5.51l-.86-.35.18-.89a82.51 82.51 0 001.27-9.36s.13-1.5.18-2l6.8 5.37c0 .09-.08.61-.08.61l-.29 2.22h.07l2.52 1.45v-.28c.6-3.91-.29-4.85-1.07-5.69l-.29-.34-.98-1.16-3.68-3.95c-2.87-3.18-2.8-7.79-2.75-10.56v-.27l.08-1.73v-1.18l-1.8-.68v2.44H24.69v-2.46l-1.89.71v4.71c0 2.52.05 4.92.15 7.24v.59c0 .1-3.28 2.38-3.28 2.38l3.55 2c0 .09.05.58.05.58a86.3 86.3 0 001.3 9.36l.17.88-.82.35a43.44 43.44 0 00-4.53 2.32l-1.33.78-.31-1.51a82.54 82.54 0 01-1.29-8.77v-.06l-3-1.76v.21c.15 2 .35 3.78.57 5.23a70.44 70.44 0 001.56 7.43s.16.61.2.73l-.61.45-.57.42.09.2a44 44 0 008-2.88 37.91 37.91 0 0117.75-4.91 37.92 37.92 0 0117.72 4.92 43.57 43.57 0 007.92 2.9zm-35.67-7.71c-1.05.26-2.08.55-3.06.88 0 0-1 .33-1.21.41L26 66.54a119.27 119.27 0 01-1.41-19.4v-2.47-1.09h5.58V47.64a116.59 116.59 0 001.18 17.63s.12.84.15 1zm13-2.18s-.08.89-.09 1.07H39V54.29l-2-1.45v.21c0 4.48.17 8.18.38 11.29 0 0 .06.83.07 1.09l-1.07.1-2.39.3-1.19.17c0-.19-.13-1.14-.13-1.14a144.41 144.41 0 01-.85-16.45v-3.74-1.09H37c0 .18-.05 2.13-.05 2.13l2 1.42v-3.56h5.15V48.01c0 4.63-.12 10.5-.61 16.31m11.16 3.47l-1.22-.41a38.68 38.68 0 00-7.64-1.72l-1.07-.14.11-1.09c.63-5.85 1-12.49 1-19.76v-1.1h10.63v1.32c0 1.69 0 3.51-.11 5.69l-.06 1.82-3.76-2.1L52 50v-1.55h-1.18v.11c-.13 5-.36 9.1-.72 12.66v.11l1 .19v-.13l.42-3.82h-.11l-.41.01c0-.17.12-1.62.12-1.62s.14-2 .16-2.34l1 .09 3 .28 1 .12-.06 1.06a101.37 101.37 0 01-1.33 11.38s-.2 1-.23 1.26"/><path class="cls-4" d="M66.2 74.23a47.33 47.33 0 00-9.34-5.51l-.86-.35.18-.89a82.51 82.51 0 001.27-9.36s.13-1.5.18-2l6.8 5.37c0 .09-.08.61-.08.61l-.29 2.22h.07l2.52 1.45v-.28c.6-3.91-.29-4.85-1.07-5.69l-.29-.34-.98-1.16-3.68-3.95c-2.87-3.18-2.8-7.79-2.75-10.56v-.27l.08-1.73v-1.18l-1.8-.68v2.44H24.69v-2.46l-1.89.71v4.71c0 2.52.05 4.92.15 7.24v.59c0 .1-3.28 2.38-3.28 2.38l3.55 2c0 .09.05.58.05.58a86.3 86.3 0 001.3 9.36l.17.88-.82.35a43.44 43.44 0 00-4.53 2.32l-1.33.78-.31-1.51a82.54 82.54 0 01-1.29-8.77v-.06l-3-1.76v.21c.15 2 .35 3.78.57 5.23a70.44 70.44 0 001.56 7.43s.16.61.2.73l-.61.45-.57.42.09.2a44 44 0 008-2.88 37.91 37.91 0 0117.75-4.91 37.92 37.92 0 0117.72 4.92 43.57 43.57 0 007.92 2.9zm-35.67-7.71c-1.05.26-2.08.55-3.06.88 0 0-1 .33-1.21.41L26 66.54a119.27 119.27 0 01-1.41-19.4v-2.47-1.09h5.58V47.64a116.59 116.59 0 001.18 17.63s.12.84.15 1zm13-2.18s-.08.89-.09 1.07H39V54.29l-2-1.45v.21c0 4.48.17 8.18.38 11.29 0 0 .06.83.07 1.09l-1.07.1-2.39.3-1.19.17c0-.19-.13-1.14-.13-1.14a144.41 144.41 0 01-.85-16.45v-3.74-1.09H37c0 .18-.05 2.13-.05 2.13l2 1.42v-3.56h5.15V48.01c0 4.63-.12 10.5-.61 16.31m11.16 3.47l-1.22-.41a38.68 38.68 0 00-7.64-1.72l-1.07-.14.11-1.09c.63-5.85 1-12.49 1-19.76v-1.1h10.63v1.32c0 1.69 0 3.51-.11 5.69l-.06 1.82-3.76-2.1L52 50v-1.55h-1.18v.11c-.13 5-.36 9.1-.72 12.66v.11l1 .19v-.13l.42-3.82h-.11l-.41.01c0-.17.12-1.62.12-1.62s.14-2 .16-2.34l1 .09 3 .28 1 .12-.06 1.06a101.37 101.37 0 01-1.33 11.38s-.2 1-.23 1.26"/><path class="cls-3" d="M44.1 43.59H39v3.56l-2-1.42s0-1.95.05-2.13h-5.17v4.84a144.58 144.58 0 00.84 16.45s.11 1 .13 1.14l1.14-.17 2.39-.3 1.07-.1c0-.26-.07-1.09-.07-1.09C37.12 61.23 37 57.54 37 53v-.2l2 1.4v11.11h4.45c0-.18.09-1.07.09-1.07.49-5.82.62-11.68.62-16.3v-3.35-1.1m-1.75 20.76h-2.36v-10.6l-4.31-2.83c0 4.17.09 9.08.41 13.65-.78.07-1.61.18-2.45.31a157.47 157.47 0 01-.81-20h2.92v1.6l4.27 3v-4.59H43c.06 4.62 0 12-.59 19.56M30.19 47.64V44.7v-1.12h-5.54V47.15A119.27 119.27 0 0026 66.54l.23 1.27 1.21-.41c1-.33 2-.62 3.06-.88l1-.25c0-.16-.15-1-.15-1a116.59 116.59 0 01-1.18-17.63m-3.05 18.71a122 122 0 01-1.37-21.67h3.36a127.19 127.19 0 001.16 20.76c-1 .24-2.07.55-3.15.91M56.3 54.11l-1-.12-3-.28-1-.09c0 .31-.16 2.34-.16 2.34S51 57.41 51 57.58l.44.05h.11l-.41 3.82v.13l-1-.19v-.11c.36-3.56.6-7.7.72-12.66v-.11h1.23v1.55l.58.31 3.77 2.11c0-.31.05-1.82.05-1.82.08-2.18.11-4 .11-5.69V43.6H45.9v1.1c-.06 7.26-.4 13.91-1 19.76 0 0-.09.9-.11 1.08l1.08.14a40.5 40.5 0 017.64 1.73l1.21.41c0-.21.23-1.26.23-1.26a99.35 99.35 0 001.33-11.38l.06-1.06m-2.52 12.23A40.8 40.8 0 0046 64.57c.78-7.57 1-15.17 1-19.87h8.43c0 1.75 0 3.61-.11 5.87l-2.17-1.22v-2h-3.42c-.07 3.45-.23 9.37-.85 14.93 1 .14 2.07.35 3.16.6.3-2.28.52-4.38.68-6.25l-.67-.08c0-.59.09-1.2.12-1.78 1 .07 1.94.17 3 .27a99.4 99.4 0 01-1.31 11.26"/><path class="cls-2" d="M29.11 44.69h-3.36a122 122 0 001.37 21.66c1.08-.36 2.14-.67 3.15-.91a127.13 127.13 0 01-1.16-20.75M40.11 44.69v4.59l-4.27-3v-1.6H33a157.47 157.47 0 00.81 20c.84-.13 1.67-.24 2.45-.31-.32-4.57-.39-9.48-.41-13.65l4.31 2.83v10.6h2.36c.63-7.52.65-14.94.59-19.56zM52.05 56.6l.67.08c-.16 1.87-.38 4-.68 6.25a37.02 37.02 0 00-3.16-.6c.62-5.56.78-11.48.85-14.93h3.44v2l2.17 1.23c.08-2.27.12-4.13.11-5.88H47c0 4.7-.21 12.25-1 19.87a40.8 40.8 0 017.85 1.78 99.49 99.49 0 001.28-11.3c-1-.11-2-.21-3-.28 0 .58-.08 1.19-.12 1.78"/><path class="cls-4" d="M14.51 91.12l-.11-1.98-.02-.15-2.75 3.13.01.16.18 3.27.02.15 2.75-3.11-.01-.16-.07-1.31zM10.36 95.17l-.08-1.34v-.15L8 96.23a1.29 1.29 0 00-.3.91 1.22 1.22 0 00.41.86 1.25 1.25 0 001.77-.1l.59-.66v-.17zM18.53 84.44l-.01-.15-2.76 3.13.01.16.19 3.29.01.16 2.76-3.11-.02-.16-.18-3.32zM20.41 82.16l-.47.54v.15l.06 1.36.11 2v.17L22.22 84a1.73 1.73 0 000-.32 1.42 1.42 0 00-1.84-1.44"/><g class="cls-6"><path class="cls-7" d="M35 68.51a38.13 38.13 0 00-4.76 1.11 37 37 0 01-4.67 2.71 36.69 36.69 0 01-8.17 3l11.8 10.5a28.57 28.57 0 011.11-5.5 10.37 10.37 0 01-.39-2.82 10.48 10.48 0 015.1-9"/></g><g class="cls-6"><path class="cls-7" d="M50.5 69.65a39.36 39.36 0 00-4.5-1.09 10.53 10.53 0 015 9 10.54 10.54 0 01-.49 3.16 27.39 27.39 0 011 5.19c.32-.28 11.48-10.18 11.8-10.45a37.08 37.08 0 01-8.16-3 40.55 40.55 0 01-4.63-2.72"/></g><path class="cls-4" d="M60.48 82.2a1.49 1.49 0 00-1.36.29 1.55 1.55 0 00-.46 1.51l2.08 2.37v-.81L61 82.9v-.17l-.47-.52zM70.39 97.13v.16L71 98a1.27 1.27 0 001.78.11 1.23 1.23 0 00.42-.86v-.08a1.26 1.26 0 00-.31-.83l-2.29-2.61v.15zM62.16 87.79v.15l2.76 3.13v-.16l.1-1.64.09-1.65v-.17l-2.75-3.14v.17zM66.36 91.31l-.07 1.16v.16L69 95.76v-.16l.19-2.6v-.86L66.49 89v.16z"/></g></g></svg>