<svg xmlns="http://www.w3.org/2000/svg" viewBox="0 0 67.47 59.62"><defs><style>.cls-1{fill:#fff}.cls-2{fill:#d31245}.cls-3{fill:#141006}.cls-4{fill:#a7a9ac}</style></defs><g id="Layer_2" data-name="Layer 2"><g id="Layer_1-2" data-name="Layer 1"><path class="cls-1" d="M63.88 30.37A33.89 33.89 0 0159.27 33a42.51 42.51 0 01-4.35 1.76c-.41.14-.82.28-1.23.4.07-.75.1-1.51.1-2.27 0-.59 0-1.17-.06-1.75l2.94-.65a28.46 28.46 0 00-1-5.18 27.36 27.36 0 00-1.85-4.8 28.69 28.69 0 00-1.79-3.08l-.27-.4.95-5.22-4.9.68-.07-.06c-.57-.53-1.17-1-1.78-1.52 0-2-.07-5.12-.07-5.12L41.4 7.94c-.72-.36-1.45-.69-2.19-1l-1.43-5.05-3.7 3.58c-.84-.16-1.69-.28-2.54-.36L28.91.53S27.38 3.22 26.3 5.1c-.86.08-1.72.2-2.56.36l-3.69-3.57s-.85 3-1.42 5h-.07c-.73.3-1.46.62-2.17 1l-4.5-2.2s0 3-.07 5.08c-.63.49-1.24 1-1.82 1.54l-.08.07-4.87-.67 1 5.17a28.1 28.1 0 00-2.07 3.51 27.4 27.4 0 00-1.86 4.8 28.32 28.32 0 00-1 5.18l2.88.7v1.77a23.9 23.9 0 00.19 3 1.64 1.64 0 00-.41 0L3.7 36a1.88 1.88 0 00-.46.42 4.49 4.49 0 01-1.21 1 1 1 0 00-.51.92 1.29 1.29 0 00.06.4v.11a4.23 4.23 0 00-.42 1.63 2.47 2.47 0 00.13.82 6.65 6.65 0 00-.35.7.34.34 0 000 .14 6.12 6.12 0 00-.35 2.37 7.14 7.14 0 00.15 1.13.35.35 0 00.03.36 5.55 5.55 0 00.38 1 6.27 6.27 0 002.23 2.59.38.38 0 00.21.14 6.84 6.84 0 001.12.55 6.32 6.32 0 002.52.4 6.45 6.45 0 002.48-.6 8 8 0 00.81-.46c.25.27.5.53.76.79a24.33 24.33 0 002.66 2.31l-.06.08a3.3 3.3 0 00-.63 1.07 5.76 5.76 0 00-.26 2 2.76 2.76 0 00.15.67v.07a.14.14 0 000 .07l.07.18a2.08 2.08 0 00.55.85l.82-.83.2.18a4.71 4.71 0 001 .56 2.29 2.29 0 001 1.37 3.7 3.7 0 01.5-.76l.27.12.18.05h.07a6.55 6.55 0 002.83 0 13 13 0 002.3-.71l.15-.06.3-.11a4.13 4.13 0 011.13-.07 10.83 10.83 0 001.25 0 24.95 24.95 0 008-.33 24.68 24.68 0 008.9-3.75l.1-.07a5.64 5.64 0 00-.15.93v.18a3.68 3.68 0 00.16 1.11 3 3 0 00.63 1.11 3.49 3.49 0 01.47-.62 1.64 1.64 0 01.25-.21l1.13.31a1.8 1.8 0 00.22.49 1.64 1.64 0 00.7.62 2.68 2.68 0 01.63-.94 6.15 6.15 0 002.32.09 4 4 0 001.82-.78c1.25-.93 2-2.62 2.14-4.88a6 6 0 01.24-.95 11.65 11.65 0 00.57-3.25v-.05a3.11 3.11 0 00-.12-.7 2.91 2.91 0 00-.4-.87 5 5 0 00-1.56-.6 1.91 1.91 0 00-.84-.43c.24-.48.47-1 .68-1.47a21.35 21.35 0 00.79-2.15A45.91 45.91 0 0057.1 38a41.64 41.64 0 003.95-2.62"/><path class="cls-1" d="M63.58 29.93A35.24 35.24 0 0159 32.47a42.23 42.23 0 01-4.29 1.73l-.47.16v-1.52-1.33l2.53-.51a.53.53 0 00.43-.52 28.62 28.62 0 00-.95-5.29 29.6 29.6 0 00-1.89-4.89 29.86 29.86 0 00-1.83-3.14c0-.07-.1-.15-.15-.22.08-.4.92-5 .92-5a.28.28 0 000-.09.51.51 0 00-.15-.37.5.5 0 00-.46-.16l-4.69.55c-.48-.44-1-.87-1.5-1.28 0-.46-.07-4.87-.07-4.87a.57.57 0 00-.24-.45.54.54 0 00-.52 0L41.4 7.35c-.58-.29-1.16-.55-1.75-.79L38.3 1.74a.53.53 0 00-.38-.37.52.52 0 00-.51.14s-3.16 3-3.5 3.38c-.68-.12-1.37-.21-2-.29L29.38.27a.55.55 0 00-.47-.27"/><path class="cls-1" d="M28.91 0a.52.52 0 00-.46.27L26 4.6c-.69.07-1.38.16-2 .28l-3.5-3.37a.52.52 0 00-.51-.14.54.54 0 00-.38.37l-1.43 4.79c-.6.24-1.2.51-1.79.8l-4.27-2.08a.52.52 0 00-.51 0 .56.56 0 00-.26.45s-.06 4.37-.06 4.83c-.53.42-1 .86-1.55 1.31l-4.61-.63a.5.5 0 00-.46.16.51.51 0 00-.15.37.28.28 0 000 .09l.92 5a28.89 28.89 0 00-2 3.39 27.62 27.62 0 00-1.89 4.89 28.67 28.67 0 00-1 5.29v.05a.53.53 0 00.42.52l2.47.55v1.35a25 25 0 00.13 2.59h-.05a2 2 0 00-.67.57 4.31 4.31 0 01-1 .89 1.31 1.31 0 00-.63.62 1.73 1.73 0 00-.18.79 2.19 2.19 0 000 .36 4.65 4.65 0 00-.46 1.85 3.31 3.31 0 00.09.77c-.07.15-.13.3-.19.45a1.8 1.8 0 00-.11.24A6.83 6.83 0 000 44.28v.3a7.11 7.11 0 00.13 1.13v.06a.89.89 0 00.14.47 7.47 7.47 0 00.38 1 7 7 0 001.59 2.15A6.53 6.53 0 003 50a1 1 0 00.35.23 7.6 7.6 0 001.15.55 6.84 6.84 0 002.73.44 7 7 0 002.69-.66c.16-.08.33-.16.48-.25l.48.48a26 26 0 002.29 2 4.24 4.24 0 00-.45.87 6.39 6.39 0 00-.28 2.16V56a3.15 3.15 0 00.17.82v.16a1.54 1.54 0 00.08.19 2.55 2.55 0 00.73 1.1.53.53 0 00.68-.07l.47-.48a5.45 5.45 0 00.71.4 2.93 2.93 0 001.13 1.43.54.54 0 00.8-.19c.07-.13.13-.25.19-.35H17.61a7.3 7.3 0 003.06 0 13.22 13.22 0 002.39-.74l.15-.06.27-.1a3.88 3.88 0 011 0h1.29a27.28 27.28 0 003 .17 25.45 25.45 0 0013.34-3.77 4.07 4.07 0 00.19 1.27 3.2 3.2 0 00.74 1.31A.55.55 0 0044 57a3.13 3.13 0 01.38-.49s.33.1.59.17a2.68 2.68 0 00.18.33 2.25 2.25 0 00.95.82.58.58 0 00.41 0 .57.57 0 00.3-.31 2.15 2.15 0 01.31-.55 6.45 6.45 0 002.23 0 4.65 4.65 0 002.05-.87c1.36-1 2.17-2.84 2.34-5.25a7.8 7.8 0 01.22-.86 12 12 0 00.59-3.4v-.06a3.42 3.42 0 00-.14-.84 3.7 3.7 0 00-.48-1c-.05-.07-.19-.21-.8-.45a8 8 0 00-.91-.29 2.36 2.36 0 00-.35-.23c.15-.32.3-.65.43-1 .27-.64.52-1.3.74-2a45.93 45.93 0 004.31-2.3 41.43 41.43 0 004-2.65M.48 41.77"/><path class="cls-1" d="M.37 42.05a.43.43 0 010 .05.43.43 0 000-.05M60.73 35a40.19 40.19 0 01-3.91 2.59 40.87 40.87 0 01-4.42 2.31.52.52 0 00-.28.33q-.34 1.07-.78 2.1c-.21.48-.43 1-.67 1.44a.53.53 0 00-.06.24.59.59 0 000 .23.55.55 0 00.36.29 1.33 1.33 0 01.59.29.51.51 0 00.26.14 5.76 5.76 0 011.29.45 2.87 2.87 0 01.28.65 2.35 2.35 0 01.1.58 11.2 11.2 0 01-.55 3.1 6.28 6.28 0 00-.25 1c-.15 2.1-.81 3.66-1.92 4.5a3.64 3.64 0 01-1.6.67 5.71 5.71 0 01-2.12-.08.53.53 0 00-.47.12 3.11 3.11 0 00-.44.54l-.08-.11a1.44 1.44 0 01-.15-.31.55.55 0 00-.39-.43l-1.13-.31a.48.48 0 00-.45.08 2.44 2.44 0 00-.32.26.6.6 0 01-.08.08 3.65 3.65 0 01-.14-.35 3.26 3.26 0 01-.13-.95v-.16a3.61 3.61 0 01.13-.8.39.39 0 000-.15.53.53 0 00-.22-.43.51.51 0 00-.61 0l-.11.07a25 25 0 01-4.13 2.25 24.76 24.76 0 01-4.58 1.42 25.16 25.16 0 01-4.91.49A26 26 0 0126 57H24.66a4.05 4.05 0 00-1.31.1 3 3 0 00-.32.12l-.16.06a12.68 12.68 0 01-2.2.68A6.12 6.12 0 0118 58H17.79l-.23-.11a.53.53 0 00-.58.08 1.74 1.74 0 00-.29.35 1.43 1.43 0 01-.35-.67.56.56 0 00-.3-.37 3.6 3.6 0 01-.85-.49l-.19-.2a.52.52 0 00-.38-.17.51.51 0 00-.39.15l-.4.4a2 2 0 01-.12-.25l-.06-.15v-.13a2 2 0 01-.12-.51 5.1 5.1 0 01.22-1.79 3.08 3.08 0 01.54-.93l.05-.07a.53.53 0 00.13-.4.61.61 0 00-.21-.37 24.45 24.45 0 01-2.61-2.26c-.25-.25-.5-.51-.74-.77a.55.55 0 00-.69-.09 4.88 4.88 0 01-.74.42 5.75 5.75 0 01-2.27.56 5.89 5.89 0 01-2.32-.37 6 6 0 01-1-.5h-.1l-.09-.08a4.72 4.72 0 01-.7-.65 6 6 0 01-1.34-1.82 6.24 6.24 0 01-.35-.94.35.35 0 00-.06-.14.45.45 0 000-.11 5.09 5.09 0 01-.13-1 2.26 2.26 0 010-.26 6 6 0 01.32-1.92.14.14 0 000-.06v-.07a4 4 0 01.25-.56.69.69 0 00.05-.24.51.51 0 000-.17 2.27 2.27 0 01-.1-.65A3.63 3.63 0 012 39.14V38.77a.22.22 0 000-.08.5.5 0 000-.16.71.71 0 010-.21.49.49 0 01.2-.44 4.83 4.83 0 001.38-1.14 3.94 3.94 0 01.29-.29 1.18 1.18 0 01.26 0 .54.54 0 00.39-.19.49.49 0 00.13-.35v-.06a25 25 0 01-.18-3q0-.87.06-1.74a.54.54 0 00-.42-.53L1.7 30a28.9 28.9 0 01.89-4.63 27.62 27.62 0 013.86-8.14.5.5 0 00.1-.31.38.38 0 000-.1l-.82-4.44 4.12.62a.55.55 0 00.44-.14l.06-.05c.57-.53 1.17-1 1.79-1.52a.55.55 0 00.2-.42s0-3.06.06-4.23l3.75 1.83a.52.52 0 00.47 0c.7-.34 1.41-.66 2.13-1h.06a.51.51 0 00.32-.35s.84-3 1.18-4.18l3.05 2.95a.54.54 0 00.47.14"/><path class="cls-1" d="M23.84 6c.82-.15 1.67-.27 2.51-.35a.5.5 0 00.41-.26s1.53-2.66 2.15-3.76l2.16 3.77a.52.52 0 00.42.26c.82.08 1.67.2 2.49.35a.5.5 0 00.47-.14l3.06-2.97 1.17 4.2a.56.56 0 00.32.35c.73.28 1.45.61 2.15 1a.55.55 0 00.47 0l3.79-1.84v4.28a.57.57 0 00.21.42c.61.47 1.19 1 1.75 1.48a.52.52 0 00.43.14l4.18-.58-.83 4.49a.34.34 0 000 .1.53.53 0 00.09.3l.27.39a28.6 28.6 0 011.76 3A27.78 27.78 0 0156.09 30l-2.48.54a.55.55 0 00-.42.52c0 .57.06 1.15.06 1.72 0 .74 0 1.48-.1 2.22a.53.53 0 00.7.51c.41-.12.82-.26 1.24-.4a46.14 46.14 0 004.41-1.78 37.45 37.45 0 004.68-2.62M16.36 58.85zM43.23 56.27a1.52 1.52 0 00-.14.21 1 1 0 01.14-.22M56.13 30.48zM53.99 44.73zM15.2 56.73"/><path class="cls-2" d="M4 32.84a24.9 24.9 0 1124.9 24.9A24.9 24.9 0 014 32.84"/><path class="cls-3" d="M6.11 32.86a22.78 22.78 0 1122.78 22.79A22.78 22.78 0 016.11 32.86"/><path class="cls-3" d="M14.46 33.37v-.49a14.44 14.44 0 0128.88 0v.5l13.32-2.93a27.87 27.87 0 00-55.52 0z"/><path class="cls-2" d="M28.91 7.15a26.08 26.08 0 0122.31 12.92l1.54-8.31-6.76.92-.09-6.94-6.23 3-1.9-6.84-5.21 5L28.91.54l-3.65 6.39-5.21-5-1.94 6.84-6.22-3-.09 6.94-6.74-.92 1.55 8.31a26.06 26.06 0 0122.3-12.95"/><path class="cls-4" d="M8.69 16c.07-.08.06-.12 0-.15l-1.2-1.18-.49.57v.14l-.56-.53c.08.06.11.06.14 0L8 13.25v-.14l.55.53c-.08-.06-.1-.06-.14 0l-.49.57 1.18 1.08h.14zM15.34 8.88a1.25 1.25 0 01-.53 1.75 1.16 1.16 0 01-1.73-.29 1.25 1.25 0 01.52-1.74 1.16 1.16 0 011.74.28M13.61 10a.64.64 0 00.93.17.68.68 0 00.26-.94.62.62 0 00-.92-.17.69.69 0 00-.27.94M21.11 7.5s0 .06.12 0l-.85.25c.11 0 .11-.07.09-.11l-.54-2s0-.06-.14 0V5.6l1.5-.44c.61-.19.93 0 1.06.45a.74.74 0 01-.39.87l.68.56a.12.12 0 00.14 0l-.85.26c.06 0 .08 0 .07-.11s-.61-.49-.68-.57l-.4.12zm-.33-1.17l.69-.21c.24-.07.28-.2.25-.32s-.14-.21-.38-.14l-.69.2zM30.25 5.26a1.21 1.21 0 01-1.34 1.19 1.2 1.2 0 111.34-1.19m-2 0a.7.7 0 10.7-.66.66.66 0 00-.7.66M35.62 5s0-.07-.09-.11l1 .29h-.13c-.02 0 .5 1 .69 1.45l.31-1.14s0-.08-.07-.1v-.05l.75.22h-.14l-.53 2s0 .08.09.11l-.78-.22h.11A18.65 18.65 0 0036 5.8l-.35 1.34s0 .08.09.12l-.79-.23V7h.14zM42.69 10.32v-.05c.09.05.12 0 .14 0l.84-1.42-.62-.4s-.07 0-.13.07h-.05l.4-.67V8l1.79 1.15s.07 0 .13-.07l-.41.67V9.6l-.62-.4-.84 1.41s0 .07.06.14zM50.58 15.72a1.17 1.17 0 01-1.76-.21 1.27 1.27 0 010-1.82 1.14 1.14 0 011.74.21 1.26 1.26 0 01.07 1.82m-1.43-1.55a.67.67 0 000 1 .63.63 0 00.94.1.68.68 0 000-1 .62.62 0 00-.93-.09"/><path class="cls-3" d="M67.47 28c-1.38 3.08-4.38 6.48-10.38 10a37.6 37.6 0 01-12.24 4.86l-6.05-7.37c1.52.69 8.62 1.13 12.12.36 4.88-1.07 12-4 16.17-8"/><path d="M6.71 38.25a6.05 6.05 0 106.3 5.8 6.05 6.05 0 00-6.3-5.8" fill="#a7b1b7"/><path class="cls-3" d="M6.7 38a6.14 6.14 0 00-2.45.6 6.25 6.25 0 00-2 1.45A6.39 6.39 0 001 42.07 6.42 6.42 0 001.22 47a6.39 6.39 0 003.51 3.24 6.38 6.38 0 004.95-.2 6.36 6.36 0 003.24-3.52 6.36 6.36 0 00.4-2.49 6.54 6.54 0 00-.6-2.46 6.45 6.45 0 00-3.52-3.23A6.25 6.25 0 006.7 38m2.28 1a5.85 5.85 0 013.18 2.93 5.79 5.79 0 01.54 2.21 5.69 5.69 0 01-.36 2.25 5.77 5.77 0 01-1.15 1.88 6.09 6.09 0 01-1.77 1.3A5.66 5.66 0 017.2 50a5.73 5.73 0 01-6-5.5v-.25a5.66 5.66 0 01.36-2 5.84 5.84 0 011.15-1.87 5.63 5.63 0 011.77-1.3 5.85 5.85 0 012.22-.55 5.75 5.75 0 012.3.39"/><path class="cls-3" d="M3.89 43.24a9.14 9.14 0 00.25 3 7 7 0 001.25 2.55A5.9 5.9 0 007.7 50.5l.24-.57a5.22 5.22 0 01-2.07-1.55 6.13 6.13 0 01-1.13-2.32 8.47 8.47 0 01-.23-2.78 10.09 10.09 0 01.65-2.88l-.58-.22a10.86 10.86 0 00-.69 3.06"/><path class="cls-3" d="M7.58 41.68a6.65 6.65 0 01-1.17 2 3.09 3.09 0 01-1 .65 4.1 4.1 0 01-1.41.26A2 2 0 012.45 44a4.28 4.28 0 01-.88-1.86l-.6.17a4.81 4.81 0 001 2.11 2.53 2.53 0 002 .77 3.86 3.86 0 002.82-1.12 6.77 6.77 0 001.29-2.15 8.54 8.54 0 01.76-1.45 2.16 2.16 0 011.16-.82l-.19-.59c-1.26.4-1.76 1.53-2.25 2.62"/><path class="cls-3" d="M9.45 44.36A9 9 0 016.1 46a8.05 8.05 0 01-2.85.23 3.78 3.78 0 01-2-.73l-.39.5a4.3 4.3 0 002.32.87 8.43 8.43 0 003.08-.25 9.35 9.35 0 003.57-1.77 8.32 8.32 0 002.6-3.58l-.57-.27a7.76 7.76 0 01-2.41 3.32M8.26 47.42a9.52 9.52 0 00-2.87.18 3.16 3.16 0 00-1.39.65 2 2 0 00-.62 1.09l.6.13c.1-.47.37-1 1.56-1.27a8.87 8.87 0 012.69-.2 8.87 8.87 0 002.36-.12 4.22 4.22 0 001.19-.47 5.23 5.23 0 001.19-1l-.45-.43c-1.41 1.48-2.73 1.43-4.26 1.36"/><path class="cls-4" d="M6.71 38.25a6.05 6.05 0 106.3 5.8 6.05 6.05 0 00-6.3-5.8"/><path class="cls-3" d="M6.7 37.87A6.47 6.47 0 00.94 42a6.35 6.35 0 00-.4 2.52A6.42 6.42 0 001.15 47a6.32 6.32 0 001.46 2 6.41 6.41 0 002.1 1.29 6.32 6.32 0 002.52.4 6.41 6.41 0 002.48-.6 6.65 6.65 0 002-1.46A6.51 6.51 0 0013 46.56a6.4 6.4 0 00.4-2.53 6.2 6.2 0 00-.61-2.47 6.11 6.11 0 00-1.46-2 6.43 6.43 0 00-2.1-1.3 6.5 6.5 0 00-2.52-.4M9 39a5.67 5.67 0 011.84 1.14 5.67 5.67 0 011.83 3.94 5.6 5.6 0 01-.36 2.22 5.72 5.72 0 01-1.14 1.85 5.65 5.65 0 01-1.75 1.28A5.47 5.47 0 017.2 50a5.68 5.68 0 01-4.07-1.5 5.56 5.56 0 01-1.29-1.75 5.83 5.83 0 01-.54-2.18v-.25a5.5 5.5 0 01.36-2 5.59 5.59 0 011.13-1.85 5.84 5.84 0 011.75-1.29 5.73 5.73 0 012.19-.53A5.44 5.44 0 019 39"/><path class="cls-3" d="M43.82 51.83a3.72 3.72 0 00-1.65.78 2.49 2.49 0 010-1.36l.13-1.08c-.79-.19-1.6-.47-2.51-.78l-1.18.26a15.21 15.21 0 00-5.92-3.48 15.88 15.88 0 00-6 1.76l-.32-.47h-.17c.32.88-.13 1.48-.1 1.9 1.06.23 1.42 1.25 1.12 2.5a4 4 0 01.54 2.93 3.61 3.61 0 01-.03 2.21c-1.7 1-3.49.4-4.28.66s-3.33 1.53-5.84.77l-.27-.13a3.44 3.44 0 00-.5.77 2.34 2.34 0 01-1-1.38 3.44 3.44 0 01-1.18-.76l-.84.84a3.35 3.35 0 01-.82-1.83 4.25 4.25 0 011.48-3.75c.13-1.59 3.83-1.35 5.07-1 0 0-.15-.64-.3-1.25s.52-.94.52-.94c-.43-2-1.6-2.75-1.63-4.77a7.75 7.75 0 01-4.7-2.23 2.87 2.87 0 01-.19 1 4.56 4.56 0 01-3.56 2.63l-.11-.12a3.42 3.42 0 00.93-2.85 1.5 1.5 0 01-.35-1.75c-.07-.47-.56-.93-.82-1.34s-1.1-.8-1.1-.8-.84.23-1 .3a1.49 1.49 0 01-1.21 1 3.44 3.44 0 00-.73.75 5.24 5.24 0 00-.7 1.27 2.58 2.58 0 01-.48.5L4 42.48a2.54 2.54 0 01-.57-1.71c-.71.21-1.15 2-1.15 2h-.06c-2-1.7-.63-3.85-.6-4.09A1.07 1.07 0 012 37.4c.82-.4 1.43-1.34 1.71-1.4a3.9 3.9 0 011.44 0 11.09 11.09 0 012.52-.77 11.93 11.93 0 014.59 1.47 15.72 15.72 0 013.86.44 5.37 5.37 0 011.8-4.14 6.15 6.15 0 011.8-1.56A88.43 88.43 0 0131 29.19a6.53 6.53 0 014 .81c.53.23 2 2.48 1.87 5.21.38.14.83.41.87.69 2.59 0 5.79 3.37 6.19 4.18a5.76 5.76 0 003 2.7 3.72 3.72 0 01-.42 1.33c1-1.22 2.7-.69 3.62-.08a2 2 0 011.9.39 4.63 4.63 0 011.56.6 3.21 3.21 0 01.53 1.62 19.14 19.14 0 01-.82 4.2C53 55 50.76 57.23 47 56.43a2.73 2.73 0 00-.61 1 1.83 1.83 0 01-.95-1.15l-1.14-.31a3 3 0 00-.73.82 3.64 3.64 0 01.2-4.73z"/><path class="cls-3" d="M4.51 40.15a11.07 11.07 0 00-.69 3.08 9 9 0 00.25 3 6.84 6.84 0 001.26 2.58 5.93 5.93 0 002.35 1.76.39.39 0 00.5-.2.38.38 0 00-.21-.5 5.1 5.1 0 01-2-1.54A6.13 6.13 0 014.81 46a8.57 8.57 0 01-.23-2.75 10.35 10.35 0 01.64-2.87.38.38 0 00-.22-.45.39.39 0 00-.49.22"/><path class="cls-3" d="M9.81 39c-1.29.41-1.8 1.55-2.3 2.66a6.49 6.49 0 01-1.15 2 2.69 2.69 0 01-.93.63 3.77 3.77 0 01-1.43.22A1.87 1.87 0 012.5 44a4.5 4.5 0 01-.87-1.83.39.39 0 00-.47-.27.39.39 0 00-.26.48 5 5 0 001 2.14 2.61 2.61 0 002.1.76 4 4 0 002.87-1.13A7.25 7.25 0 008.21 42c.47-1 .87-1.95 1.83-2.25a.39.39 0 00.25-.48.38.38 0 00-.48-.27"/><path class="cls-3" d="M.77 45.52a.38.38 0 01.54 0 3.71 3.71 0 001.94.7A7.92 7.92 0 006.08 46a8.69 8.69 0 003.32-1.69A7.75 7.75 0 0011.79 41a.38.38 0 01.71.27 8.34 8.34 0 01-2.62 3.63 9.73 9.73 0 01-3.61 1.8 8.74 8.74 0 01-3.1.25 4.49 4.49 0 01-2.36-.89zM3.31 49.32a2.4 2.4 0 012.07-1.8 9.88 9.88 0 012.88-.17 8.18 8.18 0 002.17-.1 4 4 0 002-1.24.39.39 0 01.56.53 5.31 5.31 0 01-1.21 1 4.31 4.31 0 01-1.18.46 8.18 8.18 0 01-2.37.12 8.74 8.74 0 00-2.67.16 2.45 2.45 0 00-1.1.5 1.2 1.2 0 00-.4.71.39.39 0 01-.46.3zM45.5 51.56c-.22-.35-2-.28-3 .46-.23-.71.73-2.22 2.38-2.48 2-.32 1.08 2.09.67 2"/><path class="cls-3" d="M44.78 49.19a3.44 3.44 0 00-1.46.59 3.19 3.19 0 00-.94 1 1.69 1.69 0 00-.26 1.36l.16.46.38-.29a3.56 3.56 0 011.54-.56 2.39 2.39 0 011 0l.06.11h.16c.16 0 .4 0 .65-.37a2.4 2.4 0 00.32-.86 1.42 1.42 0 00-.16-1 1.33 1.33 0 00-1.47-.47m-1.79 2a2.79 2.79 0 011.9-1.26 1.13 1.13 0 01.6 0 .37.37 0 01.19.18.7.7 0 010 .27 1.43 1.43 0 01-.06.39 1.39 1.39 0 01-.16.36 1.71 1.71 0 00-.29-.08 4.09 4.09 0 00-1.42.05 4.77 4.77 0 00-.92.29 1.71 1.71 0 01.12-.23"/><path class="cls-1" d="M20.4 50.63c.19.55.37 1.16.37 1.16a1.48 1.48 0 01.64 1.65A2.85 2.85 0 0019.79 52a14.83 14.83 0 00-1.8-.18c-.62 0-1.87-.09-2.18.23a2 2 0 011 1.78 1.58 1.58 0 011-.6c.23 0 .85.82 1 1.11s.67 1.37.67 1.37a3.19 3.19 0 001.62.12c.72-.16 1.39-.51 2.47-.71.28 0 1.63 0 1.9-.1.73-.16 1-.12 1.31-.36.5-.76-.49-2.91-.49-2.91.26-.81 0-1.23-.44-1.42A3.36 3.36 0 0124 51c-2.06-.09-2.29-.16-3.17-.57 0 0-.59-.28-.41.25"/><path class="cls-3" d="M20.39 50.32c-.06.06-.07.16 0 .32.19.54.37 1.15.37 1.16a1.6 1.6 0 01.61.78 1.31 1.31 0 01.09.47 1.65 1.65 0 010 .31 2.47 2.47 0 00-.84-1 2.77 2.77 0 00-.82-.36 16.25 16.25 0 00-1.8-.22c-.8 0-1.9-.06-2.2.24a2 2 0 011 1.75v.08l.05-.07a1.51 1.51 0 011-.59c.2 0 .81.77 1 1.1s.66 1.37.66 1.38h.15a3.09 3.09 0 001.5.08 8.57 8.57 0 00.91-.28 9.91 9.91 0 011.55-.43 7.82 7.82 0 01.9 0 9.83 9.83 0 001-.05 4.71 4.71 0 01.58-.11 1.38 1.38 0 00.74-.26 1.13 1.13 0 00.14-.6 4.47 4.47 0 00-.2-1.16 10.83 10.83 0 00-.43-1.16 1.81 1.81 0 00.1-.58 1.1 1.1 0 00-.06-.37.94.94 0 00-.5-.5 3.34 3.34 0 01-1.86.62c-2.08-.09-2.29-.16-3.16-.57 0 0-.31-.14-.43 0m0 .3a.47.47 0 010-.16.13.13 0 010-.1c.08-.07.29 0 .37 0a4.17 4.17 0 001.15.41A15.65 15.65 0 0024 51a3.52 3.52 0 001-.17 2.49 2.49 0 00.9-.46.81.81 0 01.45.46 1 1 0 01.06.36 1.8 1.8 0 01-.1.57 7.43 7.43 0 01.62 2.3 1 1 0 01-.13.57 1.24 1.24 0 01-.71.24l-.58.11a7 7 0 01-1 .06h-.9a10.83 10.83 0 00-1.56.44 9.18 9.18 0 01-.9.28 3.08 3.08 0 01-1.47-.08h-.14c-.05-.11-.45-1-.66-1.37a4.73 4.73 0 00-.47-.68c-.26-.31-.45-.46-.56-.44a1.62 1.62 0 00-1 .55 2 2 0 00-1-1.7 4.6 4.6 0 012.13-.2 12.43 12.43 0 011.81.18 2.93 2.93 0 01.75.4 2.45 2.45 0 01.85 1v.07-.07a1.27 1.27 0 00.06-.39 1.67 1.67 0 00-.08-.49 1.73 1.73 0 00-.63-.79c0-.08-.19-.65-.36-1.16"/><path class="cls-1" d="M17.61 57.39a4.18 4.18 0 011-1 5.22 5.22 0 002.58.18 18.19 18.19 0 013.28-.86 4.52 4.52 0 002.45-.38l-.06.91a2.48 2.48 0 01-.9.33c-.54.05-1.61-.08-2.34.05a15.54 15.54 0 00-2.06.69 7.16 7.16 0 01-2.61.32 8.41 8.41 0 01-1.36-.25M15.69 56.44a1.11 1.11 0 010-.42l.09-.48c-.38.3-.42.3-.57.51.1.21.33.26.48.39M27.06 43.28a7.15 7.15 0 011.8 2.51 19.73 19.73 0 013.57-.73 10.6 10.6 0 014.67 2.14 7.78 7.78 0 003.74-1.32c-.86-.56-1.07-2.53-2.72-3.3-2.7 1.72-6 2.54-11.06.7"/><path class="cls-3" d="M38.11 42.56A12.09 12.09 0 0136 43.65a10.08 10.08 0 01-2.48.59 12.1 12.1 0 01-2.93-.07 18.33 18.33 0 01-3.48-.91v.05a6.91 6.91 0 011.79 2.5 18.39 18.39 0 013.33-.7h.23a4.38 4.38 0 011.65.44 17.11 17.11 0 013 1.69 5.45 5.45 0 001.94-.4 6.79 6.79 0 001.82-.92 3 3 0 01-.87-1.25 7.24 7.24 0 00-.71-1.16 3.05 3.05 0 00-1.16-.95zm-4.62 1.73A9.62 9.62 0 0036 43.7a11.69 11.69 0 002.14-1.09A4.25 4.25 0 0140 44.7a3.32 3.32 0 00.84 1.18 7 7 0 01-1.78.89 5.74 5.74 0 01-1.91.4 16.43 16.43 0 00-3-1.69 4.41 4.41 0 00-1.73-.48h-.24a19.12 19.12 0 00-3.31.69 7.27 7.27 0 00-1.68-2.4 19.11 19.11 0 003.36.86 12.17 12.17 0 002.94.07"/><path class="cls-1" d="M40.76 40.27c2.05 1.17 1.65 2.54 2.8 3.16a2.64 2.64 0 00.38-.51 2.23 2.23 0 00.27-.8c-.92-.9-1.42-2.37-2.33-3z"/><path class="cls-3" d="M40.71 40.27a4.11 4.11 0 011.85 2 2.39 2.39 0 00.95 1.16 2.79 2.79 0 00.39-.52 2.64 2.64 0 00.27-.81 7.46 7.46 0 01-1-1.42 5.13 5.13 0 00-1.29-1.57zm1.17-1.1a5 5 0 011.25 1.54 7.91 7.91 0 001 1.42 2.27 2.27 0 01-.26.77 2.69 2.69 0 01-.37.5 2.27 2.27 0 01-.91-1.12 4.63 4.63 0 00-.61-1 4.35 4.35 0 00-1.23-1l1.08-1.09"/><path class="cls-1" d="M50.38 44.79a2.33 2.33 0 00-.41.08c-.94-.69-2.51-1.12-3.09-.09l.21.09c1.17-.53 1.79.74 1.73 2a3.76 3.76 0 01-.61 1.63 6.16 6.16 0 01-1.44 1.24c.15.22.19.29.13.39a3.81 3.81 0 012.45.8c-2.26-.36-3.81-.31-4.69 1.05a1.67 1.67 0 011.16 1.41 1.57 1.57 0 011.29-.92 1.76 1.76 0 011.57 1.31c2-.27 2-2.65 2.23-3.38a14.75 14.75 0 00.79-3.85c-.05-1.12-.44-1.6-1-1.75a1.48 1.48 0 00-.32 0"/><path class="cls-3" d="M47.68 44.18a1.22 1.22 0 00-.83.59l.25.1a1 1 0 011 0 1.52 1.52 0 01.53.79 3.14 3.14 0 01.15 1.16 3.65 3.65 0 01-.6 1.62 6 6 0 01-1.44 1.22c.16.23.19.29.14.36a4.41 4.41 0 011.28.19 3 3 0 011.09.55 8.81 8.81 0 00-2.79-.1 2.85 2.85 0 00-1 .38 2.52 2.52 0 00-.79.8 1.64 1.64 0 011.13 1.56v.1l.05-.09a1.89 1.89 0 01.55-.66 1.42 1.42 0 01.71-.25 1.52 1.52 0 01.84.3 1.73 1.73 0 01.7 1 2.1 2.1 0 001-.41 2.27 2.27 0 00.61-.77 6 6 0 00.53-1.74c0-.19.07-.35.1-.47v-.08a14.47 14.47 0 00.75-3.78c0-1-.37-1.61-1-1.77a1 1 0 00-.33 0 1.84 1.84 0 00-.39.07 3.17 3.17 0 00-2.3-.66m0 0a3.16 3.16 0 012.27.66 2.14 2.14 0 01.4-.08 1.36 1.36 0 01.31 0 1.1 1.1 0 01.68.49 2.69 2.69 0 01.3 1.24v.13a15.36 15.36 0 01-.76 3.62v.09a3.13 3.13 0 00-.1.47 6.17 6.17 0 01-.51 1.73 2.57 2.57 0 01-.61.75 2 2 0 01-1 .39 1.8 1.8 0 00-1.59-1.3 1.3 1.3 0 00-.73.26 1.74 1.74 0 00-.54.6A1.69 1.69 0 0044.7 52a2.36 2.36 0 01.76-.75 2.74 2.74 0 011-.38 9 9 0 012.85.12h.08-.06a2.84 2.84 0 00-1.18-.63 4.13 4.13 0 00-1.25-.19.6.6 0 00-.15-.31 5.74 5.74 0 001.44-1.22 3.71 3.71 0 00.6-1.65 1.09 1.09 0 000-.18 2.9 2.9 0 00-.16-1 1.44 1.44 0 00-.55-.82 1 1 0 00-1 0l-.17-.08a1.11 1.11 0 01.77-.54"/><path class="cls-1" d="M52.32 45.54a3.94 3.94 0 01.25 1.46 7.84 7.84 0 01-.4 2c-.13.32-.45 1.36-.48 1.51a7.79 7.79 0 01-.64 2.49 3 3 0 01-2.47 1.66 5.06 5.06 0 00-1.17.89 6.33 6.33 0 002.2-.14 3.88 3.88 0 002.09-2 11.18 11.18 0 00.67-2.83c.09-.94.74-2.23.77-3.32a2.38 2.38 0 00-.33-1.52zM44.82 55l.41.08a1.46 1.46 0 010-.51 2.66 2.66 0 00-.43.43M28.76 42.91a18.34 18.34 0 004.84-.66 4.41 4.41 0 01-2.37 1.07 10.71 10.71 0 009.57-4.63l-.17-.6c-.81-1.23-1.1-1.66-1.65-1.84l-.4.7a5.67 5.67 0 01-4.38 2.27 6.51 6.51 0 01-4.37-1.33c-1.24-1-3.41-3.26-2.22-7.72-.28 0-.14 0-.33.14 0 .13-.31 1.05-.47 1.6-.44 1.57-.07 2.92-.22 3.7a4.19 4.19 0 01-1.66 2.64c-4.36-.1-5.25-5.77-5.25-5.77a4.75 4.75 0 00-.16 2.74 2.38 2.38 0 00.29 1c1.6 3.67 3.68 3.9 7.25 6.28a12.77 12.77 0 001.7.46"/><path class="cls-3" d="M34.46 41.18a19.31 19.31 0 01-3 .63l-1.91-1.33-.49.6 1.42 1a10.43 10.43 0 01-3.12.09v-.36l-3.58-2.42-1.28-.47a11 11 0 005.5-.99l1.27.24 1.26 1-.32.52 1.2.07L33 40.91zm-5.88-1.46l-.49-.48-.2.13a2.75 2.75 0 01-1 .25l1.13.83zM22.42 53.5c1.13-.21 2.77 1.11 3.72.41-.06.42-1.46 1-2.29.52-.4-.25-.93-.83-1.43-.93"/><path class="cls-3" d="M22.41 53.42v.15a2.77 2.77 0 01.95.58 5.33 5.33 0 00.45.34 2 2 0 001.8 0c.35-.17.58-.37.61-.56v-.18l-.15.11a1.18 1.18 0 01-.9.17 5.58 5.58 0 01-1.11-.3 3.75 3.75 0 00-1.68-.3m1.48.94a4.56 4.56 0 01-.44-.33 4.63 4.63 0 00-.68-.48 5 5 0 011.28.32 3.06 3.06 0 001.86.25 1.61 1.61 0 01-.36.22 1.83 1.83 0 01-1.66 0M17.36 52.57a3.74 3.74 0 012.18 3.2l-.84-.05s.16-.87-1.34-3.15"/><path class="cls-3" d="M23.36 53.64a1.67 1.67 0 00-.06-2.15c2-.13 2.3 1.95 2.15 2.62 0 .15-1.65.23-2.09-.47"/><path class="cls-3" d="M23.28 51.19h-.65l.45.47a1.21 1.21 0 01.29.51 1.49 1.49 0 01.05.36 1.55 1.55 0 01-.31.9l-.1.16.1.17c.47.75 1.8.75 2.23.67.09 0 .36-.06.4-.31a2.89 2.89 0 00-.58-2.26 2.18 2.18 0 00-1.88-.73m.72 1.44a1.79 1.79 0 00-.08-.56c0-.07-.05-.13-.07-.19a1.4 1.4 0 01.84.49 2.12 2.12 0 01.44.95 3 3 0 01.05.48v.16a2.58 2.58 0 01-.72 0 1.55 1.55 0 01-.73-.27 2.11 2.11 0 00.28-1M39.5 37.31a10.45 10.45 0 00.5 2.87 5.44 5.44 0 002.1 1.41 8.75 8.75 0 001.67-.33 2 2 0 00.63-.06 3.78 3.78 0 001.93-1.07c.57.25 1.36-.57 1.36-.57a8.68 8.68 0 001-2.74 1.18 1.18 0 00-.45-1A3.45 3.45 0 0046 32.13a3.34 3.34 0 01-.06 2.31 3.48 3.48 0 00-2-2.06 4.45 4.45 0 010 2.06 10.42 10.42 0 00-2.22-4 3.75 3.75 0 00-1-.55 14.18 14.18 0 00-6.56 0c-.8-.43-3.29-.27-4.39 0-.9 1.74-.54 3.53 1 5.54s4.2 2 5.35 1a3.2 3.2 0 002.17-.24 6.24 6.24 0 001.31 1.19"/><path class="cls-4" d="M44.46 34.93a2.87 2.87 0 00.18-1.25 2.69 2.69 0 01.86 1.89 4.68 4.68 0 00-1-.64M46.46 35a2.45 2.45 0 011.1.49 2.55 2.55 0 00-.89-2.16 2.84 2.84 0 01-.21 1.67"/><path class="cls-3" d="M19.52 31.15c1 2 .36 5.05 5.23 6.6a11.33 11.33 0 001.86-5.83A7 7 0 0030 33.24c1.1.07 3.34-.43 3.67-2.12l-.67-.57a3.52 3.52 0 00.5-1.92s-.87.77-1.24.74a7.9 7.9 0 00.17-1.73s-1.11.81-1.5.79a5 5 0 00.5-1.69 3.38 3.38 0 01-1.08.57l-.22-1 .89-.94v.69s1.3-.43 1.57-1a6.22 6.22 0 010 1.27 5.58 5.58 0 001.51-1s.07.6.13 1.24a4.54 4.54 0 002.31-2.27 3 3 0 001-.5 21.81 21.81 0 00-.81-3.78s-4-1.06-4.48-1.26c-.14-.66.07-.4-.14-.66a18.83 18.83 0 00-2.98-1.1 1.48 1.48 0 00-1.39.46c-.82-.27-2.8-.66-3.24-.4s-1 .66-1 .66c-.88.13-6.45 1.86-6.45 6.7a6.79 6.79 0 00.86 3.85c.81 1.36 1.19 2.06 1.64 2.91"/><path class="cls-3" d="M28.32 17a2.83 2.83 0 00-.6.39A13.65 13.65 0 0026 17a3.35 3.35 0 00-1.53 0c-.4.24-.93.6-1 .66a10.11 10.11 0 00-3.57 1.59 7.24 7.24 0 00-2 2.07 5.64 5.64 0 00-.9 3.1v.11a6.76 6.76 0 00.87 3.77c.81 1.36 1.19 2.05 1.64 2.91a8.64 8.64 0 01.49 1.62 7.43 7.43 0 001.15 2.72 6.83 6.83 0 003.56 2.26 10 10 0 00.92-1.67 12.78 12.78 0 00.64-1.86 10.51 10.51 0 00.31-2.2A7.31 7.31 0 0030 33.31a5 5 0 002.15-.41 2.54 2.54 0 001.59-1.76l-.74-.6a4 4 0 00.3-.54 3.37 3.37 0 00.23-1.17 1.34 1.34 0 000-.2v-.13l-.1.08a3.19 3.19 0 01-1.12.71 8.08 8.08 0 00.17-1.43 1.69 1.69 0 000-.23v-.11l-.1.07a5.83 5.83 0 01-1.34.76 4.44 4.44 0 00.45-1.61v-.13l-.1.08a3.53 3.53 0 01-1 .54c0-.11-.19-.84-.2-.9l.76-.79v.62h.09a4.15 4.15 0 001.49-.86v.74a1.72 1.72 0 010 .34v.12h.11a6 6 0 001.44-.91c0 .21.07.66.11 1.11v.09h.08a4.61 4.61 0 00.94-.56 4 4 0 001.4-1.72 2.9 2.9 0 001-.5 22.06 22.06 0 00-.82-3.8s-3.82-1-4.44-1.25a1.51 1.51 0 01-.05-.33.78.78 0 010-.09s0-.08-.12-.19a10.54 10.54 0 00-2.42-1l-.56-.21a1.11 1.11 0 00-.83.06m-.54.52c.18-.16.79-.66 1.32-.45l.57.2 1.44.53a2.79 2.79 0 01.91.44l.09.11a.28.28 0 000 .11 1.77 1.77 0 00.06.4c.49.19 4.06 1.15 4.45 1.26a21 21 0 01.79 3.69 3 3 0 01-.91.46A3.94 3.94 0 0135.12 26a6 6 0 01-.83.51c0-.59-.13-1.15-.13-1.15v-.13l-.09.09a6.23 6.23 0 01-1.38.92v-.25a6.68 6.68 0 00-.07-.93v-.22l-.1.2c-.23.43-1.15.8-1.44.91v-.75l-1 1.09.25 1.1h.06a2.88 2.88 0 001-.5 5 5 0 01-.48 1.52v.1h.11a2.14 2.14 0 00.93-.4l.51-.34v.1a10.06 10.06 0 01-.17 1.49v.07h.07a1.47 1.47 0 00.8-.36 4.22 4.22 0 00.39-.3v.06a3.5 3.5 0 01-.5 1.69v.05l.67.54a2.44 2.44 0 01-1.5 1.63 4.89 4.89 0 01-2.1.4 6.9 6.9 0 01-3.32-1.31l-.11-.08v.13a10.88 10.88 0 01-.32 2.31 12.37 12.37 0 01-.63 1.83 9.69 9.69 0 01-.88 1.61 6.64 6.64 0 01-3.44-2.2 7.31 7.31 0 01-1.13-2.68 8.42 8.42 0 00-.58-1.67c-.45-.87-.82-1.56-1.63-2.92a6.56 6.56 0 01-.85-3.7v-.11a5.55 5.55 0 01.87-3 7.36 7.36 0 012-2 10.87 10.87 0 012.17-1.15 7.59 7.59 0 011.36-.42s.59-.4 1-.66a3 3 0 011.44 0 11.09 11.09 0 011.74.39z"/><path class="cls-1" d="M27 23.61a8.23 8.23 0 001.14.33s-.12.56-1 1a3 3 0 00-.14-1.33M28.67 24.1a4 4 0 001-.13 1.94 1.94 0 01-.79 1.24 4.27 4.27 0 00-.2-1.11M30.09 23.89l1.09-.21a2.06 2.06 0 01-.87 1.32 2.05 2.05 0 00-.22-1.14M31.66 23.51l.89.32a2.12 2.12 0 01-.91 1.17 4.1 4.1 0 000-1.48M33.11 24a3.66 3.66 0 001 .34 3 3 0 01-1 .93 3.87 3.87 0 000-1.27M34.55 24.43a4.89 4.89 0 001.15 0 7.66 7.66 0 01-1.05 1.19 3.64 3.64 0 00-.1-1.22M25.42 26.81a5.93 5.93 0 001-.76 2.64 2.64 0 010 1 3.44 3.44 0 00-1-.23M26.94 27.61a3.63 3.63 0 00.92-.57 2.44 2.44 0 01-.33 1.3 6.45 6.45 0 00-.59-.73M28 29a2.59 2.59 0 00.93-.62 1.62 1.62 0 01-.23 1.31A3.06 3.06 0 0128 29M29.26 30.23a3.58 3.58 0 00.95-.86 2.25 2.25 0 010 1.25 1.49 1.49 0 01-.92-.39M31 30.72a5.35 5.35 0 00.77-1 2.64 2.64 0 01.16 1 1.72 1.72 0 01-.93 0"/><path class="cls-4" d="M25.76 25.05a3.65 3.65 0 00-.77 1.5 14 14 0 001.64-1.2A4.09 4.09 0 0127 27a9.61 9.61 0 001.14-.64 3.48 3.48 0 010 1.92c.31-.12 1-.54 1.11-.61a3.51 3.51 0 01.12 1.78 12 12 0 001-.7 4.52 4.52 0 01.36 1.34 3.1 3.1 0 00.69-.77c0-.16-.14-.22-.52-.49a3.06 3.06 0 01-1.1-.74c-.47-.49-.5-1.43-1.24-2.08a4.69 4.69 0 00-2.83-1"/><path class="cls-3" d="M25.74 25a3.77 3.77 0 00-.74 1.54v.07h.06a14.44 14.44 0 001.62-1.17 4.26 4.26 0 01.32 1.48v.15h.05a10.91 10.91 0 001.1-.62v.08a3.75 3.75 0 01.1.84 2.69 2.69 0 01-.16.94v.07h.07a9.51 9.51 0 00.92-.5l.16-.1a3.48 3.48 0 01.18 1.08 2.94 2.94 0 01-.07.65v.06h.05c.17-.09.8-.51 1-.68a4.7 4.7 0 01.34 1.29v.06a3.17 3.17 0 00.7-.78c0-.15-.13-.22-.43-.42l-.1-.08-.25-.13a2.18 2.18 0 01-.85-.61 2.62 2.62 0 01-.45-.81 3.12 3.12 0 00-.75-1.41 4.71 4.71 0 00-2.85-1zm0 0a4.57 4.57 0 012.8 1 3.15 3.15 0 01.78 1.24 2.45 2.45 0 00.46.83 2.21 2.21 0 00.87.63 1.24 1.24 0 01.23.12L31 29c.28.19.37.25.4.37a2.91 2.91 0 01-.64.72 4.25 4.25 0 00-.37-1.29 11.34 11.34 0 01-1 .66 3.21 3.21 0 00.06-.6 3.63 3.63 0 00-.19-1.13l-.2.11c-.24.14-.61.37-.85.48a3 3 0 00.14-.9 3.77 3.77 0 00-.1-.85V26.4a7.93 7.93 0 01-1.09.62 4.49 4.49 0 00-.39-1.59A13.22 13.22 0 0125 26.48a4 4 0 01.74-1.4"/><path class="cls-2" d="M65.34 30.37a33.14 33.14 0 01-9.21 7.34 37.9 37.9 0 01-10.86 4.14l-.65-.7a3.66 3.66 0 001.72-1c.58.25 1.37-.57 1.37-.57a7.85 7.85 0 001-2.55 17.32 17.32 0 002.15-.26 36.34 36.34 0 0014-6.24"/><path class="cls-3" d="M47.59 40.9l1.5-2.4 1.49 1.23 1.17-2 1.29.89 1-1.66 1.08.71.9-1.42.81.42.71-1.13.76.2.51-.8.65.18a32.27 32.27 0 01-6.21 3.56 40.76 40.76 0 01-5.69 2.2"/><path class="cls-2" d="M47.7 47.66a5.54 5.54 0 01-.79 1c-1.59 1.27-2.8 1-5.51.16 1.74-.76 3.89-2.35 4.57-3.66.68.27.9.54 1.09.45.35-.27.85-.06.89 1a2.32 2.32 0 01-.25 1.06M37.71 47.87l1.29.8a10.13 10.13 0 004.52-2.08A7.78 7.78 0 0046 43.25l-1-.63a5.42 5.42 0 01-1.24 2.06c-1.85-1.07-1.47-2.79-3.43-3.64l-1.38 1.07c2 1.19 1.31 2.34 3.29 3.86a9.08 9.08 0 01-4.46 1.9M19.82 41.41h.17A9.53 9.53 0 0123.62 43a10.19 10.19 0 013.28 3.75v.07l1.31-.66v-.07a10.93 10.93 0 00-1.62-2.41 10.73 10.73 0 00-2-1.78 11.9 11.9 0 00-2-1.16 6.71 6.71 0 00-1.46-.47z"/><path class="cls-2" d="M23.78 45.45c.26.25 1.52 1.23 1.51 2.27s-.44 1.4-.15 2a3.16 3.16 0 01-1.29.28 8.31 8.31 0 01-2.85-.52 17.63 17.63 0 00-1.68-4.13c-.55-.76-.36-2.74.32-3.2 0 0 .81.23 1.47.44a8.59 8.59 0 014.62 3.74l-.12.09a5.32 5.32 0 00-.72-.66 3.64 3.64 0 00-1.09-.42.66.66 0 000 .11M13.54 41.05A11 11 0 0018 43a2.91 2.91 0 01.37-1.11 8.68 8.68 0 012.16-2.55 7.62 7.62 0 01-2.2-5.33 3.76 3.76 0 00-1.24 3.05 3.12 3.12 0 011.06 2.36 8.65 8.65 0 00-1.55-1.28 18 18 0 00-4.6-.58 16.89 16.89 0 00-2.84-1.13s-.89-.24-1.36-.32c-.58.11-1.66.54-2.3.66-.38.07-.86.95-.88 1.22a.66.66 0 01.38-.15c.44.09.75.56 1 1a1.2 1.2 0 00.61-.83c.75-.1 1.37-.52 1.8-.4a18.67 18.67 0 011.94 1.43 11.71 11.71 0 00.76 1.52s-.27.76-.06 1.14a1.7 1.7 0 001.33-.37c.51-.66.08-1.94 0-2.35a3.4 3.4 0 011.19 2M4.36 36.8s-.65.88-.63 1.16 0 .46 0 .46l-.18.35s-.52-.71-.77-.64a1.84 1.84 0 00-.31.1s-.11-.07.35-.33a2.31 2.31 0 00.88-.78.85.85 0 01.64-.32"/><path class="cls-2" d="M3.66 37.07a.27.27 0 00-.07.08 2.18 2.18 0 01-.79.67c-.35.21-.4.31-.4.38a.12.12 0 000 .1l.3-.1s.13 0 .4.27.28.34.28.34l.08.11.26-.49v-.45a3.53 3.53 0 01.62-1.1l.09-.11h-.15a.83.83 0 00-.71.35m.07.19l.06-.08a.87.87 0 01.39-.28l-.09.28c-.29.47-.32.64-.32.72v.43l-.1.21c-.06-.07-.13-.16-.22-.25-.24-.25-.42-.35-.56-.32l.08-.02a2.46 2.46 0 00.85-.71m-.08-.19zM33.17 30.25a1.38 1.38 0 01-.16.29l.7.56c-.33 1.55-2.05 2.13-3.34 2.21h-.1a5.16 5.16 0 00.32.67 4.07 4.07 0 002.57 2.09c.71.1 2.07.2 2.49-.86A3.39 3.39 0 0038.5 35c.41.87 1.6 1.35 1.92 1.68.17 2.67.87 4 1.11 4a2.55 2.55 0 001.47-.15l-.16-1.2 1.37 1.1a4.36 4.36 0 001.2-.57 11.43 11.43 0 01-.66-1.29c.79.36 1.68.7 1.68.7a3.4 3.4 0 00.78-.54 6.76 6.76 0 00.63-1.94c-.21-.48-1.36-.8-1.36-.8l-.12.36a1.94 1.94 0 01.21 1.49 5.92 5.92 0 00-2.81-2.32c-.16.13-.66.49-.66.49v-1.07c-.42-1.48-1.84-3.83-2.4-4a8.28 8.28 0 00-4.9-.15s.68.81.43 1.49a4.5 4.5 0 00-1.36-1.31 6.24 6.24 0 00-1.59-.73z"/><path class="cls-2" d="M23.43 19.43s1-1.18 1.36-1.61a8.89 8.89 0 012.91.41c.51.27.81 1 1.65 1.22v-.06a2.92 2.92 0 01-.63-.78 1.28 1.28 0 00-.34-.71l.46-.2s1.53.68 1.93.79a.35.35 0 01.29.43 2.54 2.54 0 01-1-.34s-.06.63 1.41.93A28 28 0 0136 20.64c.12.26.32.86.32.86a3.13 3.13 0 00-.42 1.36h.06c.09-.15.27-.46.47-.51a4.59 4.59 0 01.18 1 3.33 3.33 0 01-1.22.28c-1.17.13-3.15-1-3.56-.92s-2.53.59-3 .56-1.22-.46-1.66-.46a6.33 6.33 0 00-3.35 4.63 9.8 9.8 0 012.31.31c.37.19 1.82 2.44 2.63 3a6 6 0 004 .61 3.32 3.32 0 01-2.24 1.09 4.68 4.68 0 01-3.69-2.19 8.38 8.38 0 00-1.48-1.16c-.68-.38-2.51-.34-3.48-1.42a2.47 2.47 0 01-.67-2.39 1.58 1.58 0 00-.62 1.37 2.74 2.74 0 00.69 1.74c.85 1 2.3 1.29 3.2 1.66s.9.77.9.77-1.58.55-4-.82c0 0 .89 2.58 4.23 2.08h.08s-.7 1.59-3.93.67a3 3 0 002 1.26 2.8 2.8 0 002-.43 1.68 1.68 0 01-.35.8 1.82 1.82 0 01-2.2.61 2.34 2.34 0 002.22.91 3.9 3.9 0 01-.83 1.25 4 4 0 01-2.71-1.9c-1.09-1.46-1-3.5-1.6-4.66-.73-1.35-1.32-2.19-1.71-3a7.47 7.47 0 01-.57-3.34 6.58 6.58 0 011.59-3.72 6.87 6.87 0 013.74-2.07 1.72 1.72 0 00.11 1"/><path class="cls-3" d="M33.56 21.89l.44-.38a1.81 1.81 0 01.69 1.37 3.13 3.13 0 00-1.13-1M22.91 20.48c-.95.19-3.42 1.12-3.75 3.18a3.29 3.29 0 00.55 2.62s-.65-3.57 3.46-4L22 21.81zM25.32 23.3a7.94 7.94 0 00-2.25 3.78 1.51 1.51 0 01-.69-.73 7.58 7.58 0 012.94-3.05M29.77 20.28a1.46 1.46 0 01-1.1.13c-.47-.18-.77-1.35-1.8-1.49a2.57 2.57 0 00-2 .37 3 3 0 011 .06 3 3 0 00-1.61 1.4s.4-.14.64-.19a2.56 2.56 0 001.22.56 1 1 0 01-.45-.79 1.61 1.61 0 011.27-.48c.95.13 1.07 1 1.65 1a1.85 1.85 0 01-.64.46s1.54-.1 1.82-1"/><path class="cls-3" d="M26.66 19.75a1.35 1.35 0 00.16 1.57c-.07-.42.16-1.24.65-1.37a1.46 1.46 0 00-.81-.2"/><path class="cls-4" d="M3.18 39.35a1.56 1.56 0 00-.43-.63 2.08 2.08 0 00-.65.49 2.37 2.37 0 00-.1 2.34c.12-.35.36-1.3 1-1.59-.1 0 .3 0 .15-.61M5.4 39.17a1.12 1.12 0 00-.46-.61c-.19 0-.55.28-.67.51a2.61 2.61 0 00-.06 2.42c.12-.4.44-1.51 1.21-1.79.08 0 0-.43 0-.53M13.92 56.25a5.35 5.35 0 012.19-1.85c-.17-.79-.38-1.59-.9-1.58-.19 0-.37.27-.64.45a3.21 3.21 0 00-.65 3M16.6 57.55a5.55 5.55 0 012.12-2.07c-.31-1.07-.78-1.5-1-1.48a1.91 1.91 0 00-.78.6 3.21 3.21 0 00-.32 2.95M23.73 53.6a1.87 1.87 0 00.11-1.79c1.16.2 1.39 1.51 1.34 2.09a2.39 2.39 0 01-1.45-.3M45.71 50.37a4.35 4.35 0 00-1.25.64 4.26 4.26 0 00-1.59.37 2.54 2.54 0 01.83-1 5.14 5.14 0 002-.19v.17M43.68 55.31a3.79 3.79 0 011.47-1.56c.06-1-.67-1.06-1-1.15a2.39 2.39 0 00-.51 2.71M46.19 56A5 5 0 0148 54.19c-.08-.62-.64-1.18-1-1.13a.94.94 0 00-.49.23 2.89 2.89 0 00-.32 2.71M12.62 42.11a1.64 1.64 0 01-.1.5 3.08 3.08 0 01-1.61 1.76 2.88 2.88 0 00.42-1.87 3.47 3.47 0 001.29-.39"/><path class="cls-3" d="M15.13 36.92a8.21 8.21 0 011 .21A5.36 5.36 0 0117.92 33a6.44 6.44 0 011.61-1.45h.07a3 3 0 00-.15-.31c-.44-.87-.8-1.52-1.61-2.89a6.72 6.72 0 01-.84-3.59l-.07.08A14.68 14.68 0 0014.47 33a15.2 15.2 0 00.58 3.95zM43.27 32.87a9.41 9.41 0 00-1.61-2.44 3.75 3.75 0 00-1-.55 13.36 13.36 0 00-6-.12h-.08a4.53 4.53 0 00-1.06-.37h-.05a3.7 3.7 0 000-.89s-.85.82-1.21.72a9.49 9.49 0 00.16-1.71 5.48 5.48 0 01-1.46.83 4.43 4.43 0 00.46-1.73 4.38 4.38 0 01-1.1.63l-.19-.9.75-.81v.64s1.28-.43 1.58-.91a5.84 5.84 0 010 1.22 5.23 5.23 0 001.55-1s.05.6.1 1.23a4.81 4.81 0 002.49-2.31 4 4 0 001-.5s-.25-1.66-.54-2.92a14.47 14.47 0 016.22 11.88z"/><path class="cls-4" d="M17.71 20.82A18.86 18.86 0 0120.15 19l-.83-.1-4-4.11h-1.84a22.8 22.8 0 00-3.94 4.3l1.24.13 4 4 .14 1.06a19.31 19.31 0 012-2.59l-1.38-1.4a3.83 3.83 0 01.88-.86l1.36 1.4m-3.39-1.71l-1.45-1.52.69-.68.37.08 1.25 1.3a7.92 7.92 0 00-.88.86"/><path class="cls-4" d="M15 24.1a15.8 15.8 0 00-1.43 2.81l-3.31-1.15.41 1.43s2.51.85 2.5.87a17.83 17.83 0 00-.64 3.21l-.86-1.06-7-2.43-1.37.4a27.76 27.76 0 011.8-5.87l1.3-.49 3 1L9.74 24l.94-.75 3.38 1.1zm-6.6 1l-2.26-.75-.2.55c-.07.17-.2.61-.2.61l3 1zM22.34 15.77l.31.91s1.13.55 1.11.56A16.22 16.22 0 0020 19.05l.32-1.4-1.72-4.73-1.26-.86a25.27 25.27 0 015.44-2.19l1.35.3 1.27 3.37-.94 1.31zM22.6 14l.33-.43-.61-1.69-.46-.11-.92.33.8 2.26zM30.37 10.68l2.09 1.14V9.34a24.21 24.21 0 00-6.72 0v2.47l2.1-1.11v4.89l-.78 1a16.81 16.81 0 012-.14c1 0 2.09.15 2.09.15l-.76-1zM38.16 18.08l-1.8.14a29.47 29.47 0 00-3-1.2l-1.19-1.34 2.08-5.23 1.83-.23a24.08 24.08 0 013.1 1.23l1.12 1.41zm-2-1.55l1.58-4-1.37-.53-1.59 4zM43.23 24.83a16.67 16.67 0 00-2-2.81l1.85-1.68-1.6-.34-1.17 1.09a19.11 19.11 0 00-2.52-2l1.3-.24 4-3.64v-1.35a27.68 27.68 0 014.44 4.36l-.12 1.35L45.89 21l-1.08-.23v1.27l-1.5 1.5zm.92-5.57l1.2-1.17-.91-.95-1.82 1.69z"/><path class="cls-4" d="M45.15 30.58l4.38-1.49.91-4.31 1.19-.37.52 1.49-1.69.57.73 2.53.76-.8 2.37-.78A28.12 28.12 0 0052 20.87l-.66 1.06-2.75.89-1 4.59-1.37.48-.51-1.49 1.54-.53-.93-2.74-.64.7-2.54.86a16.35 16.35 0 012 5.89M27.4 20a1.46 1.46 0 00-.58 1.37 1.27 1.27 0 01-.2-1.47 1.27 1.27 0 00-.92.48 1 1 0 00.45.79 2 2 0 00.75.26 2.36 2.36 0 001.1-.17 1.91 1.91 0 00.65-.45c-.47 0-.6-.52-1.22-.82z"/></g></g></svg>