<svg xmlns="http://www.w3.org/2000/svg" viewBox="0 0 55.55 73.45"><defs><style>.cls-1,.cls-3,.cls-4{stroke:#000}.cls-1,.cls-3,.cls-4,.cls-5{stroke-width:.32px}.cls-3,.cls-5,.cls-6{fill:#fff}.cls-4{fill:none}.cls-5{stroke:#fff}</style></defs><g id="Layer_2" data-name="Layer 2"><g id="Layer_1-2" data-name="Layer 1"><g id="layer2"><path id="path2997" class="cls-1" d="M27.58.16C11.65.28.27 6 .16 6.13.14 17.43 2 27.86 6.44 36.37c4.92 9.39 14.29 18.1 21.33 20.19 8.58-2.85 17-11.4 21.45-20.17 4.29-8.49 6.16-18.76 6.17-30.19a64 64 0 00-27.81-6zm0 .92a62.88 62.88 0 0126.9 5.73c.1 11.57-2.07 21.34-6.09 29.17-5 9.66-13.64 17.38-20.58 19.7C20 53.33 11.32 44 7.2 36.13 1.13 24.49.83 11.32 1.18 6.67c.1-.12 11.08-5.48 26.43-5.59z"/><path id="path2997-1-7" d="M53.63 7.26C37.74-.07 15.79.3 2 7.31c-.22 13.61 3.3 23.59 6.54 29.5 3.66 6.67 12 15.59 19.37 18 10-3.47 19-15.4 22-24 2.89-8.5 3.69-13.57 3.72-23.55z" stroke-width=".3" stroke="#000"/><path id="path3825" class="cls-3" d="M5.73 25.74V8.46s-.06-.18.24-.31l2.35-.87s.26-.09.32.06l5.22 13.14L13.78 6a.32.32 0 01.22-.29l1.8-.39a.19.19 0 01.22.21v17.33s0 .3-.26.34l-2.5.59a.33.33 0 01-.38-.17c-.09-.25-5.07-12.93-5.07-12.93s.08 14.39.07 14.4a.3.3 0 01-.2.32C7.45 25.5 6 26 6 26s-.26 0-.26-.25z"/><path id="path3829" class="cls-3" d="M17.93 5.14s-.09-.25.36-.3A53.92 53.92 0 0127 4.1s.4-.09.4.19v1.22a.26.26 0 01-.26.28 42 42 0 00-6.81.52v6a31 31 0 015.6-.44s.2-.12.2.2v1.17s0 .33-.24.29a40.58 40.58 0 00-5.59.43v6.79a48.78 48.78 0 016.82-.5s.29-.08.29.26v1.09a.27.27 0 01-.29.34 60.19 60.19 0 00-8.77.74s-.33 0-.33-.19z"/><path id="path2996" class="cls-3" d="M32.91 21.86L32.89 6a35 35 0 00-4.14-.19.22.22 0 01-.24-.23V4.3s-.06-.2.23-.19a69.76 69.76 0 0110.71 1s.26 0 .26.26v1.17s0 .32-.28.27-2-.4-4.17-.63V22s.06.31-.23.28l-1.83-.15a.25.25 0 01-.28-.26z"/><path id="path3009" class="cls-3" d="M48.1 12.94s-.21-.11-.2-.27 0-2.35 0-2.35a2.6 2.6 0 00-1.55-2 4.85 4.85 0 00-2.6-.58c-.06 0-1 0-1 1.34a4.41 4.41 0 00.57 2.39A27.61 27.61 0 0045.56 14l2 2.15a16.77 16.77 0 012.31 2.94 5.75 5.75 0 01.59 2.79s.24 2.93-2.12 3.06c0 0-1.77.35-5.16-1.07 0 0-3.13-1.11-3.39-4v-2.74a.24.24 0 01.26-.26l1.86.36s.21 0 .21.27v2.64s.09 2.41 4.35 3.05c0 0 1.71.38 1.68-1.24v-1.38s0-1.3-1.92-3.14l-4.1-4.11a6.83 6.83 0 01-1.75-3.4 5.94 5.94 0 01.5-2.9s1.38-2.4 6.33 0a4.65 4.65 0 012.83 3.49l.14 2.93s0 .3-.28.25-1.85-.69-1.85-.69z"/><path id="path2999" class="cls-4" d="M26.36 30.21s-.09 0-.09.11v5.49a.09.09 0 00.1.1h1.37s1.46-.19 1.46-1.49v-3c0-1.37-1.14-1.22-1.5-1.23z"/><path id="path3001" class="cls-4" d="M26.36 37.83s-.09 0-.1.11 0 6.79 0 6.79 0 .11.13.12h2c.16-.09 1.52.25 1.53-1.91v-3.4c0-.29-.15-1.75-2.42-1.71z"/><path id="path3772" class="cls-5" d="M24.14 25.2a12.79 12.79 0 00-6.85 4.8c2.81-.44 5.11 1.1 6 1.46v.91a12.27 12.27 0 00-6.39-1.64c-.63.57-2 4.06-1.84 7.42.47.28.85 2.24 8.19 4v1.1s-5.35-.58-8.08-4.16c.31 3.08 2.75 8.17 7.35 9.73 4.05.57 6.43-.75 10.09-2.57 4-2.1 3.92-2.23 5.21-2.85a12.9 12.9 0 00.37-2.29 24.15 24.15 0 01-5.28 1.69v-.89a25.85 25.85 0 005.34-1.74 15.66 15.66 0 00-.25-2.78c-1.91 1.15-5.24 0-5.74-.18-.4-.66-.58-.64-.58-.64.42-.54.3-.73.3-.73 1.58.83 4.19 1.3 5.78.57C36 29 29.39 24.47 24.14 25.2z"/><path id="path3002" class="cls-6" d="M23.54 49.35c1.79 1.3 11.92 1.7 14-5.13-4.53 2.82-8.8 5.87-14 5.13z"/><path id="path3003" class="cls-6" d="M37.15 46s1.69-1.88 1.74-2.57c-.14-.14-.4.08-.58.21A8.52 8.52 0 0137.15 46z"/><path id="path3010" class="cls-6" d="M39 40.52a8.47 8.47 0 01-.41 2.48c.35-.1.39-.13.64.14A10.26 10.26 0 0040.44 39 3.25 3.25 0 0139 40.52z"/><path id="path2998" class="cls-1" d="M24.16 28.76v17.67c.25.67 1.22.23 1.8.35 1.06 0 2.13 0 3.19-.05A3.08 3.08 0 0031.88 44v-5.11a2.71 2.71 0 00-1.73-2.15 2.58 2.58 0 001.11-2.56c0-1.13 0-2.26-.06-3.38a2.55 2.55 0 00-1.79-2.3 11.86 11.86 0 00-2.73-.13h-2.27a.36.36 0 00-.25.38z"/><path id="path3777" class="cls-3" d="M26.32 30.21a.11.11 0 00-.08.1v5.5s0 .08.09.07 1.38 0 1.38 0a1.48 1.48 0 001.47-1.55v-3s.12-1.06-1.14-1.07z"/><path id="path3779" class="cls-3" d="M26.26 37.81v6.93s0 .13.17.13h2s1.4.16 1.4-1.84v-3.69s-.16-1.55-2.3-1.53z"/><path id="path3793" class="cls-6" d="M40.11 34.2a8.39 8.39 0 01.46 3.35A3.88 3.88 0 0139 39.7a10.92 10.92 0 00-.29-2.9 4.7 4.7 0 001.38-2.6z"/><path id="path3795" class="cls-5" d="M39.39 32.67c-.84-4.23-6.63-8.67-12.8-8 7.41.78 11 8 11.91 11.13 1-.52.89-3.1.89-3.1z"/><path id="path3011" class="cls-1" d="M4.62 59.86v13.08s0 .16.05.16H8c.11 0 1.91-.45 1.92-2.06v-3.53A1.77 1.77 0 008.55 66a1.81 1.81 0 00.94-1.57v-2.8a1.71 1.71 0 00-1.67-1.71z"/><path id="path3012" class="cls-3" d="M5.92 61V65.41h.88s1.4.07 1.41-1.13v-2.41s.11-.82-1-.84z"/><path id="path3014" class="cls-3" d="M5.94 66.58c-.07.06-.05.09-.05.09v5.3h1.62s1.23.06 1.22-1.51V68.1a1.41 1.41 0 00-1.61-1.51z"/><path id="path3784" class="cls-1" d="M10.7 59.9l.05 13s0 .16.08.14 1 0 1 0a.17.17 0 00.14-.17v-6.06h1.08l2.35 6.25h1.15s.09 0 .1-.09v-.2l-2.29-6.05c.22 0 1.71-.68 1.7-1.88v-3.12a2.1 2.1 0 00-2.33-1.82z"/><path id="path3013" class="cls-3" d="M12 61v4.66h1.88a1 1 0 00.91-1v-2.4a1.07 1.07 0 00-1.1-1.26z"/><path id="path3015" class="cls-1" d="M16.89 62.55v8c0 3.64 5.57 3.7 5.55 0v-8.04c.04-3.9-5.56-3.64-5.55.04z"/><path id="path3017" class="cls-3" d="M18.15 62.37v8.13a1.54 1.54 0 103.08 0v-8a1.54 1.54 0 00-3.08-.09z"/><path id="path3015-1" class="cls-1" d="M23.23 62.52v8c0 3.64 5.57 3.7 5.55 0v-8.03c0-3.9-5.58-3.64-5.56 0z"/><path id="path3017-7" class="cls-3" d="M24.48 62.35v8.13a1.55 1.55 0 103.09 0v-8.05a1.55 1.55 0 00-3.09-.08z"/><path id="path3786" class="cls-1" d="M30.7 59.78h-1s-.18 0-.15.16v13s0 .13.12.14h1s.17 0 .16-.15V68l.68-1.23 2.25 6.2a.12.12 0 00.12.11H35a.1.1 0 00.12-.09v-.24l-2.72-7.56L35.07 60s.06-.21-.1-.21h-1.16s-.07 0-.08.05l-2.87 5.62v-5.55s0-.13-.09-.13z"/><path id="path3019" class="cls-1" d="M36.78 59.83h-1s-.15 0-.15.22v12.86s.07.13.14.13h4.38a.18.18 0 00.12-.17v-.83s0-.14-.15-.14h-3.18V60s0-.15-.15-.14z"/><path id="path3021" class="cls-1" d="M39.71 59.83h-1s-.17.09-.13.24 2.56 7.26 2.56 7.26v5.6s0 .13.07.14 1 0 1 0a.14.14 0 00.14-.14v-5.59L45.08 60s.1-.22-.15-.21h-1s-.14 0-.19.19-1.9 5.59-1.9 5.59L40 60a.29.29 0 00-.24-.14z"/><path id="path3023" class="cls-1" d="M47 59.83h-1.39s-.13 0-.14.18v12.93s0 .15.1.15h1a.16.16 0 00.16-.18V62.3L49.27 73a.28.28 0 00.17.11h1.4s.13 0 .13-.15V60s0-.11-.18-.12h-.95a.12.12 0 00-.13.13L49.87 71l-2.76-11a.14.14 0 00-.16-.12z"/></g></g></g></svg>