<svg xmlns="http://www.w3.org/2000/svg" viewBox="0 0 79.36 88.22"><defs><style>.cls-2{fill:#061922}.cls-3{fill:#008248}.cls-11,.cls-12,.cls-13,.cls-4,.cls-7,.cls-9{fill:none;stroke-width:.31px}.cls-4{stroke:#008248}.cls-5{fill:#fff}.cls-6{fill:#a63732}.cls-7{stroke:#a63732}.cls-8{fill:#ba9653}.cls-9{stroke:#ba9653}.cls-10{fill:#f9b282}.cls-11,.cls-12{stroke:#f9b282}.cls-11{stroke-linecap:round}.cls-13{stroke:#00a55c}</style></defs><g id="Layer_2" data-name="Layer 2"><g id="Layer_1-2" data-name="Layer 1"><path d="M79.36 41.48A39.68 39.68 0 0044 2a4.5 4.5 0 00-.71-.56c-3.18-2-5.83-.53-7.67.36l-.46.23a39.63 39.63 0 00-9.92 2.47 10.4 10.4 0 00-1.3-1.5A10.15 10.15 0 008.86 16.52 39.7 39.7 0 0024.16 78a6.79 6.79 0 00.46 4.11 2.1 2.1 0 00-.92 1.35c-.91 1.27 1.3 2.87 2.24 3.54 1.89 1.44 2.89 1.19 4.36 1.13 1.82-.08 3.53-2.21 4.51-3.59 2-.28 2.33 0 2.39.28a10.42 10.42 0 002.64-.74c2.65-1.12 1.9-2.48 1.62-2.73a.75.75 0 01-.18-.26A39.46 39.46 0 0059 76.18a6.65 6.65 0 01.58.73c.58.86.89 3.65 1 5.09a19.85 19.85 0 001.07 4.7c.71 2.27 1 .61 1 0s.15-2.83.06-4.42a18.34 18.34 0 01.18-4.88 1.11 1.11 0 00-.39-1.4c-.15-.18 0-.24-.4-1.5a1.42 1.42 0 01-.05-.22 39.79 39.79 0 0017.31-32.8" fill="#231f20"/><path class="cls-2" d="M79.36 41.48A39.68 39.68 0 0044 2a4.5 4.5 0 00-.71-.56c-3.18-2-5.83-.53-7.67.36l-.46.23a39.63 39.63 0 00-9.92 2.47 10.4 10.4 0 00-1.3-1.5A10.15 10.15 0 008.86 16.52 39.7 39.7 0 0024.16 78a6.79 6.79 0 00.46 4.11 2.1 2.1 0 00-.92 1.35c-.91 1.27 1.3 2.87 2.24 3.54 1.89 1.44 2.89 1.19 4.36 1.13 1.82-.08 3.53-2.21 4.51-3.59 2-.28 2.33 0 2.39.28a10.42 10.42 0 002.64-.74c2.65-1.12 1.9-2.48 1.62-2.73a.75.75 0 01-.18-.26A39.46 39.46 0 0059 76.18a6.65 6.65 0 01.58.73c.58.86.89 3.65 1 5.09a19.85 19.85 0 001.07 4.7c.71 2.27 1 .61 1 0s.15-2.83.06-4.42a18.34 18.34 0 01.18-4.88 1.11 1.11 0 00-.39-1.4c-.15-.18 0-.24-.4-1.5a1.42 1.42 0 01-.05-.22 39.79 39.79 0 0017.31-32.8"/><path class="cls-3" d="M30.3 78.51a15.63 15.63 0 004.46-.92c.12 0 .32.15.63.27a11.68 11.68 0 00-.86-4c-.23-.62-.46-1-.74-1.69a15 15 0 01-2.59-.9c0 .58.11 2.1.23 3.11-.3 0-.73.06-1.25.06.06 1.11.18 3.1.12 4"/><path class="cls-4" d="M30.3 78.51a15.63 15.63 0 004.46-.92c.12 0 .32.15.63.27a11.68 11.68 0 00-.86-4c-.23-.62-.46-1-.74-1.69a15 15 0 01-2.59-.9c0 .58.11 2.1.23 3.11-.3 0-.73.06-1.25.06.06 1.16.18 3.15.12 4.07z"/><path class="cls-3" d="M58.05 75.26c-.27-.28.34-1.14.62-2.73s.3-4.27-.86-5.77a5.32 5.32 0 01-.94-1.52 29 29 0 01-12.22 5.15 2.52 2.52 0 01-.15.24 11.23 11.23 0 01-2.82 2.51 15.89 15.89 0 01-2.58 1 14 14 0 000 3.93c.09.28 1.23 1 1.63 1.69 0 .07.07.15.11.22a38.28 38.28 0 0017.32-4.69l-.08-.07"/><path class="cls-4" d="M58.05 75.26c-.27-.28.34-1.14.62-2.73s.3-4.27-.86-5.77a5.32 5.32 0 01-.94-1.52 29 29 0 01-12.22 5.15 2.52 2.52 0 01-.15.24 11.23 11.23 0 01-2.82 2.51 15.89 15.89 0 01-2.58 1 14 14 0 000 3.93c.09.28 1.23 1 1.63 1.69 0 .07.07.15.11.22a38.28 38.28 0 0017.32-4.69z"/><path class="cls-3" d="M67 14.22a38.31 38.31 0 00-22.09-11 9.74 9.74 0 01.83 3.81c1.2-.52 2.12-.8 2.61-1.6a.88.88 0 011.6-.06c.43.59.43 1.32-.71 2A17.91 17.91 0 0147 8.61c-.24.12 0 .34.25.8a7.89 7.89 0 011.1 4v.07a29.36 29.36 0 0117.73 40.78 3.64 3.64 0 01.71 2.2 3.6 3.6 0 01-.15 1.71 17 17 0 01-2.36 3.26.89.89 0 01-1.2-.19c-.27-.4-.3-.18-.52 0s-1 1.29-1.13 1.57a1.31 1.31 0 00-.4 1.65c.4 1.11.86 1.93.7 2.55s-.21.8.62 1.5a1.56 1.56 0 01.43 2.12 6.41 6.41 0 00-.78 2.25 38.54 38.54 0 005-58.66"/><path class="cls-4" d="M67 14.22a38.31 38.31 0 00-22.09-11 9.74 9.74 0 01.83 3.81c1.2-.52 2.12-.8 2.61-1.6a.88.88 0 011.6-.06c.43.59.43 1.32-.71 2A17.91 17.91 0 0147 8.61c-.24.12 0 .34.25.8a7.89 7.89 0 011.1 4v.07a29.36 29.36 0 0117.73 40.78 3.64 3.64 0 01.71 2.2 3.6 3.6 0 01-.15 1.71 17 17 0 01-2.36 3.26.89.89 0 01-1.2-.19c-.27-.4-.3-.18-.52 0s-1 1.29-1.13 1.57a1.31 1.31 0 00-.4 1.65c.4 1.11.86 1.93.7 2.55s-.21.8.62 1.5a1.56 1.56 0 01.43 2.12 6.41 6.41 0 00-.78 2.25 38.54 38.54 0 005-58.66z"/><path class="cls-3" d="M22.66 70a7.83 7.83 0 01.46-4.26A28.54 28.54 0 0119 62.22a29.29 29.29 0 01.61-42 1.55 1.55 0 01.2-.32 10.3 10.3 0 01-3 .44 10 10 0 01-7.16-2.95 38.6 38.6 0 0014.7 59.49 18 18 0 01.8-2.7 5.35 5.35 0 00-1-4 7.88 7.88 0 00-1.49-.18"/><path class="cls-4" d="M22.66 70a7.83 7.83 0 01.46-4.26A28.54 28.54 0 0119 62.22a29.29 29.29 0 01.61-42 1.55 1.55 0 01.2-.32 10.3 10.3 0 01-3 .44 10 10 0 01-7.16-2.95 38.6 38.6 0 0014.7 59.49 18 18 0 01.8-2.7 5.35 5.35 0 00-1-4 7.88 7.88 0 00-1.49-.18z"/><path class="cls-3" d="M32.89 3.52a38.32 38.32 0 00-7.1 2A10.13 10.13 0 0125 16.14a29.71 29.71 0 016.83-2.89l.47-.44a8 8 0 01-1-7 5.18 5.18 0 011.67-2.27"/><path class="cls-4" d="M32.89 3.52a38.32 38.32 0 00-7.1 2A10.13 10.13 0 0125 16.14a29.71 29.71 0 016.83-2.89l.47-.44a8 8 0 01-1-7 5.18 5.18 0 011.59-2.29z"/><path class="cls-5" d="M48.3 15.14a2.61 2.61 0 011.44 3.1A11.06 11.06 0 0149 19.9c-.1.46-1.06 1.24-1.37 1.85a2.05 2.05 0 00-.26 1.39 8.05 8.05 0 002.21 1.29c.48.17.44.29.24.61.34 0 .52.24.83.61s1.23.16 1.78-.12a1.37 1.37 0 011.81.31A11.25 11.25 0 0156 29a16.84 16.84 0 001 2.3c.12.18-.43 3.55-.58 4.9s-.28 1.94-.31 2.15.86-.77.89.4a45.21 45.21 0 001 6.12c.13.56.26 1.07.39 1.48.37.07.67.8.89 1.94s.67 1.84.7 2.39.19.64.37.74.13.36-.43 1a3.93 3.93 0 01.43.4c.16-.16.59-.65.59-.65s1.68.68 2 .8.8-.79 1.9-.31a2.43 2.43 0 01.87 1 28.66 28.66 0 00-17.31-39.4v1M57.16 63.39c-.42-.22-.7.09-.91-1.6a3.05 3.05 0 00-.77-1.44 1.4 1.4 0 01-.19-1.35 5.73 5.73 0 00.28-2.08 1.62 1.62 0 011-1.75A2.62 2.62 0 0156 54c-1.26-.41-1.51-.45-1.77-1.05a16.33 16.33 0 01-.81-3.33 7.8 7.8 0 01-.12-1.11c-.4-.76-1.3-2.45-2-3.72-.25-.48-.48-.89-.65-1.18-.61-1.08 0-2.49.31-3.32a3.39 3.39 0 00.27-2.39 6.77 6.77 0 01-.33-1.35c-.06-.33-.34-.76-.71.4s-1.07 2.88-1.47 4.66a12 12 0 00-.33 3.18 6 6 0 00.54 2.31c.8 1.66 1.75 3.19 1.63 4.11a2.73 2.73 0 01-.34 1.11 31.94 31.94 0 01-1.32 6.16 59.94 59.94 0 00-2.3 6 36.84 36.84 0 01-1.6 5.15A28.59 28.59 0 0057.35 64c.1-.26.08-.5-.19-.63M23.08 23.14a4 4 0 001.36 1.14c1.5.77 1.81 1.32 1.81 2.64s.25 4 .67 4.48a4.9 4.9 0 00.65-.8 8.76 8.76 0 002.67 3.19c.09.06.05.4.27.46.46.12 3.44.58 3.53 1.2a11.67 11.67 0 001.78-2.67 15.74 15.74 0 012-3.1 2.41 2.41 0 010-.67 4.34 4.34 0 01-1 .86c-.49.21-2.21.95-3.43 1.56-.43.21-1.2.46-1.51-1.78a7.62 7.62 0 01.22-3.92 1.07 1.07 0 011.42-.73 23.12 23.12 0 002.33.67c.06-.24.28-.7-.55-.79a4.76 4.76 0 01-3-1.7 3.18 3.18 0 01-.62-1.83c-1.75.27-5.77.8-6.66 1s-1.64.4-1.93-1.62c-.12-.86-.34-2.06.28-1.63a2.83 2.83 0 012.36-.61.84.84 0 01.57.38 2.87 2.87 0 01-.2 1.24c-.27.82-.78 1.41.89 1s4-.74 4.55-.86a5 5 0 011.15-2.19 2.7 2.7 0 00.71-1.44c0-.22-.17-.27-.46 0a2.82 2.82 0 01-2.3.67c-.37-.09-.83-.8-1.08-1.2a10.54 10.54 0 011.34-1.88 28.37 28.37 0 00-9 4.85 7.55 7.55 0 00.25 2 5.74 5.74 0 001 2.08M25.21 65a2.39 2.39 0 013.22.83c.27.37.49 1.44 2.85.49a14.76 14.76 0 01-2.7-5.67c-1.08-3.78-3.54-8.07-2.64-10-.52-.49-1.13-2.39-1.78-2.18-.43.15-1 .16-.55-1.29a9 9 0 011.27-2.37 21.82 21.82 0 014.31-4.19c.19-.15.22-.28.1-.4a3.77 3.77 0 00-.65-.58.49.49 0 00-.61.12 4.4 4.4 0 01-.68.52c-.18.13-1.65-1.31-2.42-2.36a4.49 4.49 0 00-1.81-1.5c.31-.34 1-1.07.74-1a1.9 1.9 0 01-2.09-.62c-1-1.07-.61-1.62-.83-1.77a2.76 2.76 0 01-2.14-1.2c-.8-1.26-1.16-1.83-.49-2.73a1.37 1.37 0 00.36-1.26c-.09-.58 0-.95.77-1.69s1.23-1.41 1.57-1.34-.51-.93-1-1.67a3.44 3.44 0 01-.28-.51 4.63 4.63 0 01-.36-1.36 28.67 28.67 0 004.12 43.87 1.15 1.15 0 011.7-.1"/><path class="cls-6" d="M8.91 4.56a10.13 10.13 0 015.23 3.81c.21.29.42.24.52 0a10.38 10.38 0 00.55-3.07 8.57 8.57 0 011-4.79 9.59 9.59 0 00-7.3 4"/><path class="cls-7" d="M8.91 4.56a10.13 10.13 0 015.23 3.81c.21.29.42.24.52 0a10.38 10.38 0 00.55-3.07 8.57 8.57 0 011-4.79 9.59 9.59 0 00-7.3 4.05z"/><path class="cls-6" d="M7.39 12.45c4.72.43 6.19-2.21 6.5-2.61s-.06-.65-.21-.86a9.87 9.87 0 00-5.16-3.81 9.47 9.47 0 00-1.4 5 9.72 9.72 0 00.27 2.3"/><path class="cls-7" d="M7.39 12.45c4.72.43 6.19-2.21 6.5-2.61s-.06-.65-.21-.86a9.87 9.87 0 00-5.16-3.81 9.47 9.47 0 00-1.4 5 9.72 9.72 0 00.27 2.28z"/><path class="cls-6" d="M26.13 12.26c-2-.83-4.36-.06-6 1.41s-2.55 2.61-3.13 6.1h-.22a9.57 9.57 0 01-6.48-2.51 17.41 17.41 0 008-4.63 16.23 16.23 0 004.44-7c.37-1.41-.15-.59-.42.06A20.28 20.28 0 0117.69 12a19.89 19.89 0 01-7.85 4.87 9.56 9.56 0 01-2.18-3.55c1 .06 4.07-.3 5.62-1.57 2-1.67 2.27-3.65 2.54-6.47s.69-3.66 1.37-4.73a9.62 9.62 0 019.18 9.61 9.75 9.75 0 01-.24 2.11"/><path class="cls-7" d="M26.13 12.26c-2-.83-4.36-.06-6 1.41s-2.55 2.61-3.13 6.1h-.22a9.57 9.57 0 01-6.48-2.51 17.41 17.41 0 008-4.63 16.23 16.23 0 004.44-7c.37-1.41-.15-.59-.42.06A20.28 20.28 0 0117.69 12a19.89 19.89 0 01-7.85 4.87 9.56 9.56 0 01-2.18-3.55c1 .06 4.07-.3 5.62-1.57 2-1.67 2.27-3.65 2.54-6.47s.69-3.66 1.37-4.73a9.62 9.62 0 019.18 9.61 9.75 9.75 0 01-.24 2.1z"/><path class="cls-6" d="M25.86 13.23c-.46-.65-2.1-1-4.7.67-.25.16-.42.26-.12.55a9.66 9.66 0 012 3 9.61 9.61 0 002.86-4.23"/><path class="cls-7" d="M25.86 13.23c-.46-.65-2.1-1-4.7.67-.25.16-.42.26-.12.55a9.66 9.66 0 012 3 9.61 9.61 0 002.82-4.22z"/><path class="cls-6" d="M22.23 18.06a13.53 13.53 0 00-1.53-3c-.28-.36-.34-.52-.86-.06a8.33 8.33 0 00-2.31 4.75 9.55 9.55 0 004.7-1.68"/><path class="cls-7" d="M22.23 18.06a13.53 13.53 0 00-1.53-3c-.28-.36-.34-.52-.86-.06a8.33 8.33 0 00-2.31 4.75 9.55 9.55 0 004.7-1.69z"/><path class="cls-8" d="M34.06 78.38c.19-.09.47-.21.59-.12s.86.62 1.32 1 .62.53.25.74-.71.43-.65.25a.62.62 0 00-.09-.71c-.24-.24-.85-.71-1.1-.92l-.32-.25"/><path class="cls-9" d="M34.06 78.38c.19-.09.47-.21.59-.12s.86.62 1.32 1 .62.53.25.74-.71.43-.65.25a.62.62 0 00-.09-.71c-.24-.24-.85-.71-1.1-.92z"/><path class="cls-8" d="M32.32 78.89a.37.37 0 000 .55c.19.19 1.21 1 1.38 1.22a.75.75 0 00.69.16c.28-.06-.32.34-.55.39a.8.8 0 01-.74-.21l-1.9-1.79c-.27-.26.08-.26.32-.29s.47 0 .8 0"/><path class="cls-9" d="M32.32 78.89a.37.37 0 000 .55c.19.19 1.21 1 1.38 1.22a.75.75 0 00.69.16c.28-.06-.32.34-.55.39a.8.8 0 01-.74-.21l-1.9-1.79c-.27-.26.08-.26.32-.29s.48 0 .8-.03z"/><path class="cls-8" d="M30.61 71c.09.28.12.54-.31.47s-2.24-.22-2.76-.22c-.12 0-.08-.31-.26-.19s-.11.4-.11.71v.7c0 .21.21.77 1 .82a4 4 0 001.85-.22c.25-.17 0-.44-.24-.44a12 12 0 01-1.9 0c-.29-.11-.48-.45-.28-.59s.72 0 1.2 0a7.06 7.06 0 011.1 0c.12.08.29 0 .29.63 0 .12.29.17.43.17s.2.23.18.54 0 .36-.53.36h-3.28c-.14 0-.16-.1-.17-.38s-.11-2.19-.14-2.35.37-.16.69-.1a9.54 9.54 0 001.24.15c.52 0 1.32.11 1.32.11s.4 0 .45-.08.16-.15.2-.06"/><path class="cls-9" d="M30.61 71c.09.28.12.54-.31.47s-2.24-.22-2.76-.22c-.12 0-.08-.31-.26-.19s-.11.4-.11.71v.7c0 .21.21.77 1 .82a4 4 0 001.85-.22c.25-.17 0-.44-.24-.44a12 12 0 01-1.9 0c-.29-.11-.48-.45-.28-.59s.72 0 1.2 0a7.06 7.06 0 011.1 0c.12.08.29 0 .29.63 0 .12.29.17.43.17s.2.23.18.54 0 .36-.53.36h-3.28c-.14 0-.16-.1-.17-.38s-.11-2.19-.14-2.35.37-.16.69-.1a9.54 9.54 0 001.24.15c.52 0 1.32.11 1.32.11s.4 0 .45-.08.19-.09.23-.09z"/><path class="cls-10" d="M19.59 28.82c-.39-.12-.7.34-.89.71a1.29 1.29 0 00.19 1.59c.58.83.95 1.32 2 1.26a1.65 1.65 0 001.08-.61c.15-.22.18.15-.07.52a1.71 1.71 0 000 1.81 2 2 0 002.67.34 5.14 5.14 0 002-2c.21-.4.21-.58 0-.83a6.88 6.88 0 01-1.08-3.71c-.09-1.38.16-2.27-.7-2.76s-2.79-1.68-3.08-3.95c-.09-.86 0-2.18-.89-1.48a2.24 2.24 0 00-.95 1.72 2.72 2.72 0 00.71 1.72A16.68 16.68 0 0021.71 25c.34.27.55.49.83.52a15.26 15.26 0 011.65.12c.28.09.43.43-.24.43a18.87 18.87 0 00-2.18.25c-.46.06-.89.09-1.1 1s-.52 2-.55 2.33-.22.52-.22.71.37 1.07 1.2.18a6.28 6.28 0 001.32-2.21c.15-.43.33-.37.18.31a6.18 6.18 0 00.12 2.94 1.46 1.46 0 001.94.83 1.49 1.49 0 01.73-.22c.25 0-.05.47-.26.65s-.92 1-2.16-.15a2.85 2.85 0 01-.83-1.69.29.29 0 00-.52-.12c-.15.21-1 1-1.57.43s-.82-.86-.49-2c.07-.21.18-.44 0-.49"/><path class="cls-11" d="M19.59 28.82c-.39-.12-.7.34-.89.71a1.29 1.29 0 00.19 1.59c.58.83.95 1.32 2 1.26a1.65 1.65 0 001.08-.61c.15-.22.18.15-.07.52a1.71 1.71 0 000 1.81 2 2 0 002.67.34 5.14 5.14 0 002-2c.21-.4.21-.58 0-.83a6.88 6.88 0 01-1.08-3.71c-.09-1.38.16-2.27-.7-2.76s-2.79-1.68-3.08-3.95c-.09-.86 0-2.18-.89-1.48a2.24 2.24 0 00-.95 1.72 2.72 2.72 0 00.71 1.72A16.68 16.68 0 0021.71 25c.34.27.55.49.83.52a15.26 15.26 0 011.65.12c.28.09.43.43-.24.43a18.87 18.87 0 00-2.18.25c-.46.06-.89.09-1.1 1s-.52 2-.55 2.33-.22.52-.22.71.37 1.07 1.2.18a6.28 6.28 0 001.32-2.21c.15-.43.33-.37.18.31a6.18 6.18 0 00.12 2.94 1.46 1.46 0 001.94.83 1.49 1.49 0 01.73-.22c.25 0-.05.47-.26.65s-.92 1-2.16-.15a2.85 2.85 0 01-.83-1.69.29.29 0 00-.52-.12c-.15.21-1 1-1.57.43s-.82-.86-.49-2c.07-.21.18-.44.03-.49z"/><path class="cls-10" d="M20.21 27.11c-.13.39-.25.92-.31 1.1s-.33.58-.58.06a1 1 0 01.15-1.27c.12-.12.31-.37.43-.24s.34.3.31.4"/><path class="cls-11" d="M20.21 27.11c-.13.39-.25.92-.31 1.1s-.33.58-.58.06a1 1 0 01.15-1.27c.12-.12.31-.37.43-.24s.34.24.31.35z"/><path class="cls-10" d="M21.59 25.69c-.25.13-.79.13-1 .56-.13.27-.62 0-.37-.37s.43-.31.58-.4.22-.37.52-.21.37.36.25.42"/><path class="cls-11" d="M21.59 25.69c-.25.13-.79.13-1 .56-.13.27-.62 0-.37-.37s.43-.31.58-.4.22-.37.52-.21.39.36.27.42z"/><path class="cls-10" d="M41.8 10.51a5.71 5.71 0 00-2.45 1.17c-.8.55-3.68 3-4.36 3.46.71.37.89 1.11.65 2.34-.06.27 0 .36.18.18s1-1.1 1-1.84a2.25 2.25 0 00-.43-1.26c-.06-.09.25-.46.58.31a2.87 2.87 0 01-.76 3A4.18 4.18 0 0134 19.29c-.43.21-.86.55-.46 1.19a1 1 0 001.47.19 2.27 2.27 0 011.72-.37c1 .09 1.31-.53.64-1.2-.21-.21-.76-.7-.09-.7.4 0 .89.89 1.17 1.13a3.23 3.23 0 001.71.4c.83.06 2.12.37 2.12 1.16 0 .5-.26.64-.61.25-.14-.15-.34.09-.49.24-.53.53-1.86 1.94-2.81 2.18s-1.3 0-2.56-.7-2.44-1.35-2.81-1.57-1-.7-.71.28a4.17 4.17 0 002.82 2.54 12.23 12.23 0 012.27.92c.37.19.16.37-.33.31s-.89-.43-.52.4a2.17 2.17 0 002.6 1.5c1.69-.21 1.74-.57 2.79-2.33.19-.31.37-.09.25.71a8.53 8.53 0 011.83-.65 4.07 4.07 0 002.6-2.11c.43-.8.67-1.07.59-1.9 0-.31.43-.92.89-1.35s1.72-2.06 1.07-3.22-1.72-.59-2.24.27a6.14 6.14 0 00-1.13 3.28.78.78 0 00-.92.31c-.1.15-1.45 0-1.91.09s-.61-.15-.12-.8 2.22-3 2.12-4.72a2.77 2.77 0 01.12-1c.11-.51.15-.51-.47-.86-.41-.22-.44-.86-.51-1.35s-.18-.52-.77-.4a1.77 1.77 0 01-1.5-.89"/><path class="cls-12" d="M41.8 10.51a5.71 5.71 0 00-2.45 1.17c-.8.55-3.68 3-4.36 3.46.71.37.89 1.11.65 2.34-.06.27 0 .36.18.18s1-1.1 1-1.84a2.25 2.25 0 00-.43-1.26c-.06-.09.25-.46.58.31a2.87 2.87 0 01-.76 3A4.18 4.18 0 0134 19.29c-.43.21-.86.55-.46 1.19a1 1 0 001.47.19 2.27 2.27 0 011.72-.37c1 .09 1.31-.53.64-1.2-.21-.21-.76-.7-.09-.7.4 0 .89.89 1.17 1.13a3.23 3.23 0 001.71.4c.83.06 2.12.37 2.12 1.16 0 .5-.26.64-.61.25-.14-.15-.34.09-.49.24-.53.53-1.86 1.94-2.81 2.18s-1.3 0-2.56-.7-2.44-1.35-2.81-1.57-1-.7-.71.28a4.17 4.17 0 002.82 2.54 12.23 12.23 0 012.27.92c.37.19.16.37-.33.31s-.89-.43-.52.4a2.17 2.17 0 002.6 1.5c1.69-.21 1.74-.57 2.79-2.33.19-.31.37-.09.25.71a8.53 8.53 0 011.83-.65 4.07 4.07 0 002.6-2.11c.43-.8.67-1.07.59-1.9 0-.31.43-.92.89-1.35s1.72-2.06 1.07-3.22-1.72-.59-2.24.27a6.14 6.14 0 00-1.13 3.28.78.78 0 00-.92.31c-.1.15-1.45 0-1.91.09s-.61-.15-.12-.8 2.22-3 2.12-4.72a2.77 2.77 0 01.12-1c.11-.51.15-.51-.47-.86-.41-.22-.44-.86-.51-1.35s-.18-.52-.77-.4a1.77 1.77 0 01-1.52-.9z"/><path class="cls-10" d="M38.21 20.11c-.17.39-.63.75-1.7.63-.54-.06-1.06-.07-1.15.35s-.31.28-.64.26-.74-.1-.76 0a10.34 10.34 0 002 1.26c.51.23 1.25.78 1.84.72.8-.08 1.49-.47 2.67-1.72.49-.51.88-.78.41-1a2.39 2.39 0 00-1-.18 3.3 3.3 0 01-1.64-.34"/><path class="cls-12" d="M38.21 20.11c-.17.39-.63.75-1.7.63-.54-.06-1.06-.07-1.15.35s-.31.28-.64.26-.74-.1-.76 0a10.34 10.34 0 002 1.26c.51.23 1.25.78 1.84.72.8-.08 1.49-.47 2.67-1.72.49-.51.88-.78.41-1a2.39 2.39 0 00-1-.18 3.3 3.3 0 01-1.67-.32z"/><path class="cls-10" d="M32.49 20.13c-.41 0-.46-.32-.18-.78a3.87 3.87 0 01.9-1.17 1 1 0 00.37.55 1.43 1.43 0 00-.51 1.27"/><path class="cls-12" d="M32.49 20.13c-.41 0-.46-.32-.18-.78a3.87 3.87 0 01.9-1.17 1 1 0 00.37.55 1.43 1.43 0 00-.51 1.27z"/><path class="cls-2" d="M39.38 15.6c.07-.42 0-.78-.62-.27-.58-.43-1.1-.95-1.29-1.08a.3.3 0 01-.06-.52c.22-.21.6.17.51-.47 0-.22.47-.08.6-.14s-.06-.36.52-.21c.18 0 .11-.31.47-.25s.56.2.63-.09.16-.47.63-.19c.32.2.45.08.48-.07s.32-.06.58.09a5.62 5.62 0 011.67 1.37c.19.21.28.44.16.47s-.27 0-.3.25-.15.46-.29.18-.17.05-.27-.25-.25.11-.33-.09-.19.05-.29-.18-.33.14-.43 0-.29.18-.44 0-.15.22-.4.12-.14.24-.38.13-.17.3-.4.24-.22.05-.26.31a11.3 11.3 0 00-.14 1.52c0 .24.52.18 1.29.07a6.62 6.62 0 002.82-1.1c.28-.23.52-.21.57-.14s-.08.32-.28.49a3.62 3.62 0 01-1.9.94 14.91 14.91 0 01-2.36.37c-.2-.05.07.29.43.21.18 0 .58.69 1.22.69a3.34 3.34 0 001.48-.8c.22-.17 1-.52.48 0s-1.08 1.09-1.63 1.1a3.74 3.74 0 01-2-.56c-.58-.4-.79-.62-.69-1.23s.13-.74.16-.91"/><path class="cls-12" d="M39.38 15.6c.07-.42 0-.78-.62-.27-.58-.43-1.1-.95-1.29-1.08a.3.3 0 01-.06-.52c.22-.21.6.17.51-.47 0-.22.47-.08.6-.14s-.06-.36.52-.21c.18 0 .11-.31.47-.25s.56.2.63-.09.16-.47.63-.19c.32.2.45.08.48-.07s.32-.06.58.09a5.62 5.62 0 011.67 1.37c.19.21.28.44.16.47s-.27 0-.3.25-.15.46-.29.18-.17.05-.27-.25-.25.11-.33-.09-.19.05-.29-.18-.33.14-.43 0-.29.18-.44 0-.15.22-.4.12-.14.24-.38.13-.17.3-.4.24-.22.05-.26.31a11.3 11.3 0 00-.14 1.52c0 .24.52.18 1.29.07a6.62 6.62 0 002.82-1.1c.28-.23.52-.21.57-.14s-.08.32-.28.49a3.62 3.62 0 01-1.9.94 14.91 14.91 0 01-2.36.37c-.2-.05.07.29.43.21.18 0 .58.69 1.22.69a3.34 3.34 0 001.48-.8c.22-.17 1-.52.48 0s-1.08 1.09-1.63 1.1a3.74 3.74 0 01-2-.56c-.58-.4-.79-.62-.69-1.23s.19-.74.22-.91z"/><path class="cls-2" d="M48.3 17.54c-.35.25-.55.33-.58.76s-.12 1.17-.28 1.23-.18-.4-.24-.24-.36.12-.43-.08-.8-.08-.19-1A4.12 4.12 0 0148 16.83c.4-.18 1.08.19.34.71"/><path class="cls-12" d="M48.3 17.54c-.35.25-.55.33-.58.76s-.12 1.17-.28 1.23-.18-.4-.24-.24-.36.12-.43-.08-.8-.08-.19-1A4.12 4.12 0 0148 16.83c.36-.18 1 .17.3.71z"/><path class="cls-10" d="M63.31 54c-.14-.36.11-1 .88-.54s1.35.8.79 2.49-.98 2.65-1.16 3.36-1 1.59-.77.4a10.72 10.72 0 00.31-3.38c-.21-1.35.22-1.27.08-1.88a2.92 2.92 0 00-.13-.46"/><path class="cls-11" d="M63.31 54c-.14-.36.11-1 .88-.54s1.35.8.79 2.49-.98 2.65-1.16 3.36-1 1.59-.77.4a10.72 10.72 0 00.31-3.38c-.21-1.35.22-1.27.08-1.88a2.92 2.92 0 00-.13-.45z"/><path class="cls-10" d="M66.21 55.44a4.56 4.56 0 01.09 2.8A22.21 22.21 0 0164.37 61c-.43.43-.76.25-.49-.21a4.77 4.77 0 00.65-1.29 2 2 0 01.33-1.16 32.71 32.71 0 001.08-3.25c.06-.19.21.21.27.39"/><path class="cls-11" d="M66.21 55.44a4.56 4.56 0 01.09 2.8A22.21 22.21 0 0164.37 61c-.43.43-.76.25-.49-.21a4.77 4.77 0 00.65-1.29 2 2 0 01.33-1.16 32.71 32.71 0 001.08-3.25c.06-.23.21.17.27.35z"/><path class="cls-10" d="M58.3 61.12a8.52 8.52 0 00-.58-1.81c.24-.68 1.05-2.49 2.42-3 .15-.06.25-.21.18-.33s.19-.22.31.21.34 1.66.34 1.66a2.15 2.15 0 01-.13.85 5.81 5.81 0 00-.12 1.63c.09.43.25.74 1.11.55.43-.09.4-.21.52-.58s.46-1.41.58-2a7.3 7.3 0 00-.11-2.38c-.12-.37 0-1.61 0-1.86a1.17 1.17 0 00-.92-.86c-.77-.24-1-.3-1.5.22s-.71.74-1 1-.86 0-.33-.46 1-1 1.16-1.13l-.15-.4h-.28a5.66 5.66 0 01-2.67 1.47c-.27.06-.79.09-.43.58.1.13.13.46.34.34s.55-.68.86-.43-.06.83-.43 1.1a10.29 10.29 0 01-1 .71c-.28.15-.43.31-.4.8a5.08 5.08 0 01-.21 2 1.16 1.16 0 00.12 1.32 4.59 4.59 0 01.76 1.6c.13.73.19.92.68.85a1 1 0 00.86-.58"/><path class="cls-11" d="M58.3 61.12a8.52 8.52 0 00-.58-1.81c.24-.68 1.05-2.49 2.42-3 .15-.06.25-.21.18-.33s.19-.22.31.21.34 1.66.34 1.66a2.15 2.15 0 01-.13.85 5.81 5.81 0 00-.12 1.63c.09.43.25.74 1.11.55.43-.09.4-.21.52-.58s.46-1.41.58-2a7.3 7.3 0 00-.11-2.38c-.12-.37 0-1.61 0-1.86a1.17 1.17 0 00-.92-.86c-.77-.24-1-.3-1.5.22s-.71.74-1 1-.86 0-.33-.46 1-1 1.16-1.13l-.15-.4h-.28a5.66 5.66 0 01-2.67 1.47c-.27.06-.79.09-.43.58.1.13.13.46.34.34s.55-.68.86-.43-.06.83-.43 1.1a10.29 10.29 0 01-1 .71c-.28.15-.43.31-.4.8a5.08 5.08 0 01-.21 2 1.16 1.16 0 00.12 1.32 4.59 4.59 0 01.76 1.6c.13.73.19.92.68.85a1 1 0 00.86-.58z"/><path class="cls-6" d="M58.48 62.53A3.37 3.37 0 0057.9 64c0 .52-.52 1.08-.46 1.32s.74.89 1.14 1.57a6.21 6.21 0 01.92 3.37 23.1 23.1 0 01-.62 4.29.79.79 0 00.25 1 4.81 4.81 0 011.47 3 12.22 12.22 0 00.58 2.85c.13.09.09.25.09.58a11.55 11.55 0 00.53 2.64c.21.37.18-2.08.15-2.79a44.42 44.42 0 01.15-4.57 1.78 1.78 0 00-.18-1.65 3.61 3.61 0 01-.61-3.47c.55-1.78 1.44-1.75 1.16-2.45a5.25 5.25 0 00-1.13-1.6c-.37-.4-.08-1.35-.1-1.75 0-.73-.61-.86-.67-1.68a3 3 0 01.49-2.34c.61-.82-.22-.79-.49-1.31a3.13 3.13 0 01-.18-2.3c.12-.56.06-.71-.1-.77s-.79-.18-.79-.18l-1 1.9a3.63 3.63 0 01.26 1.34"/><path class="cls-7" d="M58.48 62.53A3.37 3.37 0 0057.9 64c0 .52-.52 1.08-.46 1.32s.74.89 1.14 1.57a6.21 6.21 0 01.92 3.37 23.1 23.1 0 01-.62 4.29.79.79 0 00.25 1 4.81 4.81 0 011.47 3 12.22 12.22 0 00.58 2.85c.13.09.09.25.09.58a11.55 11.55 0 00.53 2.64c.21.37.18-2.08.15-2.79a44.42 44.42 0 01.15-4.57 1.78 1.78 0 00-.18-1.65 3.61 3.61 0 01-.61-3.47c.55-1.78 1.44-1.75 1.16-2.45a5.25 5.25 0 00-1.13-1.6c-.37-.4-.08-1.35-.1-1.75 0-.73-.61-.86-.67-1.68a3 3 0 01.49-2.34c.61-.82-.22-.79-.49-1.31a3.13 3.13 0 01-.18-2.3c.12-.56.06-.71-.1-.77s-.79-.18-.79-.18l-1 1.9a3.63 3.63 0 01.26 1.34z"/><path class="cls-5" d="M49.62 25.2a24.56 24.56 0 00-2.48 5.16c-.56 1.59-1.81 5.39-.92 7.91s2.63.92 3 0 1-2.58 1.2-3 .27-.67.61.34a29.44 29.44 0 01.83 3.65 16.17 16.17 0 01-.7 1.78c-.37 1-.59 1.62-.22 2.21a45.78 45.78 0 012.27 4.14c.28.64.52.76 1.26.58a27.36 27.36 0 003-1c.52-.25.28-.68.13-1.2-.24-.79-1.17-5.21-1.17-5.79s.16-1.35-.61-.5c-.28.31-.65 0-.55-.42s1-6.41 1.07-7.15c-.52-1.14-2.06-4.72-2.49-5.37s-.58-.67-1.22-.34-2.09.86-2.61-.36c-.09-.22-.25-.71.12-.77l-.27-.09a2.45 2.45 0 00-.31.3M57.66 47.26a15.92 15.92 0 01-3.32 1.28c-.81.13-.61.34-.46 1s.62 2.46.86 3.1.59.64 1.23.62a6.37 6.37 0 003.83-1.57 12.62 12.62 0 01-1.1-3.13c-.19-.86-.19-1.74-1-1.25M40.08 29.56a.84.84 0 01-.76.49c-.49 0-.89-.15-1.2.28a16.22 16.22 0 00-2.36 3.74c.37.76.86 2.14 1.22 3.13 1.2-1 5-4.74 5.74-5.46.28-.28.31-.52-.09-.8s-1.87-1.2-2.12-1.35-.37-.15-.43 0M30.42 35A15.43 15.43 0 0129 38.85c.31.49.55.92.92 1.08a24.16 24.16 0 002.94-2.67 6.25 6.25 0 001-1.57c0-.18-.22-.24-.49-.18s-1.42-.39-2.52-.61c-.31-.07-.4-.07-.43.06M29.75 34a6.7 6.7 0 01-1.91-2c-.39-.67-.46-.61-.61-.12A9.38 9.38 0 0126.1 34c-.4.52-1.44 1.87-1.72 2.17s0 .43.24.68 1.51 1.79 1.78 2.15.59 1 1.32.27a7.86 7.86 0 002-3.16c.4-1.26.43-1.91.76-1.84v-.26l-.09-.15-.19-.16a.31.31 0 010 .33c-.07.12-.32.06-.47 0M48.52 5.82c-.83 1-2.49 1.84-5.28 2.55A18.22 18.22 0 0036.65 12a33 33 0 01-5.37 3.86c-.37.15-1.15.67-.15.8.73.09 1.25-.34 2.85-1.51A36.17 36.17 0 0038 12a13.3 13.3 0 015.39-2.77c2.21-.61 5.11-1.57 5.95-2.48.4-.43.43-.64.07-1s-.59-.28-.92.12M34.44 15.47c-.24.13-.34.27-.61 1.16s-.25 1.41 0 1.63a.83.83 0 00.54.17c.09 0 .18 0 .16-.23a2.08 2.08 0 01.8-1.87c.16-.1 0-.74-.56-.65-.19 0 0-.38-.31-.21M25 19c.43 0 .71 0 .68.49s-.25 1.16-.28 1.62 0 .65.25.65-.4.27-.77.34-.94.27-1.23-1.29c-.09-.49-.06-1.26-.12-1.44A3.62 3.62 0 0125 19M33.11 20.29c.12.62.29.6.16.7s-.25-.24-.75-.16-4.34.68-4.61.71c-.86.09-.91-.05-.11-.22s3.71-.69 4.58-.87M28.46 67.19c.4.25 1.35.52 3-.15s3.44-.22 3.71.95a4.62 4.62 0 01-.21 3.31 1 1 0 01-1.32.34c-.89-.28-2.94-1.23-3.53-1.5a6.09 6.09 0 00-2.27-.59 3 3 0 01-.06-2c.19-.37.19-.74.34-.64l.37.24M34.9 72.62a1.37 1.37 0 011.35.89c.18.58 1.38.74 1.9.71s.43.24.4.55-.12 1.22-.12 1.59a17.26 17.26 0 00.15 1.9c.06.25-.15.37-.43.49a2.2 2.2 0 01-1.93 0c-.34-.24-.74-.58-.34-.61s-.49-3.5-.74-4.11-1-1.38-.24-1.38M24.35 65.38c.16.06.24.22.37.43a.46.46 0 010 .61 6.51 6.51 0 00-.72 3.25 2.33 2.33 0 00-.92-.09 10.15 10.15 0 01.28-3.46c.3-.68.61-.86 1-.74M24.41 84.09a11.77 11.77 0 003.28 2.64 5.05 5.05 0 002.73.52c.77-.08.62.24 0 .34a5.56 5.56 0 01-2.94-.4 9.71 9.71 0 01-3.32-2.73c-.21-.31 0-.65.25-.37M40.39 81.94a17.39 17.39 0 01-2.88 1.14 4.83 4.83 0 01.15 1 7.17 7.17 0 003-1.14c.24-.15.33-.33.24-.55s-.21-.55-.55-.4M33.12 79.43c-.15-.16.72-.34.9-.34a6.2 6.2 0 01.76.63c.09.09 0 .15-.05.21a3.13 3.13 0 01-.87.22c-.28-.25-.66-.65-.74-.72M34.75 66.67c-.25-.18-.22-.28-.1-.46a1.07 1.07 0 01.37-.37c.12-.06.31-.09.52.22s1.38 2.24 1.63 2.76.55.18.43-.13-.37-.82-.46-1a14.42 14.42 0 00.67-3.69 6.63 6.63 0 00-.43-2.45 14.64 14.64 0 003.35-.22c.7-.21.12-.27-.16-.24a27.28 27.28 0 01-3.71-.09 10.09 10.09 0 01-5.76-2.69c-.13-.16-.86-.1-.25.39a9.57 9.57 0 004.48 2.3c.52.09 1.35.24 1.47 2.14a20.77 20.77 0 01-.06 3.32c0 .18-.12.24-.28 0a5.25 5.25 0 00-1-1.07.56.56 0 00-.7.06 6.12 6.12 0 00-.77.74M29.81 72.67a12 12 0 01-1.9 0c-.29-.11-.48-.45-.28-.59s.72 0 1.2 0a7.06 7.06 0 011.1 0c.12.08.29 0 .29.63M26.46 81.08c-.39-.24-.86-1.38-.95-3.65a8.12 8.12 0 01.49-2.66c.24-.62-.16-.37-.25-.16a9 9 0 00-.49 1.72 8.47 8.47 0 000 3c.25 1.38.37 1.8.43 2"/><path class="cls-8" d="M39 5.76c.06-.15.11-.31.17-.45l-.64.35c.14.19.32.5.47.1"/><path class="cls-9" d="M39 5.76c.06-.15.11-.31.17-.45l-.64.35c.16.19.34.5.47.1z"/><path class="cls-8" d="M44.56 6.07c-.09-.33-.38.18-.77.64a.58.58 0 01-1 0 2.65 2.65 0 00-.51-.93c-.34-.45.32-1.06.6-1.14a3 3 0 00.72-.21c.08-.06-.06-.52-.14-.87A23.72 23.72 0 0039.84 5c.36.14.25.84.21.94s-.17.72.11.35.38-.5.67-.6.62-.07.63.36-.18.39-.24.67 0 .26.14.32.22.25.12.54-.57.32-1 .27-.46 0-.33.16a1.26 1.26 0 01.32.61 16.92 16.92 0 014.08-1.27 4.13 4.13 0 000-1.27"/><path class="cls-9" d="M44.56 6.07c-.09-.33-.38.18-.77.64a.58.58 0 01-1 0 2.65 2.65 0 00-.51-.93c-.34-.45.32-1.06.6-1.14a3 3 0 00.72-.21c.08-.06-.06-.52-.14-.87A23.72 23.72 0 0039.84 5c.36.14.25.84.21.94s-.17.72.11.35.38-.5.67-.6.62-.07.63.36-.18.39-.24.67 0 .26.14.32.22.25.12.54-.57.32-1 .27-.46 0-.33.16a1.26 1.26 0 01.32.61 16.92 16.92 0 014.08-1.27 4.13 4.13 0 00.01-1.28z"/><path class="cls-8" d="M34.87 12.12c-.14-.27-.34-.32-.42-.1s-.23.93-.7 1.13a2.78 2.78 0 01-.36.13 3.33 3.33 0 00.56.49c.37-.4.72-.76 1.06-1.1a1.49 1.49 0 00-.14-.55"/><path class="cls-9" d="M34.87 12.12c-.14-.27-.34-.32-.42-.1s-.23.93-.7 1.13a2.78 2.78 0 01-.36.13 3.33 3.33 0 00.56.49c.37-.4.72-.76 1.06-1.1a1.49 1.49 0 00-.14-.55z"/><path class="cls-8" d="M39.45 8.46c-.16-.06-.3.2-.41.38a.78.78 0 01-.74.45c-.39 0-.49-.19-.59-.52a.62.62 0 00-.65-.45c-.29 0-.49-.35-.18-.72s.61-.2.86-.2.36-.26.17-.4a1.39 1.39 0 01-.49-.66 26.23 26.23 0 00-3.22 2.45 2 2 0 01.53.13.54.54 0 01.35.52c0 .28.06.34.23.15s0-.73.54-.95.64.22.61.51 0 .57.29.69.63.6 0 .87a8.34 8.34 0 01-1.26.42c-.26.07-.2.33 0 .5s.22.21.3.28A19.13 19.13 0 0138.24 10c.48-.32.91-.6 1.36-.87.07-.28.1-.54-.15-.63"/><path class="cls-9" d="M39.45 8.46c-.16-.06-.3.2-.41.38a.78.78 0 01-.74.45c-.39 0-.49-.19-.59-.52a.62.62 0 00-.65-.45c-.29 0-.49-.35-.18-.72s.61-.2.86-.2.36-.26.17-.4a1.39 1.39 0 01-.49-.66 26.23 26.23 0 00-3.22 2.45 2 2 0 01.53.13.54.54 0 01.35.52c0 .28.06.34.23.15s0-.73.54-.95.64.22.61.51 0 .57.29.69.63.6 0 .87a8.34 8.34 0 01-1.26.42c-.26.07-.2.33 0 .5s.22.21.3.28A19.13 19.13 0 0138.24 10c.48-.32.91-.6 1.36-.87.07-.32.1-.58-.15-.67z"/><path class="cls-8" d="M33.44 11.33a.43.43 0 00-.37-.46 1.1 1.1 0 01-.41-.44 5.21 5.21 0 00-.4.6l.2.58c.39 0 1 0 1-.28"/><path class="cls-9" d="M33.44 11.33a.43.43 0 00-.37-.46 1.1 1.1 0 01-.41-.44 5.21 5.21 0 00-.4.6l.2.58c.39-.01.97-.03.98-.28z"/><path class="cls-8" d="M46.4 25.63a8.24 8.24 0 00-3.34.58c.2.12.41.39.82.25.59-.2.79.42.51.58s-.37.6.15.28 1 .14.77.47-.49.08-.43.56-.05.9-.47 1-.53-.57-.72-.52 0 1.13 0 1.15a1.57 1.57 0 00-.74.46c1.69 1.21 2.12.55 2.37 0a23.33 23.33 0 001-3.22 5.69 5.69 0 00.15-1.57"/><path class="cls-9" d="M46.4 25.63a8.24 8.24 0 00-3.34.58c.2.12.41.39.82.25.59-.2.79.42.51.58s-.37.6.15.28 1 .14.77.47-.49.08-.43.56-.05.9-.47 1-.53-.57-.72-.52 0 1.13 0 1.15a1.57 1.57 0 00-.74.46c1.69 1.21 2.12.55 2.37 0a23.33 23.33 0 001-3.22 5.69 5.69 0 00.08-1.59z"/><path class="cls-8" d="M42.74 29c.09-.23-.16-.43-.42-.26s-.64.41-.9 0 .29-.5.32-.71-.19-.25-.08-.6.49-.25.77-.06.23-.29.18-.49a1 1 0 010-.42 8.82 8.82 0 00-1 .51C40 27.89 40 28.7 40.36 29s1 .4 2.15 1.15a4.22 4.22 0 01.23-1.15"/><path class="cls-9" d="M42.74 29c.09-.23-.16-.43-.42-.26s-.64.41-.9 0 .29-.5.32-.71-.19-.25-.08-.6.49-.25.77-.06.23-.29.18-.49a1 1 0 010-.42 8.82 8.82 0 00-1 .51C40 27.89 40 28.7 40.36 29s1 .4 2.15 1.15a4.22 4.22 0 01.23-1.15z"/><path class="cls-8" d="M37.72 28.06A4.44 4.44 0 0136 26.19s0-.13-.15-.13a6.85 6.85 0 01-2-.46c-1.14-.4-1.29-.15-1.45.34a11.6 11.6 0 00-.3 2.85c0 1.47.61 2.4 1 2.24.19-.07.7-.32 1.23-.58 0-.3 0-.8.06-1s-.32-.22-.48 0-.44.49-.72.44-.46-.54-.41-1-.49-.64-.15-1.25.61.15.9.09.14-.22 0-.69.43-.62.8-.28.33-.26.67-.2.54.29.34.63-.26.87 0 .55.58-.52.86-.3.09.66 0 .88.49.51.1.79-.85-.2-1.08-.14-.27.34 0 .55a2.73 2.73 0 00.57.31 9.32 9.32 0 001.72-.83h.4c0-.52 0-.86-.19-1"/><path class="cls-9" d="M37.72 28.06A4.44 4.44 0 0136 26.19s0-.13-.15-.13a6.85 6.85 0 01-2-.46c-1.14-.4-1.29-.15-1.45.34a11.6 11.6 0 00-.3 2.85c0 1.47.61 2.4 1 2.24.19-.07.7-.32 1.23-.58 0-.3 0-.8.06-1s-.32-.22-.48 0-.44.49-.72.44-.46-.54-.41-1-.49-.64-.15-1.25.61.15.9.09.14-.22 0-.69.43-.62.8-.28.33-.26.67-.2.54.29.34.63-.26.87 0 .55.58-.52.86-.3.09.66 0 .88.49.51.1.79-.85-.2-1.08-.14-.27.34 0 .55a2.73 2.73 0 00.57.31 9.32 9.32 0 001.72-.83h.4c.03-.51 0-.85-.19-.94z"/><path class="cls-8" d="M35.45 34.8c-.24-.55-.33-.12-1 1a23.34 23.34 0 01-2.3 2.7c.75.16 2.38.56 1.41 1.35s-.58.8-.12.74 1.22.21.64 1.26a5.68 5.68 0 01-1.53 2.11c-.55.34-1.35.31-1.54-.49s-.7 0-.73.52a11.35 11.35 0 000 1.72l-1.17-.06a10.3 10.3 0 01.06-1.93c.1-.46.06-1-.64-.8a1.17 1.17 0 01-.94-.07A13.29 13.29 0 0025 45.6a1.45 1.45 0 001.51.31c.67-.28 1.78.06 1.1 1.1s-.64 1.56 0 .92 1.76-1.75 2.09-.58c.21.76-.49 1-.46 1.62s.64 1.23-.22 2-1.22-.53-1.81-.34a.63.63 0 00-.4.72c.76 1.08 1.88 2.61 2.27 3.27.62 1 .62 2.24.86 2s.83-.74 1-.89a.6.6 0 00.28-.67 13.48 13.48 0 01-.34-3.41 11.15 11.15 0 011.29-3.92c.47-.87 1.9-3.65 2.24-4.39a15.73 15.73 0 001.11-2.27c.15-.67.73-2.24 1-3a13.82 13.82 0 00-1.11-3.32"/><path class="cls-9" d="M35.45 34.8c-.24-.55-.33-.12-1 1a23.34 23.34 0 01-2.3 2.7c.75.16 2.38.56 1.41 1.35s-.58.8-.12.74 1.22.21.64 1.26a5.68 5.68 0 01-1.53 2.11c-.55.34-1.35.31-1.54-.49s-.7 0-.73.52a11.35 11.35 0 000 1.72l-1.17-.06a10.3 10.3 0 01.06-1.93c.1-.46.06-1-.64-.8a1.17 1.17 0 01-.94-.07A13.29 13.29 0 0025 45.6a1.45 1.45 0 001.51.31c.67-.28 1.78.06 1.1 1.1s-.64 1.56 0 .92 1.76-1.75 2.09-.58c.21.76-.49 1-.46 1.62s.64 1.23-.22 2-1.22-.53-1.81-.34a.63.63 0 00-.4.72c.76 1.08 1.88 2.61 2.27 3.27.62 1 .62 2.24.86 2s.83-.74 1-.89a.6.6 0 00.28-.67 13.48 13.48 0 01-.34-3.41 11.15 11.15 0 011.29-3.92c.47-.87 1.9-3.65 2.24-4.39a15.73 15.73 0 001.11-2.27c.15-.67.73-2.24 1-3a13.82 13.82 0 00-1.07-3.27z"/><path class="cls-8" d="M48.82 48.42a6 6 0 01-1.07-3.19 15.83 15.83 0 01.11-3c-.23 0-.55 0-.57.38a6.51 6.51 0 01-.49 1.84c-.18.43-.8.4-1.17.43s-.37-.21-.12-.76a2.06 2.06 0 00.28-1.29c-.06-.49-.31-.06-.53.37s-.82 1.28-1.53 1.19-.52-1.16-.46-1.53-.15-.43-.43-.49-.83-.19-.52-1.07.64-.8 1.07-.65.49-.12.1-.28-.83-.49-.8-.91c.08-1.14.8-1 1.35-.93a1.74 1.74 0 001.5-.62v-.08c-.82-3.12.74-7 1.17-8a52.35 52.35 0 012.65-5l-1.6-.83c-.44-.23-.69-.34-.81-.17s-.27.26-.49.57c-.43.61-.06.52.06.52s.65.67.74.83 0 .27-.22.76c-.28.64-.46 2.12-.7 3-.74 2.69-1.9 2.42-2.42 2.08s-.68.19-1.2.92a11.27 11.27 0 01-.85.93c.5.22 1.18.86.36 1.5s-1.14 1.13-.68 1 .92-.8 1.45-.31-.19 1.05-.46 1.2-.83.43-.68 1 .25 1.38-.52 1.56a1 1 0 01-1.29-.55c-.21-.4-.43-.12-.52.37a7.79 7.79 0 00-.15 1c0 .19-.55-.09-.8-.33s-.55.42-.83.09.34-1.38.55-1.75.12-.83-1.1-.26a17.15 17.15 0 00-1.2 3.19A33.1 33.1 0 0133.16 47a10.28 10.28 0 00-1.7 6.73c.25 1.55.46 1.44.8 1.44s1.17 1 1.72 1.69.77.36 1 .15a30.36 30.36 0 015.18-3 34.74 34.74 0 013.9-1.5 10.84 10.84 0 01.25-1.51c.06-.31-.24-.4-.55 0s-1.13 1.38-1.68 1.13-1-.86-.71-1.38-.12-.67-.34-.95-.21-1.35.46-1.44.89.49 1.35.64.83.12.25-.52-1.29-.4-.92-1.29.89-.82 1.5-.64.92-.15 1.32-.43a1.28 1.28 0 011.75 0c.55.64-.4 1.23-.62 1.44-.41.42-.49 1.2 0 .74s1.25-2.13 1.78-.74c.31.8-.27 1.11-.18 1.6s.92 1.16.24 1.78-1.62.09-2-.28-.83-.55-.65.12a5.51 5.51 0 01.21 1.34 11.2 11.2 0 013.11-.54c.87.08 1.53.34 1.5-.46s-.46-1.35-1.26-2.67m-10.93 5.46c-.74.22-.86-.12-1.35-.31s-.53.25-.19.77.71 1 .31 1-.71.06-.77.37-.7-.06-.86-.7-.3-1.88-.64-1.26-.65 1.62-1.5 1.16-.28-1.07-.71-1.5a1.34 1.34 0 01-.4-1.75c.43-.76.8-.12 1.2-.12s.46-.37.09-.64-.83-1.6.86-1.51a3 3 0 001.9-.58c.55-.4 2-.18 1.41.83s-.4 1.23-.06.86.77-1 1.41-.86.37.67 0 1.23a.72.72 0 00.12 1.1c.31.21.87 1.38-.82 1.87m3.12-7.24a5.34 5.34 0 01-1.22-.12 6.7 6.7 0 01-1.2 2.27c-.06.09-.4.09-.55 0s-.58-.34-.25-.71.89-1.13.8-1.47-.34-.64-.7-.18-1 1.41-1.6 1.44-1.29-.55-1-1.14.4-.89 0-1.41-.27-1.19.64-1.59a1.25 1.25 0 011.11.27c.33.28.52 0 .06-.27a1.57 1.57 0 01-.89-1.23c-.06-.58.31-1.19 1.1-.86a1.45 1.45 0 001.64-.2c.34-.28 1.77-.62 1.56.64-.15.92-.58 1-.7 1.44s.24.19.46-.18.7-1.87 1.71-.74c.25.28.16.74-.15 1.26A.9.9 0 0042 45a1.06 1.06 0 01-.92 1.71"/><path class="cls-9" d="M41.06 46.67a5.34 5.34 0 01-1.22-.12 6.7 6.7 0 01-1.2 2.27c-.06.09-.4.09-.55 0s-.58-.34-.25-.71.89-1.13.8-1.47-.34-.64-.7-.18-1 1.41-1.6 1.44-1.29-.55-1-1.14.4-.89 0-1.41-.27-1.19.64-1.59a1.25 1.25 0 011.11.27c.33.28.52 0 .06-.27a1.57 1.57 0 01-.89-1.23c-.06-.58.31-1.19 1.1-.86a1.45 1.45 0 001.64-.24c.34-.28 1.77-.62 1.56.64-.15.92-.58 1-.7 1.44s.24.19.46-.18.7-1.87 1.71-.74c.25.28.16.74-.15 1.26A.9.9 0 0042 45a1.06 1.06 0 01-.94 1.67zM37.94 53.91c-.74.22-.86-.12-1.35-.31s-.53.25-.19.77.71 1 .31 1-.71.06-.77.37-.7-.06-.86-.7-.3-1.88-.64-1.26-.65 1.62-1.5 1.16-.28-1.07-.71-1.5a1.34 1.34 0 01-.4-1.75c.43-.76.8-.12 1.2-.12s.46-.37.09-.64-.83-1.6.86-1.51a3 3 0 001.9-.58c.55-.4 2-.18 1.41.83s-.4 1.23-.06.86.77-1 1.41-.86.37.67 0 1.23a.72.72 0 00.12 1.1c.31.25.87 1.42-.82 1.91z"/><path class="cls-9" d="M48.82 48.42a6 6 0 01-1.07-3.19 15.83 15.83 0 01.11-3c-.23 0-.55 0-.57.38a6.51 6.51 0 01-.49 1.84c-.18.43-.8.4-1.17.43s-.37-.21-.12-.76a2.06 2.06 0 00.28-1.29c-.06-.49-.31-.06-.53.37s-.82 1.28-1.53 1.19-.52-1.16-.46-1.53-.15-.43-.43-.49-.83-.19-.52-1.07.64-.8 1.07-.65.49-.12.1-.28-.83-.49-.8-.91c.08-1.14.8-1 1.35-.93a1.74 1.74 0 001.5-.62v-.08c-.82-3.12.74-7 1.17-8a52.35 52.35 0 012.65-5l-1.6-.83c-.44-.23-.69-.34-.81-.17s-.27.26-.49.57c-.43.61-.06.52.06.52s.65.67.74.83 0 .27-.22.76c-.28.64-.46 2.12-.7 3-.74 2.69-1.9 2.42-2.42 2.08s-.68.19-1.2.92a11.27 11.27 0 01-.85.93c.5.22 1.18.86.36 1.5s-1.14 1.13-.68 1 .92-.8 1.45-.31-.19 1.05-.46 1.2-.83.43-.68 1 .25 1.38-.52 1.56a1 1 0 01-1.29-.55c-.21-.4-.43-.12-.52.37a7.79 7.79 0 00-.15 1c0 .19-.55-.09-.8-.33s-.55.42-.83.09.34-1.38.55-1.75.12-.83-1.1-.26a17.15 17.15 0 00-1.2 3.19A33.1 33.1 0 0133.16 47a10.28 10.28 0 00-1.7 6.73c.25 1.55.46 1.44.8 1.44s1.17 1 1.72 1.69.77.36 1 .15a30.36 30.36 0 015.18-3 34.74 34.74 0 013.9-1.5 10.84 10.84 0 01.25-1.51c.07-.31-.24-.4-.55 0s-1.13 1.38-1.68 1.13-1-.86-.71-1.38-.12-.67-.34-.95-.21-1.35.46-1.44.89.49 1.35.64.83.12.25-.52-1.29-.4-.92-1.29.89-.82 1.5-.64.92-.15 1.32-.43a1.28 1.28 0 011.75 0c.55.64-.4 1.23-.62 1.44-.41.42-.49 1.2 0 .74s1.25-2.13 1.78-.74c.31.8-.27 1.11-.18 1.6s.92 1.16.24 1.78-1.62.09-2-.28-.83-.55-.65.12a5.51 5.51 0 01.21 1.34 11.2 11.2 0 013.11-.54c.87.08 1.53.34 1.5-.46s-.51-1.38-1.31-2.7z"/><path class="cls-3" d="M40.5 7.84c.41 0 .87 0 1-.27s0-.48-.12-.54-.2 0-.14-.32.26-.24.24-.67-.34-.45-.63-.36-.4.23-.67.6-.18-.28-.13-.35.15-.81-.22-.93l-.63.31a4.69 4.69 0 00-.18.45c-.15.4-.34.1-.47-.09-.4.23-.76.44-1 .62l-.1.06a1.29 1.29 0 00.5.66c.19.14.07.4-.17.4s-.56-.17-.86.2-.11.72.18.72a.6.6 0 01.64.45c.11.33.21.47.6.52a.78.78 0 00.66-.46c.11-.18.24-.44.41-.38s.22.35.14.63q.44-.25.9-.48a1.21 1.21 0 00-.28-.61c-.13-.14-.09-.2.33-.16"/><path class="cls-13" d="M40.5 7.84c.41 0 .87 0 1-.27s0-.48-.12-.54-.2 0-.14-.32.26-.24.24-.67-.34-.45-.63-.36-.4.23-.67.6-.18-.28-.13-.35.15-.81-.22-.93l-.63.31a4.69 4.69 0 00-.18.45c-.15.4-.34.1-.47-.09-.4.23-.76.44-1 .62l-.1.06a1.29 1.29 0 00.5.66c.19.14.07.4-.17.4s-.56-.17-.86.2-.11.72.18.72a.6.6 0 01.64.45c.11.33.21.47.6.52a.78.78 0 00.66-.46c.11-.18.24-.44.41-.38s.22.35.14.63q.44-.25.9-.48a1.21 1.21 0 00-.28-.61c-.17-.14-.09-.2.33-.16z"/><path class="cls-3" d="M43.92 3.4l-.45.11c.08.36.22.81.14.87a3 3 0 01-.72.21c-.28.08-.94.69-.6 1.14a2.65 2.65 0 01.51.93.58.58 0 001 0c.39-.46.68-1 .77-.64a3.86 3.86 0 010 1.27h.25a5.94 5.94 0 00-.89-3.89"/><path class="cls-13" d="M43.92 3.4l-.45.11c.08.36.22.81.14.87a3 3 0 01-.72.21c-.28.08-.94.69-.6 1.14a2.65 2.65 0 01.51.93.58.58 0 001 0c.39-.46.68-1 .77-.64a3.86 3.86 0 010 1.27h.25a5.94 5.94 0 00-.9-3.89z"/><path class="cls-3" d="M35.5 11.63c-.22-.17-.28-.43 0-.5a8.34 8.34 0 001.26-.42c.64-.27.31-.75 0-.87s-.32-.4-.29-.69 0-.72-.61-.51-.37.77-.54.95-.26.13-.23-.15a.54.54 0 00-.35-.52 1.73 1.73 0 00-.54-.12 11 11 0 00-1.53 1.63 1 1 0 00.41.44.43.43 0 01.37.46c0 .26-.6.27-1 .28a4.94 4.94 0 00.93 1.67 2 2 0 00.36-.13c.47-.2.63-.92.7-1.13s.28-.17.42.1a1.35 1.35 0 01.14.55l.79-.76a2.92 2.92 0 00-.3-.28"/><path class="cls-13" d="M35.5 11.63c-.22-.17-.28-.43 0-.5a8.34 8.34 0 001.26-.42c.64-.27.31-.75 0-.87s-.32-.4-.29-.69 0-.72-.61-.51-.37.77-.54.95-.26.13-.23-.15a.54.54 0 00-.35-.52 1.73 1.73 0 00-.54-.12 11 11 0 00-1.53 1.63 1 1 0 00.41.44.43.43 0 01.37.46c0 .26-.6.27-1 .28a4.94 4.94 0 00.93 1.67 2 2 0 00.36-.13c.47-.2.63-.92.7-1.13s.28-.17.42.1a1.35 1.35 0 01.14.55l.79-.76a2.92 2.92 0 00-.29-.28z"/><path class="cls-3" d="M43.64 30c.09 0-.15-1.11 0-1.15s.29.6.72.52.53-.51.47-1 .22-.22.43-.55-.24-.8-.77-.48-.42-.11-.15-.28.08-.78-.51-.58c-.42.15-.63-.13-.83-.24l-.47.19a1 1 0 000 .42c0 .2.14.71-.18.49s-.66-.29-.77.06.11.39.08.6-.58.26-.32.71.64.19.9 0 .51 0 .41.26a4.78 4.78 0 00-.22 1.18c.12.08.25.16.38.26a1.57 1.57 0 01.75-.46"/><path class="cls-13" d="M43.64 30c.09 0-.15-1.11 0-1.15s.29.6.72.52.53-.51.47-1 .22-.22.43-.55-.24-.8-.77-.48-.42-.11-.15-.28.08-.78-.51-.58c-.42.15-.63-.13-.83-.24l-.47.19a1 1 0 000 .42c0 .2.14.71-.18.49s-.66-.29-.77.06.11.39.08.6-.58.26-.32.71.64.19.9 0 .51 0 .41.26a4.78 4.78 0 00-.22 1.18c.12.08.25.16.38.26a1.57 1.57 0 01.83-.41z"/><path class="cls-3" d="M35.28 28.9c.23-.06.68.41 1.08.14s-.17-.55-.1-.78.26-.68 0-.89-.57 0-.86.3-.19-.29 0-.55 0-.57-.34-.63-.44.42-.67.2-.94-.2-.8.28.29.63 0 .69-.57-.71-.91-.09.2.79.16 1.25.14.95.41 1 .57-.26.72-.44.52-.33.48 0 0 .75-.06 1a16 16 0 011.5-.68 2.8 2.8 0 01-.58-.31c-.3-.21-.26-.49 0-.55"/><path class="cls-13" d="M35.28 28.9c.23-.06.68.41 1.08.14s-.17-.55-.1-.78.26-.68 0-.89-.57 0-.86.3-.19-.29 0-.55 0-.57-.34-.63-.44.42-.67.2-.94-.2-.8.28.29.63 0 .69-.57-.71-.91-.09.2.79.16 1.25.14.95.41 1 .57-.26.72-.44.52-.33.48 0 0 .75-.06 1a16 16 0 011.5-.68 2.8 2.8 0 01-.58-.31c-.31-.15-.26-.39-.03-.49z"/><path class="cls-3" d="M28.49 42.87c.7-.21.74.34.64.8a10.3 10.3 0 00-.06 1.93l1.17.06a11.35 11.35 0 010-1.72c0-.52.55-1.32.73-.52s1 .83 1.54.49a5.68 5.68 0 001.53-2.11c.58-1-.18-1.32-.64-1.26s-.92.12.12-.74-.66-1.2-1.41-1.35c-1.24 1.3-2.76 2.77-4.11 3.93l-.49.43a1.2 1.2 0 00.95.06"/><path class="cls-13" d="M28.49 42.87c.7-.21.74.34.64.8a10.3 10.3 0 00-.06 1.93l1.17.06a11.35 11.35 0 010-1.72c0-.52.55-1.32.73-.52s1 .83 1.54.49a5.68 5.68 0 001.53-2.11c.58-1-.18-1.32-.64-1.26s-.92.12.12-.74-.66-1.2-1.41-1.35c-1.24 1.3-2.76 2.77-4.11 3.93l-.49.43a1.2 1.2 0 00.98.06z"/><path class="cls-3" d="M27.26 50.6c.58-.19.95 1.07 1.81.34s.25-1.35.22-2 .67-.85.46-1.62c-.33-1.17-1.42-.06-2.09.58s-.71.12 0-.92-.43-1.38-1.1-1.1A1.46 1.46 0 0125 45.6a10.81 10.81 0 00-.64 1.2c-.56 1.2-.17 1.2.26 1.2s1.38 1.83 1.48 2.17a9.94 9.94 0 00.77 1.17c0-.29 0-.63.39-.74"/><path class="cls-13" d="M27.26 50.6c.58-.19.95 1.07 1.81.34s.25-1.35.22-2 .67-.85.46-1.62c-.33-1.17-1.42-.06-2.09.58s-.71.12 0-.92-.43-1.38-1.1-1.1A1.46 1.46 0 0125 45.6a10.81 10.81 0 00-.64 1.2c-.56 1.2-.17 1.2.26 1.2s1.38 1.83 1.48 2.17a9.94 9.94 0 00.77 1.17c-.02-.29.03-.63.39-.74z"/><path class="cls-3" d="M36.25 42.5c-.06-.58.31-1.19 1.1-.86a1.45 1.45 0 001.65-.21c.33-.28 1.77-.62 1.56.64-.15.92-.58 1-.7 1.44s.24.19.46-.18.7-1.87 1.71-.74c.25.28.16.74-.15 1.26A.9.9 0 0042 45a1.06 1.06 0 01-.92 1.71 5.34 5.34 0 01-1.22-.12 6.7 6.7 0 01-1.2 2.27c-.06.09-.4.09-.55 0s-.58-.34-.25-.71.89-1.13.8-1.47-.34-.64-.7-.18-1 1.41-1.6 1.44-1.29-.55-1-1.14.4-.89 0-1.41-.27-1.19.64-1.59a1.25 1.25 0 011.11.27c.33.28.52 0 .06-.27a1.57 1.57 0 01-.89-1.23"/><path class="cls-13" d="M36.25 42.5c-.06-.58.31-1.19 1.1-.86a1.45 1.45 0 001.65-.21c.33-.28 1.77-.62 1.56.64-.15.92-.58 1-.7 1.44s.24.19.46-.18.7-1.87 1.71-.74c.25.28.16.74-.15 1.26A.9.9 0 0042 45a1.06 1.06 0 01-.92 1.71 5.34 5.34 0 01-1.22-.12 6.7 6.7 0 01-1.2 2.27c-.06.09-.4.09-.55 0s-.58-.34-.25-.71.89-1.13.8-1.47-.34-.64-.7-.18-1 1.41-1.6 1.44-1.29-.55-1-1.14.4-.89 0-1.41-.27-1.19.64-1.59a1.25 1.25 0 011.11.27c.33.28.52 0 .06-.27a1.57 1.57 0 01-.92-1.3z"/><path class="cls-3" d="M44 38.51c-.55-.12-1.27-.21-1.35.93 0 .42.4.76.8.91s.33.43-.1.28-.76-.24-1.07.65.25 1 .52 1.07.49.12.43.49-.24 1.44.46 1.53 1.32-.76 1.53-1.19.47-.86.53-.37a2.06 2.06 0 01-.28 1.29c-.25.55-.25.79.12.76s1 0 1.17-.43a6.51 6.51 0 00.49-1.84c0-.36.34-.4.57-.38.08-.62.17-1.23.26-1.76-1.21.18-2.23-1.29-2.59-2.57a1.7 1.7 0 01-1.49.63"/><path class="cls-13" d="M44 38.51c-.55-.12-1.27-.21-1.35.93 0 .42.4.76.8.91s.33.43-.1.28-.76-.24-1.07.65.25 1 .52 1.07.49.12.43.49-.24 1.44.46 1.53 1.32-.76 1.53-1.19.47-.86.53-.37a2.06 2.06 0 01-.28 1.29c-.25.55-.25.79.12.76s1 0 1.17-.43a6.51 6.51 0 00.49-1.84c0-.36.34-.4.57-.38.08-.62.17-1.23.26-1.76-1.21.18-2.23-1.29-2.59-2.57a1.7 1.7 0 01-1.49.63z"/><path class="cls-3" d="M38.3 38.3c-.21.37-.83 1.41-.55 1.75s.58-.34.83-.09.8.52.8.33a7.79 7.79 0 01.15-1c.09-.49.31-.77.52-.37a1 1 0 001.29.56c.77-.19.67-1 .52-1.57s.4-.86.68-1 1-.71.46-1.2-1 .22-1.45.31-.27-.31.68-1 .13-1.27-.37-1.49c-1.32 1.32-3.66 3.48-4.17 4a3.19 3.19 0 00-.49.63c1.23-.57 1.31-.09 1.1.26"/><path class="cls-13" d="M38.3 38.3c-.21.37-.83 1.41-.55 1.75s.58-.34.83-.09.8.52.8.33a7.79 7.79 0 01.15-1c.09-.49.31-.77.52-.37a1 1 0 001.29.56c.77-.19.67-1 .52-1.57s.4-.86.68-1 1-.71.46-1.2-1 .22-1.45.31-.27-.31.68-1 .13-1.27-.37-1.49c-1.32 1.32-3.66 3.48-4.17 4a3.19 3.19 0 00-.49.63c1.23-.69 1.31-.16 1.1.14z"/><path class="cls-3" d="M45.91 50.63c.4.37 1.35.89 2 .28s-.15-1.29-.24-1.78.49-.8.18-1.6c-.53-1.39-1.32.28-1.78.74s-.38-.32 0-.74c.22-.21 1.17-.8.62-1.44a1.28 1.28 0 00-1.75 0c-.4.28-.71.61-1.32.43s-1.13-.25-1.5.64.33.65.92 1.29.21.68-.25.52-.67-.73-1.35-.64-.67 1.16-.46 1.44.65.43.34.95.15 1.14.71 1.38 1.37-.73 1.68-1.13.62-.31.55 0a10.62 10.62 0 00-.21 1.53l1.37-.41a5.51 5.51 0 00-.21-1.34c-.18-.67.25-.49.65-.12"/><path class="cls-13" d="M45.91 50.63c.4.37 1.35.89 2 .28s-.15-1.29-.24-1.78.49-.8.18-1.6c-.53-1.39-1.32.28-1.78.74s-.38-.32 0-.74c.22-.21 1.17-.8.62-1.44a1.28 1.28 0 00-1.75 0c-.4.28-.71.61-1.32.43s-1.13-.25-1.5.64.33.65.92 1.29.21.68-.25.52-.67-.73-1.35-.64-.67 1.16-.46 1.44.65.43.34.95.15 1.14.71 1.38 1.37-.73 1.68-1.13.62-.31.55 0a10.62 10.62 0 00-.21 1.53l1.37-.41a5.51 5.51 0 00-.21-1.34c-.13-.67.3-.49.7-.12z"/><path class="cls-3" d="M34 49.43a3 3 0 001.9-.58c.55-.4 2-.18 1.41.83s-.4 1.23-.06.86.77-1 1.41-.86.37.67 0 1.23a.72.72 0 00.1 1.09c.31.21.87 1.38-.82 1.87-.74.22-.86-.12-1.35-.3s-.53.24-.19.76.71 1 .31 1-.71.07-.77.37-.7-.06-.86-.7-.3-1.88-.64-1.26-.65 1.62-1.5 1.16-.28-1.07-.71-1.5a1.34 1.34 0 01-.4-1.75c.43-.76.8-.12 1.2-.12s.46-.37.09-.64-.83-1.6.86-1.51"/><path class="cls-13" d="M34 49.43a3 3 0 001.9-.58c.55-.4 2-.18 1.41.83s-.4 1.23-.06.86.77-1 1.41-.86.37.67 0 1.23a.72.72 0 00.1 1.09c.31.21.87 1.38-.82 1.87-.74.22-.86-.12-1.35-.3s-.53.24-.19.76.71 1 .31 1-.71.07-.77.37-.7-.06-.86-.7-.3-1.88-.64-1.26-.65 1.62-1.5 1.16-.28-1.07-.71-1.5a1.34 1.34 0 01-.4-1.75c.43-.76.8-.12 1.2-.12s.46-.37.09-.64-.83-1.55.88-1.46z"/><path class="cls-8" d="M40.05 28c-.18.5-.43 1.11-.55 1.42s-.69.18-.64 0c.09-.46-.57-.15-.49-.52s-.07-.79.27-.79 1-.07 1.41-.07"/><path class="cls-9" d="M40.05 28c-.18.5-.43 1.11-.55 1.42s-.69.18-.64 0c.09-.46-.57-.15-.49-.52s-.07-.79.27-.79.98-.11 1.41-.11z"/><path class="cls-8" d="M39 5.76c.06-.15.11-.31.17-.45l-.64.35c.14.19.32.5.47.1M44.56 6.07c-.09-.33-.38.18-.77.64a.58.58 0 01-1 0 2.65 2.65 0 00-.51-.93c-.34-.45.32-1.06.6-1.14a3 3 0 00.72-.21c.08-.06-.06-.52-.14-.87A23.72 23.72 0 0039.84 5c.36.14.25.84.21.94s-.17.72.11.35.38-.5.67-.6.62-.07.63.36-.18.39-.24.67 0 .26.14.32.22.25.12.54-.57.32-1 .27-.46 0-.33.16a1.26 1.26 0 01.32.61 16.92 16.92 0 014.08-1.27 4.13 4.13 0 000-1.27M34.87 12.12c-.14-.27-.34-.32-.42-.1s-.23.93-.7 1.13a2.78 2.78 0 01-.36.13 3.33 3.33 0 00.56.49c.37-.4.72-.76 1.06-1.1a1.49 1.49 0 00-.14-.55M39.45 8.46c-.16-.06-.3.2-.41.38a.78.78 0 01-.74.45c-.39 0-.49-.19-.59-.52a.62.62 0 00-.65-.45c-.29 0-.49-.35-.18-.72s.61-.2.86-.2.36-.26.17-.4a1.39 1.39 0 01-.49-.66 26.23 26.23 0 00-3.22 2.45 2 2 0 01.53.13.54.54 0 01.35.52c0 .28.06.34.23.15s0-.73.54-.95.64.22.61.51 0 .57.29.69.63.6 0 .87a8.34 8.34 0 01-1.26.42c-.26.07-.2.33 0 .5s.22.21.3.28A19.13 19.13 0 0138.24 10c.48-.32.91-.6 1.36-.87.07-.28.1-.54-.15-.63M33.44 11.33a.43.43 0 00-.37-.46 1.1 1.1 0 01-.41-.44 5.21 5.21 0 00-.4.6l.2.58c.39 0 1 0 1-.28M46.4 25.63a8.24 8.24 0 00-3.34.58c.2.12.41.39.82.25.59-.2.79.42.51.58s-.37.6.15.28 1 .14.77.47-.49.08-.43.56-.05.9-.47 1-.53-.57-.72-.52 0 1.13 0 1.15a1.57 1.57 0 00-.74.46c1.69 1.21 2.12.55 2.37 0a23.33 23.33 0 001-3.22 5.69 5.69 0 00.15-1.57M42.74 29c.09-.23-.16-.43-.42-.26s-.64.41-.9 0 .29-.5.32-.71-.19-.25-.08-.6.49-.25.77-.06.23-.29.18-.49a1 1 0 010-.42 8.82 8.82 0 00-1 .51C40 27.89 40 28.7 40.36 29s1 .4 2.15 1.15a4.22 4.22 0 01.23-1.15M37.72 28.06A4.44 4.44 0 0136 26.19s0-.13-.15-.13a6.85 6.85 0 01-2-.46c-1.14-.4-1.29-.15-1.45.34a11.6 11.6 0 00-.3 2.85c0 1.47.61 2.4 1 2.24.19-.07.7-.32 1.23-.58 0-.3 0-.8.06-1s-.32-.22-.48 0-.44.49-.72.44-.46-.54-.41-1-.49-.64-.15-1.25.61.15.9.09.14-.22 0-.69.43-.62.8-.28.33-.26.67-.2.54.29.34.63-.26.87 0 .55.58-.52.86-.3.09.66 0 .88.49.51.1.79-.85-.2-1.08-.14-.27.34 0 .55a2.73 2.73 0 00.57.31 9.32 9.32 0 001.72-.83h.4c0-.52 0-.86-.19-1M35.45 34.8c-.24-.55-.33-.12-1 1a23.34 23.34 0 01-2.3 2.7c.75.16 2.38.56 1.41 1.35s-.58.8-.12.74 1.22.21.64 1.26a5.68 5.68 0 01-1.53 2.11c-.55.34-1.35.31-1.54-.49s-.7 0-.73.52a11.35 11.35 0 000 1.72l-1.17-.06a10.3 10.3 0 01.06-1.93c.1-.46.06-1-.64-.8a1.17 1.17 0 01-.94-.07A13.29 13.29 0 0025 45.6a1.45 1.45 0 001.51.31c.67-.28 1.78.06 1.1 1.1s-.64 1.56 0 .92 1.76-1.75 2.09-.58c.21.76-.49 1-.46 1.62s.64 1.23-.22 2-1.22-.53-1.81-.34a.63.63 0 00-.4.72c.76 1.08 1.88 2.61 2.27 3.27.62 1 .62 2.24.86 2s.83-.74 1-.89a.6.6 0 00.28-.67 13.48 13.48 0 01-.34-3.41 11.15 11.15 0 011.29-3.92c.47-.87 1.9-3.65 2.24-4.39a15.73 15.73 0 001.11-2.27c.15-.67.73-2.24 1-3a13.82 13.82 0 00-1.11-3.32"/><path class="cls-8" d="M48.82 48.42a6 6 0 01-1.07-3.19 15.83 15.83 0 01.11-3c-.23 0-.55 0-.57.38a6.51 6.51 0 01-.49 1.84c-.18.43-.8.4-1.17.43s-.37-.21-.12-.76a2.06 2.06 0 00.28-1.29c-.06-.49-.31-.06-.53.37s-.82 1.28-1.53 1.19-.52-1.16-.46-1.53-.15-.43-.43-.49-.83-.19-.52-1.07.64-.8 1.07-.65.49-.12.1-.28-.83-.49-.8-.91c.08-1.14.8-1 1.35-.93a1.74 1.74 0 001.5-.62v-.08c-.82-3.12.74-7 1.17-8a52.35 52.35 0 012.65-5l-1.6-.83c-.44-.23-.69-.34-.81-.17s-.27.26-.49.57c-.43.61-.06.52.06.52s.65.67.74.83 0 .27-.22.76c-.28.64-.46 2.12-.7 3-.74 2.69-1.9 2.42-2.42 2.08s-.68.19-1.2.92a11.27 11.27 0 01-.85.93c.5.22 1.18.86.36 1.5s-1.14 1.13-.68 1 .92-.8 1.45-.31-.19 1.05-.46 1.2-.83.43-.68 1 .25 1.38-.52 1.56a1 1 0 01-1.29-.55c-.21-.4-.43-.12-.52.37a7.79 7.79 0 00-.15 1c0 .19-.55-.09-.8-.33s-.55.42-.83.09.34-1.38.55-1.75.12-.83-1.1-.26a17.15 17.15 0 00-1.2 3.19A33.1 33.1 0 0133.16 47a10.28 10.28 0 00-1.7 6.73c.25 1.55.46 1.44.8 1.44s1.17 1 1.72 1.69.77.36 1 .15a30.36 30.36 0 015.18-3 34.74 34.74 0 013.9-1.5 10.84 10.84 0 01.25-1.51c.06-.31-.24-.4-.55 0s-1.13 1.38-1.68 1.13-1-.86-.71-1.38-.12-.67-.34-.95-.21-1.35.46-1.44.89.49 1.35.64.83.12.25-.52-1.29-.4-.92-1.29.89-.82 1.5-.64.92-.15 1.32-.43a1.28 1.28 0 011.75 0c.55.64-.4 1.23-.62 1.44-.41.42-.49 1.2 0 .74s1.25-2.13 1.78-.74c.31.8-.27 1.11-.18 1.6s.92 1.16.24 1.78-1.62.09-2-.28-.83-.55-.65.12a5.51 5.51 0 01.21 1.34 11.2 11.2 0 013.11-.54c.87.08 1.53.34 1.5-.46s-.46-1.35-1.26-2.67m-10.93 5.46c-.74.22-.86-.12-1.35-.31s-.53.25-.19.77.71 1 .31 1-.71.06-.77.37-.7-.06-.86-.7-.3-1.88-.64-1.26-.65 1.62-1.5 1.16-.28-1.07-.71-1.5a1.34 1.34 0 01-.4-1.75c.43-.76.8-.12 1.2-.12s.46-.37.09-.64-.83-1.6.86-1.51a3 3 0 001.9-.58c.55-.4 2-.18 1.41.83s-.4 1.23-.06.86.77-1 1.41-.86.37.67 0 1.23a.72.72 0 00.12 1.1c.31.21.87 1.38-.82 1.87m3.12-7.24a5.34 5.34 0 01-1.22-.12 6.7 6.7 0 01-1.2 2.27c-.06.09-.4.09-.55 0s-.58-.34-.25-.71.89-1.13.8-1.47-.34-.64-.7-.18-1 1.41-1.6 1.44-1.29-.55-1-1.14.4-.89 0-1.41-.27-1.19.64-1.59a1.25 1.25 0 011.11.27c.33.28.52 0 .06-.27a1.57 1.57 0 01-.89-1.23c-.06-.58.31-1.19 1.1-.86a1.45 1.45 0 001.64-.2c.34-.28 1.77-.62 1.56.64-.15.92-.58 1-.7 1.44s.24.19.46-.18.7-1.87 1.71-.74c.25.28.16.74-.15 1.26A.9.9 0 0042 45a1.06 1.06 0 01-.92 1.71"/><path class="cls-5" d="M69.29 20.37l-.91.65 2.09 2.95-1.19.85-2.03-3.02-.94.67 1.86 2.81-1.2.85-2.99-4.26 5.43-3.85 3.3 4.62-1.19.85M70.79 29.46l1.23 2.66-1.78.82-1.92-4.33 5.88-2.55.75 1.66M71.48 37.39l-.18-1.64 3.94-.47-.15-2.38 1.77-.13.49 5.74-1.77.13-.15-1.72M71.52 43.3l-.02-1.96 5.8-.01.02 1.95M74.58 51.23a1.66 1.66 0 00.87-1.23 1.93 1.93 0 00-1.54-2.38 1.86 1.86 0 00-2.2 1.38 2.2 2.2 0 00.05 1.43l-1.53.51a5.07 5.07 0 01-.23-2.19 3 3 0 011.25-2.1 3.76 3.76 0 012.93-.59 3.13 3.13 0 012.23 1.49 3.69 3.69 0 01.59 2.76 3.52 3.52 0 01-1.49 2.06M71.54 56.31a8.12 8.12 0 01-3 1.89c-.8.07-1-.37-1.18-1.08a4.74 4.74 0 01.23-2.12 4 4 0 011.2-1.65l1 .42a2.88 2.88 0 00-1.07 1.54c-.15.44-.28 1.12.16 1.27s1.57-.92 1.87-1.21c.53-.51 1.64-1.4 2.45-1.2.53.14 1.52 1.25 1.14 3.08a4.25 4.25 0 01-1 2.1L72 58.46a3.06 3.06 0 00.76-1.46c.12-.35.14-.9-.18-1.08s-.59-.06-1 .36M64.38 15.92a1.67 1.67 0 00-.64-1.34 2 2 0 00-2.81.42 1.91 1.91 0 00.34 2.57 2.22 2.22 0 001.33.55l-.17 1.6a5 5 0 01-2.08-.72A3 3 0 0159 17a3.82 3.82 0 01.67-2.91 3.72 3.72 0 012.45-1.52 3.3 3.3 0 012.69.73 4.25 4.25 0 011.11 2.37M5.16 48.62c0-1.71.87-2.56 1.35-2.66a1.65 1.65 0 011.72.43 3 3 0 011 1.78 4 4 0 010 2L8 50.29a2.56 2.56 0 00-.06-1.74c-.1-.46-.4-.91-.86-.81s-.45.9-.49 1.34c-.14 1.41-.6 2.32-1.47 2.42s-1.88-.5-2.23-2.12A6.11 6.11 0 013 46.86h1.28a4.51 4.51 0 00-.22 1.94c.08.36.35.8.72.78s.37-.64.38-1M8.51 40.56L8.53 42l-4.57.05.01 2.08-1.46.02-.06-5.47 1.46-.02.02 1.96M11.79 24.32l-3.93-2.47.87-1.36 5.77 3.33-1.12 1.72-4.68.08-.01.02 3.54 2.04-.88 1.54-5.67-3.3.74-1.44M3 32.87a3.55 3.55 0 113.5 3.55A3.54 3.54 0 013 32.87m3.5 1.85a1.85 1.85 0 10-1.85-1.85 1.85 1.85 0 001.85 1.85M5.24 56.2a3.55 3.55 0 113.54 3.54 3.55 3.55 0 01-3.54-3.54M8.78 58a1.85 1.85 0 10-1.84-1.8A1.84 1.84 0 008.78 58M12.76 62.65a2 2 0 01.29-2.4c1.1-1 2.95 1.26 3.62 2.1l1.9 2.22-4.7 3.89-1.78-1.75c-1.27-1.27-2.81-2.87-1.54-4a2.4 2.4 0 012.21-.08m3.65 1l-.15-.18c-.35-.43-1.61-2-2.11-1.56s.78 1.92 1.17 2.39l.12.14zm-2.27 1.92c-.18-.21-1.58-1.92-2.14-1.38s.8 1.66 1.26 2.22z"/></g></g></svg>