<svg xmlns="http://www.w3.org/2000/svg" viewBox="0 0 383.2 369.47"><defs><style>.cls-2{fill:#048da8}.cls-3{fill:#fff}</style></defs><g id="Layer_2" data-name="Layer 2"><g id="Layer_1-2" data-name="Layer 1"><path d="M93.36 168.63H66.2v29.47l-16.33 8 16.33 8.52v26.2l18 11c6.64-.88 15.11-1.89 24.94-2.9l69.71 40.18 12.75 58.5c.08-.14 12.83-58.46 12.83-58.46L274 249c9.82 1 18.31 2 24.94 2.9l18-11v-26.2l16.36-8.34-16.3-8.26v-29.47h-27.16s4.2-4.07 9.52-13.23c2.23-3.83 4.33-8.61 6.91-14.26 19.78-6 34.39-18.65 40.64-31 16.95-31 29.71-69 29.71-69s-7.32 3.51-16.15 7.87c7.16-21.86 11.47-40.41 11.47-40.41S293.77 60.38 232.88 109l-5.27-3.16c0-.5.16-5 .16-5.31 0 0 .6-5.17-8.5-8.25l-1.61-.55c4.41-3.3 11.26-8.36 16.26-11.78 8-5.47 7-11.49 7-11.49l-28.89 21.5a66.07 66.07 0 00-40.92 0l-28.88-21.5s-.94 6 7 11.49c5 3.42 11.85 8.48 16.26 11.78l-1.61.55c-9.09 3.08-8.49 8.25-8.49 8.25 0 .36.13 4.81.16 5.31l-5.24 3.16C89.43 60.38 11.27 8.66 11.27 8.66s4.29 18.55 11.46 40.41C13.27 44.4 6.58 41.2 6.58 41.2s12.76 37.94 29.71 69c6.25 12.33 20.85 25 40.64 31 0 0 3.34 7.66 6.23 13.16 3.57 6.81 10.2 14.33 10.2 14.33" fill="#25205d"/><path class="cls-2" d="M224.38 124.45c-.26.85-.56 1.68-.85 2.51 27.37-17.89 75.19-49.08 128.76-83.89 0 0 .07 1.17 4.81-12.6-56.6 34.19-106.73 72.94-132.72 94M158.81 124.45c-26-21-76.1-59.79-132.71-94 4.74 13.77 4.8 12.6 4.8 12.6 53.58 34.8 101.39 66 128.77 83.88-.29-.82-.59-1.65-.86-2.5M191.58 152.09C186.9 150.3 175.1 144.41 168 129c5.79 5 13.22 6.6 19.16.85-7.25-3.12-8.15-16-9.55-19.44-2.84-6.87-7.32-10.34-10.87-11.8q2.63-.89 4.92-1.59a21.18 21.18 0 0110.82 14.49s.75-9.62-4-16.36a55.72 55.72 0 0126.18 0c-4.78 6.74-4 16.37-4 16.37A21.2 21.2 0 01211.48 97c1.53.47 3.17 1 4.94 1.6-3.56 1.46-8 4.93-10.87 11.8-1.39 3.39-2.3 16.32-9.53 19.44 1.66 9.84-.38 19-4.44 22.21m-82.46 18.06A70.19 70.19 0 0188.1 143l5.36 1.6c17.52 4.63 51 9.25 51 9.25a436.92 436.92 0 00-37.55 2.49 27.92 27.92 0 01-4.19-6.46 51.66 51.66 0 002 10 57.86 57.86 0 004.42 10.31M278.45 159.84a52 52 0 002-10 27.92 27.92 0 01-4.19 6.46c-7.79-.86-21.43-2.13-37.56-2.49 0 0 33.5-4.62 51-9.25l5.37-1.6a70.39 70.39 0 01-21 27.17 59.13 59.13 0 004.41-10.31M149.89 253.28l-34.11-19.69c-2.45.23-4.87.47-7.18.71l47.4 27.33a47.65 47.65 0 01-6.07-8.35M233.3 253.28l34.11-19.69c2.45.23 4.86.47 7.18.71l-47.36 27.33a48.17 48.17 0 006.07-8.35M176.43 257.88c-15.06-3.27-21.3-10.69-21.3-10.69a41.07 41.07 0 0013.46 15.59s6.35-1.84 7.84-4.9M167.21 241.79c-1.06-1-2.15-2.11-3.21-3.23a26.68 26.68 0 00-9 4.81c3.33 3.17 9.68 7.39 21.09 9.77-1.39-3.91-4.93-7.42-8.9-11.35"/><path class="cls-2" d="M191.3 277.32a24.5 24.5 0 00-9.75 2.46c-1.25-2.36-2.7-4.75-4.08-6.86a27.49 27.49 0 008.06-.28 51.24 51.24 0 01-12.53-6.18c.52-.22 1.06-.46 1.6-.73a16.83 16.83 0 004.49-3.16 8.38 8.38 0 002.57-5.94c0-7.48-5-10-10.69-15.59-1.14-1.12-2.36-2.27-3.6-3.49a90.77 90.77 0 0121.74-2.65l2.27 31.74h.33l2.35-31.74a90.92 90.92 0 0121.74 2.65c-1.24 1.22-2.46 2.37-3.6 3.49-5.66 5.58-10.69 8.11-10.69 15.59a8.34 8.34 0 002.57 5.94 16.51 16.51 0 004.49 3.16c.54.27 1.07.51 1.59.73a51.24 51.24 0 01-12.53 6.18 27.45 27.45 0 008.06.28c-1.38 2.11-2.84 4.5-4.09 6.86a24.38 24.38 0 00-9.74-2.46z"/><path class="cls-2" d="M214.59 262.78a41 41 0 0013.46-15.59s-6.23 7.42-21.29 10.69c1.48 3.06 7.83 4.9 7.83 4.9M207.08 253.14c11.4-2.38 17.76-6.6 21.09-9.77a26.63 26.63 0 00-9-4.8 162.75 162.75 0 01-3.21 3.22c-4 3.93-7.52 7.44-8.9 11.35"/><path class="cls-3" d="M181.39 130.74a16.41 16.41 0 01-6.41-11.4s-7.17 12 6.41 11.4M202.2 130.74a16.41 16.41 0 006.41-11.4s7.16 12-6.41 11.4M198.14 288.93c-1-1-2.43-2.22-6.83-2.23-4.16 0-5.61 1.06-6.81 2l7.1 28.08zM245.09 165.61v10.28h-3.46v-10.28h-2.86v-2.93h9.17v2.93h-2.85zM229.01 165.61v10.28h-3.46v-10.28h-2.86v-2.93h9.18v2.93h-2.86zM180.44 171.21h1.24v-7.12l-1.45-1.41h-8.73v13.21h3.25v-4.68h2.45l1.88 4.68h3.23zm-5.69-3v-2.62h3.69v2.62zM264.98 165.61v-2.93h-9.7v13.21h9.7v-2.97h-6.31v-2.17h6.31v-2.97h-6.31v-2.17h6.31zM193.37 172.92v-10.25h-3.38v13.21h8.26v-2.96h-4.88zM213.46 162.68h-8.78v11.72l1.48 1.49h8.75v-11.75zm-5.54 10.24v-7.31h3.75v7.31zM163.7 175.89v-11.74l-1.46-1.47h-8.95v13.21h3.32v-4.3h3.76v4.3zm-7.11-7.28v-3h3.76v3zM142.72 162.67v5.95H139v-5.95h-3.33v13.21H139v-4.29h3.72v4.29h3.32v-13.21h-3.32zM341 68.87c6.43-15.11 11.26-25.8 11.26-25.8-53.57 34.8-101.39 66-128.76 83.89a58.12 58.12 0 01-3.54 8l107.93-58.8L243.67 137l3.89-.7 44.52-4.3s30.08-2.91 46.83-25.42c7.87-12.08 21.29-47.41 21.29-47.41zM83.17 209.67l10.37-4.47v23.55c3-.4 6-.78 9.13-1.15v-51.71h-9.11v18.62l-10.37 4.38v-23H74v26.76s-7.56 3.63-7.52 3.7l7.52 3.76v21.71c2.94-.54 6-1 9.17-1.54zM154.35 209.52c2.28-.07 4.5-.14 6.79-.19 1.68 4.38 3.42 9.34 5.1 13.74q4.53-.15 9.13-.22c-1.68-4.41-3.38-9.35-5.06-13.7 1.16 0 2.32-.05 3.49-.06v-21.15l-4.05-4h-28l3.46 4.12V224c3-.17 6.07-.32 9.16-.46zm0-17.18h10.33v8.1l-10.31.17zM190 192.34h10.47v30.39c3.16 0 6.43.07 9.54.14V188.1l-4.15-4.1h-28.64l3.44 4.12v34.68c3.11 0 6.21-.06 9.36-.07zM244.23 215.45c-5.92-.32-11.75-.58-17.67-.79v-6.49c5.94.17 11.78.37 17.7.62v-9.12c-5.93-.16-11.8-.3-17.71-.4v-6.93h17.72V184h-30.78l3.4 4.12v35c9.36.27 18.51.68 27.34 1.24zM267.26 192.34h7.87V184H249.3v8.38h8v32.9c3.3.27 6.73.55 9.92.85zM138.43 188.09l-4.14-4.09h-28.11l3.33 4v34.1l3.63 4.33c8.06-.82 16.58-1.51 25.28-2.07zm-9.19 27.81c-3.52.22-7 .44-10.48.7v-24.26h10.49zM308.23 209.93c2.82-1.27 5.67-2.56 8.5-3.89-9.11-4.22-18.23-8.06-27.36-11.6v-10.38H299v3.77h9.2v-11.94h-31.46l3.5 4.06v21.37l18.76 8.17v11.95l-9.66-1.24v-3.84l-9.13-1.08v12.2c10 1.16 19.35 2.52 28 4.05v-21.6M124.92 171.78v1.14h-2.96v-7.31h2.96v1.09h3.32v-4.03h-9.54v11.73l1.49 1.49h8.05v-4.11h-3.32zM42.17 68.87c-6.42-15.11-11.26-25.8-11.26-25.8 53.57 34.8 101.39 66 128.76 83.89a60.64 60.64 0 003.54 8L55.28 76.14 139.53 137l-3.89-.7-44.52-4.3S61 129.08 44.3 106.57C36.42 94.49 23 59.16 23 59.16z"/><path d="M374.53 58.42c-8.56 22.89-19.92 46.43-25.6 56.17-9.58 16.38-28.64 26.15-39.83 29.75 0 0-5.43 13.11-11 20.32h22.8v31l21.68 10.38-21.7 11v26L299.8 255.9s-16.8-2.08-24.93-2.9l-66.72 38.5c-13.38 60.39-16.55 78-16.55 78s-3.14-16.58-16.55-78L108.33 253c-8.17.84-24.93 2.92-24.93 2.92L62.35 243v-26l-21.7-11 21.65-10.31v-31h22.82c-5.49-6.88-11-20.32-11-20.32a82.82 82.82 0 01-18.77-8.89c-9-5.74-16.4-13-21.06-20.86-9.09-16-19.78-40.14-25.61-56.17C4.8 48.65 0 33.73 0 33.73s12.42 5.94 16.23 7.81C10.28 23.72 5.26 0 5.26 0S90.7 56.17 150.63 104.22l1-.58c0-1-.05-2-.05-3a8.83 8.83 0 01.51-3.24 12.76 12.76 0 015.72-6.58c-4.39-3.23-12.33-8.71-13-9.48-5.8-5-6.78-10.7-6.34-13.49l1-6.38 32.52 24.21a67.49 67.49 0 0139.38 0l32.43-24.26 1 6.38c.43 2.79-.54 8.46-6.33 13.49-.68.72-8.64 6.25-13 9.48a12.73 12.73 0 015.71 6.58 8.42 8.42 0 01.51 3.24v3l1 .58C293.93 55.06 377.94 0 377.94 0s-4.19 19.53-11 41.54c3.23-1.58 16.23-7.81 16.23-7.81-3.69 11.86-8.67 24.69-8.67 24.69M93.36 168.63H66.2v29.47l-16.33 8 16.33 8.52v26.2l18 11c6.64-.88 15.11-1.89 24.94-2.9l69.71 40.18 12.75 58.5c.08-.14 12.83-58.46 12.83-58.46L274 249c9.82 1 18.31 2 24.94 2.9l18-11v-26.2l16.36-8.34-16.3-8.26v-29.47h-27.16s4.2-4.07 9.52-13.23c2.23-3.83 4.33-8.61 6.91-14.26 19.78-6 34.39-18.65 40.64-31 16.95-31 29.71-69 29.71-69s-7.32 3.51-16.15 7.87c7.16-21.86 11.47-40.41 11.47-40.41S293.77 60.38 232.88 109l-5.27-3.16c0-.5.16-5 .16-5.31 0 0 .6-5.17-8.5-8.25l-1.61-.55c4.41-3.3 11.26-8.36 16.26-11.78 8-5.47 7-11.49 7-11.49l-28.89 21.5a66.07 66.07 0 00-40.92 0l-28.88-21.5s-.94 6 7 11.49c5 3.42 11.85 8.48 16.26 11.78l-1.61.55c-9.09 3.08-8.49 8.25-8.49 8.25 0 .36.13 4.81.16 5.31l-5.24 3.16C89.43 60.38 11.27 8.66 11.27 8.66s4.29 18.55 11.46 40.41C13.27 44.4 6.58 41.2 6.58 41.2s12.76 37.94 29.71 69c6.25 12.33 20.85 25 40.64 31 0 0 3.34 7.66 6.23 13.16 3.57 6.81 10.2 14.33 10.2 14.33" fill="#a1a0a3"/></g></g></svg>