<svg xmlns="http://www.w3.org/2000/svg" viewBox="0 0 107.81 57.02"><defs><clipPath id="clip-path"><path class="cls-1" d="M59.9 3.43a25.62 25.62 0 00-4.24.6 19.3 19.3 0 00-2.14 6.52 30.78 30.78 0 013.87-.61 9.05 9.05 0 014.32-6.55h-.3c-.5 0-1 0-1.51.05m-.57 6.39c9.44-.28 18.56 3.83 25.78 10.85a25 25 0 00-20.4-17.07c-2.5 1-5 3-5.38 6.21M46.52 8.25a9 9 0 011.2 4.2A35 35 0 0151.8 11a24.56 24.56 0 012-6.43 24.83 24.83 0 00-7.23 3.69m-8 10a38.69 38.69 0 017.47-5c.13-1.48 0-3.11-.82-3.93a25.13 25.13 0 00-6.65 8.91m20.85-6.63c.36 3.06 2.53 7 7.81 11.75C73 29 80.05 35.87 82.21 42.08a24.87 24.87 0 004.06-15.15c0-.79-.13-1.58-.24-2.35-6.83-8.25-16.17-12.95-25.83-12.95h-.87m-6.1.82c-1.42 11.34 1.06 29.69 15 39.92A25 25 0 0080.79 44c-2.07-6.39-9.47-13.94-15.48-19.64-5.48-5-7.65-9.21-7.94-12.62a29.84 29.84 0 00-4.14.7m-5.74 2c-.19.87-.48 1.79-.79 2.87-.85 3-3.61 6.89-4.55 9.8-1.77 5.43-1.27 13.56 1.36 18.74a24.91 24.91 0 0019.26 7.45 26.36 26.36 0 003.36-.42C52.22 42.85 50 24.54 51.5 12.93a31 31 0 00-4 1.51m-10.17 7a25.06 25.06 0 00-.92 8.33 24.86 24.86 0 003.74 11.78A27.63 27.63 0 0141 25.18c1.33-3.26 3.64-6.19 4.56-9.68v-.1a37.61 37.61 0 00-8.27 6.07m.09-.31a1.49 1.49 0 00.18-.55l-.18.55"/></clipPath><clipPath id="clip-path-2"><path class="cls-1" d="M59.78 1.38a27 27 0 00-25.43 28.54 27 27 0 0028.54 25.43 27 27 0 0025.43-28.54 27 27 0 00-27-25.48h-1.58M55.66 4a25.62 25.62 0 014.24-.6c.61 0 1.21-.05 1.81 0a9.05 9.05 0 00-4.32 6.55 30.78 30.78 0 00-3.87.61A19.3 19.3 0 0155.66 4m9-.42a25 25 0 0120.4 17.06c-7.22-7-16.34-11.13-25.78-10.85.4-3.17 2.88-5.21 5.38-6.21M46.52 8.25a24.83 24.83 0 017.23-3.69 24.56 24.56 0 00-2 6.43 35 35 0 00-4.08 1.46 9 9 0 00-1.2-4.2m-1.4 1.11c.86.82 1 2.45.83 3.93a38.69 38.69 0 00-7.47 5 25.23 25.23 0 016.64-8.91m22 14c-5.28-4.79-7.45-8.69-7.81-11.75C69.3 11.35 79 16.08 86 24.58c.11.77.19 1.56.24 2.35a24.87 24.87 0 01-4.06 15.15C80.05 35.87 73 29 67.14 23.39M53.23 12.46a29.84 29.84 0 014.14-.7c.29 3.41 2.46 7.65 7.94 12.62 6 5.7 13.41 13.25 15.48 19.64a25 25 0 01-12.56 8.36c-13.94-10.23-16.42-28.58-15-39.92m-9.72 33.39c-2.63-5.18-3.13-13.31-1.36-18.74.94-2.91 3.7-6.85 4.55-9.8.31-1.08.6-2 .79-2.87a31 31 0 014-1.51c-1.53 11.61.72 29.93 14.63 40a26.36 26.36 0 01-3.36.42h-1.45a24.9 24.9 0 01-17.81-7.49m-7.11-16a25.06 25.06 0 01.92-8.33 37.61 37.61 0 018.27-6.07v.1c-.94 3.44-3.25 6.36-4.58 9.62a27.63 27.63 0 00-.86 16.4A24.86 24.86 0 0136.4 29.8m1.19-9.19a1.49 1.49 0 01-.18.55l.18-.55"/></clipPath><clipPath id="clip-path-3"><path class="cls-1" d="M86.11 36.57a24.33 24.33 0 00-4 3.43 1.18 1.18 0 00.18 1c.19.33.36.54.47.71a1.27 1.27 0 01.3-.77 9.84 9.84 0 018.07-4.1 12.18 12.18 0 00-7.67 5.13c-.23.25-.42.29-.54.2 0 .44-.31 1-.7 1.06a11.79 11.79 0 00-2 1.38v.78l.15 2.46a7.19 7.19 0 00.86 2.45c.56.71 2.19 3.05 4.76 3.31s.18-6.25 1-8.1c.78-1.87 1.82-4 3.49-4.92 1.68-.89 4.24-1.78 5.58-2.49A6.12 6.12 0 0098 36.61a48 48 0 01-5-.48 18.85 18.85 0 00-3.07-.27 7.92 7.92 0 00-3.74.75"/></clipPath><clipPath id="clip-path-4"><path class="cls-1" d="M55.53 20.47c-9.62-4.2-21.32-.9-30.5 4.52L18 23.2C11.53 21.55 5.87 20.14.3 21.41c4.26 3.8 9.9 5.31 16.32 7l2.49.65A40.35 40.35 0 0013 34.94l-1.61 2 5.8-.92C3.76 57.11 25.77 65 40.6 46.49l15.38-4c-2.14 2.84-2.14 7.06-2.14 7.06l.93-.71A32.33 32.33 0 0169 42.09l9.86 2.58a.65.65 0 000 .17c-.35 5.43 2.17 9.11 7.76 10 .32.06.56.12 1 .18a23.2 23.2 0 01-.06-3.23c4.25 3 8.92 2.49 12.79-.88l.29.71c4.15 1 6.22-6 5.9-7.57a10.08 10.08 0 00-4.69.48l-10.53-2.79c1.92-1.44 8.3-3 8.39-6.38s0-.1 0-.15c3.43-2.71 4.63-6.54 3.45-11.79l4.4-11-13.18 3.2 1.7-5.13-40.55 10zm24.06 15C89.37 34 99.85 31.6 96.13 26a11.7 11.7 0 01-1.63-1.59c-2.42-3.25 1.72-7 6.36-6.66A6.56 6.56 0 01102 18l-1.14 2.91c-.94-1.49-4-1.85-4.37 0-.3 1.35 1.84 1.84 3.09 4.2 1.7 3.22-.07 6.47-3.16 8a29.44 29.44 0 01-3.7 1.59c-1 .27-2.11.56-3.44.94A38.54 38.54 0 0183 36.91c-8 1.2-16.37 1.58-23.39 4.87 3-3.12 11.11-4.91 20-6.28M29 26.27c11.28-5.68 21.78-6 26.28-1.58-.18-.05-8.89 5.1-9.79 5.77C49.82 22 42 23.94 35.56 28L29 26.27zm-10.54 6.84q2.33-1.87 4.68-3.42l7.55 2.07a4.17 4.17 0 00-.36.37c-16.8 17.52-5.75 20.47 6.48 13.72a23.18 23.18 0 01-1.72 1.71c-13.6 13.36-28.43 3.3-10.33-15.89-1.93.55-5.82 1.45-6.26 1.45"/></clipPath><clipPath id="clip-path-5"><path class="cls-1" d="M82.64 40.6a2.07 2.07 0 01.74 1.86c-.07 1-.66 1.82-1.35 1.84s0 0 0 .07a6.18 6.18 0 001.37 3.8 11 11 0 015.7-8.5 14.14 14.14 0 00-4.47 11.84c-1.86-.37-3.41-3.5-4-5.15.42 2.82 2.17 6.18 4.87 6.37-.56-5.41 1.55-11 5.09-12.89 1.46-.78 3.51-1.29 5.76-2.73a30 30 0 01-4-.57 11.08 11.08 0 00-2-.18 9.22 9.22 0 00-7.78 4.24"/></clipPath><clipPath id="clip-path-6"><path class="cls-1" d="M55.44 21.57c-9-4.09-20.1-1.26-29 3.76l17.37 4.38a4.74 4.74 0 01-.25.64l-7.71 2.35a9.06 9.06 0 00-1 .46l-14.56-3.82a39.85 39.85 0 00-6.6 6.22l5.21-.68C4 58.72 28.09 61.74 39.49 45.7l18.9-4.7a13.49 13.49 0 00-3.29 6.32c5.6-4.84 12.9-6.34 17.27-6.65 2.66-.2 5.6-.49 7.87-.74l.64-.81a11.34 11.34 0 018.29-4.55 11.74 11.74 0 014.39.32 20.81 20.81 0 004 .66c4.59-2.67 5.94-6.54 4.61-12.16l3.55-9.47s-9 2.18-12.8 3.09l1.7-5.12-39.18 9.68z"/></clipPath><style>.cls-1,.cls-4,.cls-6{fill:none}.cls-2{fill:#fdbb30}.cls-3{fill:#002b60}.cls-4,.cls-6{stroke:#002b60;stroke-width:.29px}.cls-6{stroke:#860038}.cls-12{fill:#fff}</style></defs><g id="Layer_2" data-name="Layer 2"><g id="Layer_1-2" data-name="Layer 1"><g id="g4974"><g id="g4980"><path id="path4982" class="cls-2" d="M33 30a28.36 28.36 0 1130 26.68A28.34 28.34 0 0133 30"/></g><g id="g4984"><path id="path4986" class="cls-3" d="M88.32 26.81A27 27 0 1159.78 1.38a27 27 0 0128.54 25.43"/></g><g id="g4988"><path id="path4990" class="cls-4" d="M88.32 26.81A27 27 0 1159.78 1.38a27 27 0 0128.54 25.43z"/></g><g id="g4992"><path id="path4994" d="M86.27 26.93a24.87 24.87 0 01-4.06 15.15C80.05 35.87 73 29 67.14 23.39c-5.28-4.79-7.45-8.69-7.81-11.75C69.3 11.35 79 16.08 86 24.58c.11.77.19 1.56.24 2.35M80.79 44a25 25 0 01-12.56 8.36c-13.94-10.23-16.42-28.58-15-39.92a29.45 29.45 0 014.13-.7c.29 3.41 2.46 7.65 7.94 12.62 6 5.7 13.41 13.25 15.48 19.64m-14.65 8.88a26.36 26.36 0 01-3.36.42 24.91 24.91 0 01-19.26-7.45c-2.62-5.18-3.13-13.31-1.36-18.74.94-2.91 3.7-6.85 4.55-9.8.31-1.08.6-2 .79-2.86a29.65 29.65 0 014-1.52c-1.53 11.61.72 29.92 14.63 40m-26-11.3a25 25 0 01-2.82-20.11 37.61 37.61 0 018.27-6.07v.1c-.93 3.45-3.24 6.37-4.57 9.63a27.63 27.63 0 00-.86 16.4m-2.73-20.42c.06-.18.12-.36.17-.55a1.31 1.31 0 01-.17.55m1.07-2.89a25.23 25.23 0 016.64-8.91c.86.82 1 2.45.83 3.93a38.69 38.69 0 00-7.47 5m8-10a24.83 24.83 0 017.23-3.69 24.56 24.56 0 00-2 6.43 35 35 0 00-4.08 1.46 9 9 0 00-1.2-4.2M55.66 4a25.62 25.62 0 014.24-.6c.61 0 1.21-.05 1.81 0a9.05 9.05 0 00-4.32 6.55 30.78 30.78 0 00-3.87.61A19.3 19.3 0 0155.66 4m9-.42a25 25 0 0120.4 17.06c-7.22-7-16.34-11.13-25.78-10.85.4-3.17 2.88-5.21 5.38-6.21" fill="#860038"/></g><g id="g4996"><path id="path4998" class="cls-6" d="M86.27 26.93a24.87 24.87 0 01-4.06 15.15C80.05 35.87 73 29 67.14 23.39c-5.28-4.79-7.45-8.69-7.81-11.75C69.3 11.35 79 16.08 86 24.58c.14.77.22 1.56.27 2.35zM80.79 44a25 25 0 01-12.56 8.36c-13.94-10.23-16.42-28.58-15-39.92a29.45 29.45 0 014.13-.7c.29 3.41 2.46 7.65 7.94 12.62 6 5.7 13.41 13.25 15.48 19.64zm-14.66 8.88a26.36 26.36 0 01-3.36.42 24.91 24.91 0 01-19.26-7.45c-2.62-5.18-3.13-13.31-1.36-18.74.94-2.91 3.7-6.85 4.55-9.8.31-1.08.6-2 .79-2.86a29.65 29.65 0 014-1.52c-1.49 11.61.73 29.92 14.64 39.95zm-26-11.3a25 25 0 01-2.82-20.11 37.61 37.61 0 018.27-6.07v.1c-.94 3.5-3.25 6.42-4.58 9.68a27.63 27.63 0 00-.86 16.4zm-2.72-20.42c.06-.18.12-.36.17-.55a1.31 1.31 0 01-.17.55zm1.07-2.89a25.23 25.23 0 016.64-8.91c.86.82 1 2.45.83 3.93a38.69 38.69 0 00-7.47 5zm8-10a24.83 24.83 0 017.23-3.69 24.56 24.56 0 00-2 6.43 35 35 0 00-4.08 1.46 9 9 0 00-1.11-4.22zM55.66 4a25.62 25.62 0 014.24-.6c.61 0 1.21-.05 1.81 0a9.05 9.05 0 00-4.32 6.55 30.78 30.78 0 00-3.87.61A19.3 19.3 0 0155.66 4zm9-.42a25 25 0 0120.4 17.06c-7.22-7-16.34-11.13-25.78-10.85.4-3.17 2.88-5.21 5.38-6.21z"/></g><g id="g5000"><path id="path5002" class="cls-2" d="M101.76 44.55l-10.44-2.81c1.92-1.44 8.3-3 8.39-6.38v-.15c3.43-2.71 4.63-6.54 3.45-11.79l4.4-11-13.18 3.2 1.7-5.13-40.55 10c-9.62-4.2-21.32-.9-30.5 4.52L18 23.2C11.53 21.55 5.87 20.14.3 21.41c4.26 3.8 9.9 5.31 16.32 7l2.49.65A40.35 40.35 0 0013 34.94l-1.61 2 5.8-.92C3.76 57.11 25.77 65 40.6 46.49l15.38-4c-2.14 2.84-2.14 7.06-2.14 7.06l.93-.71A32.33 32.33 0 0169 42.09l9.86 2.58a.65.65 0 000 .17c-.35 5.43 2.17 9.11 7.76 10 .32.06.56.12 1 .18a23.2 23.2 0 01-.06-3.23c4.25 3 8.92 2.49 12.79-.88l.29.71c4.15 1 6.22-6 5.9-7.57a10.08 10.08 0 00-4.69.48"/></g></g><g clip-path="url(#clip-path)" id="g5004"><g id="g5006"><g id="g5012"><path id="path5014" class="cls-2" d="M101.76 44.55l-10.44-2.81c1.92-1.44 8.3-3 8.39-6.38v-.15c3.43-2.71 4.63-6.54 3.45-11.79l4.4-11-13.18 3.2 1.7-5.13-40.55 10c-9.62-4.2-21.32-.9-30.5 4.52L18 23.2C11.53 21.55 5.87 20.14.3 21.41c4.26 3.8 9.9 5.31 16.32 7l2.49.65A40.35 40.35 0 0013 34.94l-1.61 2 5.8-.92C3.76 57.11 25.77 65 40.6 46.49l15.38-4c-2.14 2.84-2.14 7.06-2.14 7.06l.93-.71A32.33 32.33 0 0169 42.09l9.86 2.58a.65.65 0 000 .17c-.35 5.43 2.17 9.11 7.76 10 .32.06.56.12 1 .18a23.2 23.2 0 01-.06-3.23c4.25 3 8.92 2.49 12.79-.88l.29.71c4.15 1 6.22-6 5.9-7.57a10.08 10.08 0 00-4.69.48"/></g><g id="g5016"><path id="path5018" class="cls-6" d="M101.76 44.55l-10.44-2.81c1.92-1.44 8.3-3 8.39-6.38v-.15c3.43-2.71 4.63-6.54 3.45-11.79l4.4-11-13.18 3.2 1.7-5.13-40.55 10c-9.62-4.2-21.32-.9-30.5 4.52L18 23.2C11.53 21.55 5.87 20.14.3 21.41c4.26 3.8 9.9 5.31 16.32 7l2.49.65A40.35 40.35 0 0013 34.94l-1.61 2 5.8-.92C3.76 57.11 25.77 65 40.6 46.49l15.38-4c-2.14 2.84-2.14 7.06-2.14 7.06l.93-.71A32.33 32.33 0 0169 42.09l9.86 2.58a.65.65 0 000 .17c-.35 5.43 2.17 9.11 7.76 10 .32.06.56.12 1 .18a23.2 23.2 0 01-.06-3.23c4.25 3 8.92 2.49 12.79-.88l.29.71c4.15 1 6.22-6 5.9-7.57a10.08 10.08 0 00-4.78.5z"/></g></g></g><g clip-path="url(#clip-path-2)" id="g5020"><g id="g5022"><g id="g5028"><path id="path5030" class="cls-2" d="M101.76 44.55l-10.44-2.81c1.92-1.44 8.3-3 8.39-6.38v-.15c3.43-2.71 4.63-6.54 3.45-11.79l4.4-11-13.18 3.2 1.7-5.13-40.55 10c-9.62-4.2-21.32-.9-30.5 4.52L18 23.2C11.53 21.55 5.87 20.14.3 21.41c4.26 3.8 9.9 5.31 16.32 7l2.49.65A40.35 40.35 0 0013 34.94l-1.61 2 5.8-.92C3.76 57.11 25.77 65 40.6 46.49l15.38-4c-2.14 2.84-2.14 7.06-2.14 7.06l.93-.71A32.33 32.33 0 0169 42.09l9.86 2.58a.65.65 0 000 .17c-.35 5.43 2.17 9.11 7.76 10 .32.06.56.12 1 .18a23.2 23.2 0 01-.06-3.23c4.25 3 8.92 2.49 12.79-.88l.29.71c4.15 1 6.22-6 5.9-7.57a10.08 10.08 0 00-4.69.48"/></g><g id="g5032"><path id="path5034" class="cls-4" d="M101.76 44.55l-10.44-2.81c1.92-1.44 8.3-3 8.39-6.38v-.15c3.43-2.71 4.63-6.54 3.45-11.79l4.4-11-13.18 3.2 1.7-5.13-40.55 10c-9.62-4.2-21.32-.9-30.5 4.52L18 23.2C11.53 21.55 5.87 20.14.3 21.41c4.26 3.8 9.9 5.31 16.32 7l2.49.65A40.35 40.35 0 0013 34.94l-1.61 2 5.8-.92C3.76 57.11 25.77 65 40.6 46.49l15.38-4c-2.14 2.84-2.14 7.06-2.14 7.06l.93-.71A32.33 32.33 0 0169 42.09l9.86 2.58a.65.65 0 000 .17c-.35 5.43 2.17 9.11 7.76 10 .32.06.56.12 1 .18a23.2 23.2 0 01-.06-3.23c4.25 3 8.92 2.49 12.79-.88l.29.71c4.15 1 6.22-6 5.9-7.57a10.08 10.08 0 00-4.78.5z"/></g></g></g><g id="g5038"><g id="g5044"><path id="path5046" class="cls-3" d="M105.77 44.94a6.05 6.05 0 00-3.87.54s-8-2.14-10.92-2.93l-1.54-.42c1-1.34 2.91-1.92 4.82-2.77A18.09 18.09 0 0097.09 38c1.53-1.08 1.75-1.78 1.76-1.78a22.4 22.4 0 01-5.92-.77 11.55 11.55 0 00-3.65-.17h-.11a11 11 0 00-7.76 4.56l-.28.35-.54.63.94.24c.65.1.28 1.51-.58 1.29l-4.1-1.07-4.41.34c-.58 0-1.22.12-1.91.22l9.09 2.39c-.65 5.94 2.54 9.59 7 9.95v-4.15s6.47 6.94 13.89-.52a10.55 10.55 0 01.62 1.41c3.27.38 4.71-5.94 4.6-6"/></g><g id="g5048"><path id="path5050" class="cls-4" d="M105.77 44.94a6.05 6.05 0 00-3.87.54s-8-2.14-10.92-2.93l-1.54-.42c1-1.34 2.91-1.92 4.82-2.77A18.09 18.09 0 0097.09 38c1.53-1.08 1.75-1.78 1.76-1.78a22.4 22.4 0 01-5.92-.77 11.55 11.55 0 00-3.65-.17h-.11a11 11 0 00-7.76 4.56l-.28.35-.54.63.94.24c.65.1.28 1.51-.58 1.29l-4.1-1.07-4.41.34c-.58 0-1.22.12-1.91.22l9.09 2.39c-.65 5.94 2.54 9.59 7 9.95v-4.15s6.47 6.94 13.89-.52a10.55 10.55 0 01.62 1.41c3.31.35 4.75-5.92 4.64-5.98z"/></g></g><g clip-path="url(#clip-path-3)" id="g5052"><g id="g5054"><g id="g5060"><path id="path5062" class="cls-2" d="M92.38 36.54a9.29 9.29 0 00-9.74 4.06 2.07 2.07 0 01.74 1.86c-.07 1-.66 1.82-1.35 1.84v.07a6.18 6.18 0 001.37 3.8 11 11 0 015.7-8.5 14.14 14.14 0 00-4.47 11.84c-1.86-.37-3.41-3.5-4-5.15.42 2.82 2.17 6.18 4.87 6.37-.56-5.41 1.55-11 5.09-12.89 1.46-.78 3.51-1.29 5.76-2.73a30 30 0 01-4-.57"/></g><g id="g5064"><path id="path5066" class="cls-4" d="M92.38 36.54a9.29 9.29 0 00-9.74 4.06 2.07 2.07 0 01.74 1.86c-.07 1-.66 1.82-1.35 1.84v.07a6.18 6.18 0 001.37 3.8 11 11 0 015.7-8.5 14.14 14.14 0 00-4.47 11.84c-1.86-.37-3.41-3.5-4-5.15.42 2.82 2.17 6.18 4.87 6.37-.56-5.41 1.55-11 5.09-12.89 1.46-.78 3.51-1.29 5.76-2.73a30 30 0 01-3.97-.57z"/></g></g></g><g id="g5070"><g id="g5076"><path id="path5078" class="cls-3" d="M39.57 31.51L20 26.41c-5.59-1.55-7-2.8-7.4-3.12L24 26.23 42.43 31c-.83.2-2.09.41-2.86.54m66.14-17.63s-9 2.18-12.8 3.09l1.7-5.12-39.17 9.69c-9-4.09-20.1-1.26-29 3.76l17.37 4.38a4.74 4.74 0 01-.25.64l-26.42-6.63C11.79 22.34 7 21 2.33 21.93c3.61 3 8.47 4.21 13.83 5.59l19.69 5.18a9.06 9.06 0 00-1 .46L20.3 29.34a39.54 39.54 0 00-6.61 6.22l5.21-.69C4 58.72 28.09 61.74 39.49 45.7l18.9-4.7a13.49 13.49 0 00-3.29 6.32c5.6-4.84 12.9-6.34 17.27-6.65 2.66-.2 5.6-.49 7.87-.74l.65-.81a11.31 11.31 0 018.28-4.55 11.74 11.74 0 014.39.32 20.81 20.81 0 004 .66c4.59-2.67 5.94-6.54 4.61-12.16l3.55-9.47z"/></g></g><g clip-path="url(#clip-path-4)" id="g5080"><g id="g5082"><g id="g5088"><path id="path5090" class="cls-3" d="M39.57 31.51L20 26.41c-5.59-1.55-7-2.8-7.4-3.12L24 26.23 42.43 31c-.83.2-2.09.41-2.86.54m66.14-17.63s-9 2.18-12.8 3.09l1.7-5.12-39.17 9.69c-9-4.09-20.1-1.26-29 3.76l17.37 4.38a4.74 4.74 0 01-.25.64l-26.42-6.63C11.79 22.34 7 21 2.33 21.93c3.61 3 8.47 4.21 13.83 5.59l19.69 5.18a9.06 9.06 0 00-1 .46L20.3 29.34a39.54 39.54 0 00-6.61 6.22l5.21-.69C4 58.72 28.09 61.74 39.49 45.7l18.9-4.7a13.49 13.49 0 00-3.29 6.32c5.6-4.84 12.9-6.34 17.27-6.65 2.66-.2 5.6-.49 7.87-.74l.65-.81a11.31 11.31 0 018.28-4.55 11.74 11.74 0 014.39.32 20.81 20.81 0 004 .66c4.59-2.67 5.94-6.54 4.61-12.16l3.55-9.47z"/></g><g id="g5092"><path id="path5094" class="cls-4" d="M39.57 31.51L20 26.41c-5.59-1.55-7-2.8-7.4-3.12L24 26.23 42.43 31c-.83.17-2.09.38-2.86.51zm66.14-17.63s-9 2.18-12.8 3.09l1.7-5.12-39.17 9.72c-9-4.09-20.1-1.26-29 3.76l17.37 4.38a4.74 4.74 0 01-.25.64l-26.42-6.63C11.79 22.34 7 21 2.33 21.93c3.61 3 8.47 4.21 13.83 5.59l19.69 5.18a9.06 9.06 0 00-1 .46L20.3 29.34a39.54 39.54 0 00-6.61 6.22l5.21-.69C4 58.72 28.09 61.74 39.49 45.7l18.9-4.7a13.49 13.49 0 00-3.29 6.32c5.6-4.84 12.9-6.34 17.27-6.65 2.66-.2 5.6-.49 7.87-.74l.65-.81a11.31 11.31 0 018.28-4.55 11.74 11.74 0 014.39.32 20.81 20.81 0 004 .66c4.59-2.67 5.94-6.54 4.61-12.16l3.55-9.47z"/></g></g></g><g id="g5098"><g id="g5104"><path id="path5106" class="cls-2" d="M102.33 46.26a8.28 8.28 0 012.54-.66 7.38 7.38 0 00-1.87 1.13 3 3 0 01-1.8 2.15 4.8 4.8 0 001.13-2.62"/></g><g id="g5108"><path id="path5110" class="cls-4" d="M102.33 46.26a8.28 8.28 0 012.54-.66 7.38 7.38 0 00-1.87 1.13 3 3 0 01-1.8 2.15 4.8 4.8 0 001.13-2.62z"/></g><g id="g5112"><path id="path5114" class="cls-2" d="M87 47.55c1.65 3.64 6.47 4.49 9.38 3.88-1.3 1.13-7.63.89-9.53-2.83l.15-1.05"/></g><g id="g5116"><path id="path5118" class="cls-4" d="M87 47.55c1.65 3.64 6.47 4.49 9.38 3.88-1.3 1.13-7.63.89-9.53-2.83z"/></g><g id="g5120"><path id="path5122" class="cls-2" d="M88.81 42.92l12.51 3.24c.41.1.24 1.25-.29 1.11L88.16 44a3.66 3.66 0 01.65-1.08"/></g><g id="g5124"><path id="path5126" class="cls-4" d="M88.81 42.92l12.51 3.24c.41.1.24 1.25-.29 1.11L88.16 44a3.66 3.66 0 01.65-1.08z"/></g><g id="g5128"><path id="path5130" class="cls-2" d="M99.48 48.46c-4.52 4.45-11.6 1.39-11.56-2.23a16.69 16.69 0 0011.56 2.23"/></g><g id="g5132"><path id="path5134" class="cls-4" d="M99.48 48.46c-4.52 4.45-11.6 1.39-11.56-2.23a16.69 16.69 0 0011.56 2.23z"/></g></g><g clip-path="url(#clip-path-5)" id="g5136"><g id="g5138"><g id="g5144"><path id="path5146" class="cls-12" d="M83 40.9c-.56.68-.28 1.78.4 1a12.18 12.18 0 017.67-5.13A9.84 9.84 0 0083 40.9"/></g></g></g><g id="g5150"><g id="g5156"><path id="path5158" class="cls-3" d="M97.32 49.31A15.82 15.82 0 0189 47.45c.67 2.11 5.69 3.65 8.29 1.86"/></g><g id="g5160"><path id="path5162" class="cls-12" d="M85.5 18.5l-.41-1.5-1 3.06-1 .25 1.55-4 1-.25.36 1.37.64-1.62 1-.25-1.56 4-1 .26.47-1.28m-3.34-1.2H82a1.35 1.35 0 00-.28 0l-.36.14a.61.61 0 00-.16.09l-.62 1.53 1-.24.61-1.52zm-.75 2l-1 .24-.6 1.42-1 .26 1.38-3.47c.06-.17.34-.36.75-.56a4.77 4.77 0 011-.36 3.06 3.06 0 01.89-.09c.29 0 .46.09.4.24l-1.37 3.49-1 .26.59-1.5zm-4.59-1l1-.25-1.4 3.41 1.68-.41-.17.43-2.71.67 1.55-4zm-3.29.85l2.33-.57-.17.43-1.3.31-.47 1.2 1.31-.32-.17.43-1.31.33-.58 1.46 1.26-.46-.17.44L72 23zm-7.3 1.8l2.34-.57-.17.43-1.3.32-.47 1.19 1.3-.32-.17.44-1.31.32-.57 1.47 1.31-.33-.18.44-2.33.57 1.55-4zm-3.49.89l1-.25L62.38 25l1.68-.41-.17.44-2.71.66zm-4.28 4.62a3.48 3.48 0 01-.81.08c-.37 0-.57-.06-.51-.23l1.19-3c0-.13.29-.29.62-.47a4.36 4.36 0 01.95-.38l1.6-.5-.27.71-1 .25.12-.27-.28.06a3.77 3.77 0 00-.61.19c-.11 0-.15.08-.16.11L58.2 26h.45a2.14 2.14 0 00.39-.16.54.54 0 00.22-.21l-.06-.14 1.11-.27-.12.33a1.69 1.69 0 01-.77.53 5.06 5.06 0 01-1 .36M89 18.75l-1.67.41 1.55-4 1.68-.41a2 2 0 01.8 0c.25 0 .41.1.36.22l-1.14 2.92a1.52 1.52 0 01-.64.48 4.38 4.38 0 01-.94.39m1.54-3.52h-.12l-.67.16-1.21 3.09.52-.12.27-.11.19-.1 1.14-2.86h-.12M69 20.26l.83-.18.07 2.11 1.66-2.51 1.12-.3-3.25 4.36z"/></g><g id="g5164"><path id="path5166" class="cls-12" d="M47.59 31.38l1.61 1a27.37 27.37 0 01-6.49 8.88l3.6-9.58-2.76.74L39 43.92l5.81-1.49C45 42.4 50 38.36 52.94 30l-5.35 1.36"/></g><g id="g5168"><path id="path5170" class="cls-12" d="M36.11 39.63l-2.27.65s1.89-3.71 3.85-4.29l-1.58 3.64m-5.36 1.87s-2.12 4.29-2.54 5.18l2.87-.75 1.93-4 2.33-.68-1.6 4 3-.78 4.69-11.65c-1.57.54-7.14.64-10.73 8.67"/></g><g id="g5172"><path id="path5174" class="cls-12" d="M86.59 25.92l1.33-3.69 2.08-.55a6.72 6.72 0 01-3.4 4.24M88.8 27a2.55 2.55 0 01-.28-.71l.29-.15c1.86-1.06 3.92-4.23 3.83-6.39-2.62.7-7 1.83-7 1.87L81.4 33.18l2.73-.7 1.8-5c.21.47 1.41 3.32 3.76 3.56 2.71.27 4.29-2.4 4.29-2.4A4 4 0 0188.8 27"/></g><g id="g5176"><path id="path5178" class="cls-12" d="M56.83 34.37l-2.26.63s1.89-3.71 3.85-4.3l-1.59 3.64m-5.36 1.88s-2.08 4.22-2.51 5.1l2.9-.75 1.89-4 2.31-.57-1.58 4 3-.76 4.73-11.64c-1.38.4-7.15.61-10.74 8.65"/></g><g id="g5180"><path id="path5182" class="cls-12" d="M72.67 24.83l-4.52 11.6L71 35.7l4.51-11.59z"/></g><g id="g5184"><path id="path5186" class="cls-12" d="M75.75 33.14l1.44-3.39 4-2.13-3.19.23 1.39-3.69a2.54 2.54 0 013.35 1.08L84 22l-7 1.77-4.42 11.57 7.09-1.84 1.52-3.59a9.39 9.39 0 01-5.44 3.23"/></g><g id="g5188"><path id="path5190" class="cls-12" d="M63 36.39l3.78-10-3 .76-4.48 11.58 7.65-2 1.69-4.11c-2 2.4-3.1 3.33-5.64 3.75"/></g></g><g clip-path="url(#clip-path-6)" id="g5192"><g id="g5194"><g id="g5200"><path id="path5202" class="cls-12" d="M102 18l-1.14 2.91c-.94-1.49-4-1.85-4.37 0-.3 1.35 1.84 1.84 3.09 4.2 1.7 3.22-.07 6.47-3.16 8a29.44 29.44 0 01-3.7 1.59c-1 .27-2.11.56-3.44.94A38.54 38.54 0 0183 36.91c-8 1.2-16.37 1.58-23.39 4.87 3-3.12 11.11-4.91 20-6.28 9.76-1.5 20.24-3.9 16.52-9.5a11.7 11.7 0 01-1.63-1.59c-2.42-3.25 1.72-7 6.36-6.66A6.56 6.56 0 01102 18"/></g><g id="g5204"><path id="path5206" class="cls-12" d="M55.29 24.7c0-.15-8.89 5.08-9.79 5.76 5.65-11-9.41-4.35-15.17 1.67-16.8 17.52-5.75 20.47 6.48 13.72a23.18 23.18 0 01-1.72 1.71c-13.6 13.36-28.43 3.3-10.33-15.89a57.36 57.36 0 01-6.3 1.44C33.22 21.2 49.4 18.93 55.29 24.7"/></g></g></g></g></g></svg>