<svg xmlns="http://www.w3.org/2000/svg" viewBox="0 0 78.84 67.32"><defs><style>.cls-1{fill:#ed174c}.cls-2{fill:#0067b1}.cls-3{fill:#fff}.cls-4{fill:#002d62}</style></defs><g id="Layer_2" data-name="Layer 2"><g id="Layer_1-2" data-name="Layer 1"><path class="cls-1" d="M31.7 39.42c0 2.35-1.42 3.73-4.22 4.1-1.83.17-3.32.33-4.83.53l-.91.11v-4.53l1.7-.21 1.55-.2v-3.38a4.34 4.34 0 01-3.36-2.38l-.05-.12v10.82l-.63.1c-1.26.17-2.58.38-4.07.63 4 2.85 10.46 5.64 20.44 6.21.15-2.57-1-5.27-2.73-8.08h-.17v-.28c-.77-1.19-1.64-2.4-2.58-3.63v.3zM15.43 27.65l1-.16v-.07c1.48-.26 2.91-.5 4.38-.72l.72-.11v2a3.21 3.21 0 01.91-1.51c-2.59-3.85-4.67-7.93-5.2-12.23a28.94 28.94 0 00-6.46 13.7h.19l.92-.21h.12l.26-.05h.15a2.75 2.75 0 012.12.4l.09.09.07.08a.44.44 0 01.08.11v-1.21zM11.45 39.45h-.11a19.18 19.18 0 003.5 3.93v-6.15a5 5 0 01-3.37 2.19"/><path class="cls-1" d="M14.85 45a21.5 21.5 0 01-3.52-3.53 29.22 29.22 0 0013.53 17.35c3.95.66 7 .22 9.14-1.33a8 8 0 003-5.27c-11.07-.6-17.87-3.87-21.94-7h-.23zM63.77 44.91l-1.37-.25-.83-.15-.85-.13c-1.6-.26-3.24-.49-5-.71h-.2a44.41 44.41 0 00-2 6.26 23.46 23.46 0 0010.26-5M63 27.28c1.58.27 3.09.57 4.67.89a29 29 0 00-5.14-11.68 20.46 20.46 0 01.21 10.78H63zM43.64 23.28h-.07a2.06 2.06 0 01-1.52-.81V23.13h-3.34q0-3 .08-6l-.08.07a1.42 1.42 0 01-.42.23c0 1.67-.05 3.3-.08 5H38v.74c-1.12.05-2.23.1-3.35.13 0 0 .07-4.87.07-5.54h-.78l-1.76.14v.28l1.36-.11v1.89h-.23v.73l-1.13.1v.43l2-.18v1.51h-.22v.7h-.39c-1.4.11-2.83.25-4.38.43l-.53.06v-.76a2.34 2.34 0 01-1.67 1c-1.25.18-2.46.38-3.78.64l-.58.11s.07-5.09.08-5.68a1.56 1.56 0 01-.66-.25 1.16 1.16 0 01-.46-1v-.12c0-.15.05-.3.08-.45l.25-.05.82-.15c1.67-.34 3.28-.62 5-.86a1.9 1.9 0 011 .08v-.21h.35l.76-.08c1.28-.15 2.48-.27 3.73-.37H34.7c1.54-.1 3-.16 4.56-.18h.32a.09.09 0 010 .05h.43v-.06h3.12C41.88 10.14 40.47 6.45 39 4.69a28.85 28.85 0 00-19.86 8.11c-.32.31-.63.63-.93.94.27 4.48 2.35 8.69 5.1 12.74a1.87 1.87 0 01.4-.13 17.28 17.28 0 012.05-.29h.16c.62-.07 3.55-.35 5.9-.5h.66l1.82-.08c3-.13 5.86-.16 8.87-.09h.68a2.88 2.88 0 010 .59V26a2.86 2.86 0 01-.21 1 4.36 4.36 0 011.09-.77c-.11-1-.23-2-.36-3h-.75M29.36 30.78c.24.08.46.15.66.24a2.76 2.76 0 01.73.35 1.67 1.67 0 01.9 1.3V37.39a78.61 78.61 0 012.57 3.44V30.39l-2.65.11v-1a3.32 3.32 0 01-2.22 1l-.58.05.45.16h.08M38.28 51.16c2.11.08 4.36.06 6.78-.07.26-2.48.4-5.18.46-8a3.83 3.83 0 01-3.05-3.87v-8.94a6.7 6.7 0 01.08-.92l-.15.14a2.41 2.41 0 01-1.05.64V43h-5.61c1.67 2.78 2.7 5.5 2.54 8.15M52.31 50.18a45.31 45.31 0 012.74-8.43v-.1a3.17 3.17 0 01-.56.66c-1.13 1-3 1.43-5.93 1.24-.56 0-1.25-.1-2-.22 0 2.68-.18 5.28-.42 7.69a47.07 47.07 0 006.13-.84"/><path class="cls-1" d="M61.61 27.4v-.34h.09A19.64 19.64 0 0060.51 14a28.89 28.89 0 00-20.16-9.28c1.71 2.48 3 6.65 3.83 10.73a1.16 1.16 0 011 .86 2.57 2.57 0 011.38-.53 2.38 2.38 0 01.46 0l.28-.05a6 6 0 011.27 0 4.22 4.22 0 012 .49V16l1.11.16V16l2.07.28.34.05v.19l.4.06v-.19c1.53.23 3 .5 4.53.81l.32.07a2.09 2.09 0 000 .25v.05a1 1 0 01-.25.64 1.24 1.24 0 01-.63.88 1.6 1.6 0 01-.33.11c0 1.6 0 3.16-.06 4.78h-.24V24.9l-3.32-.59s.07-5 .07-5.49l-.51-.08c0 1.53 0 3-.07 4.59h-.22v.88c-1.1-.14-2.19-.29-3.29-.45v-.82a1.12 1.12 0 01-.2.17 4.37 4.37 0 01-2.79.46h-.1a4.91 4.91 0 01-1.93-.47c.12.93.24 1.88.34 2.85a7 7 0 01.69-.15c.25-.07.52-.13.8-.18a11.41 11.41 0 012.69 0c2 .16 4.13.33 5 2v-1.28h1.3a6 6 0 011.22.09A6.23 6.23 0 0161.43 28c.06-.21.13-.43.18-.64M53.77 55.9c.66.79 1.88.9 3.63.34.68-.54 1.33-1.11 2-1.72a28.83 28.83 0 006.44-9.23l-.67-.13c-2.54 2.52-6.39 4.68-11.85 5.94-.36 2.2-.25 3.9.49 4.8"/><path class="cls-1" d="M52.92 56.61c-.92-1.11-1.12-3-.81-5.26a47 47 0 01-6.06.79c-.49 4.26-1.33 7.85-2.57 10.18a28.57 28.57 0 0012-4.63 3.11 3.11 0 01-2.51-1.08M38.14 52.27a9.23 9.23 0 01-3.48 6.12 11 11 0 01-7 1.83 29 29 0 0014.44 2.27c1.35-2 2.28-5.69 2.84-10.28a74.3 74.3 0 01-6.8.06"/><path class="cls-2" d="M71.42 38.72a11.21 11.21 0 01-1.33-.83 34.92 34.92 0 01-.72 3.72h.21l1.85.44v-1.26-2.11M8.48 29.08A31.12 31.12 0 0170 28.86a4.07 4.07 0 011.55.13l.45.12.59.16a33.65 33.65 0 00-66.79.48l1.4-.35 1.28-.32M68.21 45.78v-.72.72l-.27-.05a31.16 31.16 0 01-58.86-4.22v4.81l-.46.12-.44.1a33.68 33.68 0 0062.29-.26l-1.68-.39z"/><path class="cls-3" d="M31.7 37.64v1.48c.94 1.23 1.81 2.44 2.58 3.63v-2c-.8-1.13-1.66-2.28-2.57-3.44z"/><path class="cls-3" d="M65.8 45.29a28.83 28.83 0 01-6.44 9.23c-.63.61-1.28 1.18-2 1.72-1.75.56-3 .45-3.63-.34s-.85-2.6-.49-4.8c5.46-1.26 9.31-3.42 11.85-5.94l-1.36-.26a23.36 23.36 0 01-10.26 5 44.41 44.41 0 012-6.26h-.45v-1.89a45.31 45.31 0 00-2.74 8.43 47.07 47.07 0 01-6.13.84c.24-2.41.38-5 .42-7.69a8.47 8.47 0 01-1.08-.26c-.06 2.83-.2 5.54-.46 8-2.42.13-4.67.15-6.78.07.16-2.65-.87-5.37-2.54-8.15h-1.29c1.76 2.81 2.88 5.51 2.73 8.08-10-.57-16.41-3.37-20.44-6.21l-1 .17-.61.1c4.07 3.18 10.87 6.45 21.94 7a8 8 0 01-3 5.27c-2.12 1.55-5.19 2-9.14 1.33a29.22 29.22 0 01-13.57-17.28A21.5 21.5 0 0014.85 45v-.63-.94a19.18 19.18 0 01-3.5-3.93l-2.27.5v1.53a31.69 31.69 0 0029.61 23.25 31.17 31.17 0 0029.25-19.05l-.61-.13-1.53-.31M38.73 62.63a28.89 28.89 0 01-11.09-2.41 11 11 0 007-1.83 9.23 9.23 0 003.48-6.12c2.12.08 4.38.07 6.8-.06-.56 4.59-1.49 8.26-2.84 10.28a29 29 0 01-3.37.14m4.75-.31c1.24-2.33 2.08-5.92 2.57-10.18a47 47 0 006.06-.79c-.31 2.3-.11 4.15.81 5.26a3.11 3.11 0 002.51 1.08 28.57 28.57 0 01-12 4.63M45 22.66V23.34h-.59c.13 1 .25 2 .36 3a5.3 5.3 0 011.06-.4c-.1-1-.22-1.92-.34-2.85a2 2 0 01-.48-.39M68.21 35.68v9.38-3.72l1.16.27a34.92 34.92 0 00.72-3.72 5.85 5.85 0 01-1.88-2.21M61.43 28l.18.18v-.78c0 .21-.12.43-.18.64"/><path class="cls-3" d="M17.2 14.86c.53 4.3 2.61 8.38 5.2 12.23a3.23 3.23 0 01.91-.61c-2.75-4.05-4.83-8.26-5.1-12.74.3-.31.61-.63.93-.94A28.79 28.79 0 0139 4.7c1.52 1.75 2.93 5.44 4.08 10.67H44.19c-.87-4.08-2.12-8.25-3.83-10.73A28.89 28.89 0 0160.51 14a19.64 19.64 0 011.19 13.07l1.08.2a20.46 20.46 0 00-.21-10.78 29 29 0 015.14 11.68l.41.09h.09V30a2.24 2.24 0 01.74-.79 2.47 2.47 0 011.05-.35 31.12 31.12 0 00-61.53.22l.26-.08.57-.13a71 71 0 011.44-.34 28.91 28.91 0 016.46-13.67"/><path class="cls-4" d="M9.07 46.34v-1.26c-1.74.42-3.48.84-5.23 1.33v-12.8c-1.28.2-1.85-.29-2.09-.67a2.56 2.56 0 01-.3-1.12 1.25 1.25 0 01.22-.72c.08-.09.13-.17.21-.25 1.27-.37 2.51-.72 3.74-1.05-1.5.39-3 .84-4.65 1.3l-.22.06A2.33 2.33 0 000 32.75a2.54 2.54 0 00.41 1.35 2.4 2.4 0 002 1V48l.93-.26c1.63-.45 3.27-.85 4.82-1.21l.44-.1zM7.2 29.4l1.36-.34h-.08l-1.28.34M11.45 39.45a5.08 5.08 0 003.37-2.19v7.95h.23l.61-.1 1-.17c1.49-.25 2.81-.46 4.07-.64l.63-.09v-1.48c-1.69.25-3.33.52-5 .81v-16l-1 .16-.61.11v1.15c.54.81.52 2.31.52 4.58V34a3.94 3.94 0 01-3.43 4c-.95.21-1.87.41-2.83.64V40l2.26-.48h.11M10.93 28.52l1-.22h-.05l-.92.21M61.61 27.4v.82a6 6 0 011.32 2.14c0 .13.08.23.11.36v-3.41h-.26l-1.08-.2h-.09v.34zM78.82 32.11v.15a2.13 2.13 0 01-.45.92 1.77 1.77 0 01-1.94.42l-2.49-.67v.36c0 .52.4.92 1.07 1.41l.56.15a2.41 2.41 0 002.66-.65 2.59 2.59 0 00.61-1.4z"/><path class="cls-4" d="M71.56 29a4.07 4.07 0 00-1.56-.14 2.47 2.47 0 00-1.06.36 2.16 2.16 0 00-.74.79V28.3h-.09v16.1c-1.64-.35-3.22-.66-4.91-.95l-1.67-4.08v3.79c-1.67-.27-3.32-.5-5-.71V26.4h.57a3.45 3.45 0 01.45 0 6 6 0 00-1.22-.09h-1.3v1.22a4.69 4.69 0 01.45 2.09V39a2.65 2.65 0 01-.84 2c-1 .89-2.7 1.23-5.33 1.07-2.13-.17-5.31-.42-5.31-3.66v-9a3.46 3.46 0 012.58-3.67 7 7 0 00-.69.15 5.3 5.3 0 00-1.06.4 4.36 4.36 0 00-1.09.77 2.46 2.46 0 01-.7 1 3 3 0 01-1.63.61v12.8c-1.77 0-3.47 0-5.23.06V28.74c-.91 0-1.73.06-2.61.11v-3.39h.79l-1.82.08v1.27a2.48 2.48 0 01-.38 1 2.45 2.45 0 01-2 1.15c-.83.06-1.65.13-2.49.22v.35c0 .56.45.82 1.18 1.08l.58-.05a3.32 3.32 0 002.22-1v1l2.65-.11V43h7.03V30.15a2.35 2.35 0 001.05-.64l.15-.14a6.7 6.7 0 00-.08.92v8.93a3.82 3.82 0 003.05 3.86 8.22 8.22 0 001.09.26c.7.12 1.39.18 2 .22 2.92.19 4.8-.21 5.93-1.24a3.17 3.17 0 00.56-.66v2h.65c1.78.22 3.42.45 5 .71l.85.13.83.15 1.37.25 1.36.25.67.13 1.53.31.61.13.27.05V35.68a5.85 5.85 0 001.88 2.21 11.21 11.21 0 001.33.83v3.37l1.38.32v-4.68h-.06l-.12-.06a6.2 6.2 0 01-3.26-3.16 5.76 5.76 0 01-.19-1.75c0-1 .15-2.32.15-2.44.24-1.06 1.2-1.54 2.7-1.18l-.47-.14zM72 29.11l.79.2h-.18l-.61-.2M78.27 30.8h-.14l.46.15zM78.78 31v.8zM78 38.09v.18a1.08 1.08 0 000-.18"/><path class="cls-4" d="M78 44.49a1.5 1.5 0 01-.1.41c-.53 1-1.65 1.35-3.42 1-1.68-.44-3.2-.81-4.87-1.18v-3h-.21l-1.16-.27v4.44l.57.13 1.68.39c1 .24 2 .49 3.15.78 2.59.56 3.66-.43 4.14-1.35a1.73 1.73 0 00.19-.69V41.4v3.07zM9.74 32.11l-.48.1h-.24v3.42l1.06-.25v-3.12c0-.12-.13-.23-.33-.2M49.43 29.11h-.12a2 2 0 000 .34v.1a2 2 0 000 .35v7.25c0 .49.11.61.8.67h.19V31a6.49 6.49 0 00-.11-1.73c-.06-.1-.42-.15-.72-.18M21.54 33.46a4.34 4.34 0 003.36 2.38v3.38l1.6-.18v-4.66h-.12a3.92 3.92 0 01-3.26-2 4.9 4.9 0 01-.19-1.7 18.35 18.35 0 01.07-2.21v-.3a2.6 2.6 0 012-2 6.42 6.42 0 01.66-.13h.06a17.28 17.28 0 00-2.05.29l-.4.13a3.29 3.29 0 00-1.82 2.12v4.74l.05.12M25 26.2"/><path class="cls-4" d="M21.67 39.63v4.53l.91-.11c1.51-.2 3-.36 4.83-.53 2.8-.37 4.22-1.75 4.22-4.1v-3.06-2.72 4.99c0 2.38-1.6 3.07-3.51 3.3-1.67.15-3.22.31-4.86.52v-3l-1.66.2"/><path class="cls-1" d="M42.82 17.32v-.06-.39a.93.93 0 00-.33 0h-.09v1.44a3.23 3.23 0 01.44 0 .06.06 0 000-.05v-.1a4.29 4.29 0 000-.56z"/><path class="cls-4" d="M42.82 17.32v-.06-.39a.93.93 0 00-.33 0h-.09v1.44a3.23 3.23 0 01.44 0 .06.06 0 000-.05v-.1a4.29 4.29 0 000-.56z"/><path class="cls-1" d="M43 21.62s0-.07-.05-.48V21v-1.1c0-.2 0-.3-.56-.32v2.79h-2.47c0-2.36.07-4.61.1-7h-.43a1.21 1.21 0 010 .19v.05a1.13 1.13 0 01-.28.73 1.5 1.5 0 01-.44.74q0 3-.08 6h3.34v-.35-.31a2.06 2.06 0 001.52.81H44.47c0-.27-.07-.55-.11-.81a1.45 1.45 0 01-1.36-.8"/><path class="cls-4" d="M43 21.62s0-.07-.05-.48V21v-1.1c0-.2 0-.3-.56-.32v2.79h-2.47c0-2.36.07-4.61.1-7h-.43a1.21 1.21 0 010 .19v.05a1.13 1.13 0 01-.28.73 1.5 1.5 0 01-.44.74q0 3-.08 6h3.34v-.35-.31a2.06 2.06 0 001.52.81H44.47c0-.27-.07-.55-.11-.81a1.45 1.45 0 01-1.36-.8"/><path class="cls-3" d="M44.35 22.51h-.07c0 .26.08.54.11.81h.59V23v-.31a.64.64 0 01-.1-.13h-.54"/><path class="cls-4" d="M44.35 22.51h-.07c0 .26.08.54.11.81h.59V23v-.31a.64.64 0 01-.1-.13h-.54"/><path class="cls-1" d="M51.2 17.52c0 1.31 0 2.56-.06 3.88v.16a1 1 0 01-.26.65 1.25 1.25 0 01-.38.69v.82l3.29.46v-.44-.45c-.73-.11-1.45-.21-2.19-.29 0-2.3.07-4.5.1-6.8l-1.11-.2v.15a1.49 1.49 0 01.61 1.33"/><path class="cls-4" d="M51.2 17.52c0 1.31 0 2.56-.06 3.88v.16a1 1 0 01-.26.65 1.25 1.25 0 01-.38.69v.82l3.29.46v-.44-.45c-.73-.11-1.45-.21-2.19-.29 0-2.3.07-4.5.1-6.8l-1.11-.2v.15a1.49 1.49 0 01.61 1.33"/><path class="cls-1" d="M38.28 16.82v.59a1.42 1.42 0 00.42-.23l.08-.07v-.42a1.93 1.93 0 01-.5.13"/><path class="cls-4" d="M38.28 16.82v.59a1.42 1.42 0 00.42-.23l.08-.07v-.42a1.93 1.93 0 01-.5.13"/><path class="cls-1" d="M34.09 15.55h-.62.62"/><path class="cls-4" d="M34.09 15.55h-.62.62"/><path class="cls-1" d="M35.8 16.93l-1.24.07v-1.48h-.44v1.46h-.23v.73h.78c0 .67-.07 5.54-.07 5.54 1.12 0 2.23-.08 3.35-.13v-.32-.42c-.76 0-1.5.06-2.25.11 0-1.89.05-3.68.08-5.57"/><path class="cls-4" d="M35.8 16.93l-1.24.07v-1.48h-.44v1.46h-.23v.73h.78c0 .67-.07 5.54-.07 5.54 1.12 0 2.23-.08 3.35-.13v-.32-.42c-.76 0-1.5.06-2.25.11 0-1.89.05-3.68.08-5.57"/><path class="cls-1" d="M39.21 16.37a1.21 1.21 0 01-.16.16 1.17 1.17 0 01-.27.15v.43a1.5 1.5 0 00.44-.74"/><path class="cls-4" d="M39.21 16.37a1.21 1.21 0 01-.16.16 1.17 1.17 0 01-.27.15v.43a1.5 1.5 0 00.44-.74"/><path class="cls-4" d="M39.21 16.37a1.21 1.21 0 01-.16.16 1.17 1.17 0 01-.27.15v.43a1.5 1.5 0 00.44-.74"/><path class="cls-1" d="M58.17 18.51v.72a1.6 1.6 0 00.33-.11 1.24 1.24 0 00.63-.88.65.65 0 01-.18.15 1.34 1.34 0 01-.77.12"/><path class="cls-4" d="M58.17 18.51v.72a1.6 1.6 0 00.33-.11 1.24 1.24 0 00.63-.88.65.65 0 01-.18.15 1.34 1.34 0 01-.77.12"/><path class="cls-1" d="M54.59 18.81c0 .49-.07 5.49-.07 5.49l3.32.59V24l-2.22-.4c0-1.85 0-3.62.08-5.48l-1.22-.2v-1.28l-.4-.06v2.18l.51.08"/><path class="cls-4" d="M54.59 18.81c0 .49-.07 5.49-.07 5.49l3.32.59V24l-2.22-.4c0-1.85 0-3.62.08-5.48l-1.22-.2v-1.28l-.4-.06v2.18l.51.08"/><path class="cls-1" d="M29.74 16l-.76.08h-.35v.21c.53.25.51.93.5 2.12s0 2 0 3.07a1.78 1.78 0 01-.32 1 1.75 1.75 0 01-.24.54v.76l.53-.06c1.55-.18 3-.32 4.38-.43h.39v-.7c-1.41.11-2.79.25-4.2.42 0-2.37.07-4.65.1-7"/><path class="cls-4" d="M29.74 16l-.76.08h-.35v.21c.53.25.51.93.5 2.12s0 2 0 3.07a1.78 1.78 0 01-.32 1 1.75 1.75 0 01-.24.54v.76l.53-.06c1.55-.18 3-.32 4.38-.43h.39v-.7c-1.41.11-2.79.25-4.2.42 0-2.37.07-4.65.1-7"/><path class="cls-1" d="M32.09 20.83l1.13-.1V20l-1.14.1v.73"/><path class="cls-4" d="M32.09 20.83l1.13-.1V20l-1.14.1v.73"/><path class="cls-1" d="M33.45 17.07l-1.3.11v.75l1.76-.14h-.45v-.71"/><path class="cls-4" d="M33.45 17.07l-1.3.11v.75l1.76-.14h-.45v-.71"/><path class="cls-1" d="M33.91 17h-.46v.71h.45a2.44 2.44 0 000-.27v-.46"/><path class="cls-4" d="M33.91 17h-.46v.71h.45a2.44 2.44 0 000-.27v-.46"/><path class="cls-4" d="M33.91 17h-.46v.71h.45a2.44 2.44 0 000-.27v-.46"/><path class="cls-1" d="M26.63 18.14c0-.09 0-.2-.06-.22a1.72 1.72 0 00-.41 0c0 1.38 0 2.7-.05 4.08.17 0 .32-.05.49-.08v-2.29-1.5"/><path class="cls-4" d="M26.63 18.14c0-.09 0-.2-.06-.22a1.72 1.72 0 00-.41 0c0 1.38 0 2.7-.05 4.08.17 0 .32-.05.49-.08v-2.29-1.5"/><path class="cls-1" d="M27.43 23.32c-1.29.2-2.51.41-3.81.66 0-1.91.06-3.72.08-5.62a1.28 1.28 0 01-.81-.2.8.8 0 01-.32-.68 1.05 1.05 0 010-.12c0-.08 0-.15.05-.24l-.81.15-.26.05c0 .15-.06.3-.08.45v.12a1.19 1.19 0 00.46 1 1.56 1.56 0 00.66.25c0 .59-.08 5.68-.08 5.68l.58-.11c1.32-.26 2.53-.46 3.78-.64a2.34 2.34 0 001.67-1v-.26a2.08 2.08 0 01-1.11.51"/><path class="cls-4" d="M27.43 23.32c-1.29.2-2.51.41-3.81.66 0-1.91.06-3.72.08-5.62a1.28 1.28 0 01-.81-.2.8.8 0 01-.32-.68 1.05 1.05 0 010-.12c0-.08 0-.15.05-.24l-.81.15-.26.05c0 .15-.06.3-.08.45v.12a1.19 1.19 0 00.46 1 1.56 1.56 0 00.66.25c0 .59-.08 5.68-.08 5.68l.58-.11c1.32-.26 2.53-.46 3.78-.64a2.34 2.34 0 001.67-1v-.26a2.08 2.08 0 01-1.11.51"/><path class="cls-1" d="M28.54 22.81v.26a2 2 0 00.24-.54 2.15 2.15 0 01-.23.28"/><path class="cls-4" d="M28.54 22.81v.26a2 2 0 00.24-.54 2.15 2.15 0 01-.23.28"/><path class="cls-4" d="M28.54 22.81v.26a2 2 0 00.24-.54 2.15 2.15 0 01-.23.28"/><path class="cls-1" d="M45.32 18v.23a1.24 1.24 0 01-.3.88.36.36 0 010 .09 1.24 1.24 0 01.29.71v1.37c0 .45.17 1.15.24 1.75a4.74 4.74 0 001.93.47h.1a4.37 4.37 0 002.79-.46 1.12 1.12 0 00.2-.17v-.41a4.51 4.51 0 01-2.26.27c-.83-.07-2.52-.16-2.53-1.61s0-2.57 0-3.89a1.47 1.47 0 011.31-1.52 3.55 3.55 0 00-.46 0 2.58 2.58 0 00-1.38.54 7.51 7.51 0 01.07 1.75"/><path class="cls-4" d="M45.32 18v.23a1.24 1.24 0 01-.3.88.36.36 0 010 .09 1.24 1.24 0 01.29.71v1.37c0 .45.17 1.15.24 1.75a4.74 4.74 0 001.93.47h.1a4.37 4.37 0 002.79-.46 1.12 1.12 0 00.2-.17v-.41a4.51 4.51 0 01-2.26.27c-.83-.07-2.52-.16-2.53-1.61s0-2.57 0-3.89a1.47 1.47 0 011.31-1.52 3.55 3.55 0 00-.46 0 2.58 2.58 0 00-1.38.54 7.51 7.51 0 01.07 1.75"/><path class="cls-3" d="M45.21 22.55H45v.12a2 2 0 00.48.39c-.07-.6-.16-1.18-.24-1.75v1.25"/><path class="cls-4" d="M45.21 22.55H45v.12a2 2 0 00.48.39c-.07-.6-.16-1.18-.24-1.75v1.25"/><path class="cls-1" d="M48.57 21h.09a1.27 1.27 0 000-.28V18a3.1 3.1 0 000-.77l-.29-.07h-.07a3.14 3.14 0 000 .45v3.02a.38.38 0 00.05.27.49.49 0 00.29.07"/><path class="cls-4" d="M48.57 21h.09a1.27 1.27 0 000-.28V18a3.1 3.1 0 000-.77l-.29-.07h-.07a3.14 3.14 0 000 .45v3.02a.38.38 0 00.05.27.49.49 0 00.29.07"/><path class="cls-1" d="M44.94 19.19a.36.36 0 000-.09l-.06.06"/><path class="cls-4" d="M44.94 19.19a.36.36 0 000-.09l-.06.06"/><path class="cls-4" d="M44.94 19.19a.36.36 0 000-.09l-.06.06"/><path class="cls-3" d="M44.89 22.53a.64.64 0 00.1.13v-.12h-.1"/><path class="cls-4" d="M44.89 22.53a.64.64 0 00.1.13v-.12h-.1"/><path class="cls-4" d="M44.89 22.53a.64.64 0 00.1.13v-.12h-.1"/><path class="cls-1" d="M50.5 22.49v.41a1.25 1.25 0 00.38-.69 1.34 1.34 0 01-.37.28"/><path class="cls-4" d="M50.5 22.49v.41a1.25 1.25 0 00.38-.69 1.34 1.34 0 01-.37.28"/><path class="cls-4" d="M50.5 22.49v.41a1.25 1.25 0 00.38-.69 1.34 1.34 0 01-.37.28"/><path class="cls-2" d="M43.14 18.23a5.39 5.39 0 000-.91c0-.77-.21-.74-.77-.76H42v2h.82a.32.32 0 00.33-.32m-.34 0a.06.06 0 010 .05 3.23 3.23 0 00-.44 0v-1.44h.09a.93.93 0 01.33 0s.06.07 0 .39v.31a4.29 4.29 0 010 .56v.1"/><path class="cls-2" d="M39.91 15.33v.07c0 2.35-.07 4.6-.1 7h2.47v-2.79c.58 0 .56.24.56.32V21.17c0 .41 0 .45.05.48a1.45 1.45 0 001.29.89H45.11v-1.25-1.37a1.24 1.24 0 00-.29-.71l.06-.06a1.24 1.24 0 00.3-.88v-.1-.13a7 7 0 00-.09-1.71 1.16 1.16 0 00-1-.86h-4.23m4 .34C45 15.81 45 16.13 45 18V18.24a1 1 0 01-.45.93.27.27 0 00.08.07 1.38 1.38 0 01.32.7v2.34h-.51a1.17 1.17 0 01-1-.68 4.28 4.28 0 010-.43v-1.24c0-.24-.4-.57-.9-.59H42v2.78h-1.85c0-2.2.07-4.29.1-6.48 1.22 0 2.4 0 3.62.07M53.79 23.29h.22c0-1.56.05-3.06.07-4.59v-2.37l-.33-.05L51.7 16v.17c0 2.3-.07 4.5-.1 6.8.74.08 1.46.18 2.19.29M52 16.34l1.73.24c0 2.17-.06 4.25-.09 6.43l-1.74-.24c0-2.17.07-4.25.1-6.43M38.78 16.68a1.17 1.17 0 00.27-.15 1.21 1.21 0 00.16-.16 1.13 1.13 0 00.28-.73v-.05a1.21 1.21 0 000-.19.11.11 0 000-.06h-.32c-1.56 0-3 .08-4.56.18V17l1.24-.08c0 1.89 0 3.68-.07 5.57.74-.05 1.48-.08 2.24-.11h.22c0-1.68.05-3.31.08-5v-.59a1.61 1.61 0 00.5-.14m-.85-.12c0 1.89 0 3.68-.08 5.57l-1.78.07c0-1.88 0-3.67.08-5.56-.42 0-.82 0-1.24.08v-.95c1.42-.09 2.79-.14 4.21-.16 0 0 .09 1-1.21.95M55.72 18.09c0 1.86 0 3.63-.08 5.48l2.22.4h.24c0-1.62 0-3.18.06-4.78v-.72a1.34 1.34 0 00.77-.12.65.65 0 00.18-.15 1 1 0 00.25-.64v-.05a2.09 2.09 0 010-.25l-.36-.03c-1.52-.31-3-.57-4.53-.81v1.47l1.23.2m-.87-1.35c1.41.22 2.76.47 4.19.76 0 0 .06 1-1.2.69 0 1.85-.06 3.63-.08 5.49L56 23.36c0-1.85 0-3.62.07-5.48l-1.22-.21v-.93M33.45 17.07H34.14v-1.46h-.63c-1.25.1-2.45.22-3.73.37 0 2.38-.07 4.66-.1 7 1.41-.17 2.79-.31 4.2-.42h.22v-1.52l-2 .18v-.43-.73l1.14-.1h.23v-1.89l-1.37.11v-.28-.75l1.3-.11m-1.64-.13v1.58l1.37-.12v1.34c-.46 0-.9.07-1.37.12v1.7l2-.18v1l-1.85.16-1.88.2c0-2.2.06-4.31.09-6.51 1.26-.15 2.48-.26 3.73-.35v.92l-2 .17M22.57 17.48a.8.8 0 00.32.68 1.28 1.28 0 00.81.2c0 1.9-.05 3.71-.08 5.62 1.3-.25 2.52-.46 3.81-.66a2.08 2.08 0 001.11-.51 1.94 1.94 0 00.23-.27 1.84 1.84 0 00.32-1v-3.07c0-1.07 0-1.87-.5-2.12a1.9 1.9 0 00-1-.08c-1.71.24-3.32.52-5 .86 0 .09 0 .16-.05.24a1.05 1.05 0 000 .12m.35-.16c1.6-.31 3.11-.57 4.69-.8 1.27-.14 1.2.3 1.17 2.18v2.86a1.49 1.49 0 01-1.3 1.49c-1.18.17-2.29.37-3.47.59 0-1.89.05-3.7.07-5.59-1.29.19-1.12-.73-1.12-.73"/><path class="cls-2" d="M27 18.07s0-.39-.27-.44a2.78 2.78 0 00-.88.11c0 1.57 0 3.06-.06 4.62l1.16-.19s.1-3.52.05-4.1m-.33 1.59v2.29c-.17 0-.32 0-.49.08 0-1.38 0-2.7.05-4.08a1.72 1.72 0 01.41 0s.06.13.06.22v1.5M48.56 21.27a1.77 1.77 0 00.4 0 1.46 1.46 0 00.06-.51v-2.73c0-.92 0-1.07-.68-1.14a1.51 1.51 0 00-.37 0 3.53 3.53 0 00-.08.86v2.76c0 .36 0 .69.67.76m-.33-.61v-.11-2.91a3.14 3.14 0 010-.45h.07c.26 0 .29.06.29.07a3.1 3.1 0 010 .77v2.72a1.23 1.23 0 010 .28h-.09a.49.49 0 01-.29-.07.38.38 0 01-.05-.27"/><path class="cls-2" d="M45.76 17.26v3.89c0 1.31 1.71 1.54 2.53 1.61a4.51 4.51 0 002.26-.27 1.34 1.34 0 00.37-.28 1 1 0 00.26-.65v-.16c0-1.32 0-2.57.06-3.88a1.49 1.49 0 00-.61-1.33 4.22 4.22 0 00-2-.49 6 6 0 00-1.27 0l-.28.05a1.47 1.47 0 00-1.31 1.52M47.43 16a5.86 5.86 0 011.18 0c1.3.11 2.23.22 2.24 1.51s0 2.56-.05 3.88v.16c0 .89-1.14 1.08-2.55 1s-2.17-.35-2.19-1.31c0-1.32 0-2.57.06-3.89 0-.91.56-1.23 1.32-1.32"/><path class="cls-3" d="M40.15 22.08h1.79V19.3h.38c.5 0 .9.18.9.59v1.25a4.12 4.12 0 000 .42 1.17 1.17 0 001 .68h.51V19.9a1.38 1.38 0 00-.32-.7.27.27 0 01-.08-.07 1 1 0 00.45-.93V18c0-1.86 0-2.18-1.1-2.32s-2.4-.07-3.62-.07c0 2.19-.06 4.29-.1 6.48M42 16.56h.38c.56 0 .79 0 .77.76a5.39 5.39 0 010 .91.32.32 0 01-.33.32H42v-2M53.77 16.58L52 16.34c0 2.18-.06 4.26-.1 6.43l1.74.24c0-2.18.06-4.26.09-6.43M39.14 15.61c-1.42 0-2.79.07-4.21.16v.95c.41 0 .82 0 1.24-.08 0 1.89-.06 3.68-.08 5.56l1.78-.07c0-1.89.06-3.68.08-5.57 1.3 0 1.21-.95 1.21-.95M56 23.36l1.77.32c0-1.86.05-3.64.08-5.49 1.26.29 1.2-.69 1.2-.69-1.43-.29-2.78-.54-4.19-.76v.93l1.22.21c0 1.86-.05 3.63-.07 5.48M33.81 15.85c-1.25.09-2.47.2-3.73.35 0 2.2-.06 4.31-.09 6.52l1.88-.21 1.85-.16v-1l-2 .18v-1.7c.47-.05.91-.09 1.37-.12v-1.34l-1.37.12v-1.58l2-.17v-.92M24 18.05c0 1.89-.05 3.7-.07 5.59 1.18-.22 2.29-.42 3.47-.59a1.49 1.49 0 001.3-1.49V18.7c0-1.88.1-2.32-1.17-2.18-1.58.23-3.09.49-4.69.8 0 0-.17.92 1.12.73m1.79-.31a2.78 2.78 0 01.88-.11c.3.05.27.44.27.44.05.58-.05 4.1-.05 4.1l-1.16.19c0-1.56 0-3.05.06-4.62M46.05 21.17c0 1 .82 1.19 2.19 1.31s2.53-.07 2.55-1v-.16c0-1.32 0-2.57.05-3.88s-.94-1.4-2.24-1.51a5.86 5.86 0 00-1.18 0c-.76.09-1.29.41-1.32 1.32 0 1.32 0 2.57-.06 3.89m1.84-.66v-2.76a3.11 3.11 0 01.09-.86 1.45 1.45 0 01.36 0c.67.07.69.24.68 1.14s0 1.81 0 2.73a1.46 1.46 0 01-.06.51 1.77 1.77 0 01-.4 0c-.71-.07-.68-.4-.67-.76"/><path class="cls-2" d="M21.49 33.34v-6.75l-.72.11c-1.47.22-2.9.46-4.38.72v16.12c1.7-.29 3.34-.56 5-.81zm-.72 8.88c-1.23.19-2.41.36-3.65.58V27.9c1.24-.22 2.43-.4 3.66-.59zM31.92 25.53h-.12c-2.35.15-5.28.43-5.9.51h-.16a5.93 5.93 0 00-.66.13 2.59 2.59 0 00-2 2v.36-.06a18.35 18.35 0 00-.11 2.17 4.9 4.9 0 00.19 1.7 3.92 3.92 0 003.26 2h.12V39l-1.6.18-1.55.2h-.09v3c1.64-.21 3.19-.37 4.86-.52 1.91-.23 3.51-.92 3.51-3.3V35.5v-1.93-1a1.67 1.67 0 00-.9-1.3A2.76 2.76 0 0030 31c-.2-.09-.42-.16-.66-.24h-.08l-.45-.16c-.73-.26-1.18-.52-1.18-1.08v-.35c.84-.09 1.66-.16 2.49-.22a2.54 2.54 0 002.36-2.14v-.34-.37-.56h-.53m-.13 1.24a2.25 2.25 0 01-.3.77 1.7 1.7 0 01-1.35.8c-1.08.08-2.13.17-3.21.29v1c.05 1.08 1 1.42 2 1.74l.72.25a5.07 5.07 0 01.62.29 1.14 1.14 0 01.62.89c.08 1.13 0 6.12 0 6.13a3.67 3.67 0 01-.14.88c-.44 1-1.44 1.34-2.68 1.51-1.43.12-2.74.29-4.14.47v-1.79c1.12-.15 2.17-.27 3.25-.37v-5.58a.56.56 0 00-.33-.22 3.24 3.24 0 00-.35 0c-1.32-.21-2.3-.58-2.79-1.7a14.6 14.6 0 010-3.61.6.6 0 010-.25 2 2 0 012-1.5h.17c.77-.09 4.79-.44 5.87-.5a1.6 1.6 0 010 .62M67.71 28.17c-1.58-.32-3.09-.62-4.67-.89v3.44c0-.13-.08-.23-.11-.36a6 6 0 00-1.32-2.14l-.18-.22a6.23 6.23 0 00-3.87-1.65 3.45 3.45 0 00-.45 0h-.57v16.1c1.68.21 3.33.44 5 .71v-3.79l1.67 4.08c1.69.29 3.27.6 4.91.95V28.26l-.41-.09m-.31 15.47c-1.24-.26-2.41-.5-3.69-.72-1-2.39-1.92-4.66-2.87-7v6.54c-1.24-.19-2.35-.35-3.59-.51V27.02a5.26 5.26 0 015 3.43c.44 1.3.83 2.54 1.22 3.83.13.32.18.62.3.93V28c1.23.23 2.4.45 3.64.71v14.93zM73.94 33.29v-.36l2.49.67a1.77 1.77 0 001.94-.42 2.13 2.13 0 00.45-.92v-.19a2.71 2.71 0 010-.29v-.8l-.19-.06-.46-.15h-.07c-1.64-.5-4-1.11-5.25-1.43l-.79-.2c-1.5-.36-2.46.12-2.7 1.18 0 .12-.17 1.48-.15 2.44a5.76 5.76 0 00.19 1.75 6.2 6.2 0 003.26 3.16l.12.06h.06v4.68l-1.38-.32-1.85-.44v3c1.67.37 3.19.74 4.87 1.18 1.77.38 2.89 0 3.42-1a1.5 1.5 0 00.1-.41V41.2v-3.18-.25a2.51 2.51 0 00-1-1.55 4.41 4.41 0 00-.73-.6c-.2-.15-.44-.3-.64-.46l-.1-.07-.53-.39c-.68-.49-1.08-.89-1.08-1.41m1.32 2.28c.24.15.48.32.72.5s.42.33.62.51a1.78 1.78 0 01.62 1.1c.07 1.12 0 6.17 0 6.61a.34.34 0 01-.08.22c-.4.89-1.24 1.15-2.75.74s-2.75-.7-4.14-1v-1.8c1.08.25 2.16.5 3.24.78v-5.6a1 1 0 00-.34-.32c-.11-.07-.26-.14-.34-.18A5.08 5.08 0 0170 34.42a14.76 14.76 0 010-3.62 1.36 1.36 0 010-.24c.21-.82.91-1.06 2-.78 0 0 4.74 1.23 6 1.6V32a1.74 1.74 0 01-.32.69 1.24 1.24 0 01-1.33.29c-1.07-.29-2.13-.57-3.21-.84v1c0 1.07 1.08 1.79 2 2.46M43.87 25.93a2.88 2.88 0 000-.59h-.68c-3-.07-5.89 0-8.87.09h-.8v3.39c.89-.05 1.71-.08 2.62-.11v12.8c1.76-.06 3.46-.08 5.23-.06v-12.8A3 3 0 0043 28a2.46 2.46 0 00.7-1 2.86 2.86 0 00.21-1v-.1zm-3.26 2.12v12.79h-3.79V28.11c-.88 0-1.7 0-2.62.09v-2.15c3-.15 5.91-.18 8.95-.11 0 0 .21 2.25-2.54 2.11M1.67 31.1a1.25 1.25 0 00-.22.72 2.56 2.56 0 00.3 1.12c.24.38.81.87 2.09.67v12.8c1.75-.49 3.49-.91 5.23-1.32v-6.45c1-.23 1.88-.43 2.83-.64a3.94 3.94 0 003.43-4v-.53c0-2.27 0-3.77-.52-4.58a.44.44 0 00-.08-.11l-.07-.08-.09-.09a2.75 2.75 0 00-2.12-.4h-.15l-.26.05h-.07l-1 .22h-.19c-.49.1-1 .22-1.44.33l-.61.19h-.17l-1.36.4-1.36.35-.22.05c-1.23.33-2.47.68-3.74 1.05-.08.08-.13.17-.21.25m.52.27c3.39-1 6.64-1.8 10-2.53 2.25-.23 2.4.45 2.4 4.77v.55a3.11 3.11 0 01-2.71 3.23c-1.2.26-2.34.52-3.55.8v6.45c-1.27.29-2.52.62-3.8 1V32.87c-2.75.8-2.36-1.46-2.36-1.46"/><path class="cls-2" d="M10.76 35.87v-.24-2.6-.51a2.82 2.82 0 000-.52.77.77 0 00-.93-.52 7 7 0 00-.69.14 14 14 0 00-.83.19v4.66c.68-.17 1.3-.32 2-.47l.47-.13M9 35.68v-3.42h.24l.48-.1c.2 0 .24 0 .33.2s0 2.73 0 3.12l-1.05.2"/><path class="cls-3" d="M17.12 42.8c1.24-.22 2.42-.39 3.65-.58V27.31c-1.23.19-2.42.37-3.66.59v14.9M25.92 26.65h-.17a2 2 0 00-2 1.5.6.6 0 000 .25 14.6 14.6 0 000 3.61c.49 1.12 1.47 1.49 2.79 1.7a3.24 3.24 0 01.35 0 .56.56 0 01.33.22v5.58c-1.08.1-2.13.22-3.25.37v1.79c1.4-.18 2.71-.35 4.14-.47 1.24-.17 2.24-.49 2.68-1.51a3.67 3.67 0 00.14-.88s.05-5 0-6.13a1.16 1.16 0 00-.62-.89 5.07 5.07 0 00-.62-.29l-.69-.17c-1-.32-2-.66-2-1.74v-1c1.08-.12 2.13-.21 3.21-.29a1.7 1.7 0 001.35-.8 2.25 2.25 0 00.3-.77 1.6 1.6 0 000-.62c-1.08.06-5.1.41-5.87.5"/><path class="cls-2" d="M50 25.52a12 12 0 00-2.69 0c-.28.05-.55.11-.8.18A3.46 3.46 0 0044 29.41v9c0 3.24 3.23 3.49 5.36 3.66 2.63.16 4.37-.18 5.33-1.07a2.62 2.62 0 00.84-2v-9.35a4.69 4.69 0 00-.53-2.09c-.89-1.72-3-1.89-5-2m4.74 13.13v.37c0 2-2.38 2.51-5.38 2.31s-4.67-.69-4.68-2.92v-9c0-2.08 1.11-2.85 2.76-3.12a10.79 10.79 0 012.56-.09c2.76.22 4.76.42 4.79 3.41v9z"/><path class="cls-2" d="M49.49 28.38a3.86 3.86 0 00-.68 0 .38.38 0 01-.13.09 3.87 3.87 0 00-.13 1 7.8 7.8 0 000 .95v6.39c0 .85 0 1.63 1.48 1.76a6.27 6.27 0 00.76 0 .58.58 0 00.12-.1 5 5 0 00.08-.56V31c0-2.1 0-2.51-1.5-2.64m.77 9v.47h-.19c-.69-.06-.8-.18-.8-.67V29.89a2 2 0 010-.35v-.1a2 2 0 010-.34h.12c.3 0 .66.08.72.18a6.49 6.49 0 01.15 1.72v6.32z"/><path class="cls-3" d="M50 26.24a10.79 10.79 0 00-2.52.05c-1.65.27-2.75 1-2.76 3.12v9c0 2.23 1.76 2.7 4.68 2.92s5.35-.26 5.38-2.31v-9.37c0-3-2-3.19-4.79-3.41m1 11.1v.55a5 5 0 01-.08.56.58.58 0 01-.12.1 6.27 6.27 0 01-.76 0c-1.49-.13-1.51-.91-1.48-1.76v-6.4a7.8 7.8 0 010-.95 3.87 3.87 0 01.13-1 .38.38 0 00.13-.09 3.86 3.86 0 01.68 0C51 28.51 51 28.92 51 31v6.32zM63.76 35.18c-.12-.31-.17-.61-.3-.93-.39-1.29-.78-2.53-1.22-3.83a5.26 5.26 0 00-5-3.43v14.93c1.24.16 2.35.32 3.59.51v-6.54c.95 2.37 1.91 4.64 2.87 7 1.28.22 2.45.46 3.69.72V28.73c-1.24-.26-2.41-.48-3.64-.71v7.16zM73.22 33.11v-1c1.08.27 2.14.55 3.21.84a1.24 1.24 0 001.33-.29 1.74 1.74 0 00.32-.69v-.62c-1.28-.37-6-1.6-6-1.6-1.12-.28-1.82 0-2 .78a1.36 1.36 0 000 .24 14.76 14.76 0 000 3.62 5.08 5.08 0 002.79 2.69l.34.18a1 1 0 01.34.32v5.6c-1.08-.28-2.16-.53-3.24-.78v1.8c1.39.32 2.74.63 4.14 1s2.35.15 2.75-.74a.44.44 0 00.08-.22v-6.61a1.8 1.8 0 00-.62-1.1c-.2-.18-.42-.34-.62-.51a8.59 8.59 0 00-.73-.5c-1-.67-2-1.39-2-2.46M34.2 26.05v2.15c.92-.05 1.74-.07 2.62-.09v12.76h3.79V28.05c2.75.14 2.54-2.11 2.54-2.11-3-.07-5.92 0-8.95.11M4.55 32.83V45.6c1.28-.34 2.53-.67 3.8-1v-6.41c1.21-.28 2.35-.54 3.55-.8a3.11 3.11 0 002.71-3.23v-.23-.32c0-4.32-.15-5-2.4-4.77-3.4.73-6.65 1.55-10 2.53 0 0-.39 2.26 2.36 1.46m3.76-1a14 14 0 01.83-.19 7 7 0 01.69-.14.77.77 0 01.93.52 2.82 2.82 0 010 .52V35.89l-.47.13c-.68.15-1.3.3-2 .47v-4.68z"/></g></g></svg>