<svg xmlns="http://www.w3.org/2000/svg" viewBox="0 0 100.65 53.8"><defs><style>.cls-1{fill:#261c02}.cls-2{fill:#d31145}</style></defs><g id="Layer_2" data-name="Layer 2"><g id="Layer_1-2" data-name="Layer 1"><g id="g5693"><g id="g5699"><path id="path5701" class="cls-1" d="M39.33 17.05a12 12 0 01.51-2.82l-.27.27a11.2 11.2 0 00-.51 2.83v1.88l.27.36z"/></g><g id="g5703"><path id="path5705" class="cls-1" d="M36.94 18.84L40.07 23l.27-.27L37 18.2z"/></g><g id="g5707"><path id="path5709" class="cls-1" d="M36.66 22.75l.27-.28-1 .74v-8.08l-.27.27v8.08z"/></g><g id="g5711"><path id="path5713" class="cls-1" d="M32.43 23a1.62 1.62 0 001.81-1.72 1.46 1.46 0 01-1.53 1.44h-1.42a1.46 1.46 0 01-1.53-1.44v-4.7c0-1.45 1.53-1.45 1.53-1.45a1.7 1.7 0 00-1.8 1.72v4.67A1.45 1.45 0 0031 23z"/></g><g id="g5715"><path id="path5717" class="cls-1" d="M32.77 17.05v4.29a1.21 1.21 0 01-.19.68.4.4 0 00.12-.1v-.05a.21.21 0 000-.06v-.11-.06-4.87a1 1 0 00-1-1.12h-.36.16-.2l-.06.05a1.19 1.19 0 01.6-.15 1 1 0 011.05 1.12"/></g><g id="g5719"><path id="path5721" class="cls-1" d="M61.3 13.33l-.3.27a11.34 11.34 0 00-.41 1.54h.23a9.62 9.62 0 01.46-1.77"/></g><g id="g5723"><path id="path5725" class="cls-1" d="M63.86 19.53c0-.65-1.22-.8-2-.83v.3c.76.05 1.74.24 1.72.81v3.11l1.1.64.27-.27-1.1-.64z"/></g><g id="g5727"><path id="path5729" class="cls-1" d="M60.51 15.82v7.73l1.16-.64.28-.27-1.16.64v-7.49a2.42 2.42 0 010-.25c-1.1 0-2 .08-2 .08l-.27.28s1-.09 2-.08"/></g><g id="g5731"><path id="path5733" class="cls-1" d="M63.82 18.49a4.71 4.71 0 00.75-.6 3.64 3.64 0 01-1.32.67 3.31 3.31 0 01.57-.07"/></g><g id="g5735"><path id="path5737" class="cls-1" d="M61.83 15.9c1 .12 1.88.39 2 1a1.45 1.45 0 01-.33 1.1l.07-.06.06-.06h.05v-.12l.05-.07v-.07a.16.16 0 000-.07v-.07a.25.25 0 000-.07.38.38 0 000-.1.14.14 0 000-.06.88.88 0 000-.17c-.08-.65-1.11-.92-2.24-1a1.34 1.34 0 010 .2z"/></g><g id="g5739"><path id="path5741" class="cls-1" d="M69.07 15.66h-.67l-.08.08a1.13 1.13 0 01.59-.15 1 1 0 011 1.12V21a1.2 1.2 0 01-.18.67.52.52 0 00.11-.1v-.16-.06V16.77a1 1 0 00-1-1.11"/></g><g id="g5743"><path id="path5745" class="cls-1" d="M69.78 22.69h-1.42a1.46 1.46 0 01-1.52-1.45v-4.66a1.47 1.47 0 011.52-1.45 1.65 1.65 0 00-1.8 1.72v4.67A1.45 1.45 0 0068.08 23h1.43a1.61 1.61 0 001.79-1.57 1.47 1.47 0 01-1.52 1.3"/></g><g id="g5747"><path id="path5749" class="cls-1" d="M75.79 22V21.85v-1l-.27.28v.41a1.26 1.26 0 01-.19.68"/></g><g id="g5751"><path id="path5753" class="cls-1" d="M76.22 16.77a1 1 0 00-1-1.11h-.72l-.11.1a1.19 1.19 0 01.6-.15 1 1 0 011 1.12v.41h1.19l.27-.28h-1.23z"/></g><g id="g5755"><path id="path5757" class="cls-1" d="M77.38 21.58a1 1 0 01-.13.22l-.24.18h-.07a1.28 1.28 0 01-.27.11h-2.2a1.46 1.46 0 01-1.47-.85v-4.66a1.47 1.47 0 011.52-1.45 1.66 1.66 0 00-1.8 1.72v4.67A1.46 1.46 0 0074.2 23h1.41a1.59 1.59 0 001.79-1.52.59.59 0 010 .14"/></g><g id="g5759"><path id="path5761" class="cls-1" d="M99.17 22h.06v-.18a.19.19 0 010-.07.19.19 0 010-.07.17.17 0 010-.07.17.17 0 000-.07.28.28 0 000-.09.28.28 0 010-.09v-1.53c0-1-.69-1-1.81-1-1.46 0-1.51-.33-1.51-1.37v-1.55a1.08 1.08 0 01.16-.2.71.71 0 01.14-.1h.16l.15-.06h.38a1.55 1.55 0 00-.9 1.04v1.15c0 1 0 1.37 1.51 1.37 1.12 0 1.81 0 1.81 1v1.09a2.17 2.17 0 01-.13.85z"/></g><g id="g5763"><path id="path5765" class="cls-1" d="M99.54 16.72c0-.59-.13-1.08-1.11-1.08h-.94a1.49 1.49 0 01.72-.13c1 0 1.12.49 1.12 1.09v.4l1.07-.57.27-.27-1.07.56z"/></g><g id="g5767"><path id="path5769" class="cls-1" d="M86.41 16.18a.33.33 0 000 .06 1.4 1.4 0 01.65-.16h2a2.84 2.84 0 01.28-.28h-2a1.24 1.24 0 00-.86.33"/></g><g id="g5771"><path id="path5773" class="cls-1" d="M87.78 22.69h-1.24s-1.62 0-1.61-1.46v-4.55a1.42 1.42 0 01.26-.88 1.35 1.35 0 00-.54 1.2v4.5c0 1.5 1.61 1.5 1.61 1.5h1.24s1.67.08 1.79-1c-.13.83-1.51.69-1.51.69"/></g><g id="g5775"><path id="path5777" class="cls-1" d="M86.16 19.2v.27h.13a8.56 8.56 0 002.7-.53l.27-.27a9 9 0 01-2.69.53z"/></g><g id="g5779"><path id="path5781" class="cls-1" d="M93.1 16.14v.28h.15a5.6 5.6 0 002.18-.49l.28-.28a5.66 5.66 0 01-2.19.49z"/></g><g id="g5783"><path id="path5785" class="cls-1" d="M92 16.14h-1.86v-1l-.27.28v1h1.83v6.25l1.14.76.27-.27L92 22.4z"/></g><g id="g5787"><path id="path5789" class="cls-1" d="M79 14.37l-.27.27v8.78l1.16-.74.27-.28-1.16.75z"/></g><g id="g5791"><path id="path5793" class="cls-1" d="M80.13 18.63v.7l2.19 3.48h1.27l.28-.27h-1.28z"/></g><g id="g5795"><path id="path5797" class="cls-1" d="M82.46 15.16l-.28.28-2.05 2.92v.12z"/></g><g id="g5799"><path id="path5801" class="cls-1" d="M9.38 22.69H8a1.45 1.45 0 01-1.52-1.44v-4.68a1.29 1.29 0 01.7-1.23 1.51 1.51 0 00-1 1.51v4.67A1.44 1.44 0 007.68 23H9.1a1.64 1.64 0 001.8-1.55v-.16a1.45 1.45 0 01-1.52 1.44"/></g><g id="g5803"><path id="path5805" class="cls-1" d="M8.67 15.65H8l-.14.35a.56.56 0 000 .08 1.16 1.16 0 01.6-.15 1 1 0 011 1.12v4.29a1.21 1.21 0 01-.19.68h.05v-5.25a1 1 0 00-1-1.12"/></g><g id="g5807"><path id="path5809" class="cls-1" d="M15.73 21.07v-5.24l-.28.28v5.23a1.37 1.37 0 01-.17.69 1 1 0 00.44-1"/></g><g id="g5811"><path id="path5813" class="cls-1" d="M21.73 16.72c0-.6-.13-1.09-1.12-1.09h-.91a1.66 1.66 0 01.73-.12c1 0 1.11.48 1.12 1.08v.4l1.08-.56.27-.27-1.07.56z"/></g><g id="g5815"><path id="path5817" class="cls-1" d="M21.41 22h.05l.05-.05a.1.1 0 010-.05v-.13a.14.14 0 000-.07.19.19 0 000-.07.15.15 0 000-.07.29.29 0 000-.09v-.09-.09a.28.28 0 010-.09v-1.37c0-1-.69-1-1.82-1-1.46 0-1.5-.34-1.5-1.37v-1.15a1.07 1.07 0 01.58-1 1.34 1.34 0 00-.86 1.26v1.16c0 1 .05 1.37 1.51 1.37 1.12 0 1.81 0 1.81 1v1.09a2 2 0 01-.13.85l.09-.05"/></g><g id="g5819"><path id="path5821" class="cls-1" d="M26.57 16.3v.28h.13a5.63 5.63 0 002.15-.48l.28-.28a5.45 5.45 0 01-2.13.48z"/></g><g id="g5823"><path id="path5825" class="cls-1" d="M25.45 16.3h-1.79v-1l-.28.27v1h1.8v6.15l1.11.74.28-.27-1.12-.75z"/></g><g id="g5827"><path id="path5829" class="cls-1" d="M3.8 19.24H1.33v.27h2.19L3.5 23l1.08.59.27-.27-1.07-.59z"/></g><g id="g5831"><path id="path5833" class="cls-1" d="M3.81 16.41a7.45 7.45 0 01.5-2.28 3.63 3.63 0 01-.27.28 7.39 7.39 0 00-.5 2.28v1.74h.26z"/></g><g id="g5835"><path id="path5837" class="cls-1" d="M.32 16.41a8.41 8.41 0 01.49-2.28l-.27.28A8.36 8.36 0 000 16.69v6.94L1.07 23l.28-.27-1.08.58z"/></g><g id="g5839"><path id="path5841" class="cls-1" d="M56.5 41.08v-.06H55.89a.59.59 0 010 .08c.2 0 .43.2.44.67l.33 12.4.27-.27-.43-12.78z"/></g><g id="g5843"><path id="path5845" class="cls-1" d="M45.25 35.73h-.45V35.85c.17 0 .35.2.35.59l.25 9.33.27-.27-.24-9.34z"/></g><g id="g5847"><path id="path5849" class="cls-1" d="M46.75 37.4v-.05h-.33v.07c.18 0 .36.24.35.69l.26 9.74.27-.28-.26-9.73z"/></g><g id="g5851"><path id="path5853" class="cls-1" d="M50.51 32.71c-1 0-2 0-3-.05V33h2.77c.94 0 1.93 0 2.87-.05l.46 14.77.28-.28-.47-14.76h-2.87"/></g><g id="g5855"><path id="path5857" class="cls-1" d="M54.91 39.61h-.08l-.06-.06H54.53v.05a.16.16 0 000 .06c.16 0 .33.25.33.67L55 50.76l.27-.28-.4-10.84z"/></g><g id="g5859"><path id="path5861" class="cls-1" d="M43.7 8.8c-3.73-.05-7 .25-7 .25l-.28.27s3.27-.29 7-.24c-.41 4.25 0 8.29 0 15.93h.27c0-7.83-.41-11.91 0-16.22"/></g><g id="g5863"><path id="path5865" class="cls-1" d="M57.33 32.46v.24c6.56-.57 11.55-1.89 12.84-3.4-1.66 1.42-6.55 2.62-12.83 3.14z"/></g><g id="g5867"><path id="path5869" class="cls-1" d="M45.67 0a3.5 3.5 0 01-.28.27 45.27 45.27 0 00-1.76 7.14h.24A43.3 43.3 0 0145.67 0"/></g><g id="g5871"><path id="path5873" class="cls-1" d="M30.46 28.26a1.27 1.27 0 01.33-.85 1.43 1.43 0 00-.61 1.12c.07 1.85 5.55 3.54 13.24 4.18l.33 10.46.27-.28-.32-10.45c-7.7-.65-13.18-2.34-13.24-4.18"/></g><g id="g5875"><path id="path5877" class="cls-1" d="M53.25 17.57A8.73 8.73 0 0057 15.4a10.43 10.43 0 01-5 2.29c.31 0 .75-.09 1.26-.11"/></g><g id="g5879"><path id="path5881" class="cls-1" d="M54.09 12.37a4.08 4.08 0 01-1 3.49l.1-.09.15-.15.1-.11.12-.15.09-.12.11-.15.08-.13.1-.17a.54.54 0 00.07-.13l.09-.18a.69.69 0 00.05-.13 1 1 0 00.08-.22.84.84 0 010-.12c0-.11.06-.22.09-.35a.11.11 0 010-.05v-.06a.09.09 0 010-.05v-.09a.09.09 0 000-.05v-.74-.06-.09C54.11 10.18 51 9.33 47.46 9v.3c3.41.36 6.35 1.21 6.6 3.07"/></g><g id="g5883"><path id="path5885" class="cls-1" d="M47.75 18.34v.3c2.48.29 5.51 1 5.45 2.74l-.08 9.48h.27l.09-9.75c.05-1.81-3.2-2.5-5.72-2.76"/></g><g id="g5887"><path id="path5889" class="cls-1" d="M57.42 25.05v.31c5 .65 9 1.37 9 2.56a1 1 0 01-.22.57s.09-.08.12-.12l.1-.11.09-.12.06-.12c0-1.21-4.19-1.94-9.27-2.6"/></g><g id="g5891"><path id="path5893" class="cls-1" d="M34.56 27.33c1.19-.88 5-1.44 8.86-2 0 1.49 0 3.1-.08 4.89v.37h.28v-.68c.05-1.78.07-3.4.07-4.89-4.22.64-8.43 1.24-9.13 2.29"/></g><g id="g5895"><path id="path5897" class="cls-1" d="M99.34 22.69h-1.68s-1.39 0-1.39-1.16v-.82L96 21v.82C96 23 97.39 23 97.39 23h1.67a1.5 1.5 0 001.59-1.61 1.33 1.33 0 01-1.31 1.34"/></g><g id="g5899"><path id="path5901" class="cls-1" d="M15.37 22.69h-1.49s-1.42-.07-1.42-1.4v-6.17l-.27.27v6.18c0 1.33 1.43 1.39 1.43 1.39h1.48a1.66 1.66 0 001.84-1.58c-.06 1.24-1.5 1.31-1.55 1.31"/></g><g id="g5903"><path id="path5905" class="cls-1" d="M22.81 21.57a1.31 1.31 0 01-1.12.87h-1.84s-1.4 0-1.4-1.16v-.82l-.28.28v.82c.01 1.44 1.4 1.44 1.4 1.44h1.68a1.51 1.51 0 001.59-1.62v.2"/></g><g id="g5907"><path id="path5909" class="cls-2" d="M64.06 16.61V17.23a.36.36 0 010 .1v.28l-.05.07v.12h-.05l-.06.06-.07.06a3.33 3.33 0 01-1.25.55h-.39v-2.84a1.34 1.34 0 000-.2c1.13.1 2.16.37 2.24 1m-3.27-1.07a2.42 2.42 0 000 .25v7.49l1.16-.64V18.7c.79 0 2 .18 2 .83v3.11l1.1.64v-4.12a.15.15 0 000-.07v-.06a.25.25 0 000-.07.35.35 0 000-.08l-.05-.05v-.05h-.06a.88.88 0 00-.27-.1 2 2 0 00-.49 0 3.31 3.31 0 00-.57.07 3.64 3.64 0 001.32-.67 2.3 2.3 0 00.53-.66 2.35 2.35 0 00.14-.4.76.76 0 000-.21.89.89 0 000-.23c-.07-1.06-1.21-1.59-3.26-1.38h-.27a7.11 7.11 0 00-.44-1.62 9.62 9.62 0 00-.46 1.77h-.23a16 16 0 00-1.87.48s.95-.09 2-.08"/></g><g id="g5911"><path id="path5913" class="cls-2" d="M70.11 21.06V21.34a.52.52 0 01-.11.1.92.92 0 01-.41.15h-.18c-.63 0-1-.33-1-1.12v-3.7a1 1 0 010-.18 1 1 0 01.08-.32.57.57 0 01.08-.13l.08-.08H69.32a1 1 0 011 1.11zm-.33-5.93h-1.42s-1.52 0-1.52 1.44v4.67a1.46 1.46 0 001.52 1.45h1.42a1.47 1.47 0 001.52-1.3v-4.82c0-1.44-1.52-1.44-1.52-1.44"/></g><g id="g5915"><path id="path5917" class="cls-2" d="M75.89 15.13h-1.42A1.47 1.47 0 0073 16.58v4.66a1.46 1.46 0 001.52 1.45h1.97a1.62 1.62 0 00.28-.11h.08l.24-.18a1.59 1.59 0 00.13-.22.59.59 0 000-.14 1.27 1.27 0 000-.2v-.59h-1v.45a.14.14 0 010 .06v.16a1 1 0 01-.4.14h-.18c-.64 0-1.05-.33-1.05-1.12v-4.17a1 1 0 010-.18v-.05a1.41 1.41 0 01.07-.31.52.52 0 01.06-.13l.1-.1H75.48a1 1 0 011 1.11v.41h1.19v-.6a1.47 1.47 0 00-1.52-1.45"/></g><g id="g5919"><path id="path5921" class="cls-2" d="M100.65 19.58c0-1.29-.62-1.38-2-1.38-1 0-1.28 0-1.28-.86v-.74a.76.76 0 010-.15.77.77 0 010-.27.34.34 0 010-.12h1c1 0 1.11.49 1.11 1.08v.4l1.08-.56v-.14a1.26 1.26 0 00-1.28-1.31h-2.23l-.15.07h-.16a.71.71 0 00-.14.1 1.08 1.08 0 00-.16.2V17.27c0 1 0 1.36 1.51 1.36 1.12 0 1.81 0 1.81 1v1.33a.28.28 0 000 .09.28.28 0 010 .09.19.19 0 010 .08.17.17 0 000 .07.19.19 0 000 .07.25.25 0 000 .07v.18h-.06a1.57 1.57 0 01-.44.11h-.21c-1 0-1.15-.49-1.15-1.36v-.54l-1.08.46v.82c0 1.16 1.39 1.16 1.39 1.16h1.68a1.33 1.33 0 001.31-1.34v-1.34z"/></g><g id="g5923"><path id="path5925" class="cls-2" d="M86.17 21v-1.8h.41a9 9 0 002.69-.53 8.94 8.94 0 00-2.69-.51h-.41v-1.35-.07a.13.13 0 000-.06 2.85 2.85 0 01.12-.29.33.33 0 010-.06 1.24 1.24 0 01.86-.33h2c-.15-.81-1.51-.67-1.51-.67H86.15a.83.83 0 00-.21.06 1.45 1.45 0 00-.74.51 1.42 1.42 0 00-.26.88v4.55c0 1.47 1.61 1.46 1.61 1.46h1.24s1.37.14 1.51-.69h-2.06a1 1 0 01-1.07-1"/></g><g id="g5927"><path id="path5929" class="cls-2" d="M90.14 15.16v1H92v6.24l1.13.76v-7h.42a5.7 5.7 0 002.19-.49 5.89 5.89 0 00-2.19-.49z"/></g><g id="g5931"><path id="path5933" class="cls-2" d="M83.56 15.16h-1.1l-2.33 3.32v-3.36L79 14.37v8.78l1.16-.75v-3.77l2.46 3.91h1.27l-2.63-4.18z"/></g><g id="g5935"><path id="path5937" class="cls-2" d="M9.71 21.07v.05a.1.1 0 000 .05h-.05a.92.92 0 01-.41.15h-.58c-.64 0-1-.32-1-1.11v-4.3a1.21 1.21 0 010-.19 1 1 0 01.07-.31.54.54 0 01.07-.13.56.56 0 010-.08l.19.65.11-.06h.49a1 1 0 011 1.12zm-.33-5.94H8a2 2 0 00-.82.21 1.29 1.29 0 00-.7 1.23v4.68A1.45 1.45 0 008 22.69h1.38a1.45 1.45 0 001.52-1.44v-4.68c0-1.44-1.52-1.44-1.52-1.44"/></g><g id="g5939"><path id="path5941" class="cls-2" d="M15.75 15.83v5.24a1 1 0 01-.44 1 1 1 0 01-.46.14h-.35a1 1 0 01-.85-1.1v-5.27l-1.2-.72v6.18c0 1.32 1.42 1.39 1.42 1.39h1.49c.05 0 1.49-.07 1.55-1.31a.28.28 0 000-.09V18.5v-3.38z"/></g><g id="g5943"><path id="path5945" class="cls-2" d="M36.93 22.47V18.2l3.39 4.51v-5.66a10.83 10.83 0 00-.49-2.82 12 12 0 00-.51 2.82v2.52l-.27-.36-3.13-4.08v8.08z"/></g><g id="g5947"><path id="path5949" class="cls-2" d="M20.81 18.19c-1 0-1.28 0-1.28-.86v-.91a1.93 1.93 0 010-.27.56.56 0 010-.12h.91c1 0 1.12.49 1.12 1.09v.4l1.07-.56v-.14a1.27 1.27 0 00-1.28-1.32h-1.5a2 2 0 00-.86.22 1.05 1.05 0 00-.58 1v1.15c0 1 0 1.37 1.5 1.37 1.13 0 1.82 0 1.82 1v1.24a.28.28 0 000 .09.28.28 0 010 .09V21.83a.15.15 0 010 .07.19.19 0 010 .07.19.19 0 010 .07v.06a.08.08 0 010 .06.1.1 0 000 .05l-.05.05h-.05l-.09.05a1.23 1.23 0 01-.44.11h-.21c-1 0-1.14-.49-1.14-1.36v-.54l-1.07.46v.82c0 1.16 1.4 1.16 1.4 1.16h1.78a1.31 1.31 0 001.12-.87V19.58c0-1.29-.62-1.39-2-1.39"/></g><g id="g5951"><path id="path5953" class="cls-2" d="M23.66 15.34v1h1.79v6.15l1.12.75V16.3H27a5.45 5.45 0 002.15-.48 5.45 5.45 0 00-2.15-.48z"/></g><g id="g5955"><path id="path5957" class="cls-2" d="M31 16.77v-.18a.09.09 0 000-.05 1 1 0 01.08-.31l.07-.13.06-.05H32a1 1 0 011 1.12V21.7a.21.21 0 010 .06v.05a.4.4 0 01-.12.1.88.88 0 01-.4.15H32c-.64 0-1.05-.32-1.05-1.12zm-1.18-.19v4.67a1.45 1.45 0 001.52 1.44h1.42a1.46 1.46 0 001.53-1.44v-4.67c0-1.45-1.53-1.45-1.53-1.45h-1.47a1.47 1.47 0 00-1.52 1.45"/></g><g id="g5959"><path id="path5961" class="cls-2" d="M4.31 14.13a7.45 7.45 0 00-.5 2.28v2H1.32v-2a7.17 7.17 0 00-.5-2.28 8.41 8.41 0 00-.49 2.28v6.94l1.08-.58v-3.53H3.8v3.53l1.07.58v-6.94a8.83 8.83 0 00-.5-2.28"/></g><g id="g5963"><path id="path5965" class="cls-2" d="M66.69 27.67a.75.75 0 01-.07.12l-.09.12-.1.11a.74.74 0 00-.13.12c-.9.73-2.94 1.33-5.71 1.75h-.75a2.06 2.06 0 01-.26 0h-.15l-.42.05h-1.55l.06-5.25v-.31c5.08.66 9.27 1.39 9.27 2.6zm-13.31 3.18h-5.87v-1.2-.59V28.14 27.54 27 26.43c0-2.36.13-5 .17-7.73v-.31c2.52.26 5.77.95 5.72 2.76zM47.46 9c3.54.33 6.65 1.18 6.91 3.09V13.35a.09.09 0 000 .05v.06a.11.11 0 000 .05l-.09.35a.84.84 0 000 .12 1.43 1.43 0 01-.08.22s0 .09-.05.13l-.09.18a.54.54 0 01-.07.13l-.1.17-.08.13-.11.15-.09.12a1.58 1.58 0 00-.12.15l-.1.11-.15.15-.1.09-.26.23a1.88 1.88 0 01-.24.18l-.24.16-.29.17a6.42 6.42 0 01-.64.33l-.29.13h-.07l-.26.1h-.08l-.28.09h-.06l-.69.2-.32.08h-.08l-.25.06h-.1l-.24.05h-.1l-.24.05h-.4c0-2.84 0-5.78-.26-8.67v-.3m-4.11 22.04h-.28a27.61 27.61 0 01-7.24-1.44l-.23-.1-.2-.1-.17-.09-.14-.09a.57.57 0 01-.13-.08L35 28.5a.1.1 0 00-.05 0 .6.6 0 00-.08-.08l-.07-.08a.1.1 0 010-.05v-.06a.25.25 0 010-.07v-.13-.05a.19.19 0 000-.08.43.43 0 010-.05.49.49 0 010-.12.31.31 0 010-.1v-.05a.45.45 0 01.06-.12c.71-1 4.91-1.65 9.13-2.29 0 1.49 0 3.11-.07 4.89zM57.42 25v-4.82a2 2 0 000-.25.17.17 0 000-.07 1 1 0 000-.17v-.07a.85.85 0 010-.17 1.59 1.59 0 00-.07-.2l-.14-.25v-.05l-.08-.13a1.87 1.87 0 00-.26-.3l-.11-.09h-.05l-.12-.09-.17-.1-.3-.24h-.25l-.15-.05h-.54a8.81 8.81 0 00-1.89-.15c-.51 0-1 .07-1.26.11a10.43 10.43 0 005-2.29l.19-.18a6.8 6.8 0 00.5-.57v-.06l.12-.18a.56.56 0 010-.08l.11-.18.05-.09.15-.31.06-.14.07-.16v-.16l.06-.15a1.6 1.6 0 010-.21v-.13a3.4 3.4 0 00.07-.34v-.12a1 1 0 000-.25.71.71 0 000-.14 2.44 2.44 0 000-.27.53.53 0 000-.13v-.41c-.22-3.26-4.31-4.89-11.08-4.24h-.34A35.33 35.33 0 0045.67 0a43.3 43.3 0 00-1.8 7.38h-.24a53.64 53.64 0 00-6.93 1.67s3.27-.3 7-.25c-.42 4.31 0 8.39 0 16.22h-3.55a30.54 30.54 0 00-6 .78 6.75 6.75 0 00-3.37 1.6 1.27 1.27 0 00-.33.85c.06 1.84 5.54 3.53 13.24 4.18L44 42.89l.54-7.09v-.11a1.25 1.25 0 010-.24v-.08h.33l.24 9.34.57-7.6v-.15a1.3 1.3 0 01.06-.33v-.07h.33a.43.43 0 010 .05v.1L47 47.17 47.47 33v-.29c1 0 2 .05 3 .05h2.87l.47 14.77.39-7.73v-.14a1.13 1.13 0 01.06-.31V39.23a.09.09 0 01.06 0h.17s.05 0 .06.06l.4 10.84.41-9.36a.57.57 0 010-.13 1.43 1.43 0 01.06-.26.59.59 0 000-.08.1.1 0 01.05 0H55.83v.7l.33 12.41.49-20.83v-.26c6.28-.52 11.17-1.72 12.83-3.14a.94.94 0 00.1-.1l.09-.1.08-.09.07-.12V28.6a.14.14 0 000-.06.22.22 0 000-.1v-.06a.76.76 0 000-.15c-.09-2-6.18-3.59-13.34-3.25"/></g></g></g></g></svg>