<svg xmlns="http://www.w3.org/2000/svg" viewBox="0 0 402.35 305.89"><defs><style>.cls-1{fill:#061922}.cls-2{fill:#bdbfc1}.cls-3{fill:#006bb5}.cls-4{fill:#ec174c}</style></defs><g id="Layer_2" data-name="Layer 2"><g id="Layer_1-2" data-name="Layer 1"><g id="_Group_" data-name="&lt;Group&gt;"><path id="_Path_" data-name="&lt;Path&gt;" class="cls-1" d="M5.8 132.46a17.72 17.72 0 00-5.8 13.7v100.9a17.93 17.93 0 005.8 13.85c3.86 3.55 8.63 5 14.27 4.54q13.55-1.12 27.11-2.1v-19.07q-13.56.69-27.11 1.51v-98.36q13.55.82 27.11 1.51v-19.07q-13.56-1-27.11-2.11a17.71 17.71 0 00-14.27 4.7"/><path id="_Path_2" data-name="&lt;Path&gt;" class="cls-1" d="M71.36 131.45q-10.08-.6-20.15-1.3v132.92q22-1.53 44-2.6v-18.25q-11.94.42-23.87.93z"/><path id="_Path_3" data-name="&lt;Path&gt;" class="cls-1" d="M99.27 260.28q10.26-.5 20.55-.87v-125.6q-10.27-.39-20.55-.87z"/><path id="_Compound_Path_" data-name="&lt;Compound Path&gt;" class="cls-1" d="M157.81 134.9q-17-.35-33.94-.94v125.3q10.09-.36 20.22-.63v-53.16l13.72-.05a21 21 0 0014.19-5.11 15.76 15.76 0 006-12.47v-35.09c0-4.84-2-9-6-12.4a21.15 21.15 0 00-14.23-5.45m0 52.89h-13.72V152.3q6.85.13 13.72.23z"/><path id="_Compound_Path_2" data-name="&lt;Compound Path&gt;" class="cls-1" d="M336.13 200.55a17.25 17.25 0 006-13.35v-37.63a16.09 16.09 0 00-6-12.88A18.81 18.81 0 00322 132q-16.95.94-33.9 1.62v126q10.11.4 20.2.9v-54.24q8.4 27.19 16.77 55.14 10.1.57 20.16 1.24-8.81-29.3-17.61-57.54a19.22 19.22 0 008.55-4.57M308.26 151l13.7-.52v36.94l-13.7.1z"/><path id="_Compound_Path_3" data-name="&lt;Compound Path&gt;" class="cls-1" d="M216.07 135.28q-17 .12-34 0V258q10.13-.09 20.24-.08v-52.56h13.74a21 21 0 0014.23-5.06 15.72 15.72 0 006-12.5v-35.16a15.42 15.42 0 00-6-12.29 20.56 20.56 0 00-14.23-5.07m0 52.57h-13.72v-35h13.74z"/><path id="_Path_4" data-name="&lt;Path&gt;" class="cls-1" d="M240.35 258.24q22.08.4 44.14 1.24v-18q-11.94-.33-23.91-.56v-35.44l17.3.06v-17.86l-17.3.06v-35.48q12-.24 23.91-.56v-18q-22 .86-44.14 1.25v123.29"/><path id="_Path_5" data-name="&lt;Path&gt;" class="cls-1" d="M402.35 166.34v-20.18a18.29 18.29 0 00-20.07-18.39q-8.47.71-17 1.35A21.55 21.55 0 00351 135.8a18.71 18.71 0 00-5.82 13.63v37.74a17.75 17.75 0 005.82 13.44 20.36 20.36 0 0014.31 5.64l17 .19v39.35q-8.47-.51-17-1v-19.26q-10.05-.32-20.13-.61v18.87a18.86 18.86 0 005.82 13.78 21.85 21.85 0 0014.31 6.53q8.49.64 17 1.36a18.08 18.08 0 0020.07-18.4V206.7a18.94 18.94 0 00-6-14.16 18.71 18.71 0 00-14.12-5.77l-17 .2V148.4q8.49-.47 17-1v19.7q10.05-.36 20.07-.76"/><path id="_Path_6" data-name="&lt;Path&gt;" class="cls-2" d="M21.18 130c8 .67 16.24 1.32 24.66 1.93v-.81c-8.6-.62-17.3-1.3-25.88-2-.63 0-1.25-.08-1.85-.08a15.84 15.84 0 00-11.38 4.42 16.45 16.45 0 00-5.38 12.72v100.9a17.11 17.11 0 003.49 10.86 18 18 0 01-2.6-9.67V147.36a16.77 16.77 0 015.48-12.94 16.12 16.12 0 0111.59-4.5c.61 0 1.24 0 1.87.08"/><path id="_Path_7" data-name="&lt;Path&gt;" class="cls-2" d="M70 133.54v-.82c-5.83-.36-11.7-.73-17.47-1.13v130l.9-.06V132.46h.16c5.3.37 10.82.72 16.41 1.07"/><path id="_Path_8" data-name="&lt;Path&gt;" class="cls-2" d="M118.48 136v-.85c-5.86-.22-11.87-.47-17.87-.75v124.47h.9V135.23h.15c5.45.25 11.11.49 16.82.71"/><path id="_Path_9" data-name="&lt;Path&gt;" class="cls-2" d="M159 137.14a20.65 20.65 0 0110.84 3.12 20.11 20.11 0 00-12-4c-10.81-.21-21.77-.51-32.57-.89v122.5h.9V136.24h.15c10.85.38 21.86.68 32.72.9"/><path id="_Path_10" data-name="&lt;Path&gt;" class="cls-2" d="M324.52 134.18a17.63 17.63 0 019.63 2.62 17.12 17.12 0 00-10.82-3.52h-1.3c-10.7.6-21.67 1.13-32.62 1.58v123.47h.9V135.79h.14c11.05-.45 22.07-1 32.76-1.58h1.31"/><path id="_Path_11" data-name="&lt;Path&gt;" class="cls-2" d="M202.4 137.57H217.45a19.81 19.81 0 0110.87 2.95 19.19 19.19 0 00-12.06-3.85H201.2c-5.83 0-11.81 0-17.76-.07v120h.89V137.5h.16c5.95.05 12 .07 17.91.07"/><path id="_Path_12" data-name="&lt;Path&gt;" class="cls-2" d="M283.15 135.13c-13.71.52-27.65.91-41.46 1.17v120.62h.9V137.2h.15c13.35-.25 26.95-.63 40.41-1.13z"/><path id="_Path_13" data-name="&lt;Path&gt;" class="cls-2" d="M383.56 130c.61-.05 1.21-.08 1.8-.08a16.22 16.22 0 018.79 2.4 15.79 15.79 0 00-10-3.29c-.58 0-1.18 0-1.78.07-5.62.47-11.33.93-17 1.36a20.33 20.33 0 00-13.37 6.27 17.29 17.29 0 00-5.45 12.7v37.74a16.23 16.23 0 003.45 10.35 16.51 16.51 0 01-2.57-9.15v-37.75a17.6 17.6 0 015.53-12.9 20.57 20.57 0 0113.63-6.36c5.62-.43 11.33-.88 17-1.36"/><path id="_Path_14" data-name="&lt;Path&gt;" class="cls-3" d="M0 287.3a1628.66 1628.66 0 01402.35 0v-7A1756.65 1756.65 0 000 280.32z"/><path id="_Path_15" data-name="&lt;Path&gt;" class="cls-4" d="M48.55 305.89a604.79 604.79 0 01305.25 0v-6.59a620.93 620.93 0 00-305.25 0v6.59"/><path id="_Path_16" data-name="&lt;Path&gt;" class="cls-3" d="M161.22 115.51c-53.92-1.33-107.77-5.32-161.22-12v7c56.83 6.57 114.12 10.33 171.47 11.29a67.34 67.34 0 01-10.25-6.29"/><path id="_Path_17" data-name="&lt;Path&gt;" class="cls-3" d="M241.13 115.51a66.86 66.86 0 01-10.25 6.29c57.36-1 114.64-4.72 171.47-11.29v-7c-53.44 6.67-107.29 10.66-161.22 12"/><path id="_Path_18" data-name="&lt;Path&gt;" class="cls-4" d="M147.8 102.12a612.53 612.53 0 01-99.25-17.18v6.59a626.87 626.87 0 00105 17.2 67.73 67.73 0 01-5.7-6.61"/><path id="_Path_19" data-name="&lt;Path&gt;" class="cls-4" d="M254.55 102.12a67.73 67.73 0 01-5.7 6.61 626.7 626.7 0 00105-17.2v-6.6a611.47 611.47 0 01-99.25 17.19"/><path id="_Path_20" data-name="&lt;Path&gt;" d="M139.16 62a62 62 0 1162 62 62 62 0 01-62-62" fill="#fff"/><path id="_Compound_Path_4" data-name="&lt;Compound Path&gt;" class="cls-1" d="M201.18 0a62 62 0 1062 62 62.09 62.09 0 00-62-62M246 27.56a56.11 56.11 0 0111.68 31.74h-23.37A56.08 56.08 0 01246 27.56m-89.66 0A56.14 56.14 0 01168 59.3h-23.33a56 56 0 0111.68-31.74m0 68.92a56.07 56.07 0 01-11.68-31.74H168a56.14 56.14 0 01-11.69 31.74m47.55 22v-16.2h-5.44v16.2A56.19 56.19 0 01160 100.71a61.41 61.41 0 0013.53-36V59.3a61.44 61.44 0 00-13.53-36 56.23 56.23 0 0138.46-17.79v16.06h5.44V5.51a56.23 56.23 0 0138.51 17.81 61.37 61.37 0 00-13.53 36v5.44a61.34 61.34 0 0013.53 36 56.19 56.19 0 01-38.51 17.81m42.11-22a56.08 56.08 0 01-11.7-31.74h23.37A56.13 56.13 0 01246 96.48"/><path id="_Path_21" data-name="&lt;Path&gt;" class="cls-4" d="M187.36 36.04v51.74H215v-7.11h-20.24V36.04h-7.4z"/><path id="_Path_22" data-name="&lt;Path&gt;" class="cls-3" d="M224.4 53.38V32.06c0-3.2-1.28-4.5-4.44-4.5h-37.62c-3.12 0-4.39 1.3-4.39 4.5V92c0 3.19 1.27 4.5 4.39 4.5H220c3.16 0 4.44-1.31 4.44-4.5V70.64H217v19.29h-31.6V34.1H217v19.28z"/><path id="_Compound_Path_5" data-name="&lt;Compound Path&gt;" class="cls-4" d="M215 78.67V36h-18l-.17 42.63h7.19l.12-13.29h3.65l-.05 13.29zm-7.21-20.38h-3.6V43.15h3.6z"/></g></g></g></svg>