<svg xmlns="http://www.w3.org/2000/svg" viewBox="0 0 82.15 60.91"><defs><style>.cls-1{fill:#010101}.cls-2{fill:#a8aaad}.cls-3{fill:#005183}.cls-4{fill:#fdd51d}.cls-5{fill:#fff}.cls-7{fill:#0ea94e}</style></defs><g id="Layer_2" data-name="Layer 2"><g id="Layer_1-2" data-name="Layer 1"><path class="cls-1" d="M51.5 42.23a.89.89 0 10.87-1.07 1 1 0 00-.87 1.07M26.51 49.36c0-.65-.23-.84-.53-.91v1.86a.6.6 0 00.3-.17.94.94 0 00.23-.78M28.19 51.65a3.73 3.73 0 011 1.29v-3.06a3.79 3.79 0 01-1 1.77M35.15 47.07l-.21 1.5-.14 1-.8-.66-.76-.66h-1.12v2.09h2.93l-.37.79-.81 1.74-.22.45-.47-.16-1.06-.38v2.78H33l1.52-1 .86-.58v2.82l.17-.37-.06-8.56zM52.79 48.84s-.06 0-.13.1A5.3 5.3 0 0052 52c0 2.1.62 3.2.83 3.2A.43.43 0 0053 55a6.37 6.37 0 00.58-3 5.33 5.33 0 00-.69-3c-.08-.09-.13-.11-.14-.11M38.52 56.51l.41.83.16.33.11-.29.28-.71-1-2.02.04 1.86zM38.59 48.37c0 .52 0 1.37-.05 2a1.36 1.36 0 00.58-1.26.77.77 0 00-.24-.57.55.55 0 00-.29-.13M26.25 53.23a.89.89 0 00-.31-.15v2.43a.94.94 0 00.32-.14 1.41 1.41 0 00.48-1.12 1.29 1.29 0 00-.49-1M14.71 47.27l-.51-.65-.31-.39-.16.31-.41.74v8.74l.04.11 1.35-8.86z"/><path class="cls-1" d="M79.25 56a3.48 3.48 0 01-2.63 2.74 4 4 0 01-3.79-1.14v.57h-6.89l.22-.71.44-1.46v-7.86L63.82 58.4l-.12.43h-.84l-.11-.44-2.86-11.08-.52-.61-.32.59v8.25h.1l1.52-1 .86-.58v4.19h-6.07l.24-.72.43-1.43v-1.3A5.27 5.27 0 0155 57.07a3 3 0 01-4.57 0 6.82 6.82 0 01-1.34-4.41L48 58.36l-.1.47h-.82l-.14-.39-1.1-3.13-1.11 3.13-.13.39h-.83l-.1-.47-1.91-9.29a7.6 7.6 0 01-.07 1 3.7 3.7 0 01-1.13 2.09L43 57.34l.38.79H28.54l.21-.71.45-1.42v-.24a3.5 3.5 0 01-.79 1.35c-1.14 1.19-2.95 1.12-4.15 1.07H20.24v-.5l-.35-3.48-1.19 4.19-.11.44h-.84l-.11-.44-1.05-4.07-.34 3.31-.05.5H9.73l.27-.73.41-1.4-.05-8.76-.08-.15v.23l-.13 1-.77-.64-1.07-.89-.08 9.6.53 1.66.24.75H4.54l.23-.72.53-1.64v-9.7l-1.17 1-.76.64-.14-1-.34-2.55-.08-.63h7.93l-.08.63-.12.91h7.16l.08.46.53 3 .53-3 .08-.46h6.77a3.57 3.57 0 013.54 2.75v-.63l-.53-1.29-.32-.77h10.14a3.84 3.84 0 012 .48l-.52-.52h4.23l.07.48.51 3.66.45-1.76.49-1.9.57 1.87.55 1.77.39-3.63.05-.49h4.17l-.8.91-.51.6-.11.53a5.18 5.18 0 01.74-1.12 2.55 2.55 0 011.91-1c1.55 0 2.84 1.7 3.37 4.18v-2.57l-.56-.71-.7-.9h7.92l.07.46.53 3.18.53-3.18.08-.46h8.79l-.09.63A3.25 3.25 0 0175 44.23a4.12 4.12 0 013.92 1.28l.24.28-.16.32-1.22 2.47-.62 1.25-.41-1.33-.44-1.44a.57.57 0 00-.41-.19.46.46 0 00-.54.35 2.13 2.13 0 00.1 1.3A5.71 5.71 0 0076.7 50a10.48 10.48 0 011.93 2.22 4.66 4.66 0 01.62 3.78M7.39 38.81l3.61-6.1-1.2-.27 4-7.33 2.39 7.45-1.24.16 2 6.1h-4.21l-1.25 3.63H6.73l2-3.64zm10.7 1.53l1 2.21 1-2.21.81 3.71h-.76l-.27-1.67-.87 1.74-.73-1.73-.27 1.66h-.78zm3.08-14.44L23 31.57l-.94.12 1.63 4.65h-1.27L23 38.8h-1.13l-3-5.09a4 4 0 00.4-.07 2.45 2.45 0 00.68-.26L19 31.72l-.49-.89zM24.7 44h-.76v-3.61h.76zm3.37-3.69l2 2v-2h.76v3.73l-2-2.06v2h-.76v-3.64zm-3-7.89l.31-.06a2 2 0 00.51-.19l-.8-1.47 2.1-3.85 1.49 4.65-.77.11 1.34 3.81h-1l.72 3.35h-1.56l-.9-1.7a4 4 0 001.09-.31zm-1-8.1a12.45 12.45 0 014.05-6.75s.6-.25-2.89-.32a11.39 11.39 0 014-3.1 12.11 12.11 0 00-2.91-.12s1.1-2.1 4.87-2.68l.3-.05c-.24-.43-.85-.26-1.09-.68-.13-.23 3.32-1.06 3.19-1.28s-3.06-1-3.22-1.25 1.06-.63 1-.78A10.89 10.89 0 0030 6.46c-.57-.38-1.08-.82-1.14-.8-.5.12.16 5 .19 5.23a3.07 3.07 0 01-.5.13c-.28-.27-2.52-7-2-8.19.07-.17.37-.08 1.45.75a24.27 24.27 0 008.51 4.34 11.79 11.79 0 000-2.17 6.17 6.17 0 012.8 2.63l.06-.18a9.12 9.12 0 00.34-1.94 6.74 6.74 0 011.69 1.9 10.33 10.33 0 01-.43 4.27 3.23 3.23 0 01-3 1.3 4.27 4.27 0 00.83.8 5.42 5.42 0 00.89.45s-1.07.77-3.5.23c-.22 0 1.21 1.43 3.27 2.3 1 .42 1.46 2 .18 2a5.28 5.28 0 011.15 2.07l.16.87a1.93 1.93 0 00-1.42-.78h-1.01a.61.61 0 00-.14.07 1.3 1.3 0 00-.38.34 2 2 0 011.19.11c2 .66 1.72 3.37 1.84 3.8a2.16 2.16 0 00-1.21-.37h-.18l-.21.05-.17.08-.14.11a.57.57 0 00-.11.11l-.06.07-.07.11a.41.41 0 00-.07.11.59.59 0 010 .08 1.21 1.21 0 00-.05.18.91.91 0 000 .23 1.47 1.47 0 00.23.78 2.48 2.48 0 00.37.47c.15.14.29.3.29.38s0 .07-.19 0a2.77 2.77 0 01-1.91-2.61c0-1.19.26-1.8.65-1.94h.1a2.55 2.55 0 011.58.41 1.81 1.81 0 00-.32-.42 2.17 2.17 0 00-1.06-.58 1.4 1.4 0 00-.61 0 2.13 2.13 0 00-1.34 1.35A3.57 3.57 0 0036 26a3 3 0 000 .42 3.94 3.94 0 00.17 1.14 20.32 20.32 0 00.94 2.8 10.75 10.75 0 011.29 5.84.75.75 0 000 .15v.16a.5.5 0 000 .12.76.76 0 000 .16v.25l.05.09a.54.54 0 00.07.13.35.35 0 01.05.08.52.52 0 00.1.11l.06.07.11.1h.07l.13.09h.07l.15.08h.06l.18.07a3.59 3.59 0 00.47.12h1.12A2 2 0 0043.53 36a10.87 10.87 0 011.29-5.7c.54-1-.45.74-.52 3.47s0 5.47-3.33 5.54h-.51a2.72 2.72 0 01-2-1 3.25 3.25 0 01-.33-.61c-.57-1.33-.4-3.14-.73-4.25a14.54 14.54 0 00-1.14-2.65c-.27-.49-.47-.79-.47-.8a4.47 4.47 0 00.42 2.17 6 6 0 01.48 2.3v.1a2.11 2.11 0 00-.93-.44v.07a10.69 10.69 0 01.42 2c0 .15.05.31.07.47a6.47 6.47 0 00.57 1.88 2.68 2.68 0 00.12.24H33l-1.45-2.73a3.8 3.8 0 00.89-.25l-2.11-3.56h.24a1.4 1.4 0 00.43-.16l-3.87-7.11-2.63 4.82-.69-1.27-.41-.81a27.46 27.46 0 01.6-3.37m21.43 17.11a1.09 1.09 0 011.12-1.12 1.45 1.45 0 011 .42l-.42.62a.67.67 0 00-.54-.27c-.13 0-.33.09-.33.28 0 .57 1.37.2 1.37 1.52a1.12 1.12 0 01-1.18 1.21 1.46 1.46 0 01-1.06-.43l.45-.68a.72.72 0 00.58.29c.16 0 .4-.09.4-.32 0-.57-1.37-.23-1.37-1.52m1.43-23.19l.5-.34a1.25 1.25 0 01-.5 1.51 1 1 0 01-1.52-.31l.41-.28a.75.75 0 00.8.1.55.55 0 00.31-.68m-4.5 17.92c.71-.07.47-1.16.47-1.16a1.44 1.44 0 01.34 1c0 .87-.47 1.11-.57 1.11s-.35-.17-.35-.57.11-.38.11-.38m-2.9-6.45c.1-.21.62-.09.75.16a.52.52 0 01.74 0 .52.52 0 01.74 0c.12-.25.65-.37.75-.16a1.25 1.25 0 01-.32.81s-.18-.4-.34-.44c0 0-.3.41-.43.56l-.4-.49-.4.49c-.13-.15-.44-.56-.44-.56-.15 0-.34.44-.34.44a1.28 1.28 0 01-.31-.81M39.16 35s-.23 1.09.47 1.16c0 0 .11 0 .11.38s-.24.57-.35.57-.57-.24-.57-1.11a1.54 1.54 0 01.34-1m-.42-3.55a1.25 1.25 0 01-.47-1.11c0-1.09.47-1.3.47-1.3.18-.06.27 0 .43.15a1 1 0 01.22.44 1.11 1.11 0 00-.59.49 2.46 2.46 0 00-.06 1.33m3.14 6.06c-.17.2-.41 0-.41 0a.43.43 0 01-.47 0 .42.42 0 01-.46 0s-.24.2-.41 0a1.08 1.08 0 01-.1-1s.07.63.47.67l.27-.47.23.5.24-.5.27.47c.4 0 .47-.67.47-.67a1.08 1.08 0 01-.1 1M41 35.35c-1.2-.08-1.7-1.35-1.76-2.35s.16-1.45.74-1.48.87.71.9 1a2.06 2.06 0 00.16.59 2.11 2.11 0 00.15-.58c0-.31.31-1.05.9-1s.8.43.74 1.48-.56 2.29-1.79 2.35m2.1-5.2a1.11 1.11 0 00-.59-.49.89.89 0 01.22-.44c.15-.12.25-.21.43-.15 0 0 .46.21.46 1.3a1.26 1.26 0 01-.46 1.11 2.46 2.46 0 00-.06-1.33M37 40.39v3.73l-2-2.06v2h-.8v-3.72l2 2v-2zm4.92 1.42v.77h-.8v.69h1.21l-.19.76h-1.79v-3.6h1.73l.13.76H41.1v.62zm3.15-26.95c.08.45.22.91.31.77a6.9 6.9 0 011.69-1.1s-.52.9-.29.76 1.07.2 1.07.2c-2.15.84-3.85 1.81-4.51 3.09-.08-.6 1.65-4.17 1.73-3.72m9 27.37a1.65 1.65 0 11-1.64-1.89A1.78 1.78 0 0154 42.23m1.43-7l-1 .07-.36 3.55h-3.84l1.22-2.29.6-1.15-.92-.15 1.48-2.48.71-1.21-.78-.1L55 26.88l.74 4.46-.79.11zM47.75 8a34.91 34.91 0 007-4c1.29-1.06 1.72-1.4 2-1.28a.39.39 0 01.24.36s-1 5.15-3.06 8.36a6 6 0 012.75 2.17 18.56 18.56 0 00-2.88.15 16.2 16.2 0 014 3.91 19.72 19.72 0 00-3.93-.17c.15.13 1.12 1.17 1.29 1.31a9.67 9.67 0 013.48 8l-.18-1.08a13.22 13.22 0 00-4.39-6.86c-.31-.26-2-1.56-2.21-1.8 0 0 1.19-.16 1.61-.23a18.55 18.55 0 012.79 0 32.32 32.32 0 00-4.14-3.29l-.24-.12a12.59 12.59 0 013.41-.27 7.68 7.68 0 00-2.15-1.51 24.23 24.23 0 003-7.82s.27-.5-1 .66C55 4.54 53.7 5.64 52 7.25l.65 1A28.45 28.45 0 0149 9l1.67 1.65c-1.55-.67-2.88-1.74-4.53-1.94L47.75 8M57 41.25l.2-.82h2.09v.82h-.74V44h-.76v-2.75zm4-15.35l1.14 5.55-1 .12.73 4.7-1.19.08-.24 2.45h-4.38l.62-1.17.74-1.41-1.12-.17 1.79-3 .91-1.5-1-.12zM65.29 44h-.77l-.31-.69H63l-.31.69H62l1.63-3.69zm.46-11.5l-1.25-.16 4-7.26 2.69 7.45-1.19.18c.63 1.35 2.08 4.64 2.67 5.73l-1.22.24 1.82 3.85a3.71 3.71 0 00-1.45 1.35h-1.65l-2-5.08h-5.85zm13.65 17l2.06-4.33-.1-.12c-.08-.1-2-2.47-4.3-2.76h-.26l-1.3-2.4.38-.08a3.89 3.89 0 001-.33h.07l-3.36-5.65.37-.1a3.6 3.6 0 00.61-.22h.07s-6.24-11.59-6.26-11.63-4.13 7.58-4.13 7.58S61 23.45 61 23.41l-1.05 1.93-.13-.86a7.82 7.82 0 00-.66-2.2 14.53 14.53 0 00-1.82-2.76l-.52-.65.81.18a6.68 6.68 0 011.35.45l.79.38c0-.09-.17-.86-.17-.86a7.1 7.1 0 00-2-3.53l-.71-.72 1.39.32 1 .31-.53-.94a8.65 8.65 0 00-2.48-2.88l-.19-.13.08-.22c1.51-3.68 2.27-6.51 2.27-8.39 0-1.54-.52-2-.74-2.13l-.08-.07h-.16A21.74 21.74 0 0053.63 3C52.4 3.86 51 4.82 50 5.42a11.11 11.11 0 01-2.88 1.28l-.26.07-.08-.25a7.25 7.25 0 01-.32-1.77V4l-.64.4a6.11 6.11 0 00-1.5 1.71l-.24.35-.24-.35a10.24 10.24 0 00-1.69-1.79l-1-.78.3 1.23V5.9L41 5.54a20.53 20.53 0 00-2-1.29l-.75-.44v.41l.11 1.06-.52-.35a11 11 0 00-2.64-1.26l-.87-.26.34.84A6.36 6.36 0 0135 5.52l.07.55-.49-.24a65.36 65.36 0 01-7-4.24c-.78-.56-1.38-.72-1.83-.48-.61.33-.61 1.18-.61 1.46v.25a31.76 31.76 0 002.17 8.23l.08.22-.2.13a12.68 12.68 0 00-3.31 3.1l-.53.75.91-.06h1.31l-.65.52a10.19 10.19 0 00-2.47 2.91l-.48.91 1-.29a7.25 7.25 0 011.25-.24l.73-.1-.47.57a9.79 9.79 0 00-1.87 3.81 10.66 10.66 0 00-.22 1.2l-.11.9s-1-1.89-1.06-1.93l-3.29 6.05-4.12-7.58-6.29 11.52h.08a3.77 3.77 0 00.6.22l.37.1s-3.34 5.62-3.35 5.65h.07a3.66 3.66 0 001 .33l.38.08-1.28 2.5H.69s1.38 8.9 1.39 8.94l1.68-1.12.06 5.86-1.5 4.28h9.1l-.23-.71h62.2a7.36 7.36 0 003.8.64c1-.12 4.26-.9 4.26-5.94a7.49 7.49 0 00-1.92-4.64z"/><path class="cls-1" d="M63.23 42.67h.81l-.41-.88-.4.88zM72.83 56.39l1-2 .61-1.25.41 1.33.44 1.43a.94.94 0 00.47.21 1.06 1.06 0 00.68-.43 1.89 1.89 0 00-.2-1.73A9.93 9.93 0 0075 52.34a14.22 14.22 0 01-2-2.44 4.64 4.64 0 01-.56-1.78l-.06.45-.14 1-.77-.67-.75-.66h-1.19v2.09h2.93l-.36.79-.82 1.74-.21.45-.47-.16-1.07-.38v2.78h.92l1.52-1 .86-.58v2.46zM22.9 47.71l-.61-1.22a.67.67 0 00-.06-.11l-.1.18-.41.67 1.4 9.15z"/><path class="cls-2" d="M81.45 54.34c0 5-3.26 5.82-4.26 5.94a7.36 7.36 0 01-3.8-.64h-62.2l.23.7h-9.1L3.82 56l-.06-5.9-1.68 1.16S.69 42.36.69 42.32h4.7l1.29-2.43-.38-.08a3.79 3.79 0 01-1-.33h-.07l3.35-5.65-.36-.1a5.07 5.07 0 01-.61-.21h-.08l6.29-11.56 4.12 7.58 3.29-6.05 1.06 1.94.11-.91a10.66 10.66 0 01.22-1.2 9.79 9.79 0 011.87-3.81l.47-.57-.73.09a8 8 0 00-1.31.28l-1 .29c0-.06.48-.91.48-.91a10.19 10.19 0 012.47-2.91l.65-.53h-1.31l-.91.06.53-.75a12.68 12.68 0 013.31-3.1l.2-.13-.08-.22c-.61-1.59-2.05-5.56-2.17-8.23v-.31c0-.28 0-1.13.61-1.46.45-.24 1-.08 1.83.48a65.36 65.36 0 007 4.24l.49.24-.02-.55a5.23 5.23 0 00-.31-1.27s-.29-.75-.33-.84l.87.26a11.17 11.17 0 012.68 1.26l.52.35-.11-1.06v-.41l.75.44a22 22 0 012 1.29l.45.34V4.77l-.3-1.23 1 .78a10.24 10.24 0 011.69 1.79l.24.35.24-.35a6.11 6.11 0 011.5-1.71l.64-.4v.75a7.33 7.33 0 00.32 1.77l.08.25.26-.07A11.11 11.11 0 0050 5.42c1-.6 2.4-1.56 3.64-2.4A21.33 21.33 0 0157.42.66h.16l.12.07c.22.12.74.59.74 2.13 0 1.88-.76 4.71-2.27 8.39l-.08.21.19.14a8.65 8.65 0 012.48 2.88l.53.94-1-.31-1.39-.32.71.72a7.06 7.06 0 012 3.53s.16.77.17.86l-.79-.38a6.68 6.68 0 00-1.35-.45l-.81-.18.52.65a14.53 14.53 0 011.82 2.76 7.82 7.82 0 01.66 2.2l.13.86L61 23.41l3.29 6.05s4.08-7.51 4.13-7.58 6.26 11.51 6.28 11.56h-.07a3.6 3.6 0 01-.61.22l-.37.1L77 39.44h-.07a3.6 3.6 0 01-1 .32l-.38.09 1.27 2.38h.26c2.32.29 4.22 2.66 4.31 2.76l.09.12-2.08 4.44.13.15a7.51 7.51 0 011.92 4.64m.7-9.19l-.35-.45c-.09-.11-2.12-2.63-4.66-3l-.76-1.44a3.58 3.58 0 00.82-.3l.57-.34-.34-.57-2.93-4.91a2.53 2.53 0 00.35-.14l.62-.31-.33-.61-6.76-12.43-4.12 7.58L61 22.18s-.69 1.25-.78 1.43a8.17 8.17 0 00-.57-1.61 13.3 13.3 0 00-1.34-2.15l.38.15.64.31 1.21.59-.26-1.32-.14-.7a7.46 7.46 0 00-1.48-3.1l1.89.56-1.25-2.2a9.35 9.35 0 00-2.47-2.93c1.47-3.65 2.22-6.48 2.22-8.4S58.41.42 58 .2l-.32-.2-.39.09c-.53.11-1.46.72-4 2.44-1.25.85-2.64 1.8-3.63 2.39a11 11 0 01-2.44 1.13 6.75 6.75 0 01-.2-1.33v-.61L47 3l-1.48 1A5.9 5.9 0 0044 5.45a10 10 0 00-1.56-1.59L40.14 2s.59 2.38.67 2.67c-.73-.5-1.43-.91-1.52-1l-1.75-1s.15 1.36.15 1.41a11.48 11.48 0 00-2.32-1l-2-.61.79 2a4.58 4.58 0 01.17.58 67.24 67.24 0 01-6.42-3.92c-1-.71-1.79-.88-2.46-.52a2.13 2.13 0 00-.91 2v.28A31.76 31.76 0 0026.63 11a13.57 13.57 0 00-3.28 3.12l-1.24 1.76 1.4-.1h.36a10.5 10.5 0 00-2 2.54l-.39.74-.73 1.39 2.32-.68a4.26 4.26 0 01.49-.1A10.38 10.38 0 0022 23.1c0 .13-.05.29-.08.44l-.74-1.36-3.29 6.05-4.12-7.58-.59 1.08-6.5 12 .62.31.35.14c-.34.56-3.27 5.5-3.27 5.5L5 40a3.25 3.25 0 00.82.3s-.64 1.2-.77 1.46H0l.12.77 1.52 9.75 1.55-1v4.71l-1.73 5h10.76L12 60.2h61.2a8.09 8.09 0 004.06.66c1.12-.13 4.77-1 4.77-6.52a7.94 7.94 0 00-1.94-4.88l2.06-4.31"/><path class="cls-2" d="M24.55 29.76l2.63-4.82L31 32.05a1.26 1.26 0 01-.42.16h-.25l2.12 3.55a3.44 3.44 0 01-.89.26L33 38.8h2.45c-1-1.51-.65-4.82-2-7.66a16.81 16.81 0 01-.91-2.28 8.66 8.66 0 00-.79.74 6.89 6.89 0 01.15-3.73 4.17 4.17 0 00-1.71 1.44 4.82 4.82 0 01.32-3.69 4.91 4.91 0 012.9-2.69 2.5 2.5 0 01-1.35-1.87 7.4 7.4 0 01.65-3.23c1.43 1.36 3.3 2 4.64 3a4.46 4.46 0 011.56 1.88 3.34 3.34 0 01.61 1 1.93 1.93 0 011.42.78l-.16-.87a5.28 5.28 0 00-1.15-2.07c1.28 0 .8-1.62-.18-2-2.06-.87-3.49-2.27-3.27-2.29 2.43.53 3.5-.24 3.5-.24a5.42 5.42 0 01-.89-.45 4.27 4.27 0 01-.83-.8 3.23 3.23 0 003-1.3 10.32 10.32 0 00.43-4.27 6.74 6.74 0 00-1.69-1.9 9.27 9.27 0 01-.34 2l-.06.17a6.17 6.17 0 00-2.8-2.63 11.79 11.79 0 010 2.17 24.27 24.27 0 01-8.51-4.34c-1.08-.83-1.37-.92-1.45-.75C26 4 28.24 10.75 28.52 11a3.07 3.07 0 00.5-.13c0-.26-.68-5.11-.18-5.23.05 0 .56.42 1.13.8a10.89 10.89 0 011.29.88c.09.15-1.05.63-1 .78s3.07 1 3.23 1.25-3.33 1.06-3.2 1.28c.24.42.85.25 1.09.68l-.3.05c-3.77.58-4.87 2.68-4.87 2.68a12.11 12.11 0 012.91.12 11.39 11.39 0 00-4 3.1c3.49.07 2.89.32 2.89.32A12.45 12.45 0 0024 24.35a27.46 27.46 0 00-.57 3.33l.41.81z"/><path class="cls-2" d="M39.63 24.54a2.55 2.55 0 00-1.58-.41 2.91 2.91 0 011.53 1.68h.18a2.16 2.16 0 011.21.37c-.13-.43.13-3.14-1.84-3.8a2 2 0 00-1.19-.11 2.2 2.2 0 011.69 2.3M41.24 38.68a1.33 1.33 0 01-.27.62c3.32-.07 3.27-2.93 3.33-5.54s1.06-4.43.52-3.48A10.82 10.82 0 0043.53 36a2 2 0 01-2.25 2.18H41a.86.86 0 01.25.52M47.83 15.49s-.76-.38-1.07-.2.29-.76.29-.76a6.62 6.62 0 00-1.69 1.1c-.09.14-.23-.32-.31-.77s-1.81 3.14-1.74 3.72c.67-1.28 2.37-2.25 4.52-3.09"/><path class="cls-3" d="M49 9a28.45 28.45 0 003.7-.67l-.65-1c1.69-1.61 3-2.71 3.12-2.81 1.27-1.16 1-.66 1-.66a24 24 0 01-3 7.82 7.68 7.68 0 012.15 1.51 12.57 12.57 0 00-3.41.27l.24.12a32.32 32.32 0 014.14 3.29 20 20 0 00-2.79 0c-.42.07-1.61.23-1.61.23.26.24 1.9 1.54 2.21 1.8a13.16 13.16 0 014.39 6.86l.18 1.08a9.65 9.65 0 00-3.48-8c-.17-.14-1.14-1.18-1.29-1.31a19.72 19.72 0 013.93.17 16.2 16.2 0 00-4-3.91 18.56 18.56 0 012.88-.15 6 6 0 00-2.75-2.17C56 8.24 57 3.09 57 3.09a.41.41 0 00-.24-.36c-.24-.12-.67.22-2 1.28 0 0-4.26 3.1-7 4l-1.66.63c1.65.19 3 1.26 4.53 1.93z"/><path class="cls-4" d="M46.55 19a.75.75 0 01-.8-.1l-.4.28a1 1 0 001.51.31 1.25 1.25 0 00.5-1.51l-.5.34a.55.55 0 01-.31.68"/><path class="cls-5" d="M39.39 29.66a1 1 0 00-.22-.44c-.16-.12-.25-.21-.43-.15 0 0-.47.21-.47 1.3a1.25 1.25 0 00.47 1.11 2.46 2.46 0 01.06-1.33 1.11 1.11 0 01.59-.49M39.39 37.14c.11 0 .35-.17.35-.57s-.11-.38-.11-.38c-.7-.07-.47-1.16-.47-1.16a1.5 1.5 0 00-.33 1c0 .87.47 1.11.56 1.11M43.66 30.37c0-1.09-.46-1.3-.46-1.3-.18-.06-.28 0-.43.15a.89.89 0 00-.22.44 1.11 1.11 0 01.59.49 2.46 2.46 0 01.06 1.33 1.26 1.26 0 00.46-1.11M40.13 30.11s.31.41.44.56l.4-.49.4.49c.13-.15.43-.56.43-.56.16 0 .34.44.34.44a1.25 1.25 0 00.32-.81c-.1-.21-.63-.09-.75.16a.52.52 0 00-.74 0 .52.52 0 00-.74 0c-.13-.25-.65-.37-.75-.16a1.28 1.28 0 00.31.81s.19-.4.34-.44M41.51 37.24l-.27-.47-.24.5-.23-.5-.27.47c-.4 0-.47-.67-.47-.67a1.08 1.08 0 00.1 1c.17.2.41 0 .41 0a.42.42 0 00.46 0 .43.43 0 00.47 0s.24.2.4 0a1.07 1.07 0 00.11-1s-.07.63-.47.67M42.62 37.14c.1 0 .57-.24.57-1.11a1.44 1.44 0 00-.34-1s.24 1.09-.47 1.16c0 0-.11 0-.11.38s.25.57.35.57"/><path class="cls-2" d="M42.21 41.19l-.13-.76h-1.73v3.6h1.77l.19-.76H41.1v-.69h.8v-.77h-.8v-.62h1.11zM34.21 40.34h-.01v3.69h.76v-1.97l2.01 2.06h.01v-3.74h-.76v1.98l-2.01-2.02zM46.4 43.3a.72.72 0 01-.58-.29l-.45.68a1.46 1.46 0 001.06.43 1.12 1.12 0 001.18-1.21c0-1.32-1.38-.95-1.38-1.52 0-.19.21-.28.34-.28a.67.67 0 01.54.27l.42-.62a1.45 1.45 0 00-1-.42 1.09 1.09 0 00-1.12 1.12c0 1.29 1.37.95 1.37 1.52 0 .23-.24.32-.4.32M28.83 42.06l2.01 2.06h.01v-3.73h-.76v1.97l-2.01-2.02h-.01v3.69h.76v-1.97zM53.25 42.23a.89.89 0 11-.88-1.07 1 1 0 01.88 1.07m-2.51 0a1.65 1.65 0 101.63-1.89 1.78 1.78 0 00-1.63 1.89M18.29 42.39h.01l.73 1.73h.01l.8-1.74h.01l.27 1.67h.76l-.81-3.71h-.01l-.99 2.21-.97-2.21h-.01l-.84 3.71h.78l.26-1.66zM58.51 44.03v-2.78h.74v-.82h-2.09l-.2.82h.79v2.78h.76zM23.95 40.39h.76v3.65h-.76zM64 42.68h-.82l.41-.89zM62 44h.74l.31-.69h1.17l.31.69h.77l-1.65-3.69z"/><path class="cls-5" d="M38.9 20.73a7.23 7.23 0 00-.91-.48 2 2 0 00-.81-.22c-.57 0-.93.65-2.36.14a2.09 2.09 0 01-1.17-2.38c0-.25-.28-.57-.48-.86a4.24 4.24 0 01-.46-1.09 7.4 7.4 0 00-.65 3.23 2.51 2.51 0 001.35 1.87 4.91 4.91 0 00-2.9 2.69 4.82 4.82 0 00-.32 3.69 4.17 4.17 0 011.71-1.44 6.9 6.9 0 00-.15 3.73 8.66 8.66 0 01.79-.74 16.63 16.63 0 00.9 2.28c1.37 2.84 1.05 6.15 2 7.66h1.48l-.11-.24a6.47 6.47 0 01-.57-1.88c0-.16 0-.32-.07-.47a11.15 11.15 0 00-.42-2v-.07a2 2 0 01.94.44v-.1a6 6 0 00-.49-2.3 4.56 4.56 0 01-.42-2.19s.2.31.47.8a13.64 13.64 0 011.13 2.65c.34 1.11.17 2.92.74 4.25a2.49 2.49 0 002.33 1.62H41a1.33 1.33 0 00.27-.62.92.92 0 00-.25-.52h-.83a2.85 2.85 0 01-.48-.13l-.18-.07h-.06l-.15-.08h-.07l-.13-.09h-.07l-.11-.1-.06-.07a.52.52 0 01-.1-.11l-.05-.08-.08-.13v-.09a.78.78 0 010-.14v-.11a.9.9 0 010-.16.5.5 0 010-.12v-.4-.15a10.61 10.61 0 00-1.28-5.84 20.32 20.32 0 01-.94-2.8 3.94 3.94 0 01-.43-1.14 3 3 0 010-.37 3.57 3.57 0 01.27-1.07 2.13 2.13 0 011.34-1.35 1.4 1.4 0 01.61 0 2.14 2.14 0 011.06.58 1.81 1.81 0 01.32.42 2.2 2.2 0 00-1.69-2.3 1.3 1.3 0 01.38-.34l.15-.07h1.01a3.34 3.34 0 00-.61-1"/><path class="cls-5" d="M38.05 24.13h-.1c-.39.14-.7.75-.65 1.94a2.77 2.77 0 001.92 2.61h.19s-.14-.24-.29-.38a2.48 2.48 0 01-.37-.47 1.47 1.47 0 01-.23-.78.91.91 0 010-.23 1.21 1.21 0 01.05-.18v-.08a.41.41 0 01.07-.11l.07-.11.06-.07a.57.57 0 01.11-.11l.14-.11.17-.08.2-.05a2.92 2.92 0 00-1.53-1.67"/><path class="cls-1" d="M34.49 17.93l.49.34a.56.56 0 00.31.68.77.77 0 00.81-.1l.4.28a1 1 0 01-1.52.31 1.25 1.25 0 01-.49-1.51m-1.32-1c.2.29.51.61.48.86a2.09 2.09 0 001.17 2.38c1.43.51 1.79-.12 2.36-.14a2 2 0 01.81.22 9.88 9.88 0 01.91.47 4.43 4.43 0 00-1.57-1.89c-1.33-1-3.2-1.65-4.63-3a4.24 4.24 0 00.46 1.09"/><path class="cls-4" d="M35 19.44a1 1 0 001.52-.31l-.4-.28a.77.77 0 01-.81.1.56.56 0 01-.31-.68l-.49-.34a1.25 1.25 0 00.49 1.51"/><path d="M42.83 33c.06-1.05-.16-1.45-.74-1.48s-.87.71-.9 1a2.11 2.11 0 01-.15.58 2.06 2.06 0 01-.16-.59c0-.31-.31-1-.9-1s-.8.43-.74 1.48.56 2.29 1.8 2.35c1.23-.06 1.73-1.3 1.79-2.35" fill="#da5e5b"/><path class="cls-3" d="M53 55a.39.39 0 01-.25.16c-.22 0-.83-1.1-.83-3.2a5.3 5.3 0 01.7-3.05c.07-.09.12-.1.13-.1s.06 0 .13.11a5.23 5.23 0 01.7 3A6.29 6.29 0 0153 55m-.25-6.74a.75.75 0 00-.55.29 5.83 5.83 0 00-.8 3.45c0 1.95.56 3.75 1.39 3.75a.9.9 0 00.66-.34 6.49 6.49 0 00.72-3.4 5.85 5.85 0 00-.83-3.42.75.75 0 00-.55-.29M38.54 50.33c0-.59 0-1.44.05-1.95a.49.49 0 01.29.12.83.83 0 01.25.57 1.39 1.39 0 01-.59 1.26m-.44-2.48h-.05l-.08 3V51H38c1.4 0 1.62-1.35 1.65-1.91a1.37 1.37 0 00-.44-1 1.28 1.28 0 00-1.14-.23"/><path class="cls-3" d="M78.71 55.81a2.88 2.88 0 01-2.22 2.35 3.61 3.61 0 01-3.38-1.11l1.22-2.46.48 1.56a1.54 1.54 0 00.9.46 1.52 1.52 0 001.22-.72 2.34 2.34 0 00-.19-2.23c-.47-.94-2.49-2.6-3.29-4a3.85 3.85 0 01-.45-2.41 3 3 0 012.13-2.49 3.59 3.59 0 013.37 1.11l-1.22 2.47-.47-1.57a1.29 1.29 0 00-.9-.46 1 1 0 00-1.07.74 2.6 2.6 0 00.16 1.72c.59 1.18 2.19 2 3.21 3.7a4.09 4.09 0 01.55 3.34M72 54.51l-1.52 1h-.92v-2.78l1.07.38.47.16.21-.45.82-1.74.36-.79h-2.94V48.2h1.16l.75.66.77.67.14-1 .06-.45A4.81 4.81 0 0073 49.9a14.22 14.22 0 002 2.44 9.93 9.93 0 011.3 1.56 1.87 1.87 0 01.2 1.72 1 1 0 01-.68.44 1 1 0 01-.47-.21l-.44-1.43-.41-1.33-.61 1.25-1 2v-2.41zm.3 3.06h-5.61l.46-1.52v-8.38l-.49-1.17-.35.55-3 11.2-2.89-11.2-.65-.78h2.54l1.06 6.44 1.08-6.44h7.69l-.31 2.22-.9-.78H69v3.21h2.61l-.82 1.75L69 52v4.11h1.65L72.27 55zm-12.97-1.48L61 55v2.6h-4.78l.47-1.44v-8.99l-.69-.9h3l-.47.88v9zm-4.72.62a2.42 2.42 0 01-3.73 0 6.44 6.44 0 01-1.21-4.26A8.63 8.63 0 0151.24 47a2 2 0 011.51-.79c1.69 0 3.07 2.78 3.07 6.2a6.44 6.44 0 01-1.21 4.26m-7.16 1.54l-1.62-4.6-1.63 4.6L41.9 47l-.63-.7h2.51l.91 6.44 1.14-4.48 1.34 4.33.67-6.29h2.46l-.61.71zM41.13 50a3.17 3.17 0 01-1.26 2l2.65 5.55h-2.8l.36-.94-1.89-3.81-.29.05.1 3.79.45.94h-2.77l.46-1-.06-8.81-.69-1.45h3.09a2.9 2.9 0 011.88.55 3.34 3.34 0 01.77 3.13m-1.93 7.38l-.11.29-.16-.33-.4-.83v-1.86l1 2zm-3.78-.58v-2.87l-.86.58-1.52 1h-.92v-2.78l1.06.38.47.16.22-.45.81-1.74.37-.79h-2.9V48.2h1.16l.75.66.77.67.14-1 .21-1.5.38.8.06 8.56zm-.55.77h-5.59l.47-1.52v-8.38l-.59-1.4h5.59l-.31 2.22-.91-.78H31.6v3.21h2.6l-.81 1.75-1.78-.67-.05 4.11h1.66L34.87 55v2.6zm-6.68-5.92a3.79 3.79 0 001-1.77v3.06a3.73 3.73 0 00-1-1.29M28 56.7c-1.15 1.2-3.22.88-4.3.88l-.26-10-.66-1.34c.53 0 2-.07 2.82 0a3 3 0 013.07 2.6 3.05 3.05 0 01-1.33 2.83l-.09.06h.1a2.94 2.94 0 011.48 1.89A3.65 3.65 0 0128 56.7m-7.26.88l-.66-6.49-1.91 7.16-1.82-7.06-.65 6.39h-5.21l.51-1.45-.05-9-.46-.87h2.79l-.47.87v9l.45 1.4.6-.71 1.48-9.68-.67-.85h2.54l1.06 6.12 1.08-6.12h2.34l-.51.85 1.48 9.68.65.78zm-7.42-10.3l.41-.74.17-.31.3.39.51.65-1.35 8.86v-8.85zm8.81-.72l.1-.18a.67.67 0 01.06.11l.61 1.22.22 8.67-1.4-9.15zm-12.43.72l-1.31-1.09h-.65l-.1 10.33.57 1.74H5.29l.56-1.73V46.19H5l-1.29 1.09-.34-2.55H10zm67 2.72a5.71 5.71 0 01-1.26-1.44 2.13 2.13 0 01-.1-1.3.48.48 0 01.54-.36.67.67 0 01.42.2l.44 1.44.4 1.33.62-1.25L79 46.11l.16-.32-.24-.28A4.1 4.1 0 0075 44.23a3.23 3.23 0 00-2.32 2.13l.09-.63H64l-.08.46-.53 3.18-.52-3.18-.08-.46h-7.96l.7.9.56.71v2.57c-.53-2.48-1.82-4.18-3.36-4.18a2.56 2.56 0 00-1.92 1 5.18 5.18 0 00-.74 1.12l.11-.53.51-.6.8-.91h-4.15l-.05.49-.39 3.63-.55-1.77-.58-1.87-.48 1.9-.45 1.76-.51-3.66-.07-.48H40l.41.46a3.84 3.84 0 00-2-.48H28.34l.32.77.53 1.29v.63a3.55 3.55 0 00-3.54-2.75H18.85l-.08.46-.54 3-.52-3-.08-.46h-7.16l.12-.91.08-.63H2.74l.09.63.34 2.55.13 1 .77-.64 1.16-1v9.7l-.53 1.64-.23.72H9l-.24-.72-.56-1.65.08-9.6 1.07.89.77.64.13-1v-.23l.08.15.08 8.73-.41 1.4-.24.72h6.44l.05-.5.34-3.31 1.05 4.07.11.44h.84l.11-.44 1.14-4.24.35 3.48v.5h4.06c1.2.05 3 .12 4.15-1.07a3.5 3.5 0 00.79-1.35v.3l-.45 1.44-.21.71H43.4l-.4-.81-2.47-5.16a3.7 3.7 0 001.13-2.09 6.25 6.25 0 00.07-1l1.91 9.29.1.47h.82l.14-.39 1.11-3.13 1.1 3.13.14.39h.82l.1-.47 1.13-5.7a6.82 6.82 0 001.34 4.41 3 3 0 004.57 0 5.27 5.27 0 001.1-2.33V56l-.41 1.4-.24.72h6.07v-4.19l-.86.58-1.52 1h-.09v-8.22l.31-.59.52.61 2.86 11.08.11.44h.84l.12-.43 2.74-10.29v7.86l-.44 1.44-.22.71h6.89v-.57a4.06 4.06 0 003.79 1.14A3.47 3.47 0 0079.25 56a4.66 4.66 0 00-.62-3.77A10.48 10.48 0 0076.7 50"/><path class="cls-3" d="M26.26 55.37a.94.94 0 01-.32.14v-2.43a.89.89 0 01.31.15 1.29 1.29 0 01.49 1 1.41 1.41 0 01-.48 1.12m.32-2.58a2.07 2.07 0 00-1.19-.34v3.64a1.86 1.86 0 001.23-.31 1.92 1.92 0 00.67-1.5 1.85 1.85 0 00-.71-1.49M26 48.45c.3.07.51.26.53.91a1 1 0 01-.23.78.69.69 0 01-.3.17zm1.09.89c-.06-1.41-.95-1.46-1.45-1.49h-.19v3.08a1.43 1.43 0 001.64-1.58"/><path class="cls-5" d="M53.45 55.4a.9.9 0 01-.66.34c-.83 0-1.39-1.8-1.39-3.75a5.76 5.76 0 01.84-3.41.72.72 0 01.55-.29.74.74 0 01.55.29 5.76 5.76 0 01.83 3.42 6.41 6.41 0 01-.72 3.41m-.71-9.15a2 2 0 00-1.5.79 8.65 8.65 0 00-1.57 5.41 6.39 6.39 0 001.21 4.26 2.42 2.42 0 003.73 0 6.44 6.44 0 001.21-4.26c0-3.42-1.38-6.2-3.08-6.2M50.3 46.31h-2.46l-.67 6.28-1.34-4.32-1.14 4.48-.91-6.44h-2.51l.62.7 2.31 11.24 1.63-4.6 1.62 4.6 2.24-11.24.61-.7zM21.14 47.12l.51-.85h-2.34l-1.08 6.12-1.06-6.12h-2.54l.67.85-1.49 9.68-.59.71-.45-1.4v-8.97l.47-.87h-2.79l.46.87.05 8.99-.47 1.44h2.68v.01h2.54l.64-6.39 1.82 7.06 1.91-7.16.65 6.49h2.54l-.65-.78-1.48-9.68zM26.62 55.78a1.86 1.86 0 01-1.23.31v-3.64a2.07 2.07 0 011.19.34 1.85 1.85 0 01.71 1.49 1.92 1.92 0 01-.67 1.5m-1.19-7.88v-.06h.19c.5 0 1.39.08 1.45 1.49a1.43 1.43 0 01-1.64 1.58zm1.92 3.85h-.1l.09-.05a3.09 3.09 0 001.33-2.84 3 3 0 00-3.07-2.6h-2.82l.66 1.34.26 10c1.08 0 3.15.32 4.3-.88a3.65 3.65 0 00.83-3.06 3 3 0 00-1.48-1.89M68.97 56.11l.04-4.11 1.79.63.82-1.75h-2.61v-.05l-.04-3.08v-.08l.07.02 1.86.01.9.79.31-2.22H64.42l-1.08 6.44-1.06-6.44h-2.54l.65.78 2.89 11.2 2.99-11.2.35-.55.49 1.16.04 8.39-.46 1.52h5.58v-2.6l-1.65 1.12-1.65.02zM31.56 56.11l.05-4.11 1.79.63.81-1.75h-2.6l-.01-.05-.04-3.08v-.08l.08.02 1.85.01.91.79.31-2.22h-5.59l.58 1.39.05 8.39-.47 1.52h5.59v-2.6l-1.65 1.12-1.66.02zM58.5 47.16l.47-.89h-3.01l.68.86.01.76v.02l.04 8.22-.47 1.44h4.76v-2.6l-1.65 1.12-.83.02v-8.95zM38 51v-.07l.08-3h.05a1.28 1.28 0 011.14.23 1.37 1.37 0 01.44 1c0 .56-.25 1.89-1.65 1.91m2.33-4.17a2.9 2.9 0 00-1.88-.55h-3.12l.69 1.45.06 8.81-.46 1h2.75l-.43-.97-.08-3.78.29-.06 1.89 3.84-.36.94h2.81L39.87 52a3.21 3.21 0 001.26-2 3.34 3.34 0 00-.77-3.17M75 48.77a2.6 2.6 0 01-.13-1.72 1 1 0 011.07-.74 1.29 1.29 0 01.9.46l.47 1.56 1.22-2.46a3.59 3.59 0 00-3.37-1.11A3 3 0 0073 47.25a3.85 3.85 0 00.47 2.38c.81 1.43 2.82 3.09 3.29 4a2.34 2.34 0 01.19 2.23 1.52 1.52 0 01-1.22.72 1.54 1.54 0 01-.9-.46l-.48-1.56-1.21 2.46a3.59 3.59 0 003.37 1.11 2.88 2.88 0 002.22-2.35 4.09 4.09 0 00-.55-3.34c-1-1.69-2.62-2.52-3.21-3.7M3.71 47.28l1.32-1.08.78-.02.04 10.34-.55 1.73h2.91l-.57-1.74.1-10.33.65.02 1.31 1.08.34-2.55H3.37l.34 2.55z"/><path class="cls-7" d="M19 31.69l.9 1.66a2.39 2.39 0 01-.67.26 4 4 0 01-.4.07l3 5.09H23l-.52-2.46h1.25l-1.63-4.65.94-.12-1.87-5.64-2.66 4.89.49.89zM11.49 42.45l1.24-3.63h4.14l-1.98-6.1 1.24-.16-2.39-7.45-3.99 7.33 1.2.27-3.56 6.1h1.38l-2.04 3.64h4.76zM26.51 37.1l.9 1.7h1.52l-.72-3.35h1l-1.31-3.81.77-.11-1.49-4.65-2.1 3.85.8 1.47a2 2 0 01-.51.19l-.31.06 2.58 4.33a4 4 0 01-1.09.31M58.97 31.55l-.88 1.48-1.79 3.02 1.12.17-.74 1.41-.62 1.17h4.43l.24-2.45 1.19-.08-.73-4.7.97-.12-1.14-5.55-3.01 5.53.96.12zM55.01 26.88l-2.47 4.54.79.1-.72 1.21-1.48 2.48.93.15-.61 1.15-1.22 2.29h3.88l.36-3.55.97-.07-.48-3.73.79-.11-.74-4.46zM70.14 43.9h1.65a3.71 3.71 0 011.45-1.35l-1.82-3.85 1.22-.24c-.59-1.09-2-4.38-2.67-5.73l1.17-.15-2.69-7.45-4 7.26 1.25.16-3.37 6.25h5.85z"/></g></g></svg>