<svg xmlns="http://www.w3.org/2000/svg" viewBox="0 0 360.46 269.05"><defs><style>.cls-1{fill:#8c734b}.cls-2{fill:#0e153e}.cls-3{fill:#d91f33}.cls-4{fill:#fff}</style></defs><g id="Layer_2" data-name="Layer 2"><g id="Layer_1-2" data-name="Layer 1"><path class="cls-1" d="M358.7 102.87l1.09.45V83a28.14 28.14 0 00-1.65-9.47 32.19 32.19 0 00-4.74-8.77A35.59 35.59 0 00340.15 54c-1.59-1-4.69-2.52-13-5.84-7.09-2.81-18.64-7.08-33.42-11.48a423.08 423.08 0 00-50.35-11.75c-.13-.17-13.12-16.4-32.69-8-.67.29-1.32.6-2 .93-2.92 1.42-5.46 2.66-10.42 1.33-2.93-.78-6.64-2.58-5.11-9.11a7.38 7.38 0 013.27-4.45 4.93 4.93 0 014-.47c2.62.76 3.72 2.18 3.34 4.33a2.71 2.71 0 01-1.51 1.94 2.77 2.77 0 01-2.69-.54 2.06 2.06 0 00-2.32 3.4 6.56 6.56 0 0010.58-4.08c.29-1.6.67-7-6.25-9a9.07 9.07 0 00-7.24.87 11.65 11.65 0 00-5.21 7.07c0 .08 0 .16-.05.23A21 21 0 00187 6.87L180.23 0l-6.77 6.87a22.86 22.86 0 00-2.08 2.48 2.23 2.23 0 000-.23 11.62 11.62 0 00-5.22-7.07 9 9 0 00-7.23-.87c-6.92 2-6.54 7.41-6.25 9a6.56 6.56 0 0010.58 4.08 2.06 2.06 0 00-2.32-3.4 2.8 2.8 0 01-2.69.54 2.71 2.71 0 01-1.51-1.94c-.38-2.15.71-3.57 3.34-4.33a4.93 4.93 0 014 .47 7.42 7.42 0 013.27 4.45c1.53 6.53-2.18 8.33-5.11 9.11-5 1.33-7.5.09-10.42-1.33-.66-.33-1.3-.64-2-.93-19.57-8.37-32.56 7.85-32.69 8a.67.67 0 00-.07.11A431.46 431.46 0 0068.52 36.3a383.41 383.41 0 00-46.39 17l-2.67 1.22V55a13.55 13.55 0 00-3.56 1.12c-4.32 2-8.61 4.09-12.76 6.21L0 63.93V75a12.92 12.92 0 001.59 6.67c.21.37.45.72.69 1.06V95a17.88 17.88 0 00-2.14 8.2 11.47 11.47 0 002.14 6.93v25.54l.27.74a28.44 28.44 0 0016.38 15.85l-.35.17s6.4 10.36 16.33 12.51l-1.9.79S40 177 53.59 179.4l-2 1A40.21 40.21 0 0074 191.55a111.61 111.61 0 00212.54 0 40.21 40.21 0 0022.36-11.17l-2-1c13.59-2.39 20.58-13.69 20.58-13.69l-1.89-.79c9.93-2.15 16.32-12.51 16.32-12.51l.64-.85c11.33-4.82 17.95-15.88 17.95-26.31v-13a29 29 0 00-1.76-9.34M236.29 23.82c-8-1.19-16.3-2.15-24.77-2.78l.74-.34a22.82 22.82 0 0124 3.12M148.2 20.7c.26.11.51.24.77.36-8.5.65-16.82 1.65-24.85 2.86 4.58-3.57 13.1-7.92 24.08-3.22"/><path class="cls-2" d="M349.28 94.18l6 2.41V83a23.78 23.78 0 00-1.39-8 27.54 27.54 0 00-4.08-7.53 31.15 31.15 0 00-5.57-5.67 30.35 30.35 0 00-6.3-3.82c-1.18-.85-4.28-2.33-12.49-5.59-7-2.77-18.42-7-33-11.35-24.08-7.18-60.33-15.67-98.1-16.21a8.06 8.06 0 00-5.89-5.24c-.34-4.94-3.89-8.79-4.64-9.54l-3.52-3.58-3.53 3.58c-.74.75-4.3 4.6-4.63 9.54a8 8 0 00-5.88 5.22c-37.18.65-72.72 8.9-96.39 15.84A383.43 383.43 0 0024 57.44v2.77s-.34-.22-.53-.31a5.06 5.06 0 00-2.28-.52 8.08 8.08 0 00-3.4.84c-4.22 2-8.47 4-12.61 6.13l-.68.35V75a8.53 8.53 0 001 4.4A5.79 5.79 0 006.83 81v15.16a13.92 13.92 0 00-2.15 7 6.33 6.33 0 002.15 5.14v26.54a23.92 23.92 0 0016.62 14c.29.08.6.14.91.2h.07a22.69 22.69 0 006.55.48q-3.36 1.65-6.69 3.36c0 .13 6.66 11 22.66 9.45-2.66 1.26-5.32 2.54-8 3.87 0 .15 7.68 10.86 24.54 10.58-3.89 2-6.23 3.2-6.22 3.2a34.1 34.1 0 0020.37 8.3 107.08 107.08 0 00205.08 0 34.1 34.1 0 0020.37-8.3s-2.33-1.25-6.22-3.2c16.86.28 24.51-10.43 24.54-10.58-2.64-1.33-5.3-2.61-8-3.87 16 1.57 22.62-9.32 22.66-9.45-2.22-1.14-4.46-2.26-6.7-3.36a22.28 22.28 0 0013.3-3.14c8.52-4.61 13.16-13.49 13.16-21.14v-13c0-8.37-6.64-18-6.64-18"/><path class="cls-3" d="M251.48 197.4c2 1.53 4 3.06 6 4.61 0-.21-23.8 6.52-40.76-.95-.62-.27-1.21-.58-1.81-.89a36 36 0 01-69.39 0c-.59.3-1.19.61-1.8.88-17 7.47-40.8.74-40.76.95 2-1.55 4-3.08 6-4.61a48.68 48.68 0 01-21.19-1.94 100 100 0 00184.88 0 48.7 48.7 0 01-21.19 1.94"/><path class="cls-4" d="M170.29 35.17a8.21 8.21 0 01-3.95-4.37C106.39 32.36 46.68 53.86 46.79 54.65c-2.6 1-4 3.24-4 4.73v2.13A377.66 377.66 0 01170.3 36zM317.41 56.16c.13-.85-62.61-23.82-123.3-25.35a8.13 8.13 0 01-3.93 4.35V36a386.41 386.41 0 01131.23 27v-2.09c0-1.49-1.41-3.76-4-4.75"/><path class="cls-3" d="M186.8 24.33c-3.88-.47-4.52 5.05-4.63 6.92h-1.24c0-5.27 2.54-7.39 2.54-10.92s-3.24-6.81-3.24-6.81S177 16.8 177 20.33s2.51 5.65 2.53 10.92h-1.24c-.1-1.87-.74-7.39-4.63-6.92-4.19.5-3.74 6.31 0 6.77 0 0-.7-2.58 1.37-2.58 1.51 0 1.92 1.76 2 2.73h-1.83v2h4a4 4 0 01-1.86 2.53 2.45 2.45 0 001.76 1.26 3.7 3.7 0 001.07 2.42 3.72 3.72 0 001.06-2.42 2.46 2.46 0 001.77-1.26 3.94 3.94 0 01-1.86-2.53h4v-2h-1.82c.11-1 .52-2.73 2-2.73 2.07 0 1.36 2.58 1.36 2.58 3.74-.46 4.2-6.27 0-6.77"/><path class="cls-4" d="M167.62 64.65V51.71a10.47 10.47 0 00-1-4.7 8.63 8.63 0 00-2.71-3.23 10.8 10.8 0 00-4-1.76 18 18 0 00-5-.34 18.87 18.87 0 00-5 1 13.13 13.13 0 00-4.08 2.3 10.45 10.45 0 00-2.83 3.6 11.43 11.43 0 00-1 4.82v13a3.18 3.18 0 00-2.42 3 2.46 2.46 0 002.42 2.44v14.52a10.1 10.1 0 001 4.64 8.35 8.35 0 002.74 3.12 10.75 10.75 0 004.08 1.64 19.69 19.69 0 005 .28 21 21 0 005-.94 12 12 0 004-2.19 10 10 0 002.71-3.48 10.78 10.78 0 001-4.75V70.16a2.91 2.91 0 002.55-2.83 2.69 2.69 0 00-2.55-2.68m-7.16 20a5.26 5.26 0 01-.51 2.4 5.36 5.36 0 01-1.32 1.64 6.15 6.15 0 01-1.79 1 7.64 7.64 0 01-4.06.27 4.92 4.92 0 01-1.82-.76 4 4 0 01-1.31-1.46 4.76 4.76 0 01-.51-2.33V53a5.25 5.25 0 01.51-2.42A5.18 5.18 0 01151 49a6 6 0 011.82-1 7.41 7.41 0 012.05-.42 6.78 6.78 0 012 .15 5.06 5.06 0 011.79.79 4.35 4.35 0 011.34 1.42 5 5 0 01.51 2.35zM30.3 99.54c0 .14 0 .17-.1.11a.68.68 0 01-.17-.21c-.2-.57-8.72-28.86-9.16-30.14a20.22 20.22 0 01-.68-2.1 1.29 1.29 0 00-.61-.82 1.48 1.48 0 00-1.23.17q-3.83 1.78-7.64 3.65v2.35a3.64 3.64 0 00.34 1.79 1.7 1.7 0 00.81.77 1.89 1.89 0 001.14.22v21.6a5 5 0 00-2.15 3.78 1.57 1.57 0 002.15 1.68v30.46c2-1 4-1.9 6-2.82v-38.2c0-.28 0-.42.06-.39a.46.46 0 01.14.16s.22.71.68 2 8.77 29.05 8.88 29.28a7.72 7.72 0 00.71 1.67c.26.42.68.5 1.27.25l4-1.67a2.37 2.37 0 001.26-1.08 2.85 2.85 0 00.41-1.44V92a4.49 4.49 0 002-3.44 1.71 1.71 0 00-2-1.88V65.49a3.47 3.47 0 01.24-1 8.24 8.24 0 01.45-.75 10.11 10.11 0 001.11-1.64 4.5 4.5 0 00.55-2.21v-2.08q-4.22 1.69-8.41 3.51zM313.14 100.05c0 .14 0 .15-.11 0a2.23 2.23 0 01-.17-.35c-.19-.68-.56-2-1.12-4.1s-1.2-4.43-1.92-7.12-1.49-5.48-2.3-8.48-1.58-5.68-2.27-8.18-1.3-4.57-1.76-6.24-.71-2.56-.71-2.65a3.52 3.52 0 00-.63-1.32 2.65 2.65 0 00-1.26-.81c-2.65-.87-5.3-1.72-8-2.53v2.34a5.71 5.71 0 002.4 4.65v16.8a1.93 1.93 0 00-2.26 2 4.11 4.11 0 002.26 3.44v24.66c2.07.65 4.13 1.31 6.19 2V80.35c0-.28 0-.39.07-.33a.89.89 0 01.14.26s.24.89.7 2.54l1.8 6.18 2.28 8 2.3 8.16c.73 2.55 1.34 4.74 1.86 6.55s.81 2.87.9 3.14a18.33 18.33 0 00.73 2.26 2.21 2.21 0 001.29 1.25l4 1.51a1.09 1.09 0 001.24-.08 1.48 1.48 0 00.42-1.12V95.86a1.72 1.72 0 002-1.89 4.49 4.49 0 00-2-3.44V74.16a1.62 1.62 0 01.25-.83 2 2 0 01.45-.4 3.12 3.12 0 001.1-.76 2.47 2.47 0 00.56-1.78v-2q-4.23-1.64-8.47-3.17zM348.47 105.4a34.38 34.38 0 00-3.17-5.5c-1.05-1.49-2.22-2.92-3.45-4.34a2.16 2.16 0 00.1-.65 4.84 4.84 0 00-2.67-4 2.1 2.1 0 00-1.68-.12c-.22-.24-.45-.51-.67-.74a47.73 47.73 0 01-3.2-4 5.82 5.82 0 01-1.31-3.26V71.5a1.45 1.45 0 01.48-1.18 2.44 2.44 0 011.24-.49 5.22 5.22 0 011.57 0 6.44 6.44 0 011.56.49 9.66 9.66 0 011.54.87 10.14 10.14 0 011.57 1.27 7.39 7.39 0 011.18 1.58 3.52 3.52 0 01.44 1.76v2.64a5.89 5.89 0 001.16 3.37 7 7 0 002.84 2.48l3 1.47V80.5a14.77 14.77 0 00-.87-5.14 16.66 16.66 0 00-2.46-4.52 21 21 0 00-3.67-3.75 22.42 22.42 0 00-4.67-2.8 18.4 18.4 0 00-4.64-1.45 7 7 0 00-3.71.35 4.91 4.91 0 00-2.48 2.31 9.45 9.45 0 00-.9 4.5v9.28a12.68 12.68 0 001.28 5.61 26.21 26.21 0 003.2 5c1.25 1.55 2.6 3.06 4.05 4.56a2 2 0 00-.24 1 4.77 4.77 0 002.68 4 1.92 1.92 0 002-.09 26.08 26.08 0 012.92 4.16 9.41 9.41 0 011.26 4.6v13.32a2 2 0 01-.51 1.43 2.56 2.56 0 01-1.32.67 6.17 6.17 0 01-1.78 0 6.31 6.31 0 01-1.84-.51 11.15 11.15 0 01-1.84-1.1 12.34 12.34 0 01-1.74-1.55 8.35 8.35 0 01-1.3-1.78 3.68 3.68 0 01-.52-1.85v-3a4.92 4.92 0 00-.92-2.92 6.51 6.51 0 00-2.78-2.06l-3.31-1.36v5.33a13.32 13.32 0 001 5.13 17.24 17.24 0 002.68 4.45 21.47 21.47 0 003.95 3.63 28 28 0 004.78 2.74 20.26 20.26 0 004.76 1.53 8.44 8.44 0 003.94-.1 4.86 4.86 0 002.7-2 7.67 7.67 0 001-4.23v-12.82a13.57 13.57 0 00-1.28-5.67M108.48 74.72c-.29 2.52-.57 5-.87 7.41s-.55 4.59-.79 6.48-.43 3.42-.58 4.58A8.13 8.13 0 01106 95q-.86-5-1.55-9t-1.5-8.89c-.56-3.27-1.12-6.5-1.7-9.66s-1.12-6.11-1.61-8.83-1-4.84-1.34-6.42c-.09-.49-.54-.83-1.32-1a5.76 5.76 0 00-2.41 0 8.49 8.49 0 00-2.26.91 2.58 2.58 0 00-1.39 1.65q-.59 2.47-1.33 6.89c-.5 2.94-1 6.12-1.61 9.56s-1.13 6.91-1.67 10.46-1.05 6.77-1.5 9.65-1 6.16-1.54 9.81a8 8 0 01-.32-1.62c-.17-1.1-.35-2.53-.57-4.33s-.46-3.83-.75-6.12-.57-4.63-.85-7c-.67-5.61-3-25.77-3-25.77-2.89.81-5.79 1.64-8.66 2.52V60a3 3 0 00.49 1.84 2.24 2.24 0 001.06.81 3.33 3.33 0 01.64.45 1.88 1.88 0 01.43.81c.68 5.71 1.31 11 1.89 15.84a3.92 3.92 0 00-1.72 3.07 2 2 0 002.34 2.06v.3q.49 4.05 1 7.89c.3 2.57.59 4.87.85 6.9s.47 3.7.63 5 .26 2 .26 2.06a1.69 1.69 0 00.46 1 1 1 0 001.1.23c2.68-.74 5.37-1.44 8.06-2.12a2.13 2.13 0 001.21-.73 5.6 5.6 0 00.79-1.54q3-18 6.08-36 3 16.62 6 33.29a2.88 2.88 0 00.79 1.18 1.45 1.45 0 001.22.17q4-.83 8.08-1.57a1.62 1.62 0 001.11-.74 2.76 2.76 0 00.47-1.18c0-.1.09-.83.26-2.19s.38-3.1.65-5.26.55-4.58.87-7.29.64-5.48 1-8.34v-.31a3.47 3.47 0 002.37-3.14 2.27 2.27 0 00-1.74-2.28q.89-7.68 1.94-16.72a2.94 2.94 0 01.43-1 5.65 5.65 0 01.65-.74 4.6 4.6 0 001.09-1.31 4.1 4.1 0 00.51-2.07V46.1c-3 .46-5.89 1-8.82 1.51 0 0-2.37 21.21-3 27.11M286.51 82.17a4 4 0 00-2.33-3.4c-.34-2-.67-3.94-1-5.85q-.69-4-1.21-7.26c-.36-2.16-.66-3.93-.89-5.33s-.36-2.18-.36-2.37a5.11 5.11 0 00-3.72-4.19c-3.19-.83-6.38-1.61-9.59-2.36v1.64c0 2 .6 3.42 1.8 4.18a.77.77 0 01.36.68 7.59 7.59 0 01-.08 1s-.11.61-.32 1.7-.51 2.51-.86 4.27-.75 3.76-1.18 6c-.21 1.08-.43 2.18-.64 3.29a2.16 2.16 0 00-2.77 2.15 3.66 3.66 0 001.74 3c-1.36 6.9-4.62 23.75-4.62 23.75q3.42.73 6.84 1.53s2-11.51 2-11.73c.09-.93.52-1.29 1.29-1.11q4.08 1 8.13 2.07a2.35 2.35 0 011.07.57 2.22 2.22 0 01.57 1.29c0 .23 1.59 12.64 1.59 12.64q3.58 1 7.16 2.1s-2.94-17.55-4.4-26.25a2 2 0 001.43-2m-7.2 5.45a.76.76 0 01-.78.15c-2.24-.59-4.47-1.16-6.72-1.71a1.16 1.16 0 01-.71-.49 1.17 1.17 0 01-.22-.87s.06-.43.18-1.16.27-1.66.46-2.8.41-2.42.65-3.86.5-2.89.79-4.38q1.07-5.93 2.14-11.83h.14q1.08 6.45 2.14 12.92c.29 1.63.55 3.23.79 4.78s.45 3 .64 4.18.36 2.25.5 3 .21 1.21.21 1.26a.76.76 0 01-.21.72M199.57 89.56c-.24-.16-.45-.3-.62-.43s-.26-.42-.26-.9V76.09a13.62 13.62 0 00-.8-4.8 7.4 7.4 0 00-2.49-3.44c-.53-.54-.58-1-.14-1.43a8.58 8.58 0 002.49-3 8.88 8.88 0 00.94-4.11v-5.6a17.08 17.08 0 00-.65-4.82 10.15 10.15 0 00-2.04-3.82 10 10 0 00-3.62-2.58 13.94 13.94 0 00-5.33-1q-7.55-.13-15.06 0v2.06a3.83 3.83 0 00.54 2.26 3.69 3.69 0 001.13 1.11 1.31 1.31 0 01.51.46 1.5 1.5 0 01.22.89v16.25a2.87 2.87 0 00-2.26 2.77 2.74 2.74 0 002.21 2.71v24.57h7.17v-23.4c0-.66.32-1 1-1l4.54.06a4.09 4.09 0 013.4 1.46 6.41 6.41 0 011.06 3.9v15.63a3.57 3.57 0 00.92 2.55 3.83 3.83 0 002.8 1.06q3 .12 6.07.28v-2.77a2.61 2.61 0 00-.54-1.84 7.36 7.36 0 00-1.14-.94m-8.11-30.51a6.68 6.68 0 01-1.06 4 3.83 3.83 0 01-3.4 1.41h-4.61a1 1 0 01-.59-.22.65.65 0 01-.29-.56V48.37q0-1 1.17-1l4.32.06A4 4 0 01190.4 49a6.74 6.74 0 011.06 4zM222.4 76c-.73.26-1.1.92-1.1 2 0 .29.07 12.31-.1 12.55a.75.75 0 01-.76.31q-3.21-.33-6.42-.62a.85.85 0 01-.73-.49 2.31 2.31 0 01-.22-1q0-19.53-.07-39.07a2.06 2.06 0 01.19-1.05 1.36 1.36 0 01.54-.45 5.13 5.13 0 001.17-1.1 3 3 0 00.58-1.94V43q-6.09-.57-12.19-.92v2.12a3.41 3.41 0 00.59 2 6.45 6.45 0 001.17 1.28 2.31 2.31 0 01.58.53 1.93 1.93 0 01.22 1.09v16.23a2.57 2.57 0 00-2.3 2.57 3 3 0 002.3 2.88v24.61q9.65.63 19.25 1.77l1.46.17a1.55 1.55 0 001.15-.35 1.48 1.48 0 00.59-1.28V76.22l-3.06-.37a7 7 0 00-2.84.17M64 59.44a1.55 1.55 0 00-.35.07h-.13q-11.17 3.56-22.16 7.81v2.06a4.27 4.27 0 00.37 2.06 1.44 1.44 0 001.08.72 1.37 1.37 0 01.63.33 1.17 1.17 0 01.27.89v16.13a4.47 4.47 0 00-2.19 3.57A1.76 1.76 0 0043.7 95v24.61l1.81-.68q4.76-1.79 9.55-3.43c1.36-.47 2.72-.93 4.09-1.38l3.09-1 1.27-.41h.13a2.05 2.05 0 00.51-.26 2.73 2.73 0 00.66-.61 2.22 2.22 0 00.53-1.45V95.28l-3 .94a8.88 8.88 0 00-2.75 1.4 3 3 0 00-1.06 2.48c0 .28.07 7.76-.1 8.07a1.25 1.25 0 01-.73.64l-2.68.91-3.65 1.28c-.56.2-.84 0-.84-.7V93.77a1.37 1.37 0 011-1.37c2.79-1 5.6-2 8.41-2.88a1.34 1.34 0 001-1.34v-4c0-.39-.13-.61-.39-.7a1.24 1.24 0 00-.74 0q-4.17 1.38-8.33 2.85c-.7.25-1 0-1-.62V70.9a1.51 1.51 0 01.31-.86 1.49 1.49 0 01.67-.56c2.22-.79 4.46-1.56 6.7-2.31a.54.54 0 01.26.16c.17.21.1 7.73.1 8 0 1.09.35 1.68 1.06 1.78a6.83 6.83 0 002.75-.4l3-.94V60.53a1.05 1.05 0 00-.49-.91 1.27 1.27 0 00-.86-.18M254.74 48.75a1.48 1.48 0 00-.35-.13h-.13q-11.43-2.25-22.94-3.79v2.07a5.1 5.1 0 00.4 2.25 3 3 0 001.12 1.29 3.13 3.13 0 01.65.66 1.73 1.73 0 01.3 1v16.1a2.35 2.35 0 00-2.3 2.4 3.35 3.35 0 002.3 3v24.6l1.88.28a371 371 0 019.91 1.57c1.4.24 2.8.5 4.2.75l3.18.6 1.3.25h.14a1.46 1.46 0 00.51 0 1.38 1.38 0 00.68-.26 1.35 1.35 0 00.54-1.17v-15l-3-.59a6.57 6.57 0 00-2.82 0c-.72.2-1.08.84-1.08 1.93 0 .29.06 7.79-.1 8a.71.71 0 01-.76.25l-2.76-.49-3.82-.64a1 1 0 01-.87-1.13v-16.5c0-.66.36-.94 1.09-.82 2.89.47 5.79 1 8.67 1.51.72.13 1.08-.12 1.08-.79V72a1.12 1.12 0 00-.39-.9 1.9 1.9 0 00-.76-.39c-2.87-.53-5.73-1-8.6-1.5a1.1 1.1 0 01-1.13-1.21V53.18a.83.83 0 01.33-.69.78.78 0 01.68-.21c2.31.38 4.62.77 6.93 1.19a1.26 1.26 0 01.27.29c.16.3.1 7.78.1 8.06a2.54 2.54 0 001.08 2.33 8.37 8.37 0 002.82 1c1 .19 2 .38 3 .59V50.53a1.83 1.83 0 00-.5-1.17 2.29 2.29 0 00-.88-.61M122 210.56l5.07 4.88c.87.84 2 1.95 1.72 3.51a3.93 3.93 0 01-1.1 2 3.51 3.51 0 01-2.18 1.15c-1.46.17-2.49-.74-3.55-1.76l-2.87-2.76-3 3.09-2-1.94zm-1.52 5.63l2.53 2.43c.66.64 1.58 1.5 2.63.41a1.62 1.62 0 00.53-1.24c0-.51-.35-.8-1.21-1.63l-2.31-2.23zM135.46 222.39l9.09 5.44-1.05 1.76-6.65-3.98-1.32 2.19 6.43 3.85-1.04 1.73-6.43-3.85-1.4 2.33 6.93 4.15-1.04 1.74-9.38-5.61 5.86-9.75zM151.33 230.79l2.7.91-2.94 8.79 5.99 2-.67 1.99-8.69-2.91 3.61-10.78z"/><path class="cls-4" transform="rotate(-81.34 167.507 240.871)" d="M161.82 239.44h11.37v2.86h-11.37z"/><path class="cls-4" d="M191.05 243.28a4.76 4.76 0 01-1.38 2.52 7.36 7.36 0 01-5.26 2c-4 .17-6.93-1.82-7.1-5.79-.18-4.28 3.16-6.17 6.75-6.32 1.31 0 5.06.08 6.68 3.27l-3.11.52a3.74 3.74 0 00-3.48-1.7 3.81 3.81 0 00-3.87 4.13 3.92 3.92 0 004.27 3.79 3.6 3.6 0 003.5-2.29zM201.17 233.35l3-.87 8.5 9.35-3.06.9L208 241l-5.6 1.65-.32 2.33-3 .88zm2.72 2.84a3.68 3.68 0 01-.31-.38 1.71 1.71 0 01-.22-.4 2.91 2.91 0 000 .42c0 .15 0 .31-.05.46l-.58 4.12 3.83-1.13zM215.15 228.29l2.43-1.45 8 2.57c1 .33 1.19.41 2.25.8a22.29 22.29 0 01-1.31-2l-3-5 2.34-1.4 5.84 9.76-2.42 1.45-8.14-2.61c-.87-.29-1.22-.41-2.18-.78a17.39 17.39 0 011.08 1.61l3.21 5.38-2.25 1.44zM238.57 221.43c1.42.53 2.88-.3 4-1.37.5-.49 2-2.08 1-3.08-.57-.59-1.27-.18-1.79.17s-2.33 1.63-2.78 1.92c-.89.59-3.14 2.07-4.93.23a3 3 0 01-.8-1.48c-.39-1.76.84-3.51 2.14-4.76a8.06 8.06 0 013.57-2.22 4.68 4.68 0 012.63 0l-1.47 2.36a2.12 2.12 0 00-1.37 0 5.69 5.69 0 00-1.95 1.28c-.9.87-1.66 1.94-.91 2.72.52.53 1.13.21 1.88-.25.4-.25 2.34-1.59 2.8-1.88 1.12-.74 3.07-2 4.8-.16 2.55 2.63-.49 5.75-1.52 6.75-1.34 1.3-3.64 3.07-6.7 2zM167.09 166.91s-40.78-13.64-23.06-57c0 0-43.13 1.78-102.23 25.61 0 0-4.15 1.73-6.57 2.59s-6.31 2.41-11.88-.26c0 0 54.06-28.24 123.52-34.79 9.17-.86 10.37.52 7.95 4-2 2.83-26.78 34.36 12.27 59.91"/><path class="cls-1" d="M130.86 122.17c-35 4.54-69.13 16.7-69.13 16.7 5.82 10.34 21.6 6 21.6 6 29.62-8.37 42.83-11.21 47.07-12a59.72 59.72 0 01.46-10.67M131.12 139.17a368.24 368.24 0 00-55 15.38s7.78 8.85 23.22 4.48c13-3.68 29.63-9 34.6-10.58a41.11 41.11 0 01-2.83-9.28M136.54 153.35c-5.27 1.7-31.64 10.23-42.77 14.5 0 0 6.38 8.56 24.82 1.31 12.84-5 19.92-8 23-9.33a40.12 40.12 0 01-5.09-6.48M145.7 163.55c-4.61 2-21.72 9.47-31.62 14.23 0 0 12.46 6.11 28.13-3.56l9.74-6.38a50.72 50.72 0 01-6.25-4.29M156.69 170.32c-3.13 2-16.12 10.11-22.46 14.79 0 0 10.76 4.44 21.8-5.94 3.59-3.37 5.55-5.29 6.63-6.38-1.9-.69-3.91-1.5-6-2.47"/><path class="cls-4" d="M193.36 166.91s40.79-13.64 23.07-57c0 0 43.12 1.78 102.23 25.61 0 0 4.15 1.73 6.57 2.59s6.3 2.41 11.88-.26c0 0-54.07-28.24-123.53-34.79-9.16-.86-10.37.52-8 4 2 2.83 26.79 34.36-12.27 59.91"/><path class="cls-1" d="M229.6 122.17c35 4.54 69.13 16.7 69.13 16.7-5.82 10.34-21.61 6-21.61 6-29.61-8.37-42.82-11.21-47.06-12a61.65 61.65 0 00-.46-10.67M229.34 139.17a368.91 368.91 0 0155 15.38s-7.78 8.85-23.22 4.48c-13-3.68-29.63-9-34.6-10.58a41.11 41.11 0 002.83-9.28M223.92 153.35c5.27 1.7 31.64 10.23 42.77 14.5 0 0-6.38 8.56-24.82 1.31-12.85-5-19.92-8-23-9.33a40.12 40.12 0 005.09-6.48M214.76 163.55c4.61 2 21.72 9.47 31.61 14.23 0 0-12.45 6.11-28.12-3.56l-9.74-6.38a50.72 50.72 0 006.25-4.29M203.77 170.32c3.13 2 16.12 10.11 22.45 14.79 0 0-10.76 4.44-21.8-5.94-3.59-3.37-5.54-5.29-6.62-6.38 1.9-.69 3.91-1.5 6-2.47"/><path class="cls-4" d="M213.63 190.6a33.4 33.4 0 11-33.4-33.37 33.38 33.38 0 0133.4 33.37"/><path class="cls-1" d="M206.72 197.51A26.49 26.49 0 11180.23 171a26.48 26.48 0 0126.49 26.47"/><path class="cls-2" d="M180.23 154.64a36 36 0 1036 36 36 36 0 00-36-36m30.25 30.16a31.27 31.27 0 01-16.24 20.2c.64-4.4 2.55-8.74 4.55-13.27 2.89-6.55 6-13.71 4.66-21.31a30.71 30.71 0 017 14.38m-46-20.6a30.57 30.57 0 0113.55-4.28v48.39a31.77 31.77 0 01-7.13-1.35c-.25-6-2.72-11.57-5.12-17-4-9.05-7.44-16.92-1.32-25.74m6.17 47.33a36.2 36.2 0 007.4 1.23v8.53a30.38 30.38 0 01-11.31-3 12.48 12.48 0 003.91-6.71m11.86 1.23a36.2 36.2 0 007.4-1.23 12.49 12.49 0 003.92 6.71 30.49 30.49 0 01-11.32 3zm7.13-5.85a30.94 30.94 0 01-7.13 1.39v-48.45A30.57 30.57 0 01196 164.2c6.12 8.82 2.67 16.69-1.32 25.74-2.39 5.43-4.85 11-5.12 17M157 170.42c-1.38 7.6 1.77 14.76 4.66 21.31 2 4.56 3.94 9 4.56 13.38A30.89 30.89 0 01150 184.78a30.58 30.58 0 017-14.36M149.91 196a35.24 35.24 0 0016.41 14c0 .21 0 .41-.08.61-.34 2.31-2.25 4.17-3.58 5.21A30.78 30.78 0 01149.91 196m47.9 19.88c-1.34-1.05-3.25-2.91-3.59-5.21 0-.2-.05-.4-.07-.61a35.28 35.28 0 0016.39-14 30.79 30.79 0 01-12.73 19.85"/><path class="cls-2" d="M190.93 107.94s-.28 1.13-1 1.13-5-2.07-7.08-3.19c-.89-.48-2.13-1.2-2.57-1.45 0 0-1.85 1-2.73 1.45-2.08 1.12-6.4 3.19-7.09 3.19s-1-1.13-1-1.13-11.34 6.84-11.34 25.74c0 14.07 7.33 20.45 7.33 20.45l1 4h27.42l1-4s7.33-6.38 7.33-20.45c0-18.9-11.34-25.74-11.34-25.74"/><path class="cls-4" d="M196.33 128.91a20.27 20.27 0 00-5-13.44s-.08 1.67-2.87-.19a14.45 14.45 0 00-16.61 0c-2.7 1.83-2.83.18-2.83.18a20.31 20.31 0 00-4.94 13.44c0 4.84 1.19 7.23 1.6 7.92 2.41 6.18 8 10.51 14.48 10.51s11.95-4.25 14.4-10.32c.14-.2 1.72-2.53 1.72-8.11"/><path class="cls-2" d="M186.29 142.1s0-.07-.06-.1a4.06 4.06 0 011-5.06s5.94 1.24 6.07-6.63a4.7 4.7 0 01.69-2.48s-1.52-1.38-4.83 1.1-5.11 9.52-6.91 7.87-1.12-10.81-2-11.15c-.91.34-.26 9.51-2 11.15s-3.59-5.38-6.9-7.87-4.84-1.1-4.84-1.1a4.58 4.58 0 01.69 2.48c.14 7.87 6.08 6.63 6.08 6.63a4.1 4.1 0 011 5.07l-.06.09c-7.08-7.6-11.2-6.57-9.17 2 2 8.36 9.67 44.29 10.89 52.62-.18 7.5-1 10.18-1.27 10.75l-.77 1.54.85 1.72a26.71 26.71 0 012.62 5l2.92 7.42 2.9-7.4a27.35 27.35 0 012.62-5l.89-1.63-.81-1.62c-.22-.56-1.07-3.15-1.26-10.37 1-7.47 8.85-44.5 10.88-53s-2.09-9.55-9.17-2"/><path class="cls-3" d="M175.42 179.55c-2.54-13.37-4.55-23.26-6.17-30.43-1.23-5.48 2.06-3.29 3.84.14zM185 179.55c2.55-13.37 4.55-23.26 6.17-30.43 1.23-5.48-2.06-3.29-3.84.14zM171.4 134.27a.93.93 0 01-.65-1.16.87.87 0 01.32-.47 7 7 0 00-1.19-1.09s-.83 3.87 2.63 3.45a6.8 6.8 0 00-.38-.83.93.93 0 01-.73.1M190.58 131.55a7.09 7.09 0 00-1.2 1.09.88.88 0 01.33.47 1 1 0 01-.66 1.16.9.9 0 01-.72-.1 6.8 6.8 0 00-.38.83c3.46.42 2.63-3.45 2.63-3.45M181.85 184.51c1.1-20.65 2.75-35.28 2.75-37.11a8.56 8.56 0 00-.35-2.4l-1.25 3.92-.36-6.94a12.06 12.06 0 00-2.47-2.3h-.06a10.87 10.87 0 00-2.37 2.3l-.36 6.94-1.17-3.92a8.67 8.67 0 00-.35 2.41c0 1.83 1.65 16.46 2.74 37.11S177.14 209 177.14 209a42.41 42.41 0 013.09 6 41.27 41.27 0 013.09-6s-2.56-3.84-1.47-24.49"/></g></g></svg>