<svg xmlns="http://www.w3.org/2000/svg" viewBox="0 0 93.16 93.16"><defs><style>.cls-2,.cls-4,.cls-5{fill-rule:evenodd}.cls-2{fill:#005fa6}.cls-4{fill:#231f20}.cls-5{fill:#e76e32}</style></defs><g id="Layer_2" data-name="Layer 2"><g id="Layer_1-2" data-name="Layer 1"><path fill-rule="evenodd" fill="#fff" d="M0 0h93.16v93.16H0V0z"/><path class="cls-2" d="M88.29 24.38l-86.92.12 45.08 58.29 45.33-58.41zM84.8 27.8L46.46 77.21 8.32 27.91l76.48-.11z"/><path fill="#cbccd1" fill-rule="evenodd" d="M4.85 26.2l83.44-.11L46.46 80 4.85 26.2z"/><path class="cls-2" d="M16.18 53.76H15l-9-9 11.85-25 5.48-2.18 1 .78.78-1.83 1.05-.14 2.89 1.83.63 1.33 3.8-1.05 1 2.46.21.14.31-2.78 4.29-.71.92 1.62.35-1.55 4.29-.35.7 2.89.42-.64 2-2.25 4.43.28.7.29.35-.22 4.5.57.35 2.11.78-1.83 4.29.7 1-1.47 1.41-1.06h1l8.09 2.81 3.52 7.32-1 2 3 1.9 6 14.14-9 9.3s-4.89-4-15.09-6.63c0 0-17.46-4.1-30.79-.57a69.07 69.07 0 00-11.25 3.87l-1.48-.42-.42 1.62-2.25 1.69z"/><path class="cls-4" d="M22.93 29.99l2.81-2.67.94 1.05-.8 3.31-.84 2.22-2.11-3.91zM16.04 36.11l2.6-2.11-1.34 4.15-1.26-2.04zM9.43 47.15l2.95-2.04 5.42 6.61-2.25 1.75-6.12-6.32zM43.63 37c-1.51.08-3.1.23-4.77.43l1.2 7.82c1.28-.11 2.53-.18 3.71-.23l-.14-8zM55.07 37.37c-1.91-.23-4-.4-6.19-.45L48.13 45c1.88 0 3.88.19 5.91.42l1-8.08zM29.09 39.19c-2 .45-3.71.92-5.22 1.37l3.39 7.07.31-.1a40 40 0 014.26-1.11l-2.74-7.23zM61.17 38.37h-.06c-1.51-.3-3.09-.59-4.77-.82l-1.4 8c1.29.16 2.58.35 3.84.58l2.39-7.76zM36.59 37.76c-.9.13-1.82.28-2.76.46q-1.14.2-2.19.42L34.19 46c1.4-.22 2.81-.41 4.21-.56l-1.81-7.66zM71.47 41.44l-4.21 7a41.34 41.34 0 0110.16 5.2l6-6.39a58.84 58.84 0 00-12-5.78zM68.92 40.53c-1.81-.61-3.58-1.15-5.23-1.58l-2.81 7.59c1 .22 1.92.45 2.82.71q.92.26 1.77.54l3.45-7.26zM47.84 37.08l-1.64-1.75-.65 9.67h1.75l.54-7.93zM21.78 41.22a36.13 36.13 0 00-5.88 2.41l4.78 6.54a29.21 29.21 0 015.1-2.05l-4-6.9zM50.84 22.18h2.89l-1.06 9.85h-1.55l-.28-9.85zM60.76 31.68l.42-.28.77.7-.56 2.88-.63-3.3zM67.51 28.16L75.94 34l-.84 1.83-.35-1.55-5.91-2.25-1.19 1.19-.49-2.88-.43-.42.78-1.76zM72.99 25.07l4.99 1.47-.91 1.97-4.29-2.6.21-.84z"/><path class="cls-2" d="M31.45 18.05l-1.14.23 1.84-6s.34-.13 1-.33v.66l.44.24.43-1.13 1-.23-1.43 6.2-1.12.2.74-2.9-.68-.63-1.09 3.72zM38.61 10.85c-.82.11-1.57.23-2.24.35l-1.31 6.22c.78-.12 1.63-.25 2.52-.37l.26-1.45-1.34.1.28-1.31 1.13-.1.24-1.1-1.15.1.24-1.14 1.14-.2.23-1.1zM60.1 11.88a8.21 8.21 0 01.81.27l.57 2.48-.2.5.4.27.77 2.51-1-.18a10.86 10.86 0 00-.36-1.43.77.77 0 00-.94-.6l.3 1.87-1-.16-1.31-6 .88.19.7 2.62s1.1.64.87-.47-.41-1.84-.41-1.84zM48.27 16.35h-1v-1.96l-.64-.16a1.46 1.46 0 01-.4-.51v-3.35h1l.1 2.72a.49.49 0 00.93.1v-2.8h1l.1 3.31a.73.73 0 01-.27.54 1.41 1.41 0 01-.77.17v1.92zM43 16.48l-1 .08c-.19 0-.64-.49-.64-.49s-.49.59-.77.62c-.51 0-.91 0-1.41.08a.73.73 0 01-.4-.83c.17-1.07.7-5.19.7-5.19l1-.11-.48 4.22a.34.34 0 00.34.34.91.91 0 00.61-.37l.43-4.26.8-.06h.07l-.33 4.12a.4.4 0 00.4.3.53.53 0 00.6-.43c.1-.51.34-4.08.34-4.08h1l-.27 5s-.3 1.05-1 1.11zM52.93 11.58a1.14 1.14 0 00-.81-1l-1.53-.1s-.64 0-.61.91.2 3.85.2 3.85a1.21 1.21 0 001 1.27c.36 0 .71.07 1.07.08a1 1 0 00.91-.71s-.13-3.42-.27-4.29zm-1.67 3.69l-.17-3.73.8.07.17 3.72-.8-.06zM57.49 14.93l-.5-.57a.87.87 0 00.3-.87s-.13-1-.27-1.58a1.46 1.46 0 00-.77-.86c-.57-.09-1.2-.18-1.88-.26l.51 6 1 .12-.21-2.09s.71-.2.84.47.26 1.73.26 1.73l1 .14-.37-2.27zm-1.88-1.24l-.16-1.58a.42.42 0 01.6.34 5.64 5.64 0 01.1.94c0 .43-.54.3-.54.3z"/><path class="cls-5" d="M18.17 20.06l4.49-1.79-3.81 9.11 3.88-2.84 2.69-7.4.53-.15 2.39 1.35-2.32 7.85L22.13 30l1.57 3.06-1.94 7.48-5.46 2.24 3.14-9.12-.52-.67-3.44 2.77-3.44 8.82-3.14 2.24-1.94-2.17 11.21-24.59zM29.61 20.13l3.59-1.04 1.34 5.08 1.05-5.31 3.29-.52-2.25 18.68-4.4.83.97-5.23-1.57-6.28-2.77 12.18-4.78 1.42 5.53-19.81zM40.9 18.19l3.51-.22-.82 18.23-4.49.38 1.8-18.39zM46.35 20.13l1.72-2.24 5.01.3.22 3.29h-3.29l.53 11.36 4.28.05.13 3.76-6.66-.22-1.94-2.02V20.13zM54.35 18.49l3.14.3 1.57 8.07 2.09-2.47-1.35-5.15 3.59.67 1.57 5.31-1.79 2.24 2.77 2.17 3.21 10.36-4.94-1.54-1.56-6.58-1.72-1.5-1.13 1.42 1.2 5.89-4.41-.8-2.24-18.39zM64.81 18.19L66 17.14l.75-.07 7.92 2.76 2.61 5.76-4.48-1.27-1-2.77-2.25-1L69 21l1 3.73 9.87 6.43 5.83 13.6-1.94 2S80 44.35 77.74 43.3s-6-2.54-6-2.54l-2.47-7.92 4.86 1.79.82 2.84 3.74 2-1.87-5.75-9.19-6.36-2.77-9.19z"/><path class="cls-2" d="M28.33 56.87a18.29 18.29 0 1018.28-18.29 18.3 18.3 0 00-18.28 18.29zm1.36 0a16.92 16.92 0 1116.92 16.92 16.94 16.94 0 01-16.92-16.92z"/><path class="cls-5" d="M64.21 56.87a17.6 17.6 0 11-17.6-17.6 17.6 17.6 0 0117.6 17.6z"/><path class="cls-2" d="M50 43.72c8.84 1.36 11.72 5.21 13.26 7.35v-1c-1.6-2.24-4-5.62-13.15-7a36.38 36.38 0 01-5.69-1.26 17 17 0 016.07-2.17l-.57-.64a16.15 16.15 0 00-6.39 2.47c-2.05-.79-2.32-1.64-2.33-1.65v.21l-.67.12c0 .14.26.89 2.26 1.76a32.54 32.54 0 00-3 2.19 22.75 22.75 0 00-5.19-.69l-.23.68a24.26 24.26 0 014.76.57 14.62 14.62 0 00-2.34 2.81 5.9 5.9 0 00-1.28-.17c-2.59-.08-6 3.54-6.16 3.69l.18.71s3.68-3.79 6-3.72a5.89 5.89 0 01.91.1 28.51 28.51 0 00-3.33 9.45c-.67 9.23 2.69 13.59 2.84 13.77l.95.29s-3.19-4.33-3.19-11.71c0-.72 0-1.49.08-2.29a28.19 28.19 0 013.35-9.34c1.69.6 3.55 2.4 4.72 7.59 1.57 7 4.73 16 8.44 18.45l.82-.21c-3.32-2.17-6.93-11-8.59-18.39-1-4.5-2.63-7.1-5-8A13.51 13.51 0 0140 44.86a19.23 19.23 0 015.91 2.61c5.32 3.63 8.48 6.76 11.26 11.19a26.94 26.94 0 013.57 9l.58-.53a25.4 25.4 0 00-3.57-8.88c-2.84-4.51-6.05-7.7-11.45-11.38a19.64 19.64 0 00-5.64-2.59 29.7 29.7 0 013-2.09A34.25 34.25 0 0050 43.72z"/></g></g></svg>