<svg xmlns="http://www.w3.org/2000/svg" viewBox="0 0 79.7 72.75"><defs><style>.cls-1{fill:#1e3160}.cls-2{fill:#fff}.cls-3{fill:#0a7ec2}.cls-4{fill:#f05333}</style></defs><g id="Layer_2" data-name="Layer 2"><g id="Layer_1-2" data-name="Layer 1"><path class="cls-1" d="M13.41 30.17l2.21-1.08L6.28 9.93l2.21-1.08-1.08-2.22L.77 9.87l1.08 2.22L4.07 11zm4.91-2.41l2.35-.76-3.3-10.14 2.35-.76L23 26.24l2.34-.76L18 2.86l-2.35.76L19 13.76l-2.35.76-3.33-10.14-2.32.77zM30.71.46l-2.44.38 3.34 21.05-2.44.39-3.33-21-2.44.38 3.18 20a3.7 3.7 0 007.3-1.15zm5.19 23.32h2.46l.12-6.89c0-2.1-.09-6.33-.19-8.34h.07C39 13.9 40.18 18.85 41 23.86h2.33L43.7.13h-2.46L41.12 7c0 2.1.09 6.33.19 8.33h-.07C40.6 10 39.42 5.05 38.64 0h-2.33zm9.2.17l4.87.77a2.46 2.46 0 002.82-2l3-18.61a2.46 2.46 0 00-2.05-2.82L48.82.47zm5.77-20.66l2.43.38-2.94 18.62-2.44-.39zM68.2 5.2l-4.68-1.52a2.45 2.45 0 00-3.11 1.58l-5.82 17.92a2.45 2.45 0 001.58 3.11l4.69 1.52.76-2.34L56.93 24l2.53-7.8L63 17.3l.74-2.3-3.52-1.15L62.75 6l4.69 1.52zM62 28.32L72.42 6.89l4.43 2.16A2.47 2.47 0 0178 12.36l-3.85 7.89a1.65 1.65 0 01-2.33 1l-2.64 10.6-2.23-1.08 2.65-10.6-.72-.35-4.69 9.6zm11.55-18.13L70 17.57l2.22 1.09 3.6-7.39z"/><path class="cls-2" d="M15.27 63.13a3.83 3.83 0 01-.74-.13c-2.48-1.08-1.19-3.65-.45-5.33q1.44-3.22 3-6.43Q9 53.76 1.37 56.53c-1.27.54-2-.31-.57-1.18a118 118 0 0117-8.88 52.09 52.09 0 01-3.59-10l-.7-2.82C22.35 29 29.87 26.5 40 26.5s17.58 2.5 26.48 7.11c-.17.68-.34 1.35-.52 2a116.21 116.21 0 0112.87.26c1 .07 1 1.21 0 1.31q-6.91 1-14.05 2.27c-.3.91-.62 1.8-.95 2.68A115.23 115.23 0 0178.73 40C80 39.86 80 41 79 41.26Q70.54 43.84 61.81 47C56.87 57.2 49.63 64 40 69.83a63.8 63.8 0 01-11.8-8.93Q16.27 66.47 5.45 72.46c-1.08.69-2.06.09-.75-1.07a113.73 113.73 0 0110.57-8.26"/><path class="cls-3" d="M5.13 71.89a116.53 116.53 0 0115.35-11.41l3.19-1.6 2.38-1.15c.72.82 1.48 1.61 2.26 2.38-8.1 3.78-15.85 7.72-23.18 11.78m57.69-28.83a116.36 116.36 0 0116-2.43q-8.58 2.63-17.45 5.83c.53-1.1 1-2.23 1.49-3.4"/><path class="cls-4" d="M1.15 55.91a117 117 0 0117.5-9.1c.21.43.43.85.65 1.26-.35.7-.68 1.4-1 2.1q-8.85 2.71-17.15 5.74m63.93-19.58a112.81 112.81 0 0113.7.23q-7.11 1-14.47 2.34c.27-.84.53-1.69.77-2.57"/><path class="cls-2" d="M40 28.79c8.93 0 15.93 2.09 23.83 6C59.93 49.4 52.86 59.19 40 67.14A56.48 56.48 0 0127.57 57l4.77-2.26c.62.06 1.2.09 1.75.1a2.79 2.79 0 01-.72 1.9l.75.84a3.67 3.67 0 001.13-2.73 23.84 23.84 0 004.49-.49c-.08 2.3-.4 4-1.06 4.66a.21.21 0 000 .06l-.44.43c.63-.12 1.25-.27 1.87-.44a14.58 14.58 0 00.81-5c1.46-.36 2.76-.73 3.93-1.13A3.41 3.41 0 0046.42 56c.46-.32.91-.67 1.34-1-.26 0-1.88.15-1.86-2.45a17.25 17.25 0 007.63-5.18 20.68 20.68 0 001.24-3.68c-2.36 3.71-4.52 5.88-8.75 7.57a18.27 18.27 0 01.69-2.71c1.23-.52 2.52-1.13 3.29-1.45l1.85-1.94c.47-1.8.93-3.59 1.39-5.39l-1.45.45 1.7-1.78c.36-1.41.71-2.82 1.06-4.22l-2.55.39a16.92 16.92 0 00.29-2.09l-1.23-.3a22.23 22.23 0 01-.47 2.62h-.12a4.65 4.65 0 00-2.33 1l.23-.69-4.1.76-1.36 1.43v-.11l.44-1.15c-1.35.28-2.7.56-4 .86-.29-1.82-.57-3.47-.81-4.8l-1.15.15c.25 1.35.54 3 .82 4.9l-1 .21L36 38.69c-.85-.9-2.58-.33-3.66-.06s-2.36.61-3.54.93c-.35.1-.7.2-1.05.32a29.16 29.16 0 01-2.39-4l-.13-.26-1.06.45.15.32a29.19 29.19 0 002.34 3.92 10.17 10.17 0 00-3.46 2.47l-1.85 1.94a11.44 11.44 0 00-1.12 1.55 55.44 55.44 0 01-4.14-11.44c7.9-3.95 14.9-6 23.84-6m.87 22.07l2.46-1.08.39-.4a2.46 2.46 0 00.55 0 8 8 0 001.14-.31 15.94 15.94 0 00-.52 2.63c-1.17.42-2.48.8-4 1.18v-2m-5.68 2.56l.77-.36 2-1.59.44-1.22c.28.58.44.81.72 1.39l.65-.28v1.81a21.5 21.5 0 01-4.56.53z"/><path class="cls-4" d="M44.78 31.78a54 54 0 015.58.29c1.4.3 2.78.65 4.15 1.06a20.78 20.78 0 01.81 5.77 21.09 21.09 0 01-.55 4.8c-2.36 3.71-4.52 5.88-8.75 7.57a18.27 18.27 0 01.69-2.71c1.23-.52 2.52-1.13 3.29-1.45l1.85-1.94c.47-1.8.93-3.59 1.39-5.39l-1.45.45 1.7-1.78c.36-1.41.71-2.81 1.06-4.22l-2.55.38a16.92 16.92 0 00.29-2.09l-1.23-.3a22.23 22.23 0 01-.47 2.62h-.12a4.65 4.65 0 00-2.33 1l.23-.69-4.1.76-1.36 1.43v-.11l.44-1.15c-1.35.28-2.7.56-4 .86-.29-1.82-.57-3.47-.81-4.8a51.26 51.26 0 016.24-.37m8.75 15.6A21 21 0 0147.76 55c-.26 0-1.88.16-1.86-2.45a17.17 17.17 0 007.63-5.18M46.42 56a20.78 20.78 0 01-6.35 3 14.32 14.32 0 00.81-5c1.46-.37 2.76-.74 3.93-1.14A3.41 3.41 0 0046.42 56m-8.22 3.51c-.64.11-1.3.2-2 .26-.73-.71-1.44-1.44-2.12-2.19a3.6 3.6 0 001.13-2.73 23.84 23.84 0 004.49-.49c-.08 2.3-.4 4-1.06 4.66a.21.21 0 000 .06l-.44.43m-4.83-2.77c-.51-.58-1-1.18-1.48-1.78l.45-.22c.62.06 1.2.09 1.75.1a2.79 2.79 0 01-.72 1.9m-9.08-15q-1-2.43-1.69-5l1.61-.73.15.32a29.19 29.19 0 002.34 3.92 10.74 10.74 0 00-2.41 1.47m1-6.16a51.32 51.32 0 0112.1-3.26c.25 1.35.54 3 .82 4.9l-1 .22L36 38.69c-.85-.9-2.58-.33-3.66 0s-2.36.6-3.54.92c-.35.1-.7.2-1.05.32a29.16 29.16 0 01-2.39-4zm15.55 15.3l2.46-1.08.39-.4a2.46 2.46 0 00.55 0 8 8 0 001.14-.31 15.94 15.94 0 00-.52 2.63c-1.17.42-2.48.8-4 1.18v-2m-5.68 2.56l.77-.36 2-1.59.44-1.22c.28.58.44.81.72 1.39l.65-.28v1.81a21.5 21.5 0 01-4.56.53z"/><path d="M40.35 64.72a51.34 51.34 0 01-10.09-9l1.63-.72c.48.6 1 1.2 1.48 1.78l.75.84a50.47 50.47 0 007.17 6.51l-.94.63M22.48 43.58A54.18 54.18 0 0119.69 36a51.12 51.12 0 0120.74-5 50.91 50.91 0 019.93 1.05 54 54 0 00-5.58-.29 51.26 51.26 0 00-6.24.37l-1.15.15a51.11 51.11 0 00-12.11 3.32l-1.07.45-1.61.73q.73 2.55 1.69 5a9.83 9.83 0 00-1.05 1z" fill="#fcbb30"/><path class="cls-1" d="M14.22 34c8.56-4.41 16.06-6.8 25.75-6.8s17.19 2.35 25.74 6.8c-4 16-11.55 26.59-25.74 35.1a59.53 59.53 0 01-13.92-11.37l-2.38 1.15-4 2c-1.51.76-3.18 1.93-4.91 1.48-1.89-.83-.64-3.13-.06-4.44 1.47-3.31 3-6.61 4.61-9.87a50.9 50.9 0 01-4.5-11.8zM40 28.79c-8.94 0-15.94 2.09-23.84 6a55.22 55.22 0 004.14 11.44 11.44 11.44 0 011.12-1.55l1.85-1.94a10.17 10.17 0 013.46-2.47 29.19 29.19 0 01-2.34-3.92l-.15-.32 1.06-.45.13.26a29.16 29.16 0 002.39 4c.35-.12.7-.22 1.05-.32l3.53-.93c1.09-.27 2.82-.84 3.67.06l1.22-1.28 1-.21c-.28-1.86-.57-3.55-.82-4.9l1.15-.15c.24 1.33.52 3 .81 4.8 1.34-.3 2.69-.58 4-.86L43 37.24v.11l1.36-1.43 4.1-.76-.23.69a4.65 4.65 0 012.33-1h.12a22.23 22.23 0 00.47-2.62l1.23.3a16.92 16.92 0 01-.38 2.08l2.55-.38c-.35 1.41-.7 2.81-1.06 4.22l-1.7 1.78 1.45-.45c-.46 1.8-.92 3.59-1.39 5.39L50 47.11c-.77.32-2.06.93-3.29 1.45a18.27 18.27 0 00-.71 2.71c4.23-1.69 6.39-3.86 8.75-7.57a20.68 20.68 0 01-1.24 3.68 17.17 17.17 0 01-7.63 5.18c0 2.61 1.6 2.49 1.86 2.45-.43.36-.88.71-1.34 1A3.41 3.41 0 0144.81 53c-1.17.4-2.47.77-3.93 1.14a14.56 14.56 0 01-.81 5c-.62.17-1.24.32-1.87.44l.44-.43a.21.21 0 010-.06c.66-.67 1-2.36 1.06-4.66a23.84 23.84 0 01-4.49.49 3.67 3.67 0 01-1.13 2.73l-.75-.84a2.79 2.79 0 00.72-1.9c-.55 0-1.13 0-1.75-.1L27.57 57A56.48 56.48 0 0040 67.14c12.89-8 20-17.74 23.83-32.32-7.9-3.94-14.9-6-23.83-6m.87 22.07v2c1.49-.38 2.8-.76 4-1.18a16.14 16.14 0 01.52-2.63 9.57 9.57 0 01-1.14.31 2.46 2.46 0 01-.55 0l-.39.4-2.46 1.08m-5.68 2.56v.28a21.57 21.57 0 004.56-.53v-1.82l-.65.29c-.28-.58-.44-.81-.73-1.39l-.44 1.22-2 1.59z"/><path class="cls-2" d="M29 40.23a10.43 10.43 0 00-5.24 3 13.59 13.59 0 00-2 3.13q-2.41 4.91-4.63 9.89c-.38.87-1.57 3-.31 3.52 1.39.37 3.14-.8 4.37-1.43s2.67-1.35 4-2A13.33 13.33 0 0031 51.6a22.32 22.32 0 001.37-2.93q1.31-3.22 2.67-6.43c.34-.81.93-1.82.74-2.69-.38-1.18-2.37-.46-3.23-.25-1.17.3-2.35.61-3.52.93M26.45 52.5l-3.18 1.44q2.3-5.34 4.79-10.61l2.8-.87q-2.28 5-4.41 10m18.19-16c-1.48 1.92-2.93 3.86-4.37 5.82.68-1.79 1.35-3.57 2-5.35-1.53.31-3.05.64-4.57 1l-1.17 2.76 1-.27q-1.78 4.34-3.5 8.71c-.47 1.18-.94 2.37-1.4 3.55 1.52-.72 3.05-1.44 4.58-2.14.69-1.91 1.39-3.83 2.1-5.73.65 1.3 1.29 2.6 1.94 3.91l3-1.31q-.9-2.06-1.83-4.11c1.1-1.66 2.2-3.32 3.32-5l.94-.22c.23-.72.47-1.43.7-2.15l-2.72.51m5.91-1a3.86 3.86 0 00-2.18 1 5 5 0 00-1 1.87l-2 6.16c-.26.81-.68 2.29.62 2.18a5.84 5.84 0 001.28-.43c1.31-.56 2.63-1.12 4-1.66.34-1.29.67-2.58 1-3.87l-2.08.66-.48 1.74-1.45.53 1.82-6.24 1.29-.27c-.11.36-.2.73-.31 1.09l1.87-.44c.24-.93.48-1.87.71-2.81q-1.55.22-3.09.48"/><path class="cls-3" d="M56.1 33.64c.62.2 1.21.41 1.79.63 1.47.55 2.76 1.1 3.84 1.61a51 51 0 01-19.66 27.67l-.78.54a46.34 46.34 0 01-4.45-3.74l1.32-.22a21.39 21.39 0 0017.56-24.57l-.09-.47V34c-.06-.25-.12-.45-.17-.66l.87.29m.1.13c.58.2 1.19.41 1.76.63-.58-.22-1.17-.43-1.76-.63"/></g></g></svg>