<svg xmlns="http://www.w3.org/2000/svg" viewBox="0 0 278.66 204.59"><defs><style>.cls-1{fill:#c4ced4}.cls-2{fill:#0c1e24}.cls-3{fill:#fff}.cls-4{fill:#0474bc}</style></defs><g id="Layer_2" data-name="Layer 2"><g id="Layer_1-2" data-name="Layer 1"><g id="layer1"><g id="g7802"><g id="g5403"><path id="path5405" class="cls-1" d="M167.69 53l.92.06 2 8.88 24.09 2.16v4.1l-27-2.25zm111 36.86V51.13h-.06c-.28-.09-22.08-7.72-34.79-10.58-14.94-3.37-19.25 8.13-19.89 10.18V36.1s-40.95-7.9-70.2-7.46c-5 .08-12.63 1.91-15 12.51V28.3s-28.12.8-38.56 1.76c-2.59.24-13.84 1.22-17.41 14V31.63s-37.13 4.44-70.32 15.14C7.64 48.32 0 53.93 0 62.37v85.17l27.88-8.89V124l25.42-6v14.63L65.83 130a109.22 109.22 0 00-29.74 40c16.91-14.5 33.65-28.57 58.59-35.31L89 147.83c19.84-10.87 46.48-11.22 67.67-4.4l-1.6 3.51c-13.1-5.53-28.06-6.2-43-3.9 14.66 5 27 8.94 39.29 17-.82 22.87 17.94 44.72 42.13 44.51 38.89-.29 56.79-45.87 35.07-74 2.23 1.71 4.94 2.93 9 4.17 13.73 3.85 41.08 11.94 41.08 11.94V110.3l-20.88-6.24-2.29 10.16c-1.37-.45-3.34-.53-3.37-1.53V71.62l1.66 10.59 24.89 7.67z"/></g><g id="g5407"><path id="path5409" class="cls-2" d="M253.62 65.41l2.32 14.85 20.11 6.19V52.89s-20-7-32.92-10c-4.42-1.23-17.44-2-17.74 14.43v56.74c0 9.77 5.16 16.3 14.93 18.86 14.86 3.91 35.73 10.3 35.73 10.3v-31.08l-16.52-4.93-2.28 10.12c-1.83-.53-3.31-.94-5.16-1.42-2-.53-2.47-1.62-2.55-2.71V64.27l4 1.14"/></g><g id="g5411"><path id="path5413" class="cls-2" d="M197.14 34.43v90.41l4.52.39c1.36.17 12.22 2 13.53 2.24l6.17 1.56V38.17c0-.14-15.1-2.64-24.22-3.74"/></g><g id="g5415"><path id="path5417" class="cls-2" d="M168.15 86.3v16.81c-.46 0-2.71.15-3-1.33v-15.7zm2.44-35.61l2 8.92 20 1.78V33.8S163.43 31 155.27 31c-4.88 0-14.18 1.78-14.53 14.17v59.05c0 10.22 5.91 16.32 16.21 16.75 0 0 21.41 1 29.65 2.25l6 1.13V70.5l-27.38-2.2V50.39l5.4.3z"/></g><g id="g5419"><path id="path5421" class="cls-2" d="M108.74 68.66V51.47c.05-1.08 2.53-1 2.88-1v18l-2.88.16m-8.46-36.12c-10 .92-15.91 7.61-15.91 17.88v74.12l5.87-1.11c1.32-.18 12.28-1.28 13.65-1.36l4.83-.12V88.81c1-.08 1.91-.14 2.88-.2v33.25l5.53-.63c1.18-.1 11.94-.5 13.76-.5l5.21.29V30.85s-25 .69-35.84 1.69"/></g><g id="g5423"><path id="path5425" class="cls-2" d="M80.15 34.51s-22.7 3.41-29.45 4.92a16.41 16.41 0 00-4.42 1.71v-.78s-18.88 4.18-33.1 8.77C8.71 50.57 2.44 55.62 2.44 62.35v81.52l22.88-7.25v-67.9c0-1.24 1.09-2.2 3.23-2.85a3.85 3.85 0 01.4-.1v55.33l24.21-5.74v-53a2.87 2.87 0 012.55-2.68v69.63s18.82-3.79 19.89-3.92l4.55-.4z"/></g><g id="g5427"><path id="path5429" class="cls-3" d="M261.73 110.9l-2.27 10.1c-3.65-1.08-5.44-1.59-8.07-2.27s-4.1-2.15-4.58-4.39V62.62c.85-2.92 4.65-.45 9.4.52L258.54 78l14.59 4.49V55s-18.13-6.22-30.64-9.22c-1.37-.33-13.85-3.27-14.14 11.59v56.74c0 8.42 4.29 13.82 12.75 16 12.22 3.21 32.07 9.17 32.07 9.17v-25z"/></g><g id="g5431"><path id="path5433" class="cls-3" d="M218.44 40.62l-18.38-2.86v84.41s14.86 2.24 15.8 2.46l2.59.66z"/></g><g id="g5435"><path id="path5437" class="cls-3" d="M166 47.48c.17 0 5.17.32 7 .47l2 8.94 14.7 1.31V36.44s-30.51-2.65-34.43-2.44c-3.65.15-11.09.78-11.61 11.26v59.05c0 8.69 4.64 13.47 13.41 13.83 0 0 20.23 1 29.1 2.16l3.48.62V73.15l-22.25-1.8v12l3.71.27v22.62c-2.78-.19-8.61.45-8.84-4.39V49.61c.2-1 .95-2.13 3.71-2.13"/></g><g id="g5439"><path id="path5441" class="cls-3" d="M114.33 71.08c-.1 0-5.61.28-8.3.46V51.33c.2-2.12 1.66-3.29 4.3-3.49l4-.25zm-13.8-35.85c-8.48.83-13.38 6.25-13.45 15v71.05h.31l2.87-.52c2.44-.29 12.59-1.3 13.52-1.34h2.24v-33c2.69-.21 5.47-.4 8.3-.57v33.06l2.53-.25c.86-.08 12.05-.51 14-.51l2.51.13V33.64s-21.77.5-32.88 1.59"/></g><g id="g5443"><path id="path5445" class="cls-3" d="M77.25 37.9s-22.11 3.38-25.9 4.38a14.4 14.4 0 00-7.84 4.94V44s-15.36 3.35-29.44 7.9c-3.52 1.1-8.71 5.24-8.71 10.45v77.26l17.05-5.34V68.72c-.09-5.51 7.89-6.21 9.46-6.48v55.17l18.36-4.34V62.25c.62-6 7.34-5.6 8.41-6v69.3l9-1.56 9.55-1.66v-.27z"/></g><g id="g5447"><path id="path5449" class="cls-4" d="M271.05 115.85l-7.78-2.32-2.27 10.11c-5.05-1.5-7-2.08-10.14-2.89a7.84 7.84 0 01-6.28-7.39v-50.2c.59-3.87 3.17-4.57 6.27-3.72 0-.06 3.31.9 7.22 2.08l2.33 14.88 10.65 3.28V56.43c-5.9-2.06-17.46-5.85-29.05-8.63-7.42-1.78-11.57 2-11.57 9.57v56.74c0 7.6 3.79 12.08 11.2 14 15.13 4 29.45 8.37 29.45 8.37z"/></g><g id="g5451"><path id="path5453" class="cls-4" d="M202.14 120.26c.88.07 13.36 2.13 14.22 2.35V42.36c-4.27-.76-8.07-1.4-14.22-2.22z"/></g><g id="g5455"><path id="path5457" class="cls-4" d="M169.49 81.39l3.7.26v26.81c-2.19-.17-4.39-.32-6.57-.46-3.22-.21-6.45-2.29-6.45-6.59v-51.7c.45-3.86 4.18-4.44 6.46-4.3 0-.06 3.74.23 8 .6l2 8.92 10.91 1V38.34h-.05c-19.84-1.93-30.93-2.26-30.93-2.26-2.33-.1-5.83-.1-8.23 2.23a9.45 9.45 0 00-2.61 6.91v59.05c0 7.6 3.85 11.44 11.42 11.75 0-.24 26.58 1.63 30.4 2.33V75c-6.35-.63-10-1-18.07-1.47z"/></g><g id="g5459"><path id="path5461" class="cls-4" d="M103.74 51.23c.12-1.55 1-5.28 6.44-5.68 2.15-.14 4.29-.27 6.44-.39v28.1c-4.29.22-8.59.4-12.88.74zm-14.37-.81v68.09c.88-.17 13.46-1.42 14.35-1.44V84.18q6.44-.54 12.88-.89v33c.9-.1 13.62-.57 14.5-.52V36c-8.54.23-20.27.59-30.38 1.51-7.56.71-11.37 5.33-11.37 12.91"/></g><g id="g5463"><path id="path5465" class="cls-4" d="M51.8 44.31c-5.27 1.19-9.23 6.19-10.39 12.2v-9.94s-12.55 2.74-26.7 7.32c-2.83.91-7.27 4.38-7.27 8.46v74.21c.83-.32 12-3.77 12.88-4V68.72c0-4.46 3.66-6.69 6.79-7.64 1.72-.51 6.84-1.29 6.84-1.29v55l14.23-3.34V61.93a7.79 7.79 0 016.32-7.09c3.61-.61 6.23-1 6.23-1v69.05c.87-.22 13.49-2.37 14.37-2.44V40.33s-16.7 2.5-23.35 4"/></g><g id="g5467"><path id="path5469" class="cls-2" d="M202.34 114.74c55.42 21.9 32.39 86.41-8.23 86.88-22.25.27-41.19-20.4-39.59-42.46-10-8-22.61-11.92-34.77-15.36 11-1.16 26.48 1.72 36.53 6.37L160 142c-18.59-6.82-48.08-8-66.17.73l5-11.58c-19.2 4.24-40.65 16.08-56.49 30.94 11.1-21.29 36.25-42.85 59.22-50l-1.69 5a160.26 160.26 0 0145.88-9.21c16.66-1 30.14 0 41.68 2.55-2.07-2.68-5.4-7.46-5.4-7.46l10.66 2.71 2.73-4.41 2.79-4.53s1.37 9.37 1.6 11c1.56.5 10.19 3.34 10.19 3.34z"/></g><g id="g5471"><path id="path5473" class="cls-1" d="M208.49 146.54a78.91 78.91 0 016 9.13 51.08 51.08 0 0010.58-9.19 39.63 39.63 0 00-7.88-10.16 35.32 35.32 0 01-8.7 10.22m7.33 11.81a71.69 71.69 0 012.59 6.81 38.86 38.86 0 0110.28-1.9 36.67 36.67 0 00-2.26-13.72 63.91 63.91 0 01-10.61 8.81m3.3 9.49a59.8 59.8 0 011.28 16.59 38.55 38.55 0 008-18.38 39.79 39.79 0 00-9.28 1.79m-2.37 1.28c-11 5.17-15.43 16.7-19.75 27.23a35.64 35.64 0 0019.46-8 43.5 43.5 0 00.29-19.2m-.88-2.9a61.11 61.11 0 00-2.34-6.44 101.64 101.64 0 01-51.93 13.56c5.24 13.8 17.45 23 32.34 23.12 4.73-11.65 9.95-24.37 21.93-30.24m-3.62-9.12a65.11 65.11 0 00-6-9c-14.25 9.11-28.55 3.84-43-1.46a35 35 0 00-2.52 23.77 98.77 98.77 0 0051.54-13.28m-7.6-11.28c-19.88-21.82-59.42-26.15-86.85-18.7 19-.51 56.77.51 70.24 16.55-4.34-2.42-13.15-6.48-18.37-6.18a46.15 46.15 0 00-5 6.67c13.24 4.88 26.8 9.79 39.94 1.66m2.16-1.52a32.16 32.16 0 008.63-9.68c-6.18-6.06-18-13.54-48-15.59 12.74 2.89 24.63 6.91 31.36 11.68a52.51 52.51 0 00-8.92-2.68c-1.62.23-3.9.44-5.6.83 9.16 3.59 15.83 7.9 22.56 15.44"/></g><g id="g5475"><path id="path5477" class="cls-1" d="M188.29 117.74l6.16-2.16 4.69 5.32-.55-6.94 6-2.6-6.5-2.14-1-6.92-3.47 5.62-6.62-1.68 4.37 5.61z"/></g><g id="g5479"><path id="path5481" class="cls-4" d="M165 151.86c9.45 4.43 16.93 4.61 26.56 5.06l-15.56 4.6a105.4 105.4 0 0024.62-2c-16.74 8.36-37 7.74-37 7.74-1.52-5.14-.81-11.54 1.37-15.43m1.82 25.72c10.35-.39 25-3.19 36.28-9.75-6.51 6.59-13.46 10.19-24 15.69 11.58-2 17.28-6.52 24.86-12.16-5.89 6.6-8.8 13.56-13.35 20.76 0 0-13.51 1.69-23.76-14.54m34.26 15.78a35.83 35.83 0 0011.26-6c1-2.19 1.48-6.89 1.41-12.57l-4.14 7 1.31-6.77c-5.82 7.06-8 12.1-9.84 18.35"/></g><g id="g5483"><path id="path5485" class="cls-3" d="M155.42 122.74l4.29-2.12 3.57 3.18-.7-4.72 4.13-2.4-4.72-.81-1-4.65-2.21 4.23L154 115l3.34 3.42z"/></g><g id="g5487"><path id="path5489" class="cls-3" d="M107.25 132.21l2.82-1.39 2.34 2.09-.45-3.1 2.7-1.59-3.09-.53-.67-3.06-1.46 2.77-3.12-.31 2.2 2.25z"/></g><g id="g5491"><path id="path5493" class="cls-3" d="M196.29 126.4c-.54-.27-1.08-.54-1.64-.8 8.69 2.58 14.55 5.94 17.83 8.49a26.39 26.39 0 01-1.65 2.17 42.33 42.33 0 00-14.54-9.86m26.78 48.69v-.57a43.2 43.2 0 00.82-7c.62-.17 1.24-.29 1.88-.41a41.54 41.54 0 01-2.67 8m3.64-15.25c-1.14.14-2.19.31-3.23.53a42.2 42.2 0 00-1-5 81.95 81.95 0 003.31-2.94 29.92 29.92 0 01.92 7.39m-3.88-14.28c-1 1-1.9 2-2.85 2.82a44.25 44.25 0 00-3.71-6.49c.74-.9 1.46-1.83 2.13-2.8a29.5 29.5 0 014.43 6.47"/></g><g id="g5495"><path id="path5497" class="cls-2" d="M196 22.87c0 .62-.32.91-.75.85l-2.09-.25c-.48-.06-.76-.19-.76-1.06V9.25c0-.69.35-.9.83-.85s1.32.22 1.81.29 1 .18 1 .8zm1.45-17.93c-1.52-.26-7-1.17-7.35-1.16A3.12 3.12 0 00186.82 7v15.7a4.15 4.15 0 003.73 4.23c1.7.18 6.17.8 7.67.95a3 3 0 003.33-3.1V9.16c0-.75-.24-3.53-4.09-4.22"/></g><g id="g5499"><path id="path5501" class="cls-2" d="M161.36.66C158.33.4 151 .15 151 .15v23.79l5.69.21V4.52l2.29.09c1.15.06 1.49.53 1.49 1.12v18.55l5.65.34V4.73c0-1.4-.9-3.73-4.76-4.07"/></g><g id="g5503"><path id="path5505" class="cls-2" d="M142.3 10.83h-3.8V5.15c0-.46.37-1.07 1.59-1.07h2.21zM137.23 0c-2.78 0-4.41 1.28-4.41 4.21v19.58h5.66v-9.37h3.8v9.41h5.7V.11S143.46 0 142 0z"/></g><g id="g5507"><path id="path5509" class="cls-2" d="M130.06 16.33l-4.53.13-1.12 3.94-1.51.06V.4l-5.67.32v23.6s2.34-.12 6.4-.24 6.43-.17 6.43-.17z"/></g><g id="g5511"><path id="path5513" class="cls-2" d="M107.51 11.72c-1.14.15-2.5.25-2.5.25V5.8c.64-.08 1.77-.2 2.41-.26 1.16-.09 1.27.7 1.27 1v4a1.26 1.26 0 01-1.18 1.17m6.87 3.29a2.14 2.14 0 00-1.38-2.22 2.65 2.65 0 001.33-2.21V4.52a3.37 3.37 0 00-3.8-3.3c-3 .16-11.14 1.06-11.14 1.06v23.33l5.63-.47v-9.56l2.68-.29c.81 0 1 .44 1 .67v8.9l5.65-.37z"/></g><g id="g5515"><path id="path5517" class="cls-2" d="M90.21 22.59c-.36.06-1.43.2-2.12.26-.53 0-.79-.57-.79-.85V8.77a.8.8 0 01.62-.77c.51-.09 1.6-.25 2.13-.35a.74.74 0 01.83.69v13.39a.89.89 0 01-.69.91M93 3.15c-.66 0-5.8.66-7.33.95-1.16.22-4 1.22-4 4.33v16a2.64 2.64 0 003.11 2.85c.71-.07 5.91-.79 7.83-1a3.89 3.89 0 003.79-4.09v-16c0-3.12-2.94-3.12-3.45-3.12"/></g><g id="g5519"><path id="path5521" class="cls-2" d="M178.55 21.05c-.1.47-.49.62-1.13.56l-2.64-.23V6l2.38.26c.92.1 1.27.42 1.39.88zm1.34-18.86c-1.33-.23-10.73-1.1-10.73-1.1v23.74s8.68.69 10.71.88 4.31-.51 4.31-3.29V6.72c0-3.38-2.44-4.2-4.29-4.53"/></g></g></g></g></g></svg>