<svg xmlns="http://www.w3.org/2000/svg" viewBox="0 0 50.09 60.87"><defs><style>.cls-1{fill:#ed174f}.cls-2{fill:#0067b1}.cls-4{fill:#fff}</style></defs><g id="Layer_2" data-name="Layer 2"><g id="Layer_1-2" data-name="Layer 1"><g id="layer1"><g id="g47425"><path id="path14497" class="cls-1" d="M1.13 48.85H49V1.13H1.13z"/><path id="path14499" class="cls-2" d="M1.13 59.73H49v-9.12H1.13z"/><g id="g14505"><path id="path14507" d="M49 48.85H1.13V1.13H49zM1.13 59.73V50.6H49v9.13zM49.52 0H.57a.54.54 0 00-.4.17.54.54 0 00-.17.4V60.3a.56.56 0 00.17.4.59.59 0 00.4.17h49a.58.58 0 00.57-.57V.57a.59.59 0 00-.17-.4.56.56 0 00-.4-.17" fill="#a7a9ac"/></g><g id="g14509"><path id="path14511" class="cls-2" d="M25.15 3.58A21.41 21.41 0 1046.56 25 21.42 21.42 0 0025.15 3.58"/></g><g id="g14513"><path id="path14515" class="cls-4" d="M35.45 34.53a53.79 53.79 0 013 5.06 20 20 0 01-13.6 5.13 19.27 19.27 0 013.43-10.61 2.89 2.89 0 01-.56-.55 19.51 19.51 0 00-3.89 11.12A19.71 19.71 0 019.41 36.9a50.08 50.08 0 005.21-2 2.71 2.71 0 00-.94-.43 45.05 45.05 0 01-4.76 1.73 19.52 19.52 0 01-3.49-10.56 13.43 13.43 0 004.19.21V25a13.28 13.28 0 01-4.21-.2 19.73 19.73 0 017.34-15.16c2.72 1.72 6.94 5.67 10.89 10-.19.23-.45.45-.53.54l.81.43a21.91 21.91 0 007.84-14.22 19.73 19.73 0 018.66 6.11A65.6 65.6 0 0127 26.38a1.24 1.24 0 00.33.71A69 69 0 0041 13.22a19.56 19.56 0 013.85 10.51 23.58 23.58 0 00-10.76 3.73 1 1 0 00.62.5 22.57 22.57 0 0110.17-3.48v.51a19.7 19.7 0 01-5.72 13.91c-.84-1.55-1.87-3.22-3-4.95l-.66.62"/></g><g id="g14517"><path id="path14519" class="cls-4" d="M24.3 19.14a72.34 72.34 0 00-10.81-10 19.73 19.73 0 0117.41-3 21 21 0 01-6.6 13"/></g><g id="g14521"><path id="path14523" class="cls-2" d="M14.72 13.09l.16.49h.53l-.43.31.15.49-.41-.3-.41.3.15-.49-.46-.31h.52z"/></g><g id="g14525"><path id="path14527" class="cls-2" d="M17.82 14.89l.16.5h.52l-.42.31.15.48-.41-.3-.41.3.15-.48-.43-.31h.53z"/></g><g id="g14529"><path id="path14531" class="cls-2" d="M16.49 13.5l.16.49h.53l-.43.32.15.48-.41-.3-.41.3.16-.48-.43-.31h.53z"/></g><g id="g14533"><path id="path14535" class="cls-2" d="M18.33 16.6l.15.49H19l-.43.31.16.49-.41-.3-.41.3.15-.49-.43-.31h.53z"/></g><g id="g14537"><path id="path14539" class="cls-2" d="M18.1 18.4l.16.49h.53l-.43.32.16.49-.41-.31-.41.31.15-.49-.43-.32H18z"/></g><g id="g14541"><path id="path14543" class="cls-2" d="M17.11 19.84l.15.49h.53l-.42.32.15.48-.41-.3-.41.3.15-.48-.43-.32H17z"/></g><g id="g14545"><path id="path14547" class="cls-2" d="M15.54 20.65l.16.49h.53l-.43.31.16.49-.41-.3-.42.3.16-.49-.43-.31h.53z"/></g><g id="g14549"><path id="path14551" class="cls-2" d="M11.57 14.73l-.16.5h-.52l.42.31-.15.48.41-.3.43.28-.15-.48.43-.31h-.53z"/></g><g id="g14553"><path id="path14555" class="cls-2" d="M12.87 13.5l-.16.49h-.53l.43.32-.15.48.41-.3.41.3-.16-.48.43-.32H13z"/></g><g id="g14557"><path id="path14559" class="cls-2" d="M11 16.38l-.16.49h-.53l.43.31-.15.49.41-.3.41.3-.15-.49.43-.31h-.53z"/></g><g id="g14561"><path id="path14563" class="cls-2" d="M11.13 18.18l-.16.49h-.52l.42.32-.15.48.41-.3.41.3-.16-.47.43-.32h-.53z"/></g><g id="g14565"><path id="path14567" class="cls-2" d="M12.12 19.65l-.15.5h-.53l.43.31-.16.48.41-.3.42.3-.16-.49.43-.3h-.53z"/></g><g id="g14569"><path id="path14571" class="cls-2" d="M13.69 20.58l-.16.5H13l.43.31-.15.48.41-.29.41.29-.16-.48.43-.31h-.52z"/></g><g id="g14573"><path id="path14575" class="cls-2" d="M18.74 32.77c-1 .55-1.89 1-2.89 1.51a4 4 0 01-.12-.79c.9-.44 1.8-.91 2.69-1.4.11.24.21.46.32.68"/></g><g id="g14577"><path id="path14579" class="cls-4" d="M3.93 55a1.14 1.14 0 00.78-.17.93.93 0 00.36-.74c0-.45-.25-.59-.62-.59s-.45.11-.51.55l-.15 1zm-.38 1.6c0 .23.25.27.47.27l-.09.53H2v-.5h.11a1.14 1.14 0 00.26-.09.73.73 0 00.23-.55l.4-2.45c0-.22-.19-.28-.45-.28l.09-.53h1.91a3 3 0 011 .11 1 1 0 01.6 1 1.52 1.52 0 01-.64 1.26 2.47 2.47 0 01-1.33.26H3.7z"/></g><g id="g14581"><path id="path14583" class="cls-4" d="M7.15 56.61c0 .25.24.29.46.29l-.08.53h-2l.08-.53h.14a.89.89 0 00.25-.09.76.76 0 00.22-.55l.37-2.45c0-.22-.19-.27-.35-.28h-.13l.08-.53h2l-.09.54a.59.59 0 00-.35.06c-.21.11-.23.35-.26.58l-.09.6h1.46l.14-1c0-.23-.23-.28-.44-.28l.08-.5h2l-.08.54a.54.54 0 00-.33.06c-.21.11-.23.35-.26.58l-.37 2.45c0 .23.25.28.44.28l-.08.53H8v-.54h.12a.8.8 0 00.26-.09.76.76 0 00.22-.55l.15-.93H7.34z"/></g><g id="g14585"><path id="path14587" class="cls-4" d="M12.31 57.43h-2l.07-.53a.75.75 0 00.35-.07c.21-.1.23-.35.26-.57l.37-2.45c0-.22-.19-.27-.35-.28h-.1L11 53h2l-.09.54a.72.72 0 00-.33.06c-.2.1-.22.36-.26.58L12 56.63c0 .22.24.27.43.28z"/></g><g id="g14589"><path id="path14591" class="cls-4" d="M16.1 57.43h-3.39l.08-.53a.68.68 0 00.32-.07c.21-.1.23-.35.26-.57l.37-2.45c0-.22-.19-.28-.43-.28l.08-.54h2l-.08.54a.72.72 0 00-.36.06c-.21.11-.22.35-.26.58l-.38 2.51c0 .16.2.22.31.22a1.61 1.61 0 001-.4 3.15 3.15 0 00.69-.83l.4.24z"/></g><g id="g14593"><path id="path14595" class="cls-4" d="M19 53.93l-.7 1.41h.94zm1.42 2.27c0 .12.08.35.12.46s.2.19.35.22h.07l-.08.53h-2l.08-.53H19c.14 0 .45 0 .4-.25l-.13-.79H18l-.28.61a.46.46 0 00-.06.22c0 .19.32.19.44.21l-.09.53h-1.65l.08-.53c.55-.12.63-.43.87-.91l1.55-3h.85z"/></g><g id="g14597"><path id="path14599" class="cls-4" d="M22.54 56.5a.68.68 0 000 .15c0 .22.27.25.41.25 1 0 1.53-1.16 1.53-2.19 0-.75-.29-1.18-1-1.18a.77.77 0 00-.45.1.86.86 0 00-.13.42l-.35 2.28zm.85-3.5a2.26 2.26 0 011.44.3 1.84 1.84 0 01.63 1.53 2.82 2.82 0 01-.83 2.07 2.85 2.85 0 01-2.05.54h-1.64l.06-.54a.64.64 0 00.31-.07c.21-.1.23-.35.26-.57l.43-2.45c0-.22-.19-.27-.43-.28l.08-.54z"/></g><g id="g14601"><path id="path14603" class="cls-4" d="M28.57 57.43h-3.63l.06-.53a.6.6 0 00.32-.07c.2-.1.22-.35.26-.57l.42-2.45a.17.17 0 00-.07-.19.61.61 0 00-.31-.09l.08-.54H29l.32 1.44-.4.16a1.42 1.42 0 00-1.34-1.06.76.76 0 00-.5.13 1.06 1.06 0 00-.16.52l-.1.61h.41c.26 0 .41-.38.47-.69h.41l-.3 2h-.41v-.2c0-.51-.21-.55-.66-.55l-.19 1.3c0 .23.29.25.44.25a2.33 2.33 0 001.86-1.16l.38.22z"/></g><g id="g14605"><path id="path14607" class="cls-4" d="M32.56 57.43h-3.39l.08-.53a.72.72 0 00.33-.07c.2-.1.22-.35.26-.57l.36-2.45c0-.22-.19-.28-.43-.28l.08-.54h2l-.08.54a.69.69 0 00-.36.06c-.21.11-.23.35-.26.58l-.39 2.51c0 .16.21.22.31.22a1.59 1.59 0 001-.4 3.18 3.18 0 00.7-.83l.39.24z"/></g><g id="g14609"><path id="path14611" class="cls-4" d="M34.91 55a1.14 1.14 0 00.78-.17.93.93 0 00.36-.74c0-.45-.25-.59-.62-.59s-.44.11-.51.55l-.15 1zm-.38 1.6c0 .23.26.27.47.27l-.09.53h-2l.09-.5h.11a1 1 0 00.26-.09.73.73 0 00.23-.55l.4-2.45c0-.22-.19-.28-.44-.28l.08-.54h1.9a2.9 2.9 0 011 .11.94.94 0 01.6 1 1.52 1.52 0 01-.64 1.26 2.45 2.45 0 01-1.33.26h-.46z"/></g><g id="g14613"><path id="path14615" class="cls-4" d="M38.24 56.61c0 .25.24.29.47.29l-.09.53h-2l.08-.53h.13a.8.8 0 00.26-.09.69.69 0 00.22-.55l.38-2.45c0-.22-.19-.27-.36-.28h-.13l.08-.54h2l-.08.54a.63.63 0 00-.36.06c-.2.11-.22.35-.25.58l-.1.6H40l.14-1c0-.23-.23-.28-.44-.28l.08-.54h2l-.08.54a.53.53 0 00-.33.06c-.21.11-.23.35-.27.58l-.36 2.45c0 .23.25.28.44.28l-.09.53h-2l.08-.53h.11a.8.8 0 00.26-.09c.18-.12.19-.35.23-.55l.14-.93h-1.48z"/></g><g id="g14617"><path id="path14619" class="cls-4" d="M43.4 57.43h-2l.08-.53a.75.75 0 00.35-.07c.2-.1.23-.35.26-.57l.37-2.45c0-.22-.19-.27-.36-.28H42l.08-.54h2l-.08.54a.72.72 0 00-.33.06c-.21.1-.23.36-.26.58l-.37 2.46c0 .22.24.27.44.28z"/></g><g id="g14621"><path id="path14623" class="cls-4" d="M46.16 53.93l-.7 1.41h.93zm1.42 2.27c0 .12.08.35.12.46s.2.19.35.22h.06l-.08.53H46l.08-.53h.11c.14 0 .45 0 .4-.25l-.13-.79h-1.25l-.28.61a.47.47 0 00-.07.22c0 .19.33.19.44.21l-.08.53h-1.65l.08-.53c.54-.12.63-.43.87-.91l1.54-3h.86z"/></g><g id="g14625"><path id="path14627" class="cls-2" d="M35.51 33.81h-2.9v-.73l.53-.08v-2.26c0-.82-.11-1.2-.68-1.2v-.64l2-.6a3.62 3.62 0 01.34 1.5c.21-.62.47-1.49 1.14-1.49s.85.46.85 1-.25 1-.68 1a2 2 0 01-.69-.17C35.12 30 35 31.68 35 32v1l.52.08z"/></g><g id="g14629"><path id="path14631" class="cls-2" d="M40.38 29.35a.71.71 0 01-.79.68 1 1 0 01-.94-.89c-.22 0-.37.11-.37.47 0 .84 2.37.24 2.37 2.37 0 1.59-1.15 2-2.25 2-.68 0-1.86-.09-1.86-1.12a.73.73 0 01.72-.82c.73 0 .85.66 1 1.13a.22.22 0 00.24.14c.38 0 .66-.16.66-.41 0-.95-2.44-.58-2.44-2.65 0-1.32 1.56-1.91 2.31-1.91s1.38.28 1.38 1"/></g><g id="g14633"><path id="path14635" class="cls-2" d="M22.89 33.34c-1 0-1-1.32-1-2.84s.15-2.85 1-2.85c1 0 1.09 1.32 1.09 2.85s-.21 2.84-1.09 2.84m1.28-7.48A2.77 2.77 0 0021.81 27l.09-1.34c.06-.9.26-3.36 1.52-3.36.6 0 .46.8.53 1.16.17.85.54 1.83 1.71 1.83a1.56 1.56 0 001.62-1.6 2.84 2.84 0 00-3.07-2.75c-4.32 0-6.06 3.3-6.06 7.29 0 3.47 1.35 6.47 5.06 6.47a4.28 4.28 0 004.37-4.6c0-2.43-1.29-4.24-3.39-4.24"/></g><g id="g14637"><path id="path14639" class="cls-1" d="M9.9 20.87V26c2.88.43 6.32.14 8.76-3.42.1-.15.16 0 .09.09a13.32 13.32 0 01-3.67 3.76c-1.34 1-4.92 4.8-4.87 8.11 0 .25 0 .18.23 0a5 5 0 014.52-.2c.19.08.2.06.18-.18a11.43 11.43 0 011.42-7c.76-1.13 2.8-4 3.15-6.3 0-.24-.09-.2-.38.11-2.31 2.44-6.48 2.38-9.17-.21-.17-.16-.25-.08-.26.06"/></g><g id="g14641"><path id="path14643" class="cls-2" d="M29.79 30.22c0-.42 0-1.18.45-1.18s.53.64.53 1-.2.52-.5.6l-.48.13zM31 32.75a1.18 1.18 0 01-1.08-1.17l2.74-.75a2.39 2.39 0 00-2.31-2.52c-1.55 0-2.58 1.21-2.58 3A2.43 2.43 0 0030.26 34a2.73 2.73 0 002.39-1.3l-.55-.7a1.27 1.27 0 01-1.09.73"/></g></g></g></g></g></svg>