<svg xmlns="http://www.w3.org/2000/svg" viewBox="0 0 337.68 356.66"><defs><style>.cls-5{fill:#c4cdd3}.cls-6{fill:#e0393d}</style><mask id="mask" x="0" y="0" width="337.68" height="356.66" maskUnits="userSpaceOnUse"><g id="_Group_" data-name="&lt;Group&gt;"><g id="mask-2"><g id="_Group_2" data-name="&lt;Group&gt;"><path id="path-1" fill="#fff" d="M337.68 356.66H0V0h337.68v356.66z"/></g></g></g></mask></defs><g id="Layer_2" data-name="Layer 2"><g id="Layer_1-2" data-name="Layer 1"><g id="Page-1"><g id="POR"><g id="Page-1-2" data-name="Page-1"><g mask="url(#mask)" id="Group-3"><path id="Fill-1" d="M268.48 69.36L337.68 0H153.23L74.39 61.86a150.17 150.17 0 00-20.67 20.28 148.14 148.14 0 00-34.59 95.06c0 4.39.2 8.83.58 13.2a146.68 146.68 0 0049.44 97L0 356.66h183.53l78.82-61.87A150.72 150.72 0 00283 274.51a148.25 148.25 0 0034.58-95.07c0-4.39-.2-8.84-.58-13.18a149 149 0 00-48.55-96.9" fill="#fefefe"/></g><path id="Fill-4" d="M260.25 69.66l63.9-64h-29.52L242.4 50.67l45.28-45.05h-28.33L208.8 50.79l45.39-45.17h-27.05l-52.31 45.11 45.32-45.11h-26.88l-52.44 45.23 45.45-45.23h-31.12L77.92 66.24a142.66 142.66 0 00-53.19 111c0 4.24.2 8.51.57 12.71A140.24 140.24 0 0077.46 287l-63.92 64h30.84l52.22-45-45.26 45h26.73l52.38-45.17L85.05 351H112l52.3-45.13L118.94 351h27.34l52.43-45.24L153.28 351h28.33l77.21-60.62a144.72 144.72 0 0019.92-19.52A142.67 142.67 0 00312 179.44c0-4.22-.2-8.5-.57-12.68a142.91 142.91 0 00-51.19-97.1" fill="#051821"/><path id="Fill-6" class="cls-5" d="M156.56 212.42l11.23-11.24c-12.83-4-20.06-12.74-20.06-24a20.36 20.36 0 016.42-14.85L300.08 16.12H292l-137.37 124-11.75 10.6a36.6 36.6 0 00-11.33 26.49 37.41 37.41 0 00.68 7.07c2.58 13.14 13.44 24.26 24.37 28.15"/><path id="Fill-8" class="cls-5" d="M139.57 229.44l11.06-11.07C133.47 209.62 124 195.1 124 177.19a44 44 0 0112.59-30.84L266.47 16.12h-7.53L137.36 123.69c-1.67 1.36-12 10.82-13.4 12.47a59.89 59.89 0 00-16.22 41 53.63 53.63 0 00.64 8.26 59.12 59.12 0 0031.19 44"/><path id="Fill-10" class="cls-5" d="M122.26 246.78l11.23-11.23c-20.84-12.88-33.29-33.78-33.29-58.35a67.76 67.76 0 0118.8-46.85L232.87 16.12H226l-105.85 91.15c-3.36 2.7-12.33 11-15.1 14.34A83.65 83.65 0 0084 177.2a73.18 73.18 0 00.62 9.42 82.68 82.68 0 0037.68 60.16"/><path id="Fill-12" class="cls-5" d="M104.93 264.14l11.4-11.42c-24.54-17-39.91-44.29-39.91-75.52a91.33 91.33 0 0124.93-62.84l97.9-98.25H193l-90 74.73a143.6 143.6 0 00-16.78 16.21A107.53 107.53 0 0060.2 177.2a97.18 97.18 0 00.56 10.58 107.1 107.1 0 0044.17 76.36"/><path id="Fill-14" class="cls-5" d="M36.94 189a131.88 131.88 0 0050.67 92.53l11.57-11.63A115.58 115.58 0 0183.75 98.35l81.9-82.24H160L85.69 74.42a133 133 0 00-18.44 18.09 131.4 131.4 0 00-30.83 84.69c0 4 .19 7.9.52 11.76"/><path id="Fill-16" class="cls-6" d="M182.6 144.23l-11.22 11.23c12.83 4 20.06 12.74 20.06 24a20.36 20.36 0 01-6.44 14.83L39.09 340.54h8.14l137.35-124 11.74-10.61a36.5 36.5 0 0011.34-26.49 37.57 37.57 0 00-.68-7.07c-2.58-13.13-13.45-24.24-24.38-28.14"/><path id="Fill-18" class="cls-6" d="M199.59 127.21l-11.06 11.07c17.16 8.75 26.7 23.26 26.7 41.16a44 44 0 01-12.61 30.85L72.7 340.53h7.52L201.8 233c1.69-1.35 12-10.81 13.43-12.46a59.91 59.91 0 0016.21-41.05 53.27 53.27 0 00-.65-8.24 59 59 0 00-31.2-44"/><path id="Fill-20" class="cls-6" d="M216.91 109.86l-11.22 11.24C226.53 134 239 154.88 239 179.44a67.78 67.78 0 01-18.76 46.86L106.3 340.53h6.91L219 249.37A167.52 167.52 0 00234.11 235a83.57 83.57 0 0021.1-55.59 75.27 75.27 0 00-.61-9.42 82.78 82.78 0 00-37.69-60.16"/><path id="Fill-22" class="cls-6" d="M234.24 92.51l-11.4 11.41c24.53 17 39.91 44.29 39.91 75.52a91.54 91.54 0 01-24.93 62.86l-97.92 98.23h6.31l90-74.72A143 143 0 00253 249.58a107.42 107.42 0 0026-70.14 100.38 100.38 0 00-.56-10.59 107.13 107.13 0 00-44.17-76.34"/><path id="Fill-24" class="cls-6" d="M302.23 167.69a131.92 131.92 0 00-50.67-92.53L240 86.74a115.58 115.58 0 0115.43 171.57l-81.9 82.22h5.68l74.27-58.31a132 132 0 0049.27-102.77c0-4-.18-7.89-.51-11.76"/></g></g></g></g></g></svg>