<svg xmlns="http://www.w3.org/2000/svg" viewBox="0 0 89.84 48.07"><defs><clipPath id="clip-path"><path class="cls-1" d="M48.89 12.13l-1.45 2.58-.26 2.06-2.59 4.63h-3.41l2.54-4.49v-4.78h-2.64l-1.39 2.56-.24 2.08-3.7 6.6.62 1.56h2.31l-1.05 2.66-1.97-2.13.23 3.12-3.41.15 2.71 1.9-1.93 2.88 3.12-1.02 1.28 3.09.98-3.36 3.47.89-2.24-2.59 2.76-2.29-2.85.18 3.09-3.48h4.05l4.49-7.96v-4.84h-2.52z"/></clipPath><clipPath id="clip-path-3"><path class="cls-1" d="M61.29 18.26l-5.1-.86.33-2 5.09.86a.41.41 0 01.34.47l-.19 1.2a.41.41 0 01-.4.34h-.07m-9.18 5.82l2.85.48.8-4.65 3.68.63 1.42.24a.42.42 0 01.34.48l-.61 3.49c-.12.74.3.79.49.82l2.45.44a.92.92 0 01-.1-.83l.71-4.11a.84.84 0 00-.48-.91.89.89 0 00.77-.82l.06-.36.62-3.69a1 1 0 00-.85-1.19l-10.17-1.73z"/></clipPath><clipPath id="clip-path-5"><path class="cls-1" d="M27.59 16.45l5.08-1a.43.43 0 01.49.33l.23 1.22a.41.41 0 01-.33.49l-5.09 1zm6.82-3.9l-10.14 1.92 2.22 11.66 2.84-.54-.88-4.59 7.3-1.39a1 1 0 00.83-1.21l-1-5a1 1 0 00-1-.84h-.19"/></clipPath><clipPath id="clip-path-7"><path class="cls-1" d="M68.68 16.3l-1.45 4.47-.13.39a1 1 0 00.67 1.31L71 23.52l3.1 1a.45.45 0 01.26.56L74 26.26a.41.41 0 01-.52.26l-4.2-1.36a.41.41 0 01-.27-.52l.25-.74-2.76-.9-.84 2.61a1 1 0 00.66 1.3l8.49 2.76a1 1 0 001.31-.67l1.44-4.45.16-.49a1 1 0 00-.66-1.3L71.7 21l-1-.32a.42.42 0 01-.27-.52l.39-1.16a.41.41 0 01.53-.26l4.2 1.36a.41.41 0 01.26.52l-.23.66 2.75.89.82-2.51a1 1 0 00-.67-1.3L70 15.63a1.26 1.26 0 00-.33-.05 1 1 0 00-1 .72"/></clipPath><clipPath id="clip-path-9"><path class="cls-1" d="M19.81 15.68l-8.49 2.76a1 1 0 00-.66 1.31l1.45 4.47.13.39a1 1 0 001.3.66l3.24-1.05 3.11-1a.45.45 0 01.53.31l.38 1.17a.42.42 0 01-.26.52l-4.2 1.36a.41.41 0 01-.52-.26l-.24-.75-2.75.89.85 2.61a1 1 0 001.31.67L23.48 27a1 1 0 00.66-1.3l-1.44-4.49-.16-.49a1 1 0 00-1.3-.66l-5.36 1.74-1 .32a.41.41 0 01-.52-.27L14 20.7a.41.41 0 01.26-.52l4.2-1.37a.42.42 0 01.52.27l.21.66 2.74-.89-.81-2.5a1 1 0 00-1-.72 1.25 1.25 0 00-.32 0"/></clipPath><style>.cls-1,.cls-5{fill:none}.cls-2{fill:#c4ced4}.cls-3{fill:#0a1b23}.cls-4{fill:#fff}.cls-5{stroke:#231f20;stroke-miterlimit:3.86;stroke-width:.27px}.cls-6{clip-path:url(#clip-path)}.cls-7{clip-path:url(#clip-path-3)}.cls-8{clip-path:url(#clip-path-5)}.cls-9{clip-path:url(#clip-path-7)}.cls-10{clip-path:url(#clip-path-9)}</style></defs><g id="Layer_2" data-name="Layer 2"><g id="Layer_1-2" data-name="Layer 1"><path class="cls-2" d="M86.91 15.74c.3-1 .75-2.56.75-2.56l-3.37-1.36-.43-.18.58-1.7-3.19-1c.25-.85.4-1.35.4-1.37l.35-1.3-1.26-.43A106.87 106.87 0 0044.92 0 106.73 106.73 0 009.08 5.84l-1.26.43.37 1.27s.15.52.41 1.37l-3.2 1 .6 1.73-.44.18-3.38 1.36s.46 1.56.75 2.56L0 16.79l7.22 22s1.93-.68 3-1.07l1 2.53L15 38.7l.36-.15.39 1.25 1.4-.62A69.38 69.38 0 0126.58 36c-1.69 2.53-3.5 5.21-3.5 5.21L34 37.64c.36.85 4.34 10.43 4.34 10.43l3.16-10.83L54 40.45l-5.74-6.63a67.66 67.66 0 0124.46 5.36l1.4.6.39-1.23.36.15 3.82 1.57 1-2.53c1.06.39 3 1.07 3 1.07l7.22-22-2.93-1"/><path class="cls-3" d="M85.12 16.65l.76-2.65-2.14-.86c-.55-.23-1.1-.44-1.65-.65l.58-1.7-3.14-1 .79-2.66a105.32 105.32 0 00-35.4-5.76 105.32 105.32 0 00-35.4 5.78l.79 2.66-3.14 1 .58 1.7c-.55.21-1.1.42-1.65.65L4 14l.76 2.61-2.89 1 6.28 19.31 2.92-1.05.93 2.47 2.43-1 1.76-.71c.22.68.36 1.13.41 1.27a73.55 73.55 0 0112.82-4C27.93 36.11 26 39 26 39l8.71-2.85c.06.16 3.47 8.35 3.47 8.35l2.53-8.71 9.91 2.56s-3.19-3.68-5.09-5.89c13.17-.62 25.37 4.44 27.7 5.44 0-.14.19-.59.41-1.27l1.77.71 2.42 1 .94-2.47 2.92 1.05L88 17.69l-2.88-1"/><path class="cls-4" d="M82.47 18l.78-2.68-.32-.14A103.56 103.56 0 0045 7.82a103.84 103.84 0 00-38.09 7.36l-.32.14.78 2.68-2.82 1c.23.68 4.73 14.4 5 15.12l2.83-1s.7 1.84.9 2.38l.37-.15a85.33 85.33 0 0118.65-5.47l1.45 1-3.06 4.55 5.09-1.66 2 4.94c.18-.59 1.54-5.24 1.54-5.24L45.11 35l-3.74-4.32 2.08-1.77h1.47a79.7 79.7 0 0131.31 6.49l.37.15c.2-.54.91-2.38.91-2.38l2.82 1c.24-.72 4.73-14.44 5-15.12l-2.82-1"/><path class="cls-5" d="M82.47 18l.78-2.68-.32-.14A103.56 103.56 0 0045 7.82a103.84 103.84 0 00-38.09 7.36l-.32.14.78 2.68-2.82 1c.23.68 4.73 14.4 5 15.12l2.83-1s.7 1.84.9 2.38l.37-.15a85.33 85.33 0 0118.65-5.47l1.45 1-3.06 4.55 5.09-1.66 2 4.94c.18-.59 1.54-5.24 1.54-5.24L45.11 35l-3.74-4.32 2.08-1.77h1.47a79.7 79.7 0 0131.31 6.49l.37.15c.2-.54.91-2.38.91-2.38l2.82 1c.24-.72 4.73-14.44 5-15.12z"/><path class="cls-4" d="M6.91 15.18l-.32.14.78 2.68-2.82 1c.23.68 4.73 14.4 5 15.12l2.83-1s.7 1.84.9 2.38l.37-.15a78.77 78.77 0 0162.62 0l.37.15c.2-.54.9-2.38.9-2.38l2.83 1c.24-.72 4.74-14.44 5-15.12l-2.82-1 .78-2.68-.32-.14A103.56 103.56 0 0045 7.82a103.84 103.84 0 00-38.09 7.36"/><path class="cls-2" d="M79.6 32.62l-2.78-1-.89 2.38a79.68 79.68 0 00-62 0c-.27-.69-.9-2.34-.9-2.34l-2.77 1C9.82 31.32 6.42 21 6 19.73l2.78-1S8.23 16.78 8 16a102.7 102.7 0 0137-7 102.45 102.45 0 0136.86 7c-.22.77-.79 2.72-.79 2.72l2.78 1C83.42 21 80 31.32 79.6 32.62"/><path class="cls-4" d="M64.48 25.56l1.78-10.07v-.35a2.13 2.13 0 00-.41-1.29 2.18 2.18 0 00-1.43-.9L53.13 11l-.78 4.65s-1.51 8.94-1.59 9.35l5.16.87c.11-.66.8-4.65.8-4.65l3.19.55-.07.39s-.43 2.67-.45 2.84a1.22 1.22 0 00.23 1.08 1.58 1.58 0 00.89.57L65.86 28zM61 17.61l-4.13-.69.12-.71 4.13.69zM25.25 25.3l-3-9.31a2.21 2.21 0 00-2.78-1.42L11 17.33a2.25 2.25 0 00-1.53 2.09 2.37 2.37 0 00.11.69l3 9.31a2.21 2.21 0 002.78 1.42l8.54-2.77A2.2 2.2 0 0025.36 26a2 2 0 00-.11-.68M15 21.5l-.22-.69 3.74-1.22.22.68zm1.44 4.33l-.23-.69L20 23.91l.23.69z"/><path class="cls-4" d="M37.72 18.15l-1-5a2.21 2.21 0 00-2.57-1.75l-11.24 2.14 2.14 11.29.29 1.52.21 1.15 5.15-1c-.13-.65-.89-4.63-.89-4.63L36 20.72a2.16 2.16 0 001.41-.92 2.25 2.25 0 00.38-1.3zm-9.3-.44l-.14-.71 4.13-.79.13.71z"/><path class="cls-4" d="M34.48 23.22c0 .36.32 4.36.32 4.36l-5.45.22 4.4 3.1-3.06 4.55 5.09-1.66 2.06 5c.17-.6 1.53-5.25 1.53-5.25L45.11 35l-3.74-4.32 4.46-3.79h-3.08l.65-.72h4.21l5-8.82V11h-4.4l-1.91 3.33s-.21 1.71-.25 2.07-1.67 3-2.15 3.83h-.7c.73-1.31 1.7-3 1.7-3V11h-4.51l-1.84 3.37s-.2 1.71-.24 2.08l-3.83 6.82"/><g class="cls-6"><path class="cls-3" d="M48.89 12.13l-1.45 2.58-.26 2.06-2.59 4.63h-3.41l2.54-4.49v-4.78h-2.64l-1.39 2.56-.24 2.08-3.7 6.6.62 1.56h2.31l-1.06 2.66-1.96-2.13.23 3.12-3.41.15 2.71 1.9-1.93 2.88 3.12-1.02 1.28 3.09.98-3.37 3.47.9-2.24-2.59 2.76-2.29-2.85.18 3.09-3.48h4.05l4.49-7.96v-4.84h-2.52z"/></g><g class="cls-6"><path class="cls-5" d="M48.89 12.13l-1.45 2.58-.26 2.06-2.59 4.63h-3.41l2.54-4.49v-4.78h-2.64l-1.39 2.56-.24 2.08-3.7 6.6.62 1.56h2.31l-1.06 2.66-1.96-2.13.23 3.12-3.41.15 2.71 1.9-1.93 2.88 3.12-1.02 1.28 3.09.98-3.37 3.47.9-2.24-2.59 2.76-2.29-2.85.18 3.09-3.48h4.05l4.49-7.96v-4.84h-2.52z"/></g><path class="cls-4" d="M80.12 18.37a2.16 2.16 0 00-1.28-1.09l-8.49-2.76a2.2 2.2 0 00-2.78 1.42l-3 9.31a2.06 2.06 0 00-.11.68 2.17 2.17 0 00.24 1A2.15 2.15 0 0066 28l8.49 2.76a2.18 2.18 0 001.68-.14 2.15 2.15 0 001.1-1.28l3-9.32a2.25 2.25 0 00.11-.68 2.12 2.12 0 00-.25-1m-6.55 7.37l-3.73-1.23.22-.69 3.74 1.23zm1.42-4.3l-3.75-1.23.23-.69 3.74 1.23z"/><path class="cls-2" d="M49.25 12.82l-.9 1.61h1.23l.85-1.61h-1.18zM42.78 12.82H41.5l-.89 1.61h1.33l.84-1.61zM45.06 22h-6.47l2.7-4.75H40L36.77 23h3.61l-2.64 6-1.19-1.28.12 1.62-1.78.07 1.42 1-1 1.49 1.62-.53.66 1.63.51-1.75 1.8.46-1.16-1.35 1.43-1.18-2 .12H38l4.19-6.3h3.61l3.2-5.72h-1.25zm-7.7 8.72a.45.45 0 01-.45-.44.45.45 0 01.45-.44.44.44 0 01.44.44.44.44 0 01-.44.44M41.6 15.08h-1.15l-.15 1.38h1.19l.11-1.38zM48.01 16.46h1.19l.11-1.38h-1.15l-.15 1.38z"/><path class="cls-4" d="M14.41 10c.17.6.51.66 1.28.46l1-.28c1.12-.3 1.34-.49 1.14-1.23s-.54-.8-1.85-.45c-.9.25-1 .27-1.07 0s.07-.24.26-.29l.96-.21c.38-.11.43 0 .48.17l.85-.17v-.08c-.13-.49-.31-.79-1.28-.53L15 7.66c-1.06.29-1 .68-.87 1.18.18.68.37.79 1.64.45C16.82 9 16.93 9 17 9.23s-.12.28-.3.33l-1 .27c-.24.07-.37.08-.45-.21l-.84.22z"/><path class="cls-5" d="M14.41 10c.17.6.51.66 1.28.46l1-.28c1.12-.3 1.34-.49 1.14-1.23s-.54-.8-1.85-.45c-.9.25-1 .27-1.07 0s.07-.24.26-.29l.96-.21c.38-.11.43 0 .48.17l.85-.17v-.08c-.13-.49-.31-.79-1.28-.53L15 7.66c-1.06.29-1 .68-.87 1.18.18.68.37.79 1.64.45C16.82 9 16.93 9 17 9.23s-.12.28-.3.33l-1 .27c-.24.07-.37.08-.45-.21l-.84.22z"/><path class="cls-4" d="M20.46 9.21l1-.21.14-.54 1.73-.37.37.44.95-.21-2.16-2.46-1.11.24zm1.61-2.58l.77.93-1.09.23z"/><path class="cls-5" d="M20.46 9.21l1-.21.14-.54 1.73-.37.37.44.95-.21-2.16-2.46-1.11.24-.92 3.11m1.61-2.58l.77.93-1.09.23z"/><path class="cls-4" d="M27.09 7.89l.86-.14-.32-2.04h.01l1.94 1.78 1.34-.21-.45-2.81-.86.13.32 2.05h-.01l-1.94-1.78-1.34.21.45 2.81z"/><path class="cls-5" d="M27.09 7.89l.86-.14-.32-2.04h.01l1.94 1.78 1.34-.21-.45-2.81-.86.13.32 2.05h-.01l-1.94-1.78-1.34.21.45 2.81z"/><path class="cls-4" d="M36.18 6.76h1l.23-.51 1.77-.1.29.5 1-.06-1.77-2.81-1.13.06zm2-2.29l.62 1-1.12.06z"/><path class="cls-5" d="M36.18 6.76h1l.23-.51 1.77-.1.29.5 1-.06-1.77-2.81-1.13.06-1.39 2.92m2-2.29l.62 1-1.12.06z"/><path class="cls-4" d="M42.93 6.46h.87V4.39h.01l1.64 2.07h1.35V3.61h-.87v2.08h-.01l-1.64-2.08h-1.35v2.85z"/><path class="cls-5" d="M42.93 6.46h.87V4.39h.01l1.64 2.07h1.35V3.61h-.87v2.08h-.01l-1.64-2.08h-1.35v2.85z"/><path class="cls-4" d="M49.5 4.37l1.22.07-.11 2.14.87.04.11-2.14 1.23.07.03-.71-3.32-.17-.03.7z"/><path class="cls-5" d="M49.5 4.37l1.22.07-.11 2.14.87.04.11-2.14 1.23.07.03-.71-3.32-.17-.03.7z"/><path class="cls-4" d="M55.33 5.9c-.09.83.35 1.07 1.14 1.15l1.39.15c.78.08 1.27-.07 1.36-.89l.08-.85c.09-.83-.35-1.07-1.14-1.15l-1.39-.15c-.78-.08-1.27.07-1.35.89l-.09.85m1-.48c0-.35.15-.56.6-.51l1 .1c.46 0 .52.27.49.63v.3c0 .41-.14.56-.56.52l-1.1-.12c-.42 0-.49-.2-.44-.62z"/><path class="cls-5" d="M55.33 5.9c-.09.83.35 1.07 1.14 1.15l1.39.15c.78.08 1.27-.07 1.36-.89l.08-.85c.09-.83-.35-1.07-1.14-1.15l-1.39-.15c-.78-.08-1.27.07-1.35.89l-.09.85m1-.48c0-.35.15-.56.6-.51l1 .1c.46 0 .52.27.49.63v.3c0 .41-.14.56-.56.52l-1.1-.12c-.42 0-.49-.2-.44-.62z"/><path class="cls-4" d="M61.83 7.69l.86.15.36-2.04 1.26 2.33 1.33.23.5-2.8-.87-.15-.35 2.03h-.01l-1.26-2.32-1.33-.24-.49 2.81z"/><path class="cls-5" d="M61.83 7.69l.86.15.36-2.04 1.26 2.33 1.33.23.5-2.8-.87-.15-.35 2.03h-.01l-1.26-2.32-1.33-.24-.49 2.81z"/><path class="cls-4" d="M68.41 8.92l.86.18.59-2.78-.86-.19-.59 2.79z"/><path class="cls-5" d="M68.41 8.92l.86.18.59-2.78-.86-.19-.59 2.79z"/><path class="cls-4" d="M72.22 8.8c-.21.8.19 1.11 1 1.32l1.35.36c.76.2 1.26.13 1.48-.67l.17-.81c.21-.81-.19-1.12-1-1.32l-1.35-.36c-.76-.21-1.26-.14-1.48.67l-.22.82m1-.33c.09-.34.23-.52.68-.41l1 .27c.45.11.48.35.38.69l-.07.3c-.11.4-.24.53-.64.42l-1.08-.29c-.39-.11-.43-.28-.33-.68z"/><path class="cls-5" d="M72.22 8.8c-.21.8.19 1.11 1 1.32l1.35.36c.76.2 1.26.13 1.48-.67l.17-.81c.21-.81-.19-1.12-1-1.32l-1.35-.36c-.76-.21-1.26-.14-1.48.67l-.22.82m1-.33c.09-.34.23-.52.68-.41l1 .27c.45.11.48.35.38.69l-.07.3c-.11.4-.24.53-.64.42l-1.08-.29c-.39-.11-.43-.28-.33-.68z"/><path class="cls-4" d="M14.41 10c.17.6.51.66 1.28.46l1-.28c1.12-.3 1.34-.49 1.14-1.23s-.54-.8-1.85-.45c-.9.25-1 .27-1.07 0s.07-.24.26-.29l.96-.21c.38-.11.43 0 .48.17l.85-.17v-.08c-.13-.49-.31-.79-1.28-.53L15 7.66c-1.06.29-1 .68-.87 1.18.18.68.37.79 1.64.45C16.82 9 16.93 9 17 9.23s-.12.28-.3.33l-1 .27c-.24.07-.37.08-.45-.21l-.84.22zM20.46 9.21l1-.21.14-.54 1.73-.37.37.44.95-.21-2.16-2.46-1.11.24zm1.61-2.58l.77.93-1.09.23zM27.09 7.89l.86-.14-.32-2.04h.01l1.94 1.78 1.34-.21-.45-2.81-.86.13.32 2.05h-.01l-1.94-1.78-1.34.21.45 2.81zM36.18 6.76h1l.23-.51 1.77-.1.29.5 1-.06-1.77-2.81-1.13.06zm2-2.29l.62 1-1.12.06zM42.93 6.46h.87V4.39h.01l1.64 2.07h1.35V3.61h-.87v2.08h-.01l-1.64-2.08h-1.35v2.85zM49.5 4.37l1.22.07-.11 2.14.87.04.11-2.14 1.23.07.03-.71-3.32-.17-.03.7zM55.33 5.9c-.09.83.35 1.07 1.14 1.15l1.39.15c.78.08 1.27-.07 1.36-.89l.08-.85c.09-.83-.35-1.07-1.14-1.15l-1.39-.15c-.78-.08-1.27.07-1.35.89l-.09.85m1-.48c0-.35.15-.56.6-.51l1 .1c.46 0 .52.27.49.63v.3c0 .41-.14.56-.56.52l-1.1-.12c-.42 0-.49-.2-.44-.62zM61.83 7.69l.86.15.36-2.04 1.26 2.33 1.33.23.5-2.8-.87-.15-.35 2.03h-.01l-1.26-2.32-1.33-.24-.49 2.81zM68.41 8.92l.86.18.59-2.78-.86-.19-.59 2.79zM72.22 8.8c-.21.8.19 1.11 1 1.32l1.35.36c.76.2 1.26.13 1.48-.67l.17-.81c.21-.81-.19-1.12-1-1.32l-1.35-.36c-.76-.21-1.26-.14-1.48.67l-.22.82m1-.33c.09-.34.23-.52.68-.41l1 .27c.45.11.48.35.38.69l-.07.3c-.11.4-.24.53-.64.42l-1.08-.29c-.39-.11-.43-.28-.33-.68z"/><g class="cls-7"><path class="cls-3" d="M64.26 14.1l-10.17-1.72-2 11.7 2.85.48.8-4.64 3.68.62 1.42.24a.43.43 0 01.34.48l-.61 3.49c-.12.74.3.79.49.82l2.45.44a.92.92 0 01-.1-.83l.71-4.11a.86.86 0 00-.48-.92.88.88 0 00.77-.81l.06-.36.62-3.69a1 1 0 00-.85-1.19M62 16.72l-.19 1.2a.41.41 0 01-.47.34l-5.1-.86.33-2 5.09.86a.41.41 0 01.34.47"/></g><g class="cls-7"><path class="cls-5" d="M64.26 14.1l-10.17-1.72-2 11.7 2.85.48.8-4.64 3.68.62 1.42.24a.43.43 0 01.34.48l-.61 3.49c-.12.74.3.79.49.82l2.45.44a.92.92 0 01-.1-.83l.71-4.11a.86.86 0 00-.48-.92.88.88 0 00.77-.81l.06-.36.62-3.69a1 1 0 00-.83-1.19zM62 16.72l-.19 1.2a.41.41 0 01-.47.34l-5.1-.86.33-2 5.09.86a.41.41 0 01.34.46z"/></g><g class="cls-8"><path class="cls-3" d="M28 18.44l5.09-1a.41.41 0 00.33-.49l-.23-1.18a.43.43 0 00-.49-.33l-5.08 1 .38 2m1.36 7.15l-2.84.54-2.24-11.66 10.13-1.92a1 1 0 011.21.82l1 5a1 1 0 01-.82 1.21L28.45 21z"/></g><g class="cls-8"><path class="cls-5" d="M28 18.44l5.09-1a.41.41 0 00.33-.49l-.23-1.18a.43.43 0 00-.49-.33l-5.08 1 .38 2m1.36 7.15l-2.84.54-2.24-11.66 10.13-1.92a1 1 0 011.21.82l1 5a1 1 0 01-.82 1.21L28.45 21z"/></g><g class="cls-9"><path class="cls-3" d="M74.11 24.53a.45.45 0 01.26.56L74 26.26a.41.41 0 01-.52.26l-4.2-1.36a.41.41 0 01-.27-.52l.25-.74-2.76-.9-.84 2.6a1 1 0 00.66 1.3l8.49 2.76a1 1 0 001.31-.66l1.44-4.45.16-.49a1 1 0 00-.66-1.3L71.7 21l-1-.32a.42.42 0 01-.27-.52l.39-1.16a.41.41 0 01.53-.26l4.19 1.36a.41.41 0 01.27.52l-.24.66 2.76.89.82-2.51a1 1 0 00-.67-1.3L70 15.63a1 1 0 00-1.31.67l-1.45 4.47-.13.39a1 1 0 00.67 1.31L71 23.52z"/></g><g class="cls-9"><path class="cls-5" d="M74.11 24.53a.45.45 0 01.26.56L74 26.26a.41.41 0 01-.52.26l-4.2-1.36a.41.41 0 01-.27-.52l.25-.74-2.76-.9-.84 2.6a1 1 0 00.66 1.3l8.49 2.76a1 1 0 001.31-.66l1.44-4.45.16-.49a1 1 0 00-.66-1.3L71.7 21l-1-.32a.42.42 0 01-.27-.52l.39-1.16a.41.41 0 01.53-.26l4.19 1.36a.41.41 0 01.27.52l-.24.66 2.76.89.82-2.51a1 1 0 00-.67-1.3L70 15.63a1 1 0 00-1.31.67l-1.45 4.47-.13.39a1 1 0 00.67 1.31L71 23.52z"/></g><g class="cls-10"><path class="cls-3" d="M16.78 24.22l-3.24 1.06a1 1 0 01-1.3-.67l-.13-.39-1.45-4.47a1 1 0 01.66-1.31l8.49-2.76a1 1 0 011.31.67l.81 2.5-2.74.89-.19-.66a.41.41 0 00-.52-.27l-4.2 1.37a.41.41 0 00-.26.52l.37 1.15a.42.42 0 00.52.27l1-.32 5.36-1.74a1 1 0 011.3.66l.16.49 1.44 4.45a1 1 0 01-.69 1.34L15 29.73a1 1 0 01-1.31-.67l-.85-2.6 2.75-.9.24.75a.41.41 0 00.52.26l4.2-1.36a.42.42 0 00.26-.52l-.38-1.17a.45.45 0 00-.53-.31z"/></g><g class="cls-10"><path class="cls-5" d="M16.78 24.22l-3.24 1.06a1 1 0 01-1.3-.67l-.13-.39-1.45-4.47a1 1 0 01.66-1.31l8.49-2.76a1 1 0 011.31.67l.81 2.5-2.74.89-.19-.66a.41.41 0 00-.52-.27l-4.2 1.37a.41.41 0 00-.26.52l.37 1.15a.42.42 0 00.52.27l1-.32 5.36-1.74a1 1 0 011.3.66l.16.49 1.44 4.45a1 1 0 01-.69 1.34L15 29.73a1 1 0 01-1.31-.67l-.85-2.6 2.75-.9.24.75a.41.41 0 00.52.26l4.2-1.36a.42.42 0 00.26-.52l-.38-1.17a.45.45 0 00-.53-.31z"/></g></g></g></svg>