<svg xmlns="http://www.w3.org/2000/svg" viewBox="0 0 112.22 50.99"><defs><clipPath id="clip-path"><path fill="none" d="M0 50.99h112.22V0H0v50.99z"/></clipPath><style>.cls-2{fill:#fff}.cls-4{fill:#0c2340}.cls-5{fill:#00471b}</style></defs><g id="Layer_2" data-name="Layer 2"><g id="Layer_1-2" data-name="Layer 1"><g id="layer1"><g id="g3286"><g id="g3083"><path id="path3085" class="cls-2" d="M81.41 45.44h-6.67v-.07l10.44-23.83H92zm-44.26-8.75l1.74-3.79.82 3.79zm61.07 8.74l11.89-27.17.57-1.3H55.19l-.27.48-1.55 2.77-.76 1.38h15.91l-9.67 21.76-7.8-25.78-.2-.65H39.68l-.24.56-13.95 31.81-.57 1.3h6.47l.23-.59 3.07-7.76H41l2.27 7.69.2.66H110l.25-.56 1.42-3.29.56-1.3z"/></g><g clip-path="url(#clip-path)" id="g3087"><g id="g3089"><g id="g3095"><path id="path3097" class="cls-2" d="M40.21 0L40 .55c-.91 2-11.28 25.09-11.39 25.32a3.92 3.92 0 01-.91 1.21c-.18-.25-.36-.5-.56-.73s-.35-.42-.53-.62c-.09-.1-.18-.21-.28-.31l-.33-.29-.59-.58a15.09 15.09 0 105.12 11.3v-.59c1.52-3.39 8-17.66 8.37-18.58s.49-1.15 2-1.29c.37 0 2.38-.08 11.52-.08h17.75l.24-.56 5.76-13.46.55-1.29z"/></g><g id="g3099"><path id="path3101" class="cls-4" d="M35.68 37.61l3.5-7.61 1.65 7.62zm10.2-19.67h-5.67l-13.9 31.72h4.43L34 41.31h7.62l2.46 8.35h11.37z"/></g><g id="g3103"><path id="path3105" class="cls-4" d="M81.48 17.84H55.73l-1.55 2.78h15.76l-12.87 29h22l1.44-3.3H69z"/></g><g id="g3107"><path id="path3109" class="cls-5" d="M85.8 17.84h-2.36L71.29 45h2.88z"/></g><g id="g3111"><path id="path3113" class="cls-4" d="M105 17.84H87.45l-1.35 2.78h7.31l-12.86 29h28.84l1.43-3.3H92.5z"/></g><g id="g3115"><path id="path3117" class="cls-5" d="M109.28 17.84h-2.37L95 45h2.4z"/></g><g id="g3119"><path id="path3121" class="cls-2" d="M29.62 35.86a14.29 14.29 0 11-14.29-14.17 14.23 14.23 0 0114.29 14.17"/></g><g id="g3123"><path id="path3125" class="cls-4" d="M10.14 35.38a13.88 13.88 0 00-4.82-9.63l-.32.32a14 14 0 00-3.95 9.31z"/></g><g id="g3127"><path id="path3129" class="cls-4" d="M4.26 44.81l.66.77.61.59a14.17 14.17 0 004.61-9.51H1.07a13.78 13.78 0 003.19 8.15"/></g><g id="g3131"><path id="path3133" d="M6.21 24.92l-.08.08-.07.07a14.22 14.22 0 015 10.26h3.5V21.71a13.84 13.84 0 00-8.35 3.21m.09 21.91A14.26 14.26 0 0014.56 50V36.59h-3.5A14.26 14.26 0 016.3 46.83" fill="#f9a01b"/></g><g id="g3135"><path id="path3137" class="cls-4" d="M25.11 46.21l.54-.55s.24-.24.54-.58a14 14 0 003.42-8.42h-9a14.23 14.23 0 004.55 9.55"/></g><g id="g3139"><path id="path3141" class="cls-5" d="M19.36 36.61h-3.58V50a14.19 14.19 0 008.44-3.08 14.51 14.51 0 01-4.87-10.33m5.11-11.54l.05-.06-.12-.1a14.28 14.28 0 00-8.57-3.17v13.66h3.59a14.37 14.37 0 015.1-10.31"/></g><g id="g3143"><path id="path3145" class="cls-5" d="M50.17 17.84h-2.39l8.87 29.26 1.41-3.2z"/></g><g id="g3147"><path id="path3149" class="cls-4" d="M40.81.92C39.89 3 29.42 26.25 29.42 26.25a5.35 5.35 0 01-1.78 2l-.15.1-.27-.35a11.23 11.23 0 00-1.61-2l-.23-.24a13.9 13.9 0 00-4.84 9.61h9.07v-.47c.09-.19 8-17.45 8.39-18.53s1-1.71 2.82-1.88c1.66-.13 22.19-.07 24.44-.05L71 .92z"/></g><g id="g3151"><path id="path3153" class="cls-5" d="M75.32.92H73l-5.81 13.53h2.37z"/></g></g></g></g></g></g></g></svg>