<svg xmlns="http://www.w3.org/2000/svg" viewBox="0 0 71.74 66.09"><defs><style>.cls-1{fill:#e31837}.cls-2{fill:#002b5c}</style></defs><g id="Layer_2" data-name="Layer 2"><g id="Layer_1-2" data-name="Layer 1"><g id="layer1"><g id="g50141"><g id="g40053"><path id="path40055" class="cls-1" d="M71.66 4.51a3.21 3.21 0 00-.78-1.44.22.22 0 00-.34 0 3.11 3.11 0 01-2.06 1.1l.14 1 2.8-.41a.31.31 0 01.29.13c.08.1 0-.37 0-.39"/></g><g id="g40073"><path id="path40075" class="cls-1" d="M70.93 7a.31.31 0 01.12.24c0 .1 0 .13.16-.09a3.3 3.3 0 00.53-1.62.38.38 0 00-.44-.38l-2.63.38.12.89a3.62 3.62 0 012.14.58"/></g><g id="g49792"><g id="g39961"><path id="path39963" class="cls-2" d="M15.26 33.24a.13.13 0 010-.06 22.91 22.91 0 01-.15-8.09v-.1a10.81 10.81 0 01-3.86 2.7 24.2 24.2 0 00.25 5.87 34.79 34.79 0 00.88 3.63c1-.8 2.18-1.6 3.35-2.36z"/></g><g id="g39965"><path id="path39967" class="cls-2" d="M10.82 34.49a20.75 20.75 0 01-.39-6.49 1.93 1.93 0 01-2.2-.34l-.09-.11v.07a21.72 21.72 0 00.39 10l.69 2.11c.75-.67 1.59-1.37 2.51-2.09-.1-.31-.61-1.84-.9-3.21"/></g><g id="g39969"><path id="path39971" class="cls-1" d="M16.4 31.62c.12.55.27.4.27.4a57.64 57.64 0 0111.38-5.5c-.43-1.2-1.49-4.2-1.6-4.51-1.47.64-2.91 1.29-4.29 2a26.68 26.68 0 013.11-5.35c-1-2.88-1.86-5.24-2.27-6.41-1.47 1.56-8.44 9.58-6.7 18.82zm32.65-16.8a74.86 74.86 0 00-4.91 8.33l11.46-2.22 6.69-8.7c-1.87.28-6.93 1.11-13.24 2.59m-6.69 12l-.1.22C39.33 33.41 37 40.38 37 45.19l15.62-20.37zM7.73 43A47.59 47.59 0 00.42 54c-.29.58-.42.9-.42.9l7.57-6.36c.44-.39 2.09-1.73 2.17-1.79 4.34-3.33 9.72-6.13 17.76-8.67 1.51-.52 2.9-.94 4.15-1.29-.68-1.95-1.58-4.51-2.55-7.26C21.66 31.5 13.25 37.29 7.73 43m34.13-30.16l-.71.59.16-.87-.81-.46.94-.12.2-.88.41.8 1-.09-.68.62.38.82zm4.89-4.13a26.78 26.78 0 012.37 1.59 32.05 32.05 0 00-1.89-3.67 22.62 22.62 0 00-9.73 8.28l5.21-1.07a21.73 21.73 0 014-5.13"/></g><g id="g39973"><path id="path39975" class="cls-2" d="M16.79 47.51a1.37 1.37 0 00-.46 1 3 3 0 00.23 1.23h.09a22.2 22.2 0 006.61 2.94l.25.06a21.14 21.14 0 01-6.72-5.29"/></g><g id="g39977"><path id="path39979" class="cls-2" d="M16.22 46.82c-.5-.62-1-1.24-1.38-1.88q-1.14.7-2.16 1.44A20.54 20.54 0 0015.46 49h.06a3.62 3.62 0 010-.57 2.32 2.32 0 01.72-1.61"/></g><g id="g39981"><path id="path39983" class="cls-2" d="M26.65 46.92l-.41-.17c-3.47-.84-7.14-.63-8.72.3a19.28 19.28 0 0011 6.47h.35a26.51 26.51 0 0014.8-4.18A28.48 28.48 0 0047 46.88a27.91 27.91 0 01-20.33 0"/></g><g id="g39985"><path id="path39987" class="cls-2" d="M37.43 31.64a20.18 20.18 0 010-8.72c-2 2.53-4.1 9.35-4.1 9.35-.5-6.12 1.67-10.57 3.38-14.13-2.8.9-5.94 2-9.25 3.42 1.85 5.23 4 11.2 5.24 14.91.57-.16 1.07-.3 1.55-.42v-.09a20.28 20.28 0 011.24-4.46 31.65 31.65 0 00.54 4.12l1.78-.35a83.38 83.38 0 013.43-8.7 85.12 85.12 0 016.23-11.37c-.83.19-2.55.6-4.91 1.23a39.42 39.42 0 00-5.13 15.21"/></g><g id="g39989"><path id="path39991" class="cls-2" d="M66.57 11.21l-1.32-.57A4.11 4.11 0 0064 12.51l-.6.18-2.17 2.78c6.27-1.87 6.82-3.08 7.77-6.28a10.61 10.61 0 01-2.45 2"/></g><g id="g39993"><path id="path39995" class="cls-2" d="M39.14 18.06A10.63 10.63 0 0141.05 17l-1.89.51v.58"/></g><g id="g39997"><path id="path39999" class="cls-2" d="M41.15 13.44l.71-.6.84.41-.38-.81.68-.63-1 .09-.41-.8-.21.88-.94.13.82.45z"/></g><g id="g40001"><path id="path40003" class="cls-2" d="M41.53 16.2l1-.36-.14-1.51-4.28 1.1-.15.72c-.11-.33-.12-.44-.22-.45-.37 0-.23.34-.26.42s.15.8.38.89v.62l1.14-.34.44-.37 1.89-.38zm-.5-.57l-1.35-.05 1.46-.51a.41.41 0 01-.11.56"/></g><g id="g40005"><path id="path40007" class="cls-2" d="M15.45 23.32a.5.5 0 000-.13A24 24 0 0126.75 8a22.61 22.61 0 00-4.63 1.68 26.49 26.49 0 00-5 3.2L17 13a29.2 29.2 0 00-5.57 13.65 11.46 11.46 0 004.07-3.36"/></g><g id="g40009"><path id="path40011" class="cls-2" d="M8.81 27.06c.43.3.9.31 1.72 0a31.2 31.2 0 013.72-11.45l-.17.18a25.17 25.17 0 00-5.68 10.6v.1a1 1 0 00.43.57"/></g><g id="g40013"><path id="path40015" class="cls-2" d="M15.56 44.5c.42.62.87 1.24 1.37 1.85 1.33-.88 3.85-1.2 6.51-1l-.1-.05a19.39 19.39 0 01-3.86-2.92c-1.41.67-2.71 1.37-3.92 2.09"/></g><g id="g40017"><path id="path40019" class="cls-2" d="M28.51 8.25a11.92 11.92 0 00-4.65 3.14l.8 2.24.4-.48s1.75-.52 2.54-.8l-.29-2.25 1-1.12z"/></g><g id="g40021"><path id="path40023" class="cls-2" d="M43 65.66l-.7-1.74a1.33 1.33 0 00.8-.27 3 3 0 00.6-1.44s.25-1.3.28-1.5a.78.78 0 00-.24-.79 1.84 1.84 0 00-1-.2h-5.28a.87.87 0 01.39.75l-1.22 5.61h1.28c.26 0 .45 0 .57-.2l.41-1.9h1.59l.71 2.1h2.29a1.22 1.22 0 01-.46-.42m-.87-4.07a2.52 2.52 0 01-.21.71.4.4 0 01-.32.17h-1.75a1.23 1.23 0 00-.76.47l.36-1.69h2.42c.19 0 .27.11.26.34"/></g><g id="g40025"><path id="path40027" class="cls-2" d="M34.88 59.72h-2a.66.66 0 00-.58.26l-2.83 5.48a1.89 1.89 0 01-.58.62h1.93a.61.61 0 00.48-.33l.39-.78h2.42l.13.6a.51.51 0 01-.36.51h2.5zm-2.46 3.72l1-2 .43 2z"/></g><g id="g40029"><path id="path40031" class="cls-2" d="M51.41 60.71a.8.8 0 00-.24-.79 1.84 1.84 0 00-1-.2h-5.34a1 1 0 01.38.76l-1.05 5a1.56 1.56 0 01-.51.65h5.19a1.91 1.91 0 001.28-.33 2.87 2.87 0 00.61-1.44l.56-3c.07-.31.09-.44.12-.64m-1.86.88c0 .13-.53 2.71-.61 2.82a.39.39 0 01-.32.17h-2.47l.51-2.4c0-.15.11-.52.19-.93h2.44c.19 0 .27.11.26.34"/></g><g id="g40033"><path id="path40035" class="cls-2" d="M58.46 59.71h-4.11a3.16 3.16 0 00-1.75.35 2.34 2.34 0 00-.73 1.46l-.12.63a1 1 0 000 .28 1.13 1.13 0 00.37.85 2 2 0 001.34.39h2.64c.36 0 .53.13.53.37a.41.41 0 01-.05.19s-.1.31-.82.31h-3.85c-.39 0-.57-.63-.57-.63L51 65.58c0 .38.21.5.55.5h4.25a3.21 3.21 0 001.75-.35 2.24 2.24 0 00.69-1.42s.11-.55.13-.71A1.25 1.25 0 0057 62.14h-2.84c-.39 0-.58-.12-.58-.36v-.11c0-.15.11-.43.67-.43H58c.42 0 .68.58.68.58s.22-1 .33-1.59c.07-.32-.16-.52-.5-.52"/></g><g id="g40037"><path id="path40039" class="cls-2" d="M19.58 59.73c-.2 0-.42 0-.51.16l-2.2 4.46-.42-4c0-.38.48-.6.48-.6h-1.67a.74.74 0 00-.67.29l-2.28 4.33-.16-4c.06-.32.51-.57.51-.57h-1.84c-.66 0-.65.43-.65.43l.46 5.92h2c.27 0 .4 0 .54-.24L15 62.38l.19 3.7h2.15a.64.64 0 00.58-.23l2.9-5.49a2.19 2.19 0 01.58-.64h-1.82"/></g><g id="g40041"><path id="path40043" class="cls-2" d="M22.13 65.49s1.07-5.07 1.13-5.3a1.07 1.07 0 01.38-.45h-1.73s-.36-.07-.52.76l-1.18 5.59h2a1.33 1.33 0 010-.59"/></g><g id="g40045"><path id="path40047" class="cls-2" d="M29.76 61l.24-1.27h-5.56c-.4 0-.55.32-.65.65l-.18.87-.08.36a1.36 1.36 0 01.74-.36h2.92L22.79 65l-.21 1h5.54c.31 0 .53 0 .63-.36l.34-1.6a1.32 1.32 0 01-.76.43h-2.69z"/></g><g id="g40049"><path id="path40051" class="cls-1" d="M66 3.72c-.23-.16-.06-.48-.25-.18a3.33 3.33 0 00-.44 1.32c0 .52.13.74.35.72l2.73-.4-.14-1A3.32 3.32 0 0166 3.72"/></g><g id="g40057"><path id="path40059" class="cls-1" d="M70.27 2.9c.2-.19.39 0 .25-.16l-.08-.07A3.27 3.27 0 0068.29 2h-.12l.26 1.82a3.18 3.18 0 001.84-1"/></g><g id="g40061"><path id="path40063" class="cls-1" d="M67.7 2.11a3.26 3.26 0 00-1.5.83.39.39 0 00.07.63 3.65 3.65 0 001.86.34l-.27-1.84h-.16"/></g><g id="g40065"><path id="path40067" class="cls-1" d="M66.7 7.65c-.2.21-.32.08-.35.11s.15.14.15.14a3.29 3.29 0 002 .66h.25l-.27-1.85a3 3 0 00-1.83 1"/></g><g id="g40069"><path id="path40071" class="cls-1" d="M69.25 8.47l.4-.13a3.16 3.16 0 001-.6.36.36 0 000-.6 3 3 0 00-1.8-.49l.27 1.85h.14"/></g><g id="g40077"><path id="path40079" class="cls-1" d="M65.53 5.94a.24.24 0 01-.24-.13c-.06-.07 0 .05 0 .25A3.19 3.19 0 0066 7.45a.36.36 0 00.43 0 3.28 3.28 0 012-1l-.13-.89z"/></g><g id="g40081"><path id="path40083" class="cls-1" d="M38.49 4.29l-5.06 1.36 1.78-3.21-3.08 2.41L33 0l-1.76 4.16-1.72-2.45.88 3.72-4-.55 3.45 1.86-1.34 1.51-.16.75 1.89-.42-.1 3.57 1.91-3.72 2.22 2.44L33 7.47z"/></g></g></g></g></g></g></svg>